<?xml version="1.0" encoding="UTF-8" standalone="no"?>
<!DOCTYPE svg PUBLIC "-//W3C//DTD SVG 1.1//EN"
 "http://www.w3.org/Graphics/SVG/1.1/DTD/svg11.dtd">
<!-- Generated by graphviz version 2.40.1 (20161225.0304)
 -->
<!-- Title: oneDegreeRelationshipsDiagram Pages: 1 -->
<svg width="397pt" height="250pt"
 viewBox="0.00 0.00 397.00 250.20" xmlns="http://www.w3.org/2000/svg" xmlns:xlink="http://www.w3.org/1999/xlink">
<g id="graph0" class="graph" transform="scale(1 1) rotate(0) translate(4 246.2)">
<title>oneDegreeRelationshipsDiagram</title>
<polygon fill="#ffffff" stroke="transparent" points="-4,4 -4,-246.2 393,-246.2 393,4 -4,4"/>
<text text-anchor="middle" x="72.4936" y="-7.3" font-family="Helvetica,sans-Serif" font-size="11.00" fill="#000000">Generated by SchemaSpy</text>
<!-- adgroups_cpvs -->
<g id="node1" class="node">
<title>adgroups_cpvs</title>
<g id="a_node1"><a xlink:href="../../tables/adgroups_cpvs.html" xlink:title="adgroups_cpvs" target="_top">
<polygon fill="#ffffff" stroke="transparent" points="202,-38.2 202,-238.2 381,-238.2 381,-38.2 202,-38.2"/>
<polygon fill="#f5f5f5" stroke="transparent" points="204.5,-213.2 204.5,-236.2 379.5,-236.2 379.5,-213.2 204.5,-213.2"/>
<polygon fill="none" stroke="#000000" points="204.5,-213.2 204.5,-236.2 379.5,-236.2 379.5,-213.2 204.5,-213.2"/>
<text text-anchor="start" x="209.5" y="-222.3" font-family="Helvetica,sans-Serif" font-weight="bold" font-size="11.00" fill="#000000">adgroups_cpvs</text>
<text text-anchor="start" x="344.5437" y="-221.3" font-family="Helvetica,sans-Serif" font-size="11.00" fill="#000000">[table]</text>
<polygon fill="none" stroke="#000000" points="204.5,-191.2 204.5,-213.2 313.5,-213.2 313.5,-191.2 204.5,-191.2"/>
<image xlink:href="../../images/primaryKeys.png" width="11px" height="12px" preserveAspectRatio="xMinYMin meet" x="209.5" y="-208.2"/>
<text text-anchor="start" x="224.5" y="-198.3" font-family="Helvetica,sans-Serif" font-size="11.00" fill="#000000">id</text>
<polygon fill="none" stroke="#000000" points="313.5,-191.2 313.5,-213.2 379.5,-213.2 379.5,-191.2 313.5,-191.2"/>
<text text-anchor="start" x="316.5" y="-198.9" font-family="Helvetica,sans-Serif" font-size="11.00" fill="#000000">int[10]</text>
<polygon fill="#ffffff" stroke="transparent" points="204.5,-169.2 204.5,-191.2 313.5,-191.2 313.5,-169.2 204.5,-169.2"/>
<polygon fill="none" stroke="#000000" points="204.5,-169.2 204.5,-191.2 313.5,-191.2 313.5,-169.2 204.5,-169.2"/>
<image xlink:href="../../images/foreignKeys.png" width="11px" height="12px" preserveAspectRatio="xMinYMin meet" x="209.5" y="-186.2"/>
<text text-anchor="start" x="224.5" y="-176.3" font-family="Helvetica,sans-Serif" font-size="11.00" fill="#000000">adgroup_id</text>
<polygon fill="none" stroke="#000000" points="313.5,-169.2 313.5,-191.2 379.5,-191.2 379.5,-169.2 313.5,-169.2"/>
<text text-anchor="start" x="316.5" y="-176.9" font-family="Helvetica,sans-Serif" font-size="11.00" fill="#000000">int[10]</text>
<polygon fill="none" stroke="#000000" points="204.5,-147.2 204.5,-169.2 313.5,-169.2 313.5,-147.2 204.5,-147.2"/>
<text text-anchor="start" x="224.5" y="-154.3" font-family="Helvetica,sans-Serif" font-size="11.00" fill="#000000">sec</text>
<polygon fill="none" stroke="#000000" points="313.5,-147.2 313.5,-169.2 379.5,-169.2 379.5,-147.2 313.5,-147.2"/>
<text text-anchor="start" x="316.5" y="-154.9" font-family="Helvetica,sans-Serif" font-size="11.00" fill="#000000">int[10]</text>
<polygon fill="none" stroke="#000000" points="204.5,-125.2 204.5,-147.2 313.5,-147.2 313.5,-125.2 204.5,-125.2"/>
<text text-anchor="start" x="224.5" y="-132.3" font-family="Helvetica,sans-Serif" font-size="11.00" fill="#000000">cpv</text>
<polygon fill="none" stroke="#000000" points="313.5,-125.2 313.5,-147.2 379.5,-147.2 379.5,-125.2 313.5,-125.2"/>
<text text-anchor="start" x="316.2346" y="-132.9" font-family="Helvetica,sans-Serif" font-size="11.00" fill="#000000">double[20,6]</text>
<polygon fill="none" stroke="#000000" points="204.5,-103.2 204.5,-125.2 313.5,-125.2 313.5,-103.2 204.5,-103.2"/>
<text text-anchor="start" x="224.5" y="-110.3" font-family="Helvetica,sans-Serif" font-size="11.00" fill="#000000">created_at</text>
<polygon fill="none" stroke="#000000" points="313.5,-103.2 313.5,-125.2 379.5,-125.2 379.5,-103.2 313.5,-103.2"/>
<text text-anchor="start" x="316.2401" y="-110.9" font-family="Helvetica,sans-Serif" font-size="11.00" fill="#000000">datetime[19]</text>
<polygon fill="none" stroke="#000000" points="204.5,-81.2 204.5,-103.2 313.5,-103.2 313.5,-81.2 204.5,-81.2"/>
<text text-anchor="start" x="224.5" y="-88.3" font-family="Helvetica,sans-Serif" font-size="11.00" fill="#000000">updated_at</text>
<polygon fill="none" stroke="#000000" points="313.5,-81.2 313.5,-103.2 379.5,-103.2 379.5,-81.2 313.5,-81.2"/>
<text text-anchor="start" x="316.2401" y="-88.9" font-family="Helvetica,sans-Serif" font-size="11.00" fill="#000000">datetime[19]</text>
<polygon fill="none" stroke="#000000" points="204.5,-59.2 204.5,-81.2 313.5,-81.2 313.5,-59.2 204.5,-59.2"/>
<text text-anchor="start" x="224.5" y="-66.3" font-family="Helvetica,sans-Serif" font-size="11.00" fill="#000000">deleted_at</text>
<polygon fill="none" stroke="#000000" points="313.5,-59.2 313.5,-81.2 379.5,-81.2 379.5,-59.2 313.5,-59.2"/>
<text text-anchor="start" x="316.2401" y="-66.9" font-family="Helvetica,sans-Serif" font-size="11.00" fill="#000000">datetime[19]</text>
<polygon fill="#ffffff" stroke="transparent" points="204.5,-40.2 204.5,-59.2 250.5,-59.2 250.5,-40.2 204.5,-40.2"/>
<polygon fill="none" stroke="#000000" points="204.5,-40.2 204.5,-59.2 250.5,-59.2 250.5,-40.2 204.5,-40.2"/>
<text text-anchor="start" x="207.5" y="-46.3" font-family="Helvetica,sans-Serif" font-size="11.00" fill="#000000">&lt; 1</text>
<polygon fill="#ffffff" stroke="transparent" points="250.5,-40.2 250.5,-59.2 313.5,-59.2 313.5,-40.2 250.5,-40.2"/>
<polygon fill="none" stroke="#000000" points="250.5,-40.2 250.5,-59.2 313.5,-59.2 313.5,-40.2 250.5,-40.2"/>
<text text-anchor="start" x="278.1105" y="-46.3" font-family="Helvetica,sans-Serif" font-size="11.00" fill="#000000">5 rows</text>
<polygon fill="#ffffff" stroke="transparent" points="313.5,-40.2 313.5,-59.2 379.5,-59.2 379.5,-40.2 313.5,-40.2"/>
<polygon fill="none" stroke="#000000" points="313.5,-40.2 313.5,-59.2 379.5,-59.2 379.5,-40.2 313.5,-40.2"/>
<text text-anchor="start" x="360.9053" y="-46.3" font-family="Helvetica,sans-Serif" font-size="11.00" fill="#000000">0 &gt;</text>
<polygon fill="none" stroke="#000000" stroke-width="2" points="203,-39.2 203,-237.2 380,-237.2 380,-39.2 203,-39.2"/>
</a>
</g>
</g>
<!-- adgroups -->
<g id="node2" class="node">
<title>adgroups</title>
<g id="a_node2"><a xlink:href="../../tables/adgroups.html" xlink:title="adgroups" target="_top">
<polygon fill="#ffffff" stroke="transparent" points="8,-109.7 8,-214.7 153,-214.7 153,-109.7 8,-109.7"/>
<polygon fill="#f5f5f5" stroke="transparent" points="8.5,-191.2 8.5,-214.2 153.5,-214.2 153.5,-191.2 8.5,-191.2"/>
<polygon fill="none" stroke="#000000" points="8.5,-191.2 8.5,-214.2 153.5,-214.2 153.5,-191.2 8.5,-191.2"/>
<text text-anchor="start" x="13.5" y="-200.3" font-family="Helvetica,sans-Serif" font-weight="bold" font-size="11.00" fill="#000000">adgroups</text>
<text text-anchor="start" x="118.5437" y="-199.3" font-family="Helvetica,sans-Serif" font-size="11.00" fill="#000000">[table]</text>
<polygon fill="none" stroke="#000000" points="8.5,-169.2 8.5,-191.2 153.5,-191.2 153.5,-169.2 8.5,-169.2"/>
<image xlink:href="../../images/primaryKeys.png" width="11px" height="12px" preserveAspectRatio="xMinYMin meet" x="13.5" y="-186.2"/>
<text text-anchor="start" x="28.5" y="-176.3" font-family="Helvetica,sans-Serif" font-size="11.00" fill="#000000">id</text>
<polygon fill="#ffffff" stroke="transparent" points="8.5,-147.2 8.5,-169.2 153.5,-169.2 153.5,-147.2 8.5,-147.2"/>
<polygon fill="none" stroke="#000000" points="8.5,-147.2 8.5,-169.2 153.5,-169.2 153.5,-147.2 8.5,-147.2"/>
<image xlink:href="../../images/foreignKeys.png" width="11px" height="12px" preserveAspectRatio="xMinYMin meet" x="13.5" y="-164.2"/>
<text text-anchor="start" x="28.5" y="-154.3" font-family="Helvetica,sans-Serif" font-size="11.00" fill="#000000">campaign_id</text>
<polygon fill="none" stroke="#000000" points="8.5,-128.2 8.5,-147.2 153.5,-147.2 153.5,-128.2 8.5,-128.2"/>
<text text-anchor="start" x="11.5" y="-134.3" font-family="Helvetica,sans-Serif" font-size="11.00" fill="#000000">...</text>
<polygon fill="#ffffff" stroke="transparent" points="8.5,-109.2 8.5,-128.2 61.5,-128.2 61.5,-109.2 8.5,-109.2"/>
<polygon fill="none" stroke="#000000" points="8.5,-109.2 8.5,-128.2 61.5,-128.2 61.5,-109.2 8.5,-109.2"/>
<text text-anchor="start" x="11.5" y="-115.3" font-family="Helvetica,sans-Serif" font-size="11.00" fill="#000000">&lt; 1</text>
<polygon fill="#ffffff" stroke="transparent" points="61.5,-109.2 61.5,-128.2 115.5,-128.2 115.5,-109.2 61.5,-109.2"/>
<polygon fill="none" stroke="#000000" points="61.5,-109.2 61.5,-128.2 115.5,-128.2 115.5,-109.2 61.5,-109.2"/>
<text text-anchor="start" x="80.1105" y="-115.3" font-family="Helvetica,sans-Serif" font-size="11.00" fill="#000000">4 rows</text>
<polygon fill="#ffffff" stroke="transparent" points="115.5,-109.2 115.5,-128.2 153.5,-128.2 153.5,-109.2 115.5,-109.2"/>
<polygon fill="none" stroke="#000000" points="115.5,-109.2 115.5,-128.2 153.5,-128.2 153.5,-109.2 115.5,-109.2"/>
<text text-anchor="start" x="134.9053" y="-115.3" font-family="Helvetica,sans-Serif" font-size="11.00" fill="#000000">3 &gt;</text>
</a>
</g>
</g>
<!-- adgroups_cpvs&#45;&gt;adgroups -->
<g id="edge1" class="edge">
<title>adgroups_cpvs:w&#45;&gt;adgroups:e</title>
<path fill="none" stroke="#000000" d="M189.776,-180.2C177.7815,-180.2 170.3229,-180.2 153.5,-180.2"/>
<polygon fill="#000000" stroke="#000000" points="196.5,-180.2001 204.5,-183.8 200.5,-180.2 204.5,-180.2 204.5,-180.2 204.5,-180.2 200.5,-180.2 204.5,-176.6 196.5,-180.2001 196.5,-180.2001"/>
<ellipse fill="none" stroke="#000000" cx="193.3" cy="-180.2001" rx="3.2" ry="3.2"/>
</g>
</g>
</svg>
