<?xml version="1.0" encoding="UTF-8" standalone="no"?>
<!DOCTYPE svg PUBLIC "-//W3C//DTD SVG 1.1//EN"
 "http://www.w3.org/Graphics/SVG/1.1/DTD/svg11.dtd">
<!-- Generated by graphviz version 2.40.1 (20161225.0304)
 -->
<!-- Title: _sqlx_migrations Pages: 1 -->
<svg width="236pt" height="194pt"
 viewBox="0.00 0.00 236.00 194.00" xmlns="http://www.w3.org/2000/svg" xmlns:xlink="http://www.w3.org/1999/xlink">
<g id="graph0" class="graph" transform="scale(1 1) rotate(0) translate(4 190)">
<title>_sqlx_migrations</title>
<polygon fill="#ffffff" stroke="transparent" points="-4,4 -4,-190 232,-190 232,4 -4,4"/>
<!-- _sqlx_migrations -->
<g id="node1" class="node">
<title>_sqlx_migrations</title>
<g id="a_node1"><a xlink:href="../../tables/_sqlx_migrations.html" xlink:title="_sqlx_migrations" target="_top">
<polygon fill="#ffffff" stroke="transparent" points="8,-4 8,-182 220,-182 220,-4 8,-4"/>
<polygon fill="#f5f5f5" stroke="transparent" points="10,-157 10,-180 218,-180 218,-157 10,-157"/>
<polygon fill="none" stroke="#000000" points="10,-157 10,-180 218,-180 218,-157 10,-157"/>
<text text-anchor="start" x="15" y="-166.1" font-family="Helvetica,sans-Serif" font-weight="bold" font-size="11.00" fill="#000000">_sqlx_migrations</text>
<text text-anchor="start" x="183.0437" y="-165.1" font-family="Helvetica,sans-Serif" font-size="11.00" fill="#000000">[table]</text>
<polygon fill="none" stroke="#000000" points="10,-135 10,-157 143,-157 143,-135 10,-135"/>
<image xlink:href="../../images/primaryKeys.png" width="11px" height="12px" preserveAspectRatio="xMinYMin meet" x="15" y="-152"/>
<text text-anchor="start" x="30" y="-142.1" font-family="Helvetica,sans-Serif" font-size="11.00" fill="#000000">version</text>
<polygon fill="none" stroke="#000000" points="143,-135 143,-157 218,-157 218,-135 143,-135"/>
<text text-anchor="start" x="146" y="-142.7" font-family="Helvetica,sans-Serif" font-size="11.00" fill="#000000">bigint[19]</text>
<polygon fill="none" stroke="#000000" points="10,-113 10,-135 143,-135 143,-113 10,-113"/>
<text text-anchor="start" x="30" y="-120.1" font-family="Helvetica,sans-Serif" font-size="11.00" fill="#000000">description</text>
<polygon fill="none" stroke="#000000" points="143,-113 143,-135 218,-135 218,-113 143,-113"/>
<text text-anchor="start" x="146" y="-120.7" font-family="Helvetica,sans-Serif" font-size="11.00" fill="#000000">text[65535]</text>
<polygon fill="none" stroke="#000000" points="10,-91 10,-113 143,-113 143,-91 10,-91"/>
<text text-anchor="start" x="30" y="-98.1" font-family="Helvetica,sans-Serif" font-size="11.00" fill="#000000">installed_on</text>
<polygon fill="none" stroke="#000000" points="143,-91 143,-113 218,-113 218,-91 143,-91"/>
<text text-anchor="start" x="145.9666" y="-98.7" font-family="Helvetica,sans-Serif" font-size="11.00" fill="#000000">timestamp[19]</text>
<polygon fill="none" stroke="#000000" points="10,-69 10,-91 143,-91 143,-69 10,-69"/>
<text text-anchor="start" x="30" y="-76.1" font-family="Helvetica,sans-Serif" font-size="11.00" fill="#000000">success</text>
<polygon fill="none" stroke="#000000" points="143,-69 143,-91 218,-91 218,-69 143,-69"/>
<text text-anchor="start" x="146" y="-76.7" font-family="Helvetica,sans-Serif" font-size="11.00" fill="#000000">bit[1]</text>
<polygon fill="none" stroke="#000000" points="10,-47 10,-69 143,-69 143,-47 10,-47"/>
<text text-anchor="start" x="30" y="-54.1" font-family="Helvetica,sans-Serif" font-size="11.00" fill="#000000">checksum</text>
<polygon fill="none" stroke="#000000" points="143,-47 143,-69 218,-69 218,-47 143,-47"/>
<text text-anchor="start" x="146" y="-54.7" font-family="Helvetica,sans-Serif" font-size="11.00" fill="#000000">blob[65535]</text>
<polygon fill="none" stroke="#000000" points="10,-25 10,-47 143,-47 143,-25 10,-25"/>
<text text-anchor="start" x="30" y="-32.1" font-family="Helvetica,sans-Serif" font-size="11.00" fill="#000000">execution_time</text>
<polygon fill="none" stroke="#000000" points="143,-25 143,-47 218,-47 218,-25 143,-25"/>
<text text-anchor="start" x="146" y="-32.7" font-family="Helvetica,sans-Serif" font-size="11.00" fill="#000000">bigint[19]</text>
<polygon fill="#ffffff" stroke="transparent" points="10,-6 10,-25 68,-25 68,-6 10,-6"/>
<polygon fill="none" stroke="#000000" points="10,-6 10,-25 68,-25 68,-6 10,-6"/>
<text text-anchor="start" x="13" y="-12.1" font-family="Helvetica,sans-Serif" font-size="11.00" fill="#000000">&lt; 0</text>
<polygon fill="#ffffff" stroke="transparent" points="68,-6 68,-25 143,-25 143,-6 68,-6"/>
<polygon fill="none" stroke="#000000" points="68,-6 68,-25 143,-25 143,-6 68,-6"/>
<text text-anchor="start" x="107.6105" y="-12.1" font-family="Helvetica,sans-Serif" font-size="11.00" fill="#000000">2 rows</text>
<polygon fill="#ffffff" stroke="transparent" points="143,-6 143,-25 218,-25 218,-6 143,-6"/>
<polygon fill="none" stroke="#000000" points="143,-6 143,-25 218,-25 218,-6 143,-6"/>
<text text-anchor="start" x="199.4053" y="-12.1" font-family="Helvetica,sans-Serif" font-size="11.00" fill="#000000">0 &gt;</text>
<polygon fill="none" stroke="#000000" stroke-width="2" points="9,-5 9,-181 219,-181 219,-5 9,-5"/>
</a>
</g>
</g>
</g>
</svg>
