<?xml version="1.0" encoding="UTF-8" standalone="no"?>
<!DOCTYPE svg PUBLIC "-//W3C//DTD SVG 1.1//EN"
 "http://www.w3.org/Graphics/SVG/1.1/DTD/svg11.dtd">
<!-- Generated by graphviz version 2.40.1 (20161225.0304)
 -->
<!-- Title: seaql_migrations Pages: 1 -->
<svg width="231pt" height="106pt"
 viewBox="0.00 0.00 231.00 106.00" xmlns="http://www.w3.org/2000/svg" xmlns:xlink="http://www.w3.org/1999/xlink">
<g id="graph0" class="graph" transform="scale(1 1) rotate(0) translate(4 102)">
<title>seaql_migrations</title>
<polygon fill="#ffffff" stroke="transparent" points="-4,4 -4,-102 227,-102 227,4 -4,4"/>
<!-- seaql_migrations -->
<g id="node1" class="node">
<title>seaql_migrations</title>
<g id="a_node1"><a xlink:href="../../tables/seaql_migrations.html" xlink:title="seaql_migrations" target="_top">
<polygon fill="#ffffff" stroke="transparent" points="8,-4 8,-94 215,-94 215,-4 8,-4"/>
<polygon fill="#f5f5f5" stroke="transparent" points="10.5,-69 10.5,-92 213.5,-92 213.5,-69 10.5,-69"/>
<polygon fill="none" stroke="#000000" points="10.5,-69 10.5,-92 213.5,-92 213.5,-69 10.5,-69"/>
<text text-anchor="start" x="15.5" y="-78.1" font-family="Helvetica,sans-Serif" font-weight="bold" font-size="11.00" fill="#000000">seaql_migrations</text>
<text text-anchor="start" x="178.5437" y="-77.1" font-family="Helvetica,sans-Serif" font-size="11.00" fill="#000000">[table]</text>
<polygon fill="none" stroke="#000000" points="10.5,-47 10.5,-69 146.5,-69 146.5,-47 10.5,-47"/>
<image xlink:href="../../images/primaryKeys.png" width="11px" height="12px" preserveAspectRatio="xMinYMin meet" x="15.5" y="-64"/>
<text text-anchor="start" x="30.5" y="-54.1" font-family="Helvetica,sans-Serif" font-size="11.00" fill="#000000">version</text>
<polygon fill="none" stroke="#000000" points="146.5,-47 146.5,-69 213.5,-69 213.5,-47 146.5,-47"/>
<text text-anchor="start" x="149.4365" y="-54.7" font-family="Helvetica,sans-Serif" font-size="11.00" fill="#000000">varchar[255]</text>
<polygon fill="none" stroke="#000000" points="10.5,-25 10.5,-47 146.5,-47 146.5,-25 10.5,-25"/>
<text text-anchor="start" x="30.5" y="-32.1" font-family="Helvetica,sans-Serif" font-size="11.00" fill="#000000">applied_at</text>
<polygon fill="none" stroke="#000000" points="146.5,-25 146.5,-47 213.5,-47 213.5,-25 146.5,-25"/>
<text text-anchor="start" x="149.5" y="-32.7" font-family="Helvetica,sans-Serif" font-size="11.00" fill="#000000">bigint[19]</text>
<polygon fill="#ffffff" stroke="transparent" points="10.5,-6 10.5,-25 82.5,-25 82.5,-6 10.5,-6"/>
<polygon fill="none" stroke="#000000" points="10.5,-6 10.5,-25 82.5,-25 82.5,-6 10.5,-6"/>
<text text-anchor="start" x="13.5" y="-12.1" font-family="Helvetica,sans-Serif" font-size="11.00" fill="#000000">&lt; 0</text>
<polygon fill="#ffffff" stroke="transparent" points="82.5,-6 82.5,-25 146.5,-25 146.5,-6 82.5,-6"/>
<polygon fill="none" stroke="#000000" points="82.5,-6 82.5,-25 146.5,-25 146.5,-6 82.5,-6"/>
<text text-anchor="start" x="137.3862" y="-12.1" font-family="Helvetica,sans-Serif" font-size="11.00" fill="#000000"> &#160;</text>
<polygon fill="#ffffff" stroke="transparent" points="146.5,-6 146.5,-25 213.5,-25 213.5,-6 146.5,-6"/>
<polygon fill="none" stroke="#000000" points="146.5,-6 146.5,-25 213.5,-25 213.5,-6 146.5,-6"/>
<text text-anchor="start" x="194.9053" y="-12.1" font-family="Helvetica,sans-Serif" font-size="11.00" fill="#000000">0 &gt;</text>
<polygon fill="none" stroke="#000000" stroke-width="2" points="9,-5 9,-93 214,-93 214,-5 9,-5"/>
</a>
</g>
</g>
</g>
</svg>
