<?xml version="1.0" encoding="UTF-8" standalone="no"?>
<!DOCTYPE svg PUBLIC "-//W3C//DTD SVG 1.1//EN"
 "http://www.w3.org/Graphics/SVG/1.1/DTD/svg11.dtd">
<!-- Generated by graphviz version 2.40.1 (20161225.0304)
 -->
<!-- Title: largeRelationshipsDiagram Pages: 1 -->
<svg width="751pt" height="997pt"
 viewBox="0.00 0.00 751.00 997.20" xmlns="http://www.w3.org/2000/svg" xmlns:xlink="http://www.w3.org/1999/xlink">
<g id="graph0" class="graph" transform="scale(1 1) rotate(0) translate(4 993.2)">
<title>largeRelationshipsDiagram</title>
<polygon fill="#ffffff" stroke="transparent" points="-4,4 -4,-993.2 747,-993.2 747,4 -4,4"/>
<text text-anchor="middle" x="72.4936" y="-7.3" font-family="Helvetica,sans-Serif" font-size="11.00" fill="#000000">Generated by SchemaSpy</text>
<!-- adgroups -->
<g id="node1" class="node">
<title>adgroups</title>
<g id="a_node1"><a xlink:href="../../tables/adgroups.html" xlink:title="adgroups" target="_top">
<polygon fill="#ffffff" stroke="transparent" points="403,-396.2 403,-746.2 548,-746.2 548,-396.2 403,-396.2"/>
<polygon fill="#f5f5f5" stroke="transparent" points="403.5,-723.2 403.5,-746.2 548.5,-746.2 548.5,-723.2 403.5,-723.2"/>
<polygon fill="none" stroke="#000000" points="403.5,-723.2 403.5,-746.2 548.5,-746.2 548.5,-723.2 403.5,-723.2"/>
<text text-anchor="start" x="408.5" y="-732.3" font-family="Helvetica,sans-Serif" font-weight="bold" font-size="11.00" fill="#000000">adgroups</text>
<text text-anchor="start" x="513.5437" y="-731.3" font-family="Helvetica,sans-Serif" font-size="11.00" fill="#000000">[table]</text>
<polygon fill="none" stroke="#000000" points="403.5,-701.2 403.5,-723.2 548.5,-723.2 548.5,-701.2 403.5,-701.2"/>
<image xlink:href="../../images/primaryKeys.png" width="11px" height="12px" preserveAspectRatio="xMinYMin meet" x="408.5" y="-718.2"/>
<text text-anchor="start" x="423.5" y="-708.3" font-family="Helvetica,sans-Serif" font-size="11.00" fill="#000000">id</text>
<polygon fill="#ffffff" stroke="transparent" points="403.5,-679.2 403.5,-701.2 548.5,-701.2 548.5,-679.2 403.5,-679.2"/>
<polygon fill="none" stroke="#000000" points="403.5,-679.2 403.5,-701.2 548.5,-701.2 548.5,-679.2 403.5,-679.2"/>
<image xlink:href="../../images/foreignKeys.png" width="11px" height="12px" preserveAspectRatio="xMinYMin meet" x="408.5" y="-696.2"/>
<text text-anchor="start" x="423.5" y="-686.3" font-family="Helvetica,sans-Serif" font-size="11.00" fill="#000000">campaign_id</text>
<polygon fill="none" stroke="#000000" points="403.5,-657.2 403.5,-679.2 548.5,-679.2 548.5,-657.2 403.5,-657.2"/>
<text text-anchor="start" x="423.5" y="-664.3" font-family="Helvetica,sans-Serif" font-size="11.00" fill="#000000">name</text>
<polygon fill="none" stroke="#000000" points="403.5,-635.2 403.5,-657.2 548.5,-657.2 548.5,-635.2 403.5,-635.2"/>
<text text-anchor="start" x="423.5" y="-642.3" font-family="Helvetica,sans-Serif" font-size="11.00" fill="#000000">status</text>
<polygon fill="none" stroke="#000000" points="403.5,-613.2 403.5,-635.2 548.5,-635.2 548.5,-613.2 403.5,-613.2"/>
<text text-anchor="start" x="423.5" y="-620.3" font-family="Helvetica,sans-Serif" font-size="11.00" fill="#000000">start_at</text>
<polygon fill="none" stroke="#000000" points="403.5,-591.2 403.5,-613.2 548.5,-613.2 548.5,-591.2 403.5,-591.2"/>
<text text-anchor="start" x="423.5" y="-598.3" font-family="Helvetica,sans-Serif" font-size="11.00" fill="#000000">end_at</text>
<polygon fill="none" stroke="#000000" points="403.5,-569.2 403.5,-591.2 548.5,-591.2 548.5,-569.2 403.5,-569.2"/>
<text text-anchor="start" x="423.5" y="-576.3" font-family="Helvetica,sans-Serif" font-size="11.00" fill="#000000">max_total_budget</text>
<polygon fill="none" stroke="#000000" points="403.5,-547.2 403.5,-569.2 548.5,-569.2 548.5,-547.2 403.5,-547.2"/>
<text text-anchor="start" x="423.5" y="-554.3" font-family="Helvetica,sans-Serif" font-size="11.00" fill="#000000">max_monthly_budget</text>
<polygon fill="none" stroke="#000000" points="403.5,-525.2 403.5,-547.2 548.5,-547.2 548.5,-525.2 403.5,-525.2"/>
<text text-anchor="start" x="423.5" y="-532.3" font-family="Helvetica,sans-Serif" font-size="11.00" fill="#000000">max_daily_budget</text>
<polygon fill="none" stroke="#000000" points="403.5,-503.2 403.5,-525.2 548.5,-525.2 548.5,-503.2 403.5,-503.2"/>
<text text-anchor="start" x="423.5" y="-510.3" font-family="Helvetica,sans-Serif" font-size="11.00" fill="#000000">max_hourly_budget</text>
<polygon fill="none" stroke="#000000" points="403.5,-481.2 403.5,-503.2 548.5,-503.2 548.5,-481.2 403.5,-481.2"/>
<text text-anchor="start" x="423.5" y="-488.3" font-family="Helvetica,sans-Serif" font-size="11.00" fill="#000000">cpv</text>
<polygon fill="none" stroke="#000000" points="403.5,-459.2 403.5,-481.2 548.5,-481.2 548.5,-459.2 403.5,-459.2"/>
<text text-anchor="start" x="423.5" y="-466.3" font-family="Helvetica,sans-Serif" font-size="11.00" fill="#000000">created_at</text>
<polygon fill="none" stroke="#000000" points="403.5,-437.2 403.5,-459.2 548.5,-459.2 548.5,-437.2 403.5,-437.2"/>
<text text-anchor="start" x="423.5" y="-444.3" font-family="Helvetica,sans-Serif" font-size="11.00" fill="#000000">updated_at</text>
<polygon fill="none" stroke="#000000" points="403.5,-415.2 403.5,-437.2 548.5,-437.2 548.5,-415.2 403.5,-415.2"/>
<text text-anchor="start" x="423.5" y="-422.3" font-family="Helvetica,sans-Serif" font-size="11.00" fill="#000000">deleted_at</text>
<polygon fill="#ffffff" stroke="transparent" points="403.5,-396.2 403.5,-415.2 456.5,-415.2 456.5,-396.2 403.5,-396.2"/>
<polygon fill="none" stroke="#000000" points="403.5,-396.2 403.5,-415.2 456.5,-415.2 456.5,-396.2 403.5,-396.2"/>
<text text-anchor="start" x="406.5" y="-402.3" font-family="Helvetica,sans-Serif" font-size="11.00" fill="#000000">&lt; 1</text>
<polygon fill="#ffffff" stroke="transparent" points="456.5,-396.2 456.5,-415.2 510.5,-415.2 510.5,-396.2 456.5,-396.2"/>
<polygon fill="none" stroke="#000000" points="456.5,-396.2 456.5,-415.2 510.5,-415.2 510.5,-396.2 456.5,-396.2"/>
<text text-anchor="start" x="475.1105" y="-402.3" font-family="Helvetica,sans-Serif" font-size="11.00" fill="#000000">0 rows</text>
<polygon fill="#ffffff" stroke="transparent" points="510.5,-396.2 510.5,-415.2 548.5,-415.2 548.5,-396.2 510.5,-396.2"/>
<polygon fill="none" stroke="#000000" points="510.5,-396.2 510.5,-415.2 548.5,-415.2 548.5,-396.2 510.5,-396.2"/>
<text text-anchor="start" x="529.9053" y="-402.3" font-family="Helvetica,sans-Serif" font-size="11.00" fill="#000000">2 &gt;</text>
</a>
</g>
</g>
<!-- campaigns -->
<g id="node6" class="node">
<title>campaigns</title>
<g id="a_node6"><a xlink:href="../../tables/campaigns.html" xlink:title="campaigns" target="_top">
<polygon fill="#ffffff" stroke="transparent" points="153,-352.2 153,-724.2 354,-724.2 354,-352.2 153,-352.2"/>
<polygon fill="#f5f5f5" stroke="transparent" points="153.5,-701.2 153.5,-724.2 354.5,-724.2 354.5,-701.2 153.5,-701.2"/>
<polygon fill="none" stroke="#000000" points="153.5,-701.2 153.5,-724.2 354.5,-724.2 354.5,-701.2 153.5,-701.2"/>
<text text-anchor="start" x="158.5" y="-710.3" font-family="Helvetica,sans-Serif" font-weight="bold" font-size="11.00" fill="#000000">campaigns</text>
<text text-anchor="start" x="319.5437" y="-709.3" font-family="Helvetica,sans-Serif" font-size="11.00" fill="#000000">[table]</text>
<polygon fill="none" stroke="#000000" points="153.5,-679.2 153.5,-701.2 354.5,-701.2 354.5,-679.2 153.5,-679.2"/>
<image xlink:href="../../images/primaryKeys.png" width="11px" height="12px" preserveAspectRatio="xMinYMin meet" x="158.5" y="-696.2"/>
<text text-anchor="start" x="173.5" y="-686.3" font-family="Helvetica,sans-Serif" font-size="11.00" fill="#000000">id</text>
<polygon fill="#ffffff" stroke="transparent" points="153.5,-657.2 153.5,-679.2 354.5,-679.2 354.5,-657.2 153.5,-657.2"/>
<polygon fill="none" stroke="#000000" points="153.5,-657.2 153.5,-679.2 354.5,-679.2 354.5,-657.2 153.5,-657.2"/>
<image xlink:href="../../images/foreignKeys.png" width="11px" height="12px" preserveAspectRatio="xMinYMin meet" x="158.5" y="-674.2"/>
<text text-anchor="start" x="173.5" y="-664.3" font-family="Helvetica,sans-Serif" font-size="11.00" fill="#000000">advertiser_id</text>
<polygon fill="none" stroke="#000000" points="153.5,-635.2 153.5,-657.2 354.5,-657.2 354.5,-635.2 153.5,-635.2"/>
<text text-anchor="start" x="173.5" y="-642.3" font-family="Helvetica,sans-Serif" font-size="11.00" fill="#000000">name</text>
<polygon fill="none" stroke="#000000" points="153.5,-613.2 153.5,-635.2 354.5,-635.2 354.5,-613.2 153.5,-613.2"/>
<text text-anchor="start" x="173.5" y="-620.3" font-family="Helvetica,sans-Serif" font-size="11.00" fill="#000000">status</text>
<polygon fill="none" stroke="#000000" points="153.5,-591.2 153.5,-613.2 354.5,-613.2 354.5,-591.2 153.5,-591.2"/>
<text text-anchor="start" x="173.5" y="-598.3" font-family="Helvetica,sans-Serif" font-size="11.00" fill="#000000">start_at</text>
<polygon fill="none" stroke="#000000" points="153.5,-569.2 153.5,-591.2 354.5,-591.2 354.5,-569.2 153.5,-569.2"/>
<text text-anchor="start" x="173.5" y="-576.3" font-family="Helvetica,sans-Serif" font-size="11.00" fill="#000000">end_at</text>
<polygon fill="none" stroke="#000000" points="153.5,-547.2 153.5,-569.2 354.5,-569.2 354.5,-547.2 153.5,-547.2"/>
<text text-anchor="start" x="173.5" y="-554.3" font-family="Helvetica,sans-Serif" font-size="11.00" fill="#000000">revenue_share_rate</text>
<polygon fill="none" stroke="#000000" points="153.5,-525.2 153.5,-547.2 354.5,-547.2 354.5,-525.2 153.5,-525.2"/>
<text text-anchor="start" x="173.5" y="-532.3" font-family="Helvetica,sans-Serif" font-size="11.00" fill="#000000">max_total_budget</text>
<polygon fill="none" stroke="#000000" points="153.5,-503.2 153.5,-525.2 354.5,-525.2 354.5,-503.2 153.5,-503.2"/>
<text text-anchor="start" x="173.5" y="-510.3" font-family="Helvetica,sans-Serif" font-size="11.00" fill="#000000">max_monthly_budget</text>
<polygon fill="none" stroke="#000000" points="153.5,-481.2 153.5,-503.2 354.5,-503.2 354.5,-481.2 153.5,-481.2"/>
<text text-anchor="start" x="173.5" y="-488.3" font-family="Helvetica,sans-Serif" font-size="11.00" fill="#000000">max_daily_budget</text>
<polygon fill="none" stroke="#000000" points="153.5,-459.2 153.5,-481.2 354.5,-481.2 354.5,-459.2 153.5,-459.2"/>
<text text-anchor="start" x="173.5" y="-466.3" font-family="Helvetica,sans-Serif" font-size="11.00" fill="#000000">max_hourly_budget</text>
<polygon fill="none" stroke="#000000" points="153.5,-437.2 153.5,-459.2 354.5,-459.2 354.5,-437.2 153.5,-437.2"/>
<text text-anchor="start" x="173.5" y="-444.3" font-family="Helvetica,sans-Serif" font-size="11.00" fill="#000000">frequency_control_interval_sec</text>
<polygon fill="none" stroke="#000000" points="153.5,-415.2 153.5,-437.2 354.5,-437.2 354.5,-415.2 153.5,-415.2"/>
<text text-anchor="start" x="173.5" y="-422.3" font-family="Helvetica,sans-Serif" font-size="11.00" fill="#000000">created_at</text>
<polygon fill="none" stroke="#000000" points="153.5,-393.2 153.5,-415.2 354.5,-415.2 354.5,-393.2 153.5,-393.2"/>
<text text-anchor="start" x="173.5" y="-400.3" font-family="Helvetica,sans-Serif" font-size="11.00" fill="#000000">updated_at</text>
<polygon fill="none" stroke="#000000" points="153.5,-371.2 153.5,-393.2 354.5,-393.2 354.5,-371.2 153.5,-371.2"/>
<text text-anchor="start" x="173.5" y="-378.3" font-family="Helvetica,sans-Serif" font-size="11.00" fill="#000000">deleted_at</text>
<polygon fill="#ffffff" stroke="transparent" points="153.5,-352.2 153.5,-371.2 234.5,-371.2 234.5,-352.2 153.5,-352.2"/>
<polygon fill="none" stroke="#000000" points="153.5,-352.2 153.5,-371.2 234.5,-371.2 234.5,-352.2 153.5,-352.2"/>
<text text-anchor="start" x="156.5" y="-358.3" font-family="Helvetica,sans-Serif" font-size="11.00" fill="#000000">&lt; 1</text>
<polygon fill="#ffffff" stroke="transparent" points="234.5,-352.2 234.5,-371.2 302.5,-371.2 302.5,-352.2 234.5,-352.2"/>
<polygon fill="none" stroke="#000000" points="234.5,-352.2 234.5,-371.2 302.5,-371.2 302.5,-352.2 234.5,-352.2"/>
<text text-anchor="start" x="267.1105" y="-358.3" font-family="Helvetica,sans-Serif" font-size="11.00" fill="#000000">0 rows</text>
<polygon fill="#ffffff" stroke="transparent" points="302.5,-352.2 302.5,-371.2 354.5,-371.2 354.5,-352.2 302.5,-352.2"/>
<polygon fill="none" stroke="#000000" points="302.5,-352.2 302.5,-371.2 354.5,-371.2 354.5,-352.2 302.5,-352.2"/>
<text text-anchor="start" x="335.9053" y="-358.3" font-family="Helvetica,sans-Serif" font-size="11.00" fill="#000000">1 &gt;</text>
</a>
</g>
</g>
<!-- adgroups&#45;&gt;campaigns -->
<g id="edge1" class="edge">
<title>adgroups:w&#45;&gt;campaigns:e</title>
<path fill="none" stroke="#000000" d="M388.9909,-690.2C377.6774,-690.2 370.4931,-690.2 354.5,-690.2"/>
<polygon fill="#000000" stroke="#000000" points="395.5,-690.2001 403.5,-693.8 399.5,-690.2 403.5,-690.2 403.5,-690.2 403.5,-690.2 399.5,-690.2 403.5,-686.6 395.5,-690.2001 395.5,-690.2001"/>
<ellipse fill="none" stroke="#000000" cx="392.3" cy="-690.2001" rx="3.2" ry="3.2"/>
</g>
<!-- adgroups_locations -->
<g id="node2" class="node">
<title>adgroups_locations</title>
<g id="a_node2"><a xlink:href="../../tables/adgroups_locations.html" xlink:title="adgroups_locations" target="_top">
<polygon fill="#ffffff" stroke="transparent" points="597,-283.2 597,-457.2 735,-457.2 735,-283.2 597,-283.2"/>
<polygon fill="#f5f5f5" stroke="transparent" points="597,-434.2 597,-457.2 735,-457.2 735,-434.2 597,-434.2"/>
<polygon fill="none" stroke="#000000" points="597,-434.2 597,-457.2 735,-457.2 735,-434.2 597,-434.2"/>
<text text-anchor="start" x="601.8178" y="-443.3" font-family="Helvetica,sans-Serif" font-weight="bold" font-size="11.00" fill="#000000">adgroups_locations</text>
<text text-anchor="start" x="700.5219" y="-442.3" font-family="Helvetica,sans-Serif" font-size="11.00" fill="#000000">[table]</text>
<polygon fill="none" stroke="#000000" points="597,-412.2 597,-434.2 735,-434.2 735,-412.2 597,-412.2"/>
<image xlink:href="../../images/primaryKeys.png" width="11px" height="12px" preserveAspectRatio="xMinYMin meet" x="602" y="-429.2"/>
<text text-anchor="start" x="619" y="-419.3" font-family="Helvetica,sans-Serif" font-size="11.00" fill="#000000">id</text>
<polygon fill="#ffffff" stroke="transparent" points="597,-390.2 597,-412.2 735,-412.2 735,-390.2 597,-390.2"/>
<polygon fill="none" stroke="#000000" points="597,-390.2 597,-412.2 735,-412.2 735,-390.2 597,-390.2"/>
<image xlink:href="../../images/foreignKeys.png" width="11px" height="12px" preserveAspectRatio="xMinYMin meet" x="602" y="-407.2"/>
<text text-anchor="start" x="619" y="-397.3" font-family="Helvetica,sans-Serif" font-size="11.00" fill="#000000">adgroup_id</text>
<polygon fill="#ffffff" stroke="transparent" points="597,-368.2 597,-390.2 735,-390.2 735,-368.2 597,-368.2"/>
<polygon fill="none" stroke="#000000" points="597,-368.2 597,-390.2 735,-390.2 735,-368.2 597,-368.2"/>
<image xlink:href="../../images/foreignKeys.png" width="11px" height="12px" preserveAspectRatio="xMinYMin meet" x="602" y="-385.2"/>
<text text-anchor="start" x="619" y="-375.3" font-family="Helvetica,sans-Serif" font-size="11.00" fill="#000000">location_id</text>
<polygon fill="none" stroke="#000000" points="597,-346.2 597,-368.2 735,-368.2 735,-346.2 597,-346.2"/>
<text text-anchor="start" x="619" y="-353.3" font-family="Helvetica,sans-Serif" font-size="11.00" fill="#000000">created_at</text>
<polygon fill="none" stroke="#000000" points="597,-324.2 597,-346.2 735,-346.2 735,-324.2 597,-324.2"/>
<text text-anchor="start" x="619" y="-331.3" font-family="Helvetica,sans-Serif" font-size="11.00" fill="#000000">updated_at</text>
<polygon fill="none" stroke="#000000" points="597,-302.2 597,-324.2 735,-324.2 735,-302.2 597,-302.2"/>
<text text-anchor="start" x="619" y="-309.3" font-family="Helvetica,sans-Serif" font-size="11.00" fill="#000000">deleted_at</text>
<polygon fill="#ffffff" stroke="transparent" points="597,-283.2 597,-302.2 651,-302.2 651,-283.2 597,-283.2"/>
<polygon fill="none" stroke="#000000" points="597,-283.2 597,-302.2 651,-302.2 651,-283.2 597,-283.2"/>
<text text-anchor="start" x="600" y="-289.3" font-family="Helvetica,sans-Serif" font-size="11.00" fill="#000000">&lt; 2</text>
<polygon fill="#ffffff" stroke="transparent" points="651,-283.2 651,-302.2 706,-302.2 706,-283.2 651,-283.2"/>
<polygon fill="none" stroke="#000000" points="651,-283.2 651,-302.2 706,-302.2 706,-283.2 651,-283.2"/>
<text text-anchor="start" x="670.6105" y="-289.3" font-family="Helvetica,sans-Serif" font-size="11.00" fill="#000000">0 rows</text>
<polygon fill="#ffffff" stroke="transparent" points="706,-283.2 706,-302.2 735,-302.2 735,-283.2 706,-283.2"/>
<polygon fill="none" stroke="#000000" points="706,-283.2 706,-302.2 735,-302.2 735,-283.2 706,-283.2"/>
<text text-anchor="start" x="725.8862" y="-289.3" font-family="Helvetica,sans-Serif" font-size="11.00" fill="#000000"> &#160;</text>
</a>
</g>
</g>
<!-- adgroups_locations&#45;&gt;adgroups -->
<g id="edge2" class="edge">
<title>adgroups_locations:w&#45;&gt;adgroups:e</title>
<path fill="none" stroke="#000000" d="M583.4066,-406.598C540.349,-447.8956 612.9819,-712.2 548.5,-712.2"/>
<polygon fill="#000000" stroke="#000000" points="589.5648,-404.1526 598.3287,-404.5458 593.2824,-402.6763 597,-401.2 597,-401.2 597,-401.2 593.2824,-402.6763 595.6713,-397.8542 589.5648,-404.1526 589.5648,-404.1526"/>
<ellipse fill="none" stroke="#000000" cx="586.5907" cy="-405.3336" rx="3.2" ry="3.2"/>
</g>
<!-- locations -->
<g id="node8" class="node">
<title>locations</title>
<g id="a_node8"><a xlink:href="../../tables/locations.html" xlink:title="locations" target="_top">
<polygon fill="#ffffff" stroke="transparent" points="412.5,-38.2 412.5,-278.2 538.5,-278.2 538.5,-38.2 412.5,-38.2"/>
<polygon fill="#f5f5f5" stroke="transparent" points="412.5,-255.2 412.5,-278.2 538.5,-278.2 538.5,-255.2 412.5,-255.2"/>
<polygon fill="none" stroke="#000000" points="412.5,-255.2 412.5,-278.2 538.5,-278.2 538.5,-255.2 412.5,-255.2"/>
<text text-anchor="start" x="417.5" y="-264.3" font-family="Helvetica,sans-Serif" font-weight="bold" font-size="11.00" fill="#000000">locations</text>
<text text-anchor="start" x="503.5437" y="-263.3" font-family="Helvetica,sans-Serif" font-size="11.00" fill="#000000">[table]</text>
<polygon fill="none" stroke="#000000" points="412.5,-233.2 412.5,-255.2 538.5,-255.2 538.5,-233.2 412.5,-233.2"/>
<image xlink:href="../../images/primaryKeys.png" width="11px" height="12px" preserveAspectRatio="xMinYMin meet" x="417.5" y="-250.2"/>
<text text-anchor="start" x="432.5" y="-240.3" font-family="Helvetica,sans-Serif" font-size="11.00" fill="#000000">id</text>
<polygon fill="#ffffff" stroke="transparent" points="412.5,-211.2 412.5,-233.2 538.5,-233.2 538.5,-211.2 412.5,-211.2"/>
<polygon fill="none" stroke="#000000" points="412.5,-211.2 412.5,-233.2 538.5,-233.2 538.5,-211.2 412.5,-211.2"/>
<image xlink:href="../../images/foreignKeys.png" width="11px" height="12px" preserveAspectRatio="xMinYMin meet" x="417.5" y="-228.2"/>
<text text-anchor="start" x="432.5" y="-218.3" font-family="Helvetica,sans-Serif" font-size="11.00" fill="#000000">location_owner_id</text>
<polygon fill="none" stroke="#000000" points="412.5,-189.2 412.5,-211.2 538.5,-211.2 538.5,-189.2 412.5,-189.2"/>
<text text-anchor="start" x="432.5" y="-196.3" font-family="Helvetica,sans-Serif" font-size="11.00" fill="#000000">name</text>
<polygon fill="none" stroke="#000000" points="412.5,-167.2 412.5,-189.2 538.5,-189.2 538.5,-167.2 412.5,-167.2"/>
<text text-anchor="start" x="432.5" y="-174.3" font-family="Helvetica,sans-Serif" font-size="11.00" fill="#000000">address</text>
<polygon fill="none" stroke="#000000" points="412.5,-145.2 412.5,-167.2 538.5,-167.2 538.5,-145.2 412.5,-145.2"/>
<text text-anchor="start" x="432.5" y="-152.3" font-family="Helvetica,sans-Serif" font-size="11.00" fill="#000000">latitude</text>
<polygon fill="none" stroke="#000000" points="412.5,-123.2 412.5,-145.2 538.5,-145.2 538.5,-123.2 412.5,-123.2"/>
<text text-anchor="start" x="432.5" y="-130.3" font-family="Helvetica,sans-Serif" font-size="11.00" fill="#000000">longitude</text>
<polygon fill="none" stroke="#000000" points="412.5,-101.2 412.5,-123.2 538.5,-123.2 538.5,-101.2 412.5,-101.2"/>
<text text-anchor="start" x="432.5" y="-108.3" font-family="Helvetica,sans-Serif" font-size="11.00" fill="#000000">created_at</text>
<polygon fill="none" stroke="#000000" points="412.5,-79.2 412.5,-101.2 538.5,-101.2 538.5,-79.2 412.5,-79.2"/>
<text text-anchor="start" x="432.5" y="-86.3" font-family="Helvetica,sans-Serif" font-size="11.00" fill="#000000">updated_at</text>
<polygon fill="none" stroke="#000000" points="412.5,-57.2 412.5,-79.2 538.5,-79.2 538.5,-57.2 412.5,-57.2"/>
<text text-anchor="start" x="432.5" y="-64.3" font-family="Helvetica,sans-Serif" font-size="11.00" fill="#000000">deleted_at</text>
<polygon fill="#ffffff" stroke="transparent" points="412.5,-38.2 412.5,-57.2 456.5,-57.2 456.5,-38.2 412.5,-38.2"/>
<polygon fill="none" stroke="#000000" points="412.5,-38.2 412.5,-57.2 456.5,-57.2 456.5,-38.2 412.5,-38.2"/>
<text text-anchor="start" x="415.5" y="-44.3" font-family="Helvetica,sans-Serif" font-size="11.00" fill="#000000">&lt; 1</text>
<polygon fill="#ffffff" stroke="transparent" points="456.5,-38.2 456.5,-57.2 505.5,-57.2 505.5,-38.2 456.5,-38.2"/>
<polygon fill="none" stroke="#000000" points="456.5,-38.2 456.5,-57.2 505.5,-57.2 505.5,-38.2 456.5,-38.2"/>
<text text-anchor="start" x="470.1105" y="-44.3" font-family="Helvetica,sans-Serif" font-size="11.00" fill="#000000">0 rows</text>
<polygon fill="#ffffff" stroke="transparent" points="505.5,-38.2 505.5,-57.2 538.5,-57.2 538.5,-38.2 505.5,-38.2"/>
<polygon fill="none" stroke="#000000" points="505.5,-38.2 505.5,-57.2 538.5,-57.2 538.5,-38.2 505.5,-38.2"/>
<text text-anchor="start" x="519.9053" y="-44.3" font-family="Helvetica,sans-Serif" font-size="11.00" fill="#000000">2 &gt;</text>
</a>
</g>
</g>
<!-- adgroups_locations&#45;&gt;locations -->
<g id="edge3" class="edge">
<title>adgroups_locations:w&#45;&gt;locations:e</title>
<path fill="none" stroke="#000000" d="M582.7617,-376.2548C543.2512,-356.5124 598.1439,-244.2 538.5,-244.2"/>
<polygon fill="#000000" stroke="#000000" points="589.1658,-377.5794 596.2707,-382.7254 593.0829,-378.3897 597,-379.2 597,-379.2 597,-379.2 593.0829,-378.3897 597.7293,-375.6746 589.1658,-377.5794 589.1658,-377.5794"/>
<ellipse fill="none" stroke="#000000" cx="586.0322" cy="-376.9312" rx="3.2" ry="3.2"/>
</g>
<!-- ads -->
<g id="node3" class="node">
<title>ads</title>
<g id="a_node3"><a xlink:href="../../tables/ads.html" xlink:title="ads" target="_top">
<polygon fill="#ffffff" stroke="transparent" points="618,-478.2 618,-806.2 714,-806.2 714,-478.2 618,-478.2"/>
<polygon fill="#f5f5f5" stroke="transparent" points="618,-783.2 618,-806.2 714,-806.2 714,-783.2 618,-783.2"/>
<polygon fill="none" stroke="#000000" points="618,-783.2 618,-806.2 714,-806.2 714,-783.2 618,-783.2"/>
<text text-anchor="start" x="623" y="-792.3" font-family="Helvetica,sans-Serif" font-weight="bold" font-size="11.00" fill="#000000">ads</text>
<text text-anchor="start" x="679.0437" y="-791.3" font-family="Helvetica,sans-Serif" font-size="11.00" fill="#000000">[table]</text>
<polygon fill="none" stroke="#000000" points="618,-761.2 618,-783.2 714,-783.2 714,-761.2 618,-761.2"/>
<image xlink:href="../../images/primaryKeys.png" width="11px" height="12px" preserveAspectRatio="xMinYMin meet" x="623" y="-778.2"/>
<text text-anchor="start" x="638" y="-768.3" font-family="Helvetica,sans-Serif" font-size="11.00" fill="#000000">id</text>
<polygon fill="#ffffff" stroke="transparent" points="618,-739.2 618,-761.2 714,-761.2 714,-739.2 618,-739.2"/>
<polygon fill="none" stroke="#000000" points="618,-739.2 618,-761.2 714,-761.2 714,-739.2 618,-739.2"/>
<image xlink:href="../../images/foreignKeys.png" width="11px" height="12px" preserveAspectRatio="xMinYMin meet" x="623" y="-756.2"/>
<text text-anchor="start" x="638" y="-746.3" font-family="Helvetica,sans-Serif" font-size="11.00" fill="#000000">adgroup_id</text>
<polygon fill="none" stroke="#000000" points="618,-717.2 618,-739.2 714,-739.2 714,-717.2 618,-717.2"/>
<text text-anchor="start" x="638" y="-724.3" font-family="Helvetica,sans-Serif" font-size="11.00" fill="#000000">name</text>
<polygon fill="none" stroke="#000000" points="618,-695.2 618,-717.2 714,-717.2 714,-695.2 618,-695.2"/>
<text text-anchor="start" x="638" y="-702.3" font-family="Helvetica,sans-Serif" font-size="11.00" fill="#000000">status</text>
<polygon fill="none" stroke="#000000" points="618,-673.2 618,-695.2 714,-695.2 714,-673.2 618,-673.2"/>
<text text-anchor="start" x="638" y="-680.3" font-family="Helvetica,sans-Serif" font-size="11.00" fill="#000000">start_at</text>
<polygon fill="none" stroke="#000000" points="618,-651.2 618,-673.2 714,-673.2 714,-651.2 618,-651.2"/>
<text text-anchor="start" x="638" y="-658.3" font-family="Helvetica,sans-Serif" font-size="11.00" fill="#000000">end_at</text>
<polygon fill="none" stroke="#000000" points="618,-629.2 618,-651.2 714,-651.2 714,-629.2 618,-629.2"/>
<text text-anchor="start" x="638" y="-636.3" font-family="Helvetica,sans-Serif" font-size="11.00" fill="#000000">movie_sec</text>
<polygon fill="none" stroke="#000000" points="618,-607.2 618,-629.2 714,-629.2 714,-607.2 618,-607.2"/>
<text text-anchor="start" x="638" y="-614.3" font-family="Helvetica,sans-Serif" font-size="11.00" fill="#000000">content_path</text>
<polygon fill="none" stroke="#000000" points="618,-585.2 618,-607.2 714,-607.2 714,-585.2 618,-585.2"/>
<text text-anchor="start" x="638" y="-592.3" font-family="Helvetica,sans-Serif" font-size="11.00" fill="#000000">width</text>
<polygon fill="none" stroke="#000000" points="618,-563.2 618,-585.2 714,-585.2 714,-563.2 618,-563.2"/>
<text text-anchor="start" x="638" y="-570.3" font-family="Helvetica,sans-Serif" font-size="11.00" fill="#000000">height</text>
<polygon fill="none" stroke="#000000" points="618,-541.2 618,-563.2 714,-563.2 714,-541.2 618,-541.2"/>
<text text-anchor="start" x="638" y="-548.3" font-family="Helvetica,sans-Serif" font-size="11.00" fill="#000000">created_at</text>
<polygon fill="none" stroke="#000000" points="618,-519.2 618,-541.2 714,-541.2 714,-519.2 618,-519.2"/>
<text text-anchor="start" x="638" y="-526.3" font-family="Helvetica,sans-Serif" font-size="11.00" fill="#000000">updated_at</text>
<polygon fill="none" stroke="#000000" points="618,-497.2 618,-519.2 714,-519.2 714,-497.2 618,-497.2"/>
<text text-anchor="start" x="638" y="-504.3" font-family="Helvetica,sans-Serif" font-size="11.00" fill="#000000">deleted_at</text>
<polygon fill="#ffffff" stroke="transparent" points="618,-478.2 618,-497.2 651,-497.2 651,-478.2 618,-478.2"/>
<polygon fill="none" stroke="#000000" points="618,-478.2 618,-497.2 651,-497.2 651,-478.2 618,-478.2"/>
<text text-anchor="start" x="621" y="-484.3" font-family="Helvetica,sans-Serif" font-size="11.00" fill="#000000">&lt; 1</text>
<polygon fill="#ffffff" stroke="transparent" points="651,-478.2 651,-497.2 695,-497.2 695,-478.2 651,-478.2"/>
<polygon fill="none" stroke="#000000" points="651,-478.2 651,-497.2 695,-497.2 695,-478.2 651,-478.2"/>
<text text-anchor="start" x="659.6105" y="-484.3" font-family="Helvetica,sans-Serif" font-size="11.00" fill="#000000">0 rows</text>
<polygon fill="#ffffff" stroke="transparent" points="695,-478.2 695,-497.2 714,-497.2 714,-478.2 695,-478.2"/>
<polygon fill="none" stroke="#000000" points="695,-478.2 695,-497.2 714,-497.2 714,-478.2 695,-478.2"/>
<text text-anchor="start" x="704.8862" y="-484.3" font-family="Helvetica,sans-Serif" font-size="11.00" fill="#000000"> &#160;</text>
</a>
</g>
</g>
<!-- ads&#45;&gt;adgroups -->
<g id="edge4" class="edge">
<title>ads:w&#45;&gt;adgroups:e</title>
<path fill="none" stroke="#000000" d="M603.5676,-747.5881C582.1603,-739.0028 578.0663,-712.2 548.5,-712.2"/>
<polygon fill="#000000" stroke="#000000" points="610.1279,-748.7753 617.3589,-753.7425 614.0639,-749.4877 618,-750.2 618,-750.2 618,-750.2 614.0639,-749.4877 618.6411,-746.6575 610.1279,-748.7753 610.1279,-748.7753"/>
<ellipse fill="none" stroke="#000000" cx="606.979" cy="-748.2054" rx="3.2" ry="3.2"/>
</g>
<!-- advertiser_users -->
<g id="node4" class="node">
<title>advertiser_users</title>
<g id="a_node4"><a xlink:href="../../tables/advertiser_users.html" xlink:title="advertiser_users" target="_top">
<polygon fill="#ffffff" stroke="transparent" points="183,-745.2 183,-985.2 324,-985.2 324,-745.2 183,-745.2"/>
<polygon fill="#f5f5f5" stroke="transparent" points="183.5,-962.2 183.5,-985.2 324.5,-985.2 324.5,-962.2 183.5,-962.2"/>
<polygon fill="none" stroke="#000000" points="183.5,-962.2 183.5,-985.2 324.5,-985.2 324.5,-962.2 183.5,-962.2"/>
<text text-anchor="start" x="188.5" y="-971.3" font-family="Helvetica,sans-Serif" font-weight="bold" font-size="11.00" fill="#000000">advertiser_users</text>
<text text-anchor="start" x="289.5437" y="-970.3" font-family="Helvetica,sans-Serif" font-size="11.00" fill="#000000">[table]</text>
<polygon fill="none" stroke="#000000" points="183.5,-940.2 183.5,-962.2 324.5,-962.2 324.5,-940.2 183.5,-940.2"/>
<image xlink:href="../../images/primaryKeys.png" width="11px" height="12px" preserveAspectRatio="xMinYMin meet" x="188.5" y="-957.2"/>
<text text-anchor="start" x="203.5" y="-947.3" font-family="Helvetica,sans-Serif" font-size="11.00" fill="#000000">id</text>
<polygon fill="#ffffff" stroke="transparent" points="183.5,-918.2 183.5,-940.2 324.5,-940.2 324.5,-918.2 183.5,-918.2"/>
<polygon fill="none" stroke="#000000" points="183.5,-918.2 183.5,-940.2 324.5,-940.2 324.5,-918.2 183.5,-918.2"/>
<image xlink:href="../../images/foreignKeys.png" width="11px" height="12px" preserveAspectRatio="xMinYMin meet" x="188.5" y="-935.2"/>
<text text-anchor="start" x="203.5" y="-925.3" font-family="Helvetica,sans-Serif" font-size="11.00" fill="#000000">advertiser_id</text>
<polygon fill="none" stroke="#000000" points="183.5,-896.2 183.5,-918.2 324.5,-918.2 324.5,-896.2 183.5,-896.2"/>
<text text-anchor="start" x="203.5" y="-903.3" font-family="Helvetica,sans-Serif" font-size="11.00" fill="#000000">login_name</text>
<polygon fill="none" stroke="#000000" points="183.5,-874.2 183.5,-896.2 324.5,-896.2 324.5,-874.2 183.5,-874.2"/>
<text text-anchor="start" x="203.5" y="-881.3" font-family="Helvetica,sans-Serif" font-size="11.00" fill="#000000">email</text>
<polygon fill="none" stroke="#000000" points="183.5,-852.2 183.5,-874.2 324.5,-874.2 324.5,-852.2 183.5,-852.2"/>
<text text-anchor="start" x="203.5" y="-859.3" font-family="Helvetica,sans-Serif" font-size="11.00" fill="#000000">encrypted_password</text>
<polygon fill="none" stroke="#000000" points="183.5,-830.2 183.5,-852.2 324.5,-852.2 324.5,-830.2 183.5,-830.2"/>
<text text-anchor="start" x="203.5" y="-837.3" font-family="Helvetica,sans-Serif" font-size="11.00" fill="#000000">last_sign_in_at</text>
<polygon fill="none" stroke="#000000" points="183.5,-808.2 183.5,-830.2 324.5,-830.2 324.5,-808.2 183.5,-808.2"/>
<text text-anchor="start" x="203.5" y="-815.3" font-family="Helvetica,sans-Serif" font-size="11.00" fill="#000000">created_at</text>
<polygon fill="none" stroke="#000000" points="183.5,-786.2 183.5,-808.2 324.5,-808.2 324.5,-786.2 183.5,-786.2"/>
<text text-anchor="start" x="203.5" y="-793.3" font-family="Helvetica,sans-Serif" font-size="11.00" fill="#000000">updated_at</text>
<polygon fill="none" stroke="#000000" points="183.5,-764.2 183.5,-786.2 324.5,-786.2 324.5,-764.2 183.5,-764.2"/>
<text text-anchor="start" x="203.5" y="-771.3" font-family="Helvetica,sans-Serif" font-size="11.00" fill="#000000">deleted_at</text>
<polygon fill="#ffffff" stroke="transparent" points="183.5,-745.2 183.5,-764.2 239.5,-764.2 239.5,-745.2 183.5,-745.2"/>
<polygon fill="none" stroke="#000000" points="183.5,-745.2 183.5,-764.2 239.5,-764.2 239.5,-745.2 183.5,-745.2"/>
<text text-anchor="start" x="186.5" y="-751.3" font-family="Helvetica,sans-Serif" font-size="11.00" fill="#000000">&lt; 1</text>
<polygon fill="#ffffff" stroke="transparent" points="239.5,-745.2 239.5,-764.2 294.5,-764.2 294.5,-745.2 239.5,-745.2"/>
<polygon fill="none" stroke="#000000" points="239.5,-745.2 239.5,-764.2 294.5,-764.2 294.5,-745.2 239.5,-745.2"/>
<text text-anchor="start" x="259.1105" y="-751.3" font-family="Helvetica,sans-Serif" font-size="11.00" fill="#000000">0 rows</text>
<polygon fill="#ffffff" stroke="transparent" points="294.5,-745.2 294.5,-764.2 324.5,-764.2 324.5,-745.2 294.5,-745.2"/>
<polygon fill="none" stroke="#000000" points="294.5,-745.2 294.5,-764.2 324.5,-764.2 324.5,-745.2 294.5,-745.2"/>
<text text-anchor="start" x="315.3862" y="-751.3" font-family="Helvetica,sans-Serif" font-size="11.00" fill="#000000"> &#160;</text>
</a>
</g>
</g>
<!-- advertisers -->
<g id="node5" class="node">
<title>advertisers</title>
<g id="a_node5"><a xlink:href="../../tables/advertisers.html" xlink:title="advertisers" target="_top">
<polygon fill="#ffffff" stroke="transparent" points="8,-636.2 8,-832.2 104,-832.2 104,-636.2 8,-636.2"/>
<polygon fill="#f5f5f5" stroke="transparent" points="8,-809.2 8,-832.2 104,-832.2 104,-809.2 8,-809.2"/>
<polygon fill="none" stroke="#000000" points="8,-809.2 8,-832.2 104,-832.2 104,-809.2 8,-809.2"/>
<text text-anchor="start" x="12.6094" y="-818.3" font-family="Helvetica,sans-Serif" font-weight="bold" font-size="11.00" fill="#000000">advertisers</text>
<text text-anchor="start" x="69.5219" y="-817.3" font-family="Helvetica,sans-Serif" font-size="11.00" fill="#000000">[table]</text>
<polygon fill="none" stroke="#000000" points="8,-787.2 8,-809.2 104,-809.2 104,-787.2 8,-787.2"/>
<image xlink:href="../../images/primaryKeys.png" width="11px" height="12px" preserveAspectRatio="xMinYMin meet" x="13" y="-804.2"/>
<text text-anchor="start" x="34" y="-794.3" font-family="Helvetica,sans-Serif" font-size="11.00" fill="#000000">id</text>
<polygon fill="none" stroke="#000000" points="8,-765.2 8,-787.2 104,-787.2 104,-765.2 8,-765.2"/>
<text text-anchor="start" x="34" y="-772.3" font-family="Helvetica,sans-Serif" font-size="11.00" fill="#000000">name</text>
<polygon fill="none" stroke="#000000" points="8,-743.2 8,-765.2 104,-765.2 104,-743.2 8,-743.2"/>
<text text-anchor="start" x="34" y="-750.3" font-family="Helvetica,sans-Serif" font-size="11.00" fill="#000000">domain</text>
<polygon fill="none" stroke="#000000" points="8,-721.2 8,-743.2 104,-743.2 104,-721.2 8,-721.2"/>
<text text-anchor="start" x="34" y="-728.3" font-family="Helvetica,sans-Serif" font-size="11.00" fill="#000000">is_test</text>
<polygon fill="none" stroke="#000000" points="8,-699.2 8,-721.2 104,-721.2 104,-699.2 8,-699.2"/>
<text text-anchor="start" x="34" y="-706.3" font-family="Helvetica,sans-Serif" font-size="11.00" fill="#000000">created_at</text>
<polygon fill="none" stroke="#000000" points="8,-677.2 8,-699.2 104,-699.2 104,-677.2 8,-677.2"/>
<text text-anchor="start" x="34" y="-684.3" font-family="Helvetica,sans-Serif" font-size="11.00" fill="#000000">updated_at</text>
<polygon fill="none" stroke="#000000" points="8,-655.2 8,-677.2 104,-677.2 104,-655.2 8,-655.2"/>
<text text-anchor="start" x="34" y="-662.3" font-family="Helvetica,sans-Serif" font-size="11.00" fill="#000000">deleted_at</text>
<polygon fill="#ffffff" stroke="transparent" points="8,-636.2 8,-655.2 32,-655.2 32,-636.2 8,-636.2"/>
<polygon fill="none" stroke="#000000" points="8,-636.2 8,-655.2 32,-655.2 32,-636.2 8,-636.2"/>
<text text-anchor="start" x="11" y="-642.3" font-family="Helvetica,sans-Serif" font-size="11.00" fill="#000000"> &#160;</text>
<polygon fill="#ffffff" stroke="transparent" points="32,-636.2 32,-655.2 76,-655.2 76,-636.2 32,-636.2"/>
<polygon fill="none" stroke="#000000" points="32,-636.2 32,-655.2 76,-655.2 76,-636.2 32,-636.2"/>
<text text-anchor="start" x="40.6105" y="-642.3" font-family="Helvetica,sans-Serif" font-size="11.00" fill="#000000">0 rows</text>
<polygon fill="#ffffff" stroke="transparent" points="76,-636.2 76,-655.2 104,-655.2 104,-636.2 76,-636.2"/>
<polygon fill="none" stroke="#000000" points="76,-636.2 76,-655.2 104,-655.2 104,-636.2 76,-636.2"/>
<text text-anchor="start" x="85.4053" y="-642.3" font-family="Helvetica,sans-Serif" font-size="11.00" fill="#000000">2 &gt;</text>
</a>
</g>
</g>
<!-- advertiser_users&#45;&gt;advertisers -->
<g id="edge5" class="edge">
<title>advertiser_users:w&#45;&gt;advertisers:e</title>
<path fill="none" stroke="#000000" d="M169.1217,-926.7001C123.8592,-908.5893 166.5181,-798.2 104,-798.2"/>
<polygon fill="#000000" stroke="#000000" points="175.6182,-927.8296 182.8833,-932.7468 179.5591,-928.5148 183.5,-929.2 183.5,-929.2 183.5,-929.2 179.5591,-928.5148 184.1167,-925.6532 175.6182,-927.8296 175.6182,-927.8296"/>
<ellipse fill="none" stroke="#000000" cx="172.4655" cy="-927.2814" rx="3.2" ry="3.2"/>
</g>
<!-- campaigns&#45;&gt;advertisers -->
<g id="edge6" class="edge">
<title>campaigns:w&#45;&gt;advertisers:e</title>
<path fill="none" stroke="#000000" d="M139.0243,-671.6772C104.861,-692.3508 159.787,-798.2 104,-798.2"/>
<polygon fill="#000000" stroke="#000000" points="145.7213,-670.0686 154.3409,-671.7004 149.6106,-669.1343 153.5,-668.2 153.5,-668.2 153.5,-668.2 149.6106,-669.1343 152.6591,-664.6996 145.7213,-670.0686 145.7213,-670.0686"/>
<ellipse fill="none" stroke="#000000" cx="142.6098" cy="-670.816" rx="3.2" ry="3.2"/>
</g>
<!-- location_owners -->
<g id="node7" class="node">
<title>location_owners</title>
<g id="a_node7"><a xlink:href="../../tables/location_owners.html" xlink:title="location_owners" target="_top">
<polygon fill="#ffffff" stroke="transparent" points="192.5,-82.2 192.5,-256.2 314.5,-256.2 314.5,-82.2 192.5,-82.2"/>
<polygon fill="#f5f5f5" stroke="transparent" points="192.5,-233.2 192.5,-256.2 314.5,-256.2 314.5,-233.2 192.5,-233.2"/>
<polygon fill="none" stroke="#000000" points="192.5,-233.2 192.5,-256.2 314.5,-256.2 314.5,-233.2 192.5,-233.2"/>
<text text-anchor="start" x="197.2697" y="-242.3" font-family="Helvetica,sans-Serif" font-weight="bold" font-size="11.00" fill="#000000">location_owners</text>
<text text-anchor="start" x="280.0219" y="-241.3" font-family="Helvetica,sans-Serif" font-size="11.00" fill="#000000">[table]</text>
<polygon fill="none" stroke="#000000" points="192.5,-211.2 192.5,-233.2 314.5,-233.2 314.5,-211.2 192.5,-211.2"/>
<image xlink:href="../../images/primaryKeys.png" width="11px" height="12px" preserveAspectRatio="xMinYMin meet" x="197.5" y="-228.2"/>
<text text-anchor="start" x="216.5" y="-218.3" font-family="Helvetica,sans-Serif" font-size="11.00" fill="#000000">id</text>
<polygon fill="none" stroke="#000000" points="192.5,-189.2 192.5,-211.2 314.5,-211.2 314.5,-189.2 192.5,-189.2"/>
<text text-anchor="start" x="216.5" y="-196.3" font-family="Helvetica,sans-Serif" font-size="11.00" fill="#000000">name</text>
<polygon fill="none" stroke="#000000" points="192.5,-167.2 192.5,-189.2 314.5,-189.2 314.5,-167.2 192.5,-167.2"/>
<text text-anchor="start" x="216.5" y="-174.3" font-family="Helvetica,sans-Serif" font-size="11.00" fill="#000000">is_test</text>
<polygon fill="none" stroke="#000000" points="192.5,-145.2 192.5,-167.2 314.5,-167.2 314.5,-145.2 192.5,-145.2"/>
<text text-anchor="start" x="216.5" y="-152.3" font-family="Helvetica,sans-Serif" font-size="11.00" fill="#000000">created_at</text>
<polygon fill="none" stroke="#000000" points="192.5,-123.2 192.5,-145.2 314.5,-145.2 314.5,-123.2 192.5,-123.2"/>
<text text-anchor="start" x="216.5" y="-130.3" font-family="Helvetica,sans-Serif" font-size="11.00" fill="#000000">updated_at</text>
<polygon fill="none" stroke="#000000" points="192.5,-101.2 192.5,-123.2 314.5,-123.2 314.5,-101.2 192.5,-101.2"/>
<text text-anchor="start" x="216.5" y="-108.3" font-family="Helvetica,sans-Serif" font-size="11.00" fill="#000000">deleted_at</text>
<polygon fill="#ffffff" stroke="transparent" points="192.5,-82.2 192.5,-101.2 229.5,-101.2 229.5,-82.2 192.5,-82.2"/>
<polygon fill="none" stroke="#000000" points="192.5,-82.2 192.5,-101.2 229.5,-101.2 229.5,-82.2 192.5,-82.2"/>
<text text-anchor="start" x="195.5" y="-88.3" font-family="Helvetica,sans-Serif" font-size="11.00" fill="#000000"> &#160;</text>
<polygon fill="#ffffff" stroke="transparent" points="229.5,-82.2 229.5,-101.2 280.5,-101.2 280.5,-82.2 229.5,-82.2"/>
<polygon fill="none" stroke="#000000" points="229.5,-82.2 229.5,-101.2 280.5,-101.2 280.5,-82.2 229.5,-82.2"/>
<text text-anchor="start" x="245.1105" y="-88.3" font-family="Helvetica,sans-Serif" font-size="11.00" fill="#000000">0 rows</text>
<polygon fill="#ffffff" stroke="transparent" points="280.5,-82.2 280.5,-101.2 314.5,-101.2 314.5,-82.2 280.5,-82.2"/>
<polygon fill="none" stroke="#000000" points="280.5,-82.2 280.5,-101.2 314.5,-101.2 314.5,-82.2 280.5,-82.2"/>
<text text-anchor="start" x="295.9053" y="-88.3" font-family="Helvetica,sans-Serif" font-size="11.00" fill="#000000">1 &gt;</text>
</a>
</g>
</g>
<!-- locations&#45;&gt;location_owners -->
<g id="edge7" class="edge">
<title>locations:w&#45;&gt;location_owners:e</title>
<path fill="none" stroke="#000000" d="M397.9981,-222.2C365.8283,-222.2 352.7813,-222.2 314.5,-222.2"/>
<polygon fill="#000000" stroke="#000000" points="404.5,-222.2001 412.5,-225.8 408.5,-222.2 412.5,-222.2 412.5,-222.2 412.5,-222.2 408.5,-222.2 412.5,-218.6 404.5,-222.2001 404.5,-222.2001"/>
<ellipse fill="none" stroke="#000000" cx="401.3" cy="-222.2001" rx="3.2" ry="3.2"/>
</g>
<!-- signages -->
<g id="node9" class="node">
<title>signages</title>
<g id="a_node9"><a xlink:href="../../tables/signages.html" xlink:title="signages" target="_top">
<polygon fill="#ffffff" stroke="transparent" points="622.5,-44.2 622.5,-262.2 709.5,-262.2 709.5,-44.2 622.5,-44.2"/>
<polygon fill="#f5f5f5" stroke="transparent" points="623,-239.2 623,-262.2 710,-262.2 710,-239.2 623,-239.2"/>
<polygon fill="none" stroke="#000000" points="623,-239.2 623,-262.2 710,-262.2 710,-239.2 623,-239.2"/>
<text text-anchor="start" x="627.9923" y="-248.3" font-family="Helvetica,sans-Serif" font-weight="bold" font-size="11.00" fill="#000000">signages</text>
<text text-anchor="start" x="675.5219" y="-247.3" font-family="Helvetica,sans-Serif" font-size="11.00" fill="#000000">[table]</text>
<polygon fill="none" stroke="#000000" points="623,-217.2 623,-239.2 710,-239.2 710,-217.2 623,-217.2"/>
<image xlink:href="../../images/primaryKeys.png" width="11px" height="12px" preserveAspectRatio="xMinYMin meet" x="628" y="-234.2"/>
<text text-anchor="start" x="644" y="-224.3" font-family="Helvetica,sans-Serif" font-size="11.00" fill="#000000">id</text>
<polygon fill="#ffffff" stroke="transparent" points="623,-195.2 623,-217.2 710,-217.2 710,-195.2 623,-195.2"/>
<polygon fill="none" stroke="#000000" points="623,-195.2 623,-217.2 710,-217.2 710,-195.2 623,-195.2"/>
<image xlink:href="../../images/foreignKeys.png" width="11px" height="12px" preserveAspectRatio="xMinYMin meet" x="628" y="-212.2"/>
<text text-anchor="start" x="644" y="-202.3" font-family="Helvetica,sans-Serif" font-size="11.00" fill="#000000">location_id</text>
<polygon fill="none" stroke="#000000" points="623,-173.2 623,-195.2 710,-195.2 710,-173.2 623,-173.2"/>
<text text-anchor="start" x="644" y="-180.3" font-family="Helvetica,sans-Serif" font-size="11.00" fill="#000000">hashkey</text>
<polygon fill="none" stroke="#000000" points="623,-151.2 623,-173.2 710,-173.2 710,-151.2 623,-151.2"/>
<text text-anchor="start" x="644" y="-158.3" font-family="Helvetica,sans-Serif" font-size="11.00" fill="#000000">external_id</text>
<polygon fill="none" stroke="#000000" points="623,-129.2 623,-151.2 710,-151.2 710,-129.2 623,-129.2"/>
<text text-anchor="start" x="644" y="-136.3" font-family="Helvetica,sans-Serif" font-size="11.00" fill="#000000">is_active</text>
<polygon fill="none" stroke="#000000" points="623,-107.2 623,-129.2 710,-129.2 710,-107.2 623,-107.2"/>
<text text-anchor="start" x="644" y="-114.3" font-family="Helvetica,sans-Serif" font-size="11.00" fill="#000000">created_at</text>
<polygon fill="none" stroke="#000000" points="623,-85.2 623,-107.2 710,-107.2 710,-85.2 623,-85.2"/>
<text text-anchor="start" x="644" y="-92.3" font-family="Helvetica,sans-Serif" font-size="11.00" fill="#000000">updated_at</text>
<polygon fill="none" stroke="#000000" points="623,-63.2 623,-85.2 710,-85.2 710,-63.2 623,-63.2"/>
<text text-anchor="start" x="644" y="-70.3" font-family="Helvetica,sans-Serif" font-size="11.00" fill="#000000">deleted_at</text>
<polygon fill="#ffffff" stroke="transparent" points="623,-44.2 623,-63.2 652,-63.2 652,-44.2 623,-44.2"/>
<polygon fill="none" stroke="#000000" points="623,-44.2 623,-63.2 652,-63.2 652,-44.2 623,-44.2"/>
<text text-anchor="start" x="626" y="-50.3" font-family="Helvetica,sans-Serif" font-size="11.00" fill="#000000">&lt; 1</text>
<polygon fill="#ffffff" stroke="transparent" points="652,-44.2 652,-63.2 694,-63.2 694,-44.2 652,-44.2"/>
<polygon fill="none" stroke="#000000" points="652,-44.2 652,-63.2 694,-63.2 694,-44.2 652,-44.2"/>
<text text-anchor="start" x="658.6105" y="-50.3" font-family="Helvetica,sans-Serif" font-size="11.00" fill="#000000">0 rows</text>
<polygon fill="#ffffff" stroke="transparent" points="694,-44.2 694,-63.2 710,-63.2 710,-44.2 694,-44.2"/>
<polygon fill="none" stroke="#000000" points="694,-44.2 694,-63.2 710,-63.2 710,-44.2 694,-44.2"/>
<text text-anchor="start" x="700.8862" y="-50.3" font-family="Helvetica,sans-Serif" font-size="11.00" fill="#000000"> &#160;</text>
</a>
</g>
</g>
<!-- signages&#45;&gt;locations -->
<g id="edge8" class="edge">
<title>signages:w&#45;&gt;locations:e</title>
<path fill="none" stroke="#000000" d="M608.4757,-208.0328C580.5638,-215.6235 574.2093,-244.2 538.5,-244.2"/>
<polygon fill="#000000" stroke="#000000" points="615.0629,-207.2016 623.4507,-209.7717 619.0315,-206.7008 623,-206.2 623,-206.2 623,-206.2 619.0315,-206.7008 622.5493,-202.6283 615.0629,-207.2016 615.0629,-207.2016"/>
<ellipse fill="none" stroke="#000000" cx="611.8881" cy="-207.6023" rx="3.2" ry="3.2"/>
</g>
</g>
</svg>
