<?xml version="1.0" encoding="UTF-8" standalone="no"?>
<!DOCTYPE svg PUBLIC "-//W3C//DTD SVG 1.1//EN"
 "http://www.w3.org/Graphics/SVG/1.1/DTD/svg11.dtd">
<!-- Generated by graphviz version 2.40.1 (20161225.0304)
 -->
<!-- Title: oneDegreeRelationshipsDiagram Pages: 1 -->
<svg width="765pt" height="499pt"
 viewBox="0.00 0.00 765.00 498.70" xmlns="http://www.w3.org/2000/svg" xmlns:xlink="http://www.w3.org/1999/xlink">
<g id="graph0" class="graph" transform="scale(1 1) rotate(0) translate(4 494.7)">
<title>oneDegreeRelationshipsDiagram</title>
<polygon fill="#ffffff" stroke="transparent" points="-4,4 -4,-494.7 761,-494.7 761,4 -4,4"/>
<text text-anchor="middle" x="72.4936" y="-7.3" font-family="Helvetica,sans-Serif" font-size="11.00" fill="#000000">Generated by SchemaSpy</text>
<!-- adgroups -->
<g id="node1" class="node">
<title>adgroups</title>
<g id="a_node1"><a xlink:href="../../tables/adgroups.html" xlink:title="adgroups" target="_top">
<polygon fill="#ffffff" stroke="transparent" points="286,-38.2 286,-392.2 548,-392.2 548,-38.2 286,-38.2"/>
<polygon fill="#f5f5f5" stroke="transparent" points="288,-367.2 288,-390.2 546,-390.2 546,-367.2 288,-367.2"/>
<polygon fill="none" stroke="#000000" points="288,-367.2 288,-390.2 546,-390.2 546,-367.2 288,-367.2"/>
<text text-anchor="start" x="293" y="-376.3" font-family="Helvetica,sans-Serif" font-weight="bold" font-size="11.00" fill="#000000">adgroups</text>
<text text-anchor="start" x="511.0437" y="-375.3" font-family="Helvetica,sans-Serif" font-size="11.00" fill="#000000">[table]</text>
<polygon fill="none" stroke="#000000" points="288,-345.2 288,-367.2 453,-367.2 453,-345.2 288,-345.2"/>
<image xlink:href="../../images/primaryKeys.png" width="11px" height="12px" preserveAspectRatio="xMinYMin meet" x="293" y="-362.2"/>
<text text-anchor="start" x="308" y="-352.3" font-family="Helvetica,sans-Serif" font-size="11.00" fill="#000000">id</text>
<polygon fill="none" stroke="#000000" points="453,-345.2 453,-367.2 546,-367.2 546,-345.2 453,-345.2"/>
<text text-anchor="start" x="456" y="-352.9" font-family="Helvetica,sans-Serif" font-size="11.00" fill="#000000">int[10]</text>
<polygon fill="#ffffff" stroke="transparent" points="288,-323.2 288,-345.2 453,-345.2 453,-323.2 288,-323.2"/>
<polygon fill="none" stroke="#000000" points="288,-323.2 288,-345.2 453,-345.2 453,-323.2 288,-323.2"/>
<image xlink:href="../../images/foreignKeys.png" width="11px" height="12px" preserveAspectRatio="xMinYMin meet" x="293" y="-340.2"/>
<text text-anchor="start" x="308" y="-330.3" font-family="Helvetica,sans-Serif" font-size="11.00" fill="#000000">campaign_id</text>
<polygon fill="none" stroke="#000000" points="453,-323.2 453,-345.2 546,-345.2 546,-323.2 453,-323.2"/>
<text text-anchor="start" x="456" y="-330.9" font-family="Helvetica,sans-Serif" font-size="11.00" fill="#000000">int[10]</text>
<polygon fill="none" stroke="#000000" points="288,-301.2 288,-323.2 453,-323.2 453,-301.2 288,-301.2"/>
<text text-anchor="start" x="308" y="-308.3" font-family="Helvetica,sans-Serif" font-size="11.00" fill="#000000">name</text>
<polygon fill="none" stroke="#000000" points="453,-301.2 453,-323.2 546,-323.2 546,-301.2 453,-301.2"/>
<text text-anchor="start" x="456" y="-308.9" font-family="Helvetica,sans-Serif" font-size="11.00" fill="#000000">varchar[255]</text>
<polygon fill="none" stroke="#000000" points="288,-279.2 288,-301.2 453,-301.2 453,-279.2 288,-279.2"/>
<text text-anchor="start" x="308" y="-286.3" font-family="Helvetica,sans-Serif" font-size="11.00" fill="#000000">status</text>
<polygon fill="none" stroke="#000000" points="453,-279.2 453,-301.2 546,-301.2 546,-279.2 453,-279.2"/>
<text text-anchor="start" x="456" y="-286.9" font-family="Helvetica,sans-Serif" font-size="11.00" fill="#000000">bit[1]</text>
<polygon fill="none" stroke="#000000" points="288,-257.2 288,-279.2 453,-279.2 453,-257.2 288,-257.2"/>
<text text-anchor="start" x="308" y="-264.3" font-family="Helvetica,sans-Serif" font-size="11.00" fill="#000000">start_at</text>
<polygon fill="none" stroke="#000000" points="453,-257.2 453,-279.2 546,-279.2 546,-257.2 453,-257.2"/>
<text text-anchor="start" x="456" y="-264.9" font-family="Helvetica,sans-Serif" font-size="11.00" fill="#000000">datetime[19]</text>
<polygon fill="none" stroke="#000000" points="288,-235.2 288,-257.2 453,-257.2 453,-235.2 288,-235.2"/>
<text text-anchor="start" x="308" y="-242.3" font-family="Helvetica,sans-Serif" font-size="11.00" fill="#000000">end_at</text>
<polygon fill="none" stroke="#000000" points="453,-235.2 453,-257.2 546,-257.2 546,-235.2 453,-235.2"/>
<text text-anchor="start" x="456" y="-242.9" font-family="Helvetica,sans-Serif" font-size="11.00" fill="#000000">datetime[19]</text>
<polygon fill="none" stroke="#000000" points="288,-213.2 288,-235.2 453,-235.2 453,-213.2 288,-213.2"/>
<text text-anchor="start" x="308" y="-220.3" font-family="Helvetica,sans-Serif" font-size="11.00" fill="#000000">max_total_budget</text>
<polygon fill="none" stroke="#000000" points="453,-213.2 453,-235.2 546,-235.2 546,-213.2 453,-213.2"/>
<text text-anchor="start" x="456" y="-220.9" font-family="Helvetica,sans-Serif" font-size="11.00" fill="#000000">bigint[19]</text>
<polygon fill="none" stroke="#000000" points="288,-191.2 288,-213.2 453,-213.2 453,-191.2 288,-191.2"/>
<text text-anchor="start" x="308" y="-198.3" font-family="Helvetica,sans-Serif" font-size="11.00" fill="#000000">max_monthly_budget</text>
<polygon fill="none" stroke="#000000" points="453,-191.2 453,-213.2 546,-213.2 546,-191.2 453,-191.2"/>
<text text-anchor="start" x="456" y="-198.9" font-family="Helvetica,sans-Serif" font-size="11.00" fill="#000000">bigint[19]</text>
<polygon fill="none" stroke="#000000" points="288,-169.2 288,-191.2 453,-191.2 453,-169.2 288,-169.2"/>
<text text-anchor="start" x="308" y="-176.3" font-family="Helvetica,sans-Serif" font-size="11.00" fill="#000000">max_daily_budget</text>
<polygon fill="none" stroke="#000000" points="453,-169.2 453,-191.2 546,-191.2 546,-169.2 453,-169.2"/>
<text text-anchor="start" x="456" y="-176.9" font-family="Helvetica,sans-Serif" font-size="11.00" fill="#000000">bigint[19]</text>
<polygon fill="none" stroke="#000000" points="288,-147.2 288,-169.2 453,-169.2 453,-147.2 288,-147.2"/>
<text text-anchor="start" x="308" y="-154.3" font-family="Helvetica,sans-Serif" font-size="11.00" fill="#000000">max_hourly_budget</text>
<polygon fill="none" stroke="#000000" points="453,-147.2 453,-169.2 546,-169.2 546,-147.2 453,-147.2"/>
<text text-anchor="start" x="455.7833" y="-154.9" font-family="Helvetica,sans-Serif" font-size="11.00" fill="#000000">json[1073741824]</text>
<polygon fill="none" stroke="#000000" points="288,-125.2 288,-147.2 453,-147.2 453,-125.2 288,-125.2"/>
<text text-anchor="start" x="308" y="-132.3" font-family="Helvetica,sans-Serif" font-size="11.00" fill="#000000">cpv</text>
<polygon fill="none" stroke="#000000" points="453,-125.2 453,-147.2 546,-147.2 546,-125.2 453,-125.2"/>
<text text-anchor="start" x="456" y="-132.9" font-family="Helvetica,sans-Serif" font-size="11.00" fill="#000000">decimal[20,6]</text>
<polygon fill="none" stroke="#000000" points="288,-103.2 288,-125.2 453,-125.2 453,-103.2 288,-103.2"/>
<text text-anchor="start" x="308" y="-110.3" font-family="Helvetica,sans-Serif" font-size="11.00" fill="#000000">created_at</text>
<polygon fill="none" stroke="#000000" points="453,-103.2 453,-125.2 546,-125.2 546,-103.2 453,-103.2"/>
<text text-anchor="start" x="456" y="-110.9" font-family="Helvetica,sans-Serif" font-size="11.00" fill="#000000">datetime[19]</text>
<polygon fill="none" stroke="#000000" points="288,-81.2 288,-103.2 453,-103.2 453,-81.2 288,-81.2"/>
<text text-anchor="start" x="308" y="-88.3" font-family="Helvetica,sans-Serif" font-size="11.00" fill="#000000">updated_at</text>
<polygon fill="none" stroke="#000000" points="453,-81.2 453,-103.2 546,-103.2 546,-81.2 453,-81.2"/>
<text text-anchor="start" x="456" y="-88.9" font-family="Helvetica,sans-Serif" font-size="11.00" fill="#000000">datetime[19]</text>
<polygon fill="none" stroke="#000000" points="288,-59.2 288,-81.2 453,-81.2 453,-59.2 288,-59.2"/>
<text text-anchor="start" x="308" y="-66.3" font-family="Helvetica,sans-Serif" font-size="11.00" fill="#000000">deleted_at</text>
<polygon fill="none" stroke="#000000" points="453,-59.2 453,-81.2 546,-81.2 546,-59.2 453,-59.2"/>
<text text-anchor="start" x="456" y="-66.9" font-family="Helvetica,sans-Serif" font-size="11.00" fill="#000000">datetime[19]</text>
<polygon fill="#ffffff" stroke="transparent" points="288,-40.2 288,-59.2 375,-59.2 375,-40.2 288,-40.2"/>
<polygon fill="none" stroke="#000000" points="288,-40.2 288,-59.2 375,-59.2 375,-40.2 288,-40.2"/>
<text text-anchor="start" x="291" y="-46.3" font-family="Helvetica,sans-Serif" font-size="11.00" fill="#000000">&lt; 1</text>
<polygon fill="#ffffff" stroke="transparent" points="375,-40.2 375,-59.2 453,-59.2 453,-40.2 375,-40.2"/>
<polygon fill="none" stroke="#000000" points="375,-40.2 375,-59.2 453,-59.2 453,-40.2 375,-40.2"/>
<text text-anchor="start" x="443.8862" y="-46.3" font-family="Helvetica,sans-Serif" font-size="11.00" fill="#000000"> &#160;</text>
<polygon fill="#ffffff" stroke="transparent" points="453,-40.2 453,-59.2 546,-59.2 546,-40.2 453,-40.2"/>
<polygon fill="none" stroke="#000000" points="453,-40.2 453,-59.2 546,-59.2 546,-40.2 453,-40.2"/>
<text text-anchor="start" x="527.4053" y="-46.3" font-family="Helvetica,sans-Serif" font-size="11.00" fill="#000000">2 &gt;</text>
<polygon fill="none" stroke="#000000" stroke-width="2" points="287,-39.2 287,-391.2 547,-391.2 547,-39.2 287,-39.2"/>
</a>
</g>
</g>
<!-- campaigns -->
<g id="node2" class="node">
<title>campaigns</title>
<g id="a_node2"><a xlink:href="../../tables/campaigns.html" xlink:title="campaigns" target="_top">
<polygon fill="#ffffff" stroke="transparent" points="8,-263.7 8,-368.7 237,-368.7 237,-263.7 8,-263.7"/>
<polygon fill="#f5f5f5" stroke="transparent" points="8.5,-345.2 8.5,-368.2 237.5,-368.2 237.5,-345.2 8.5,-345.2"/>
<polygon fill="none" stroke="#000000" points="8.5,-345.2 8.5,-368.2 237.5,-368.2 237.5,-345.2 8.5,-345.2"/>
<text text-anchor="start" x="13.5" y="-354.3" font-family="Helvetica,sans-Serif" font-weight="bold" font-size="11.00" fill="#000000">campaigns</text>
<text text-anchor="start" x="202.5437" y="-353.3" font-family="Helvetica,sans-Serif" font-size="11.00" fill="#000000">[table]</text>
<polygon fill="none" stroke="#000000" points="8.5,-323.2 8.5,-345.2 237.5,-345.2 237.5,-323.2 8.5,-323.2"/>
<image xlink:href="../../images/primaryKeys.png" width="11px" height="12px" preserveAspectRatio="xMinYMin meet" x="13.5" y="-340.2"/>
<text text-anchor="start" x="28.5" y="-330.3" font-family="Helvetica,sans-Serif" font-size="11.00" fill="#000000">id</text>
<polygon fill="#ffffff" stroke="transparent" points="8.5,-301.2 8.5,-323.2 237.5,-323.2 237.5,-301.2 8.5,-301.2"/>
<polygon fill="none" stroke="#000000" points="8.5,-301.2 8.5,-323.2 237.5,-323.2 237.5,-301.2 8.5,-301.2"/>
<image xlink:href="../../images/foreignKeys.png" width="11px" height="12px" preserveAspectRatio="xMinYMin meet" x="13.5" y="-318.2"/>
<text text-anchor="start" x="28.5" y="-308.3" font-family="Helvetica,sans-Serif" font-size="11.00" fill="#000000">advertiser_id</text>
<polygon fill="none" stroke="#000000" points="8.5,-282.2 8.5,-301.2 237.5,-301.2 237.5,-282.2 8.5,-282.2"/>
<text text-anchor="start" x="11.5" y="-288.3" font-family="Helvetica,sans-Serif" font-size="11.00" fill="#000000">...</text>
<polygon fill="#ffffff" stroke="transparent" points="8.5,-263.2 8.5,-282.2 116.5,-282.2 116.5,-263.2 8.5,-263.2"/>
<polygon fill="none" stroke="#000000" points="8.5,-263.2 8.5,-282.2 116.5,-282.2 116.5,-263.2 8.5,-263.2"/>
<text text-anchor="start" x="11.5" y="-269.3" font-family="Helvetica,sans-Serif" font-size="11.00" fill="#000000">&lt; 1</text>
<polygon fill="#ffffff" stroke="transparent" points="116.5,-263.2 116.5,-282.2 172.5,-282.2 172.5,-263.2 116.5,-263.2"/>
<polygon fill="none" stroke="#000000" points="116.5,-263.2 116.5,-282.2 172.5,-282.2 172.5,-263.2 116.5,-263.2"/>
<text text-anchor="start" x="163.3862" y="-269.3" font-family="Helvetica,sans-Serif" font-size="11.00" fill="#000000"> &#160;</text>
<polygon fill="#ffffff" stroke="transparent" points="172.5,-263.2 172.5,-282.2 237.5,-282.2 237.5,-263.2 172.5,-263.2"/>
<polygon fill="none" stroke="#000000" points="172.5,-263.2 172.5,-282.2 237.5,-282.2 237.5,-263.2 172.5,-263.2"/>
<text text-anchor="start" x="218.9053" y="-269.3" font-family="Helvetica,sans-Serif" font-size="11.00" fill="#000000">1 &gt;</text>
</a>
</g>
</g>
<!-- adgroups&#45;&gt;campaigns -->
<g id="edge1" class="edge">
<title>adgroups:w&#45;&gt;campaigns:e</title>
<path fill="none" stroke="#000000" d="M273.4203,-334.2C261.5435,-334.2 254.158,-334.2 237.5,-334.2"/>
<polygon fill="#000000" stroke="#000000" points="280,-334.2001 288,-337.8 284,-334.2 288,-334.2 288,-334.2 288,-334.2 284,-334.2 288,-330.6 280,-334.2001 280,-334.2001"/>
<ellipse fill="none" stroke="#000000" cx="276.8" cy="-334.2001" rx="3.2" ry="3.2"/>
</g>
<!-- adgroups_locations -->
<g id="node3" class="node">
<title>adgroups_locations</title>
<g id="a_node3"><a xlink:href="../../tables/adgroups_locations.html" xlink:title="adgroups_locations" target="_top">
<polygon fill="#ffffff" stroke="transparent" points="597,-359.7 597,-486.7 749,-486.7 749,-359.7 597,-359.7"/>
<polygon fill="#f5f5f5" stroke="transparent" points="597,-463.2 597,-486.2 749,-486.2 749,-463.2 597,-463.2"/>
<polygon fill="none" stroke="#000000" points="597,-463.2 597,-486.2 749,-486.2 749,-463.2 597,-463.2"/>
<text text-anchor="start" x="602" y="-472.3" font-family="Helvetica,sans-Serif" font-weight="bold" font-size="11.00" fill="#000000">adgroups_locations</text>
<text text-anchor="start" x="714.0437" y="-471.3" font-family="Helvetica,sans-Serif" font-size="11.00" fill="#000000">[table]</text>
<polygon fill="none" stroke="#000000" points="597,-441.2 597,-463.2 749,-463.2 749,-441.2 597,-441.2"/>
<image xlink:href="../../images/primaryKeys.png" width="11px" height="12px" preserveAspectRatio="xMinYMin meet" x="602" y="-458.2"/>
<text text-anchor="start" x="617" y="-448.3" font-family="Helvetica,sans-Serif" font-size="11.00" fill="#000000">id</text>
<polygon fill="#ffffff" stroke="transparent" points="597,-419.2 597,-441.2 749,-441.2 749,-419.2 597,-419.2"/>
<polygon fill="none" stroke="#000000" points="597,-419.2 597,-441.2 749,-441.2 749,-419.2 597,-419.2"/>
<image xlink:href="../../images/foreignKeys.png" width="11px" height="12px" preserveAspectRatio="xMinYMin meet" x="602" y="-436.2"/>
<text text-anchor="start" x="617" y="-426.3" font-family="Helvetica,sans-Serif" font-size="11.00" fill="#000000">adgroup_id</text>
<polygon fill="#ffffff" stroke="transparent" points="597,-397.2 597,-419.2 749,-419.2 749,-397.2 597,-397.2"/>
<polygon fill="none" stroke="#000000" points="597,-397.2 597,-419.2 749,-419.2 749,-397.2 597,-397.2"/>
<image xlink:href="../../images/foreignKeys.png" width="11px" height="12px" preserveAspectRatio="xMinYMin meet" x="602" y="-414.2"/>
<text text-anchor="start" x="617" y="-404.3" font-family="Helvetica,sans-Serif" font-size="11.00" fill="#000000">location_id</text>
<polygon fill="none" stroke="#000000" points="597,-378.2 597,-397.2 749,-397.2 749,-378.2 597,-378.2"/>
<text text-anchor="start" x="600" y="-384.3" font-family="Helvetica,sans-Serif" font-size="11.00" fill="#000000">...</text>
<polygon fill="#ffffff" stroke="transparent" points="597,-359.2 597,-378.2 671,-378.2 671,-359.2 597,-359.2"/>
<polygon fill="none" stroke="#000000" points="597,-359.2 597,-378.2 671,-378.2 671,-359.2 597,-359.2"/>
<text text-anchor="start" x="600" y="-365.3" font-family="Helvetica,sans-Serif" font-size="11.00" fill="#000000">&lt; 2</text>
<polygon fill="#ffffff" stroke="transparent" points="671,-359.2 671,-378.2 710,-378.2 710,-359.2 671,-359.2"/>
<polygon fill="none" stroke="#000000" points="671,-359.2 671,-378.2 710,-378.2 710,-359.2 671,-359.2"/>
<text text-anchor="start" x="700.8862" y="-365.3" font-family="Helvetica,sans-Serif" font-size="11.00" fill="#000000"> &#160;</text>
<polygon fill="#ffffff" stroke="transparent" points="710,-359.2 710,-378.2 749,-378.2 749,-359.2 710,-359.2"/>
<polygon fill="none" stroke="#000000" points="710,-359.2 710,-378.2 749,-378.2 749,-359.2 710,-359.2"/>
<text text-anchor="start" x="739.8862" y="-365.3" font-family="Helvetica,sans-Serif" font-size="11.00" fill="#000000"> &#160;</text>
</a>
</g>
</g>
<!-- adgroups_locations&#45;&gt;adgroups -->
<g id="edge2" class="edge">
<title>adgroups_locations:w&#45;&gt;adgroups:e</title>
<path fill="none" stroke="#000000" d="M583.0503,-425.571C564.2607,-409.3706 579.8581,-356.2 546,-356.2"/>
<polygon fill="#000000" stroke="#000000" points="589.4071,-427.6804 595.8662,-433.6168 593.2036,-428.9402 597,-430.2 597,-430.2 597,-430.2 593.2036,-428.9402 598.1338,-426.7832 589.4071,-427.6804 589.4071,-427.6804"/>
<ellipse fill="none" stroke="#000000" cx="586.37" cy="-426.6725" rx="3.2" ry="3.2"/>
</g>
<!-- ads -->
<g id="node4" class="node">
<title>ads</title>
<g id="a_node4"><a xlink:href="../../tables/ads.html" xlink:title="ads" target="_top">
<polygon fill="#ffffff" stroke="transparent" points="618,-233.7 618,-338.7 728,-338.7 728,-233.7 618,-233.7"/>
<polygon fill="#f5f5f5" stroke="transparent" points="618,-315.2 618,-338.2 728,-338.2 728,-315.2 618,-315.2"/>
<polygon fill="none" stroke="#000000" points="618,-315.2 618,-338.2 728,-338.2 728,-315.2 618,-315.2"/>
<text text-anchor="start" x="623" y="-324.3" font-family="Helvetica,sans-Serif" font-weight="bold" font-size="11.00" fill="#000000">ads</text>
<text text-anchor="start" x="693.0437" y="-323.3" font-family="Helvetica,sans-Serif" font-size="11.00" fill="#000000">[table]</text>
<polygon fill="none" stroke="#000000" points="618,-293.2 618,-315.2 728,-315.2 728,-293.2 618,-293.2"/>
<image xlink:href="../../images/primaryKeys.png" width="11px" height="12px" preserveAspectRatio="xMinYMin meet" x="623" y="-310.2"/>
<text text-anchor="start" x="638" y="-300.3" font-family="Helvetica,sans-Serif" font-size="11.00" fill="#000000">id</text>
<polygon fill="#ffffff" stroke="transparent" points="618,-271.2 618,-293.2 728,-293.2 728,-271.2 618,-271.2"/>
<polygon fill="none" stroke="#000000" points="618,-271.2 618,-293.2 728,-293.2 728,-271.2 618,-271.2"/>
<image xlink:href="../../images/foreignKeys.png" width="11px" height="12px" preserveAspectRatio="xMinYMin meet" x="623" y="-288.2"/>
<text text-anchor="start" x="638" y="-278.3" font-family="Helvetica,sans-Serif" font-size="11.00" fill="#000000">adgroup_id</text>
<polygon fill="none" stroke="#000000" points="618,-252.2 618,-271.2 728,-271.2 728,-252.2 618,-252.2"/>
<text text-anchor="start" x="621" y="-258.3" font-family="Helvetica,sans-Serif" font-size="11.00" fill="#000000">...</text>
<polygon fill="#ffffff" stroke="transparent" points="618,-233.2 618,-252.2 671,-252.2 671,-233.2 618,-233.2"/>
<polygon fill="none" stroke="#000000" points="618,-233.2 618,-252.2 671,-252.2 671,-233.2 618,-233.2"/>
<text text-anchor="start" x="621" y="-239.3" font-family="Helvetica,sans-Serif" font-size="11.00" fill="#000000">&lt; 1</text>
<polygon fill="#ffffff" stroke="transparent" points="671,-233.2 671,-252.2 699,-252.2 699,-233.2 671,-233.2"/>
<polygon fill="none" stroke="#000000" points="671,-233.2 671,-252.2 699,-252.2 699,-233.2 671,-233.2"/>
<text text-anchor="start" x="689.8862" y="-239.3" font-family="Helvetica,sans-Serif" font-size="11.00" fill="#000000"> &#160;</text>
<polygon fill="#ffffff" stroke="transparent" points="699,-233.2 699,-252.2 728,-252.2 728,-233.2 699,-233.2"/>
<polygon fill="none" stroke="#000000" points="699,-233.2 699,-252.2 728,-252.2 728,-233.2 699,-233.2"/>
<text text-anchor="start" x="718.8862" y="-239.3" font-family="Helvetica,sans-Serif" font-size="11.00" fill="#000000"> &#160;</text>
</a>
</g>
</g>
<!-- ads&#45;&gt;adgroups -->
<g id="edge3" class="edge">
<title>ads:w&#45;&gt;adgroups:e</title>
<path fill="none" stroke="#000000" d="M603.6136,-285.3797C576.0302,-299.5438 586.1517,-356.2 546,-356.2"/>
<polygon fill="#000000" stroke="#000000" points="610.1885,-283.9265 618.7769,-285.7152 614.0943,-283.0633 618,-282.2 618,-282.2 618,-282.2 614.0943,-283.0633 617.2231,-278.6848 610.1885,-283.9265 610.1885,-283.9265"/>
<ellipse fill="none" stroke="#000000" cx="607.0639" cy="-284.6172" rx="3.2" ry="3.2"/>
</g>
</g>
</svg>
