<?xml version="1.0" encoding="UTF-8" standalone="no"?>
<!DOCTYPE svg PUBLIC "-//W3C//DTD SVG 1.1//EN"
 "http://www.w3.org/Graphics/SVG/1.1/DTD/svg11.dtd">
<!-- Generated by graphviz version 2.40.1 (20161225.0304)
 -->
<!-- Title: oneDegreeRelationshipsDiagram Pages: 1 -->
<svg width="460pt" height="281pt"
 viewBox="0.00 0.00 460.00 281.20" xmlns="http://www.w3.org/2000/svg" xmlns:xlink="http://www.w3.org/1999/xlink">
<g id="graph0" class="graph" transform="scale(1 1) rotate(0) translate(4 277.2)">
<title>oneDegreeRelationshipsDiagram</title>
<polygon fill="#ffffff" stroke="transparent" points="-4,4 -4,-277.2 456,-277.2 456,4 -4,4"/>
<text text-anchor="middle" x="72.4936" y="-7.3" font-family="Helvetica,sans-Serif" font-size="11.00" fill="#000000">Generated by SchemaSpy</text>
<!-- adgroups_locations -->
<g id="node1" class="node">
<title>adgroups_locations</title>
<g id="a_node1"><a xlink:href="../../tables/adgroups_locations.html" xlink:title="adgroups_locations" target="_top">
<polygon fill="#ffffff" stroke="transparent" points="222,-62.7 222,-240.7 444,-240.7 444,-62.7 222,-62.7"/>
<polygon fill="#f5f5f5" stroke="transparent" points="224,-215.7 224,-238.7 442,-238.7 442,-215.7 224,-215.7"/>
<polygon fill="none" stroke="#000000" points="224,-215.7 224,-238.7 442,-238.7 442,-215.7 224,-215.7"/>
<text text-anchor="start" x="229" y="-224.8" font-family="Helvetica,sans-Serif" font-weight="bold" font-size="11.00" fill="#000000">adgroups_locations</text>
<text text-anchor="start" x="407.0437" y="-223.8" font-family="Helvetica,sans-Serif" font-size="11.00" fill="#000000">[table]</text>
<polygon fill="none" stroke="#000000" points="224,-193.7 224,-215.7 376,-215.7 376,-193.7 224,-193.7"/>
<image xlink:href="../../images/primaryKeys.png" width="11px" height="12px" preserveAspectRatio="xMinYMin meet" x="229" y="-210.7"/>
<text text-anchor="start" x="244" y="-200.8" font-family="Helvetica,sans-Serif" font-size="11.00" fill="#000000">id</text>
<polygon fill="none" stroke="#000000" points="376,-193.7 376,-215.7 442,-215.7 442,-193.7 376,-193.7"/>
<text text-anchor="start" x="379" y="-201.4" font-family="Helvetica,sans-Serif" font-size="11.00" fill="#000000">int[10]</text>
<polygon fill="#ffffff" stroke="transparent" points="224,-171.7 224,-193.7 376,-193.7 376,-171.7 224,-171.7"/>
<polygon fill="none" stroke="#000000" points="224,-171.7 224,-193.7 376,-193.7 376,-171.7 224,-171.7"/>
<image xlink:href="../../images/foreignKeys.png" width="11px" height="12px" preserveAspectRatio="xMinYMin meet" x="229" y="-188.7"/>
<text text-anchor="start" x="244" y="-178.8" font-family="Helvetica,sans-Serif" font-size="11.00" fill="#000000">adgroup_id</text>
<polygon fill="none" stroke="#000000" points="376,-171.7 376,-193.7 442,-193.7 442,-171.7 376,-171.7"/>
<text text-anchor="start" x="379" y="-179.4" font-family="Helvetica,sans-Serif" font-size="11.00" fill="#000000">int[10]</text>
<polygon fill="#ffffff" stroke="transparent" points="224,-149.7 224,-171.7 376,-171.7 376,-149.7 224,-149.7"/>
<polygon fill="none" stroke="#000000" points="224,-149.7 224,-171.7 376,-171.7 376,-149.7 224,-149.7"/>
<image xlink:href="../../images/foreignKeys.png" width="11px" height="12px" preserveAspectRatio="xMinYMin meet" x="229" y="-166.7"/>
<text text-anchor="start" x="244" y="-156.8" font-family="Helvetica,sans-Serif" font-size="11.00" fill="#000000">location_id</text>
<polygon fill="none" stroke="#000000" points="376,-149.7 376,-171.7 442,-171.7 442,-149.7 376,-149.7"/>
<text text-anchor="start" x="379" y="-157.4" font-family="Helvetica,sans-Serif" font-size="11.00" fill="#000000">int[10]</text>
<polygon fill="none" stroke="#000000" points="224,-127.7 224,-149.7 376,-149.7 376,-127.7 224,-127.7"/>
<text text-anchor="start" x="244" y="-134.8" font-family="Helvetica,sans-Serif" font-size="11.00" fill="#000000">created_at</text>
<polygon fill="none" stroke="#000000" points="376,-127.7 376,-149.7 442,-149.7 442,-127.7 376,-127.7"/>
<text text-anchor="start" x="378.7401" y="-135.4" font-family="Helvetica,sans-Serif" font-size="11.00" fill="#000000">datetime[19]</text>
<polygon fill="none" stroke="#000000" points="224,-105.7 224,-127.7 376,-127.7 376,-105.7 224,-105.7"/>
<text text-anchor="start" x="244" y="-112.8" font-family="Helvetica,sans-Serif" font-size="11.00" fill="#000000">updated_at</text>
<polygon fill="none" stroke="#000000" points="376,-105.7 376,-127.7 442,-127.7 442,-105.7 376,-105.7"/>
<text text-anchor="start" x="378.7401" y="-113.4" font-family="Helvetica,sans-Serif" font-size="11.00" fill="#000000">datetime[19]</text>
<polygon fill="none" stroke="#000000" points="224,-83.7 224,-105.7 376,-105.7 376,-83.7 224,-83.7"/>
<text text-anchor="start" x="244" y="-90.8" font-family="Helvetica,sans-Serif" font-size="11.00" fill="#000000">deleted_at</text>
<polygon fill="none" stroke="#000000" points="376,-83.7 376,-105.7 442,-105.7 442,-83.7 376,-83.7"/>
<text text-anchor="start" x="378.7401" y="-91.4" font-family="Helvetica,sans-Serif" font-size="11.00" fill="#000000">datetime[19]</text>
<polygon fill="#ffffff" stroke="transparent" points="224,-64.7 224,-83.7 304,-83.7 304,-64.7 224,-64.7"/>
<polygon fill="none" stroke="#000000" points="224,-64.7 224,-83.7 304,-83.7 304,-64.7 224,-64.7"/>
<text text-anchor="start" x="227" y="-70.8" font-family="Helvetica,sans-Serif" font-size="11.00" fill="#000000">&lt; 2</text>
<polygon fill="#ffffff" stroke="transparent" points="304,-64.7 304,-83.7 376,-83.7 376,-64.7 304,-64.7"/>
<polygon fill="none" stroke="#000000" points="304,-64.7 304,-83.7 376,-83.7 376,-64.7 304,-64.7"/>
<text text-anchor="start" x="366.8862" y="-70.8" font-family="Helvetica,sans-Serif" font-size="11.00" fill="#000000"> &#160;</text>
<polygon fill="#ffffff" stroke="transparent" points="376,-64.7 376,-83.7 442,-83.7 442,-64.7 376,-64.7"/>
<polygon fill="none" stroke="#000000" points="376,-64.7 376,-83.7 442,-83.7 442,-64.7 376,-64.7"/>
<text text-anchor="start" x="423.4053" y="-70.8" font-family="Helvetica,sans-Serif" font-size="11.00" fill="#000000">0 &gt;</text>
<polygon fill="none" stroke="#000000" stroke-width="2" points="223,-63.7 223,-239.7 443,-239.7 443,-63.7 223,-63.7"/>
</a>
</g>
</g>
<!-- adgroups -->
<g id="node2" class="node">
<title>adgroups</title>
<g id="a_node2"><a xlink:href="../../tables/adgroups.html" xlink:title="adgroups" target="_top">
<polygon fill="#ffffff" stroke="transparent" points="8,-164.2 8,-269.2 173,-269.2 173,-164.2 8,-164.2"/>
<polygon fill="#f5f5f5" stroke="transparent" points="8.5,-245.7 8.5,-268.7 173.5,-268.7 173.5,-245.7 8.5,-245.7"/>
<polygon fill="none" stroke="#000000" points="8.5,-245.7 8.5,-268.7 173.5,-268.7 173.5,-245.7 8.5,-245.7"/>
<text text-anchor="start" x="13.5" y="-254.8" font-family="Helvetica,sans-Serif" font-weight="bold" font-size="11.00" fill="#000000">adgroups</text>
<text text-anchor="start" x="138.5437" y="-253.8" font-family="Helvetica,sans-Serif" font-size="11.00" fill="#000000">[table]</text>
<polygon fill="none" stroke="#000000" points="8.5,-223.7 8.5,-245.7 173.5,-245.7 173.5,-223.7 8.5,-223.7"/>
<image xlink:href="../../images/primaryKeys.png" width="11px" height="12px" preserveAspectRatio="xMinYMin meet" x="13.5" y="-240.7"/>
<text text-anchor="start" x="28.5" y="-230.8" font-family="Helvetica,sans-Serif" font-size="11.00" fill="#000000">id</text>
<polygon fill="#ffffff" stroke="transparent" points="8.5,-201.7 8.5,-223.7 173.5,-223.7 173.5,-201.7 8.5,-201.7"/>
<polygon fill="none" stroke="#000000" points="8.5,-201.7 8.5,-223.7 173.5,-223.7 173.5,-201.7 8.5,-201.7"/>
<image xlink:href="../../images/foreignKeys.png" width="11px" height="12px" preserveAspectRatio="xMinYMin meet" x="13.5" y="-218.7"/>
<text text-anchor="start" x="28.5" y="-208.8" font-family="Helvetica,sans-Serif" font-size="11.00" fill="#000000">campaign_id</text>
<polygon fill="none" stroke="#000000" points="8.5,-182.7 8.5,-201.7 173.5,-201.7 173.5,-182.7 8.5,-182.7"/>
<text text-anchor="start" x="11.5" y="-188.8" font-family="Helvetica,sans-Serif" font-size="11.00" fill="#000000">...</text>
<polygon fill="#ffffff" stroke="transparent" points="8.5,-163.7 8.5,-182.7 84.5,-182.7 84.5,-163.7 8.5,-163.7"/>
<polygon fill="none" stroke="#000000" points="8.5,-163.7 8.5,-182.7 84.5,-182.7 84.5,-163.7 8.5,-163.7"/>
<text text-anchor="start" x="11.5" y="-169.8" font-family="Helvetica,sans-Serif" font-size="11.00" fill="#000000">&lt; 1</text>
<polygon fill="#ffffff" stroke="transparent" points="84.5,-163.7 84.5,-182.7 124.5,-182.7 124.5,-163.7 84.5,-163.7"/>
<polygon fill="none" stroke="#000000" points="84.5,-163.7 84.5,-182.7 124.5,-182.7 124.5,-163.7 84.5,-163.7"/>
<text text-anchor="start" x="115.3862" y="-169.8" font-family="Helvetica,sans-Serif" font-size="11.00" fill="#000000"> &#160;</text>
<polygon fill="#ffffff" stroke="transparent" points="124.5,-163.7 124.5,-182.7 173.5,-182.7 173.5,-163.7 124.5,-163.7"/>
<polygon fill="none" stroke="#000000" points="124.5,-163.7 124.5,-182.7 173.5,-182.7 173.5,-163.7 124.5,-163.7"/>
<text text-anchor="start" x="154.9053" y="-169.8" font-family="Helvetica,sans-Serif" font-size="11.00" fill="#000000">2 &gt;</text>
</a>
</g>
</g>
<!-- adgroups_locations&#45;&gt;adgroups -->
<g id="edge1" class="edge">
<title>adgroups_locations:w&#45;&gt;adgroups:e</title>
<path fill="none" stroke="#000000" d="M210.1372,-187.4988C195.3861,-200.3719 199.6756,-234.7 173.5,-234.7"/>
<polygon fill="#000000" stroke="#000000" points="216.4401,-185.317 225.1777,-186.1019 220.2201,-184.0085 224,-182.7 224,-182.7 224,-182.7 220.2201,-184.0085 222.8223,-179.2981 216.4401,-185.317 216.4401,-185.317"/>
<ellipse fill="none" stroke="#000000" cx="213.4162" cy="-186.3638" rx="3.2" ry="3.2"/>
</g>
<!-- locations -->
<g id="node3" class="node">
<title>locations</title>
<g id="a_node3"><a xlink:href="../../tables/locations.html" xlink:title="locations" target="_top">
<polygon fill="#ffffff" stroke="transparent" points="20,-38.2 20,-143.2 161,-143.2 161,-38.2 20,-38.2"/>
<polygon fill="#f5f5f5" stroke="transparent" points="20.5,-119.7 20.5,-142.7 161.5,-142.7 161.5,-119.7 20.5,-119.7"/>
<polygon fill="none" stroke="#000000" points="20.5,-119.7 20.5,-142.7 161.5,-142.7 161.5,-119.7 20.5,-119.7"/>
<text text-anchor="start" x="25.5" y="-128.8" font-family="Helvetica,sans-Serif" font-weight="bold" font-size="11.00" fill="#000000">locations</text>
<text text-anchor="start" x="126.5437" y="-127.8" font-family="Helvetica,sans-Serif" font-size="11.00" fill="#000000">[table]</text>
<polygon fill="none" stroke="#000000" points="20.5,-97.7 20.5,-119.7 161.5,-119.7 161.5,-97.7 20.5,-97.7"/>
<image xlink:href="../../images/primaryKeys.png" width="11px" height="12px" preserveAspectRatio="xMinYMin meet" x="25.5" y="-114.7"/>
<text text-anchor="start" x="40.5" y="-104.8" font-family="Helvetica,sans-Serif" font-size="11.00" fill="#000000">id</text>
<polygon fill="#ffffff" stroke="transparent" points="20.5,-75.7 20.5,-97.7 161.5,-97.7 161.5,-75.7 20.5,-75.7"/>
<polygon fill="none" stroke="#000000" points="20.5,-75.7 20.5,-97.7 161.5,-97.7 161.5,-75.7 20.5,-75.7"/>
<image xlink:href="../../images/foreignKeys.png" width="11px" height="12px" preserveAspectRatio="xMinYMin meet" x="25.5" y="-92.7"/>
<text text-anchor="start" x="40.5" y="-82.8" font-family="Helvetica,sans-Serif" font-size="11.00" fill="#000000">location_owner_id</text>
<polygon fill="none" stroke="#000000" points="20.5,-56.7 20.5,-75.7 161.5,-75.7 161.5,-56.7 20.5,-56.7"/>
<text text-anchor="start" x="23.5" y="-62.8" font-family="Helvetica,sans-Serif" font-size="11.00" fill="#000000">...</text>
<polygon fill="#ffffff" stroke="transparent" points="20.5,-37.7 20.5,-56.7 84.5,-56.7 84.5,-37.7 20.5,-37.7"/>
<polygon fill="none" stroke="#000000" points="20.5,-37.7 20.5,-56.7 84.5,-56.7 84.5,-37.7 20.5,-37.7"/>
<text text-anchor="start" x="23.5" y="-43.8" font-family="Helvetica,sans-Serif" font-size="11.00" fill="#000000">&lt; 1</text>
<polygon fill="#ffffff" stroke="transparent" points="84.5,-37.7 84.5,-56.7 118.5,-56.7 118.5,-37.7 84.5,-37.7"/>
<polygon fill="none" stroke="#000000" points="84.5,-37.7 84.5,-56.7 118.5,-56.7 118.5,-37.7 84.5,-37.7"/>
<text text-anchor="start" x="109.3862" y="-43.8" font-family="Helvetica,sans-Serif" font-size="11.00" fill="#000000"> &#160;</text>
<polygon fill="#ffffff" stroke="transparent" points="118.5,-37.7 118.5,-56.7 161.5,-56.7 161.5,-37.7 118.5,-37.7"/>
<polygon fill="none" stroke="#000000" points="118.5,-37.7 118.5,-56.7 161.5,-56.7 161.5,-37.7 118.5,-37.7"/>
<text text-anchor="start" x="142.9053" y="-43.8" font-family="Helvetica,sans-Serif" font-size="11.00" fill="#000000">2 &gt;</text>
</a>
</g>
</g>
<!-- adgroups_locations&#45;&gt;locations -->
<g id="edge2" class="edge">
<title>adgroups_locations:w&#45;&gt;locations:e</title>
<path fill="none" stroke="#000000" d="M209.7935,-157.1258C189.817,-145.3776 191.8476,-108.7 161.5,-108.7"/>
<polygon fill="#000000" stroke="#000000" points="216.2418,-158.7481 223.1216,-164.1912 220.1209,-159.724 224,-160.7 224,-160.7 224,-160.7 220.1209,-159.724 224.8784,-157.2088 216.2418,-158.7481 216.2418,-158.7481"/>
<ellipse fill="none" stroke="#000000" cx="213.1385" cy="-157.9673" rx="3.2" ry="3.2"/>
</g>
</g>
</svg>
