<?xml version="1.0" encoding="UTF-8" standalone="no"?>
<!DOCTYPE svg PUBLIC "-//W3C//DTD SVG 1.1//EN"
 "http://www.w3.org/Graphics/SVG/1.1/DTD/svg11.dtd">
<!-- Generated by graphviz version 2.40.1 (20161225.0304)
 -->
<!-- Title: twoDegreesRelationshipsDiagram Pages: 1 -->
<svg width="910pt" height="507pt"
 viewBox="0.00 0.00 910.00 507.20" xmlns="http://www.w3.org/2000/svg" xmlns:xlink="http://www.w3.org/1999/xlink">
<g id="graph0" class="graph" transform="scale(1 1) rotate(0) translate(4 503.2)">
<title>twoDegreesRelationshipsDiagram</title>
<polygon fill="#ffffff" stroke="transparent" points="-4,4 -4,-503.2 906,-503.2 906,4 -4,4"/>
<text text-anchor="middle" x="72.4936" y="-7.3" font-family="Helvetica,sans-Serif" font-size="11.00" fill="#000000">Generated by SchemaSpy</text>
<!-- adgroups -->
<g id="node1" class="node">
<title>adgroups</title>
<g id="a_node1"><a xlink:href="../../tables/adgroups.html" xlink:title="adgroups" target="_top">
<polygon fill="#ffffff" stroke="transparent" points="431,-120.7 431,-474.7 693,-474.7 693,-120.7 431,-120.7"/>
<polygon fill="#f5f5f5" stroke="transparent" points="433,-449.7 433,-472.7 691,-472.7 691,-449.7 433,-449.7"/>
<polygon fill="none" stroke="#000000" points="433,-449.7 433,-472.7 691,-472.7 691,-449.7 433,-449.7"/>
<text text-anchor="start" x="438" y="-458.8" font-family="Helvetica,sans-Serif" font-weight="bold" font-size="11.00" fill="#000000">adgroups</text>
<text text-anchor="start" x="656.0437" y="-457.8" font-family="Helvetica,sans-Serif" font-size="11.00" fill="#000000">[table]</text>
<polygon fill="none" stroke="#000000" points="433,-427.7 433,-449.7 598,-449.7 598,-427.7 433,-427.7"/>
<image xlink:href="../../images/primaryKeys.png" width="11px" height="12px" preserveAspectRatio="xMinYMin meet" x="438" y="-444.7"/>
<text text-anchor="start" x="453" y="-434.8" font-family="Helvetica,sans-Serif" font-size="11.00" fill="#000000">id</text>
<polygon fill="none" stroke="#000000" points="598,-427.7 598,-449.7 691,-449.7 691,-427.7 598,-427.7"/>
<text text-anchor="start" x="601" y="-435.4" font-family="Helvetica,sans-Serif" font-size="11.00" fill="#000000">int[10]</text>
<polygon fill="#ffffff" stroke="transparent" points="433,-405.7 433,-427.7 598,-427.7 598,-405.7 433,-405.7"/>
<polygon fill="none" stroke="#000000" points="433,-405.7 433,-427.7 598,-427.7 598,-405.7 433,-405.7"/>
<image xlink:href="../../images/foreignKeys.png" width="11px" height="12px" preserveAspectRatio="xMinYMin meet" x="438" y="-422.7"/>
<text text-anchor="start" x="453" y="-412.8" font-family="Helvetica,sans-Serif" font-size="11.00" fill="#000000">campaign_id</text>
<polygon fill="none" stroke="#000000" points="598,-405.7 598,-427.7 691,-427.7 691,-405.7 598,-405.7"/>
<text text-anchor="start" x="601" y="-413.4" font-family="Helvetica,sans-Serif" font-size="11.00" fill="#000000">int[10]</text>
<polygon fill="none" stroke="#000000" points="433,-383.7 433,-405.7 598,-405.7 598,-383.7 433,-383.7"/>
<text text-anchor="start" x="453" y="-390.8" font-family="Helvetica,sans-Serif" font-size="11.00" fill="#000000">name</text>
<polygon fill="none" stroke="#000000" points="598,-383.7 598,-405.7 691,-405.7 691,-383.7 598,-383.7"/>
<text text-anchor="start" x="601" y="-391.4" font-family="Helvetica,sans-Serif" font-size="11.00" fill="#000000">varchar[255]</text>
<polygon fill="none" stroke="#000000" points="433,-361.7 433,-383.7 598,-383.7 598,-361.7 433,-361.7"/>
<text text-anchor="start" x="453" y="-368.8" font-family="Helvetica,sans-Serif" font-size="11.00" fill="#000000">status</text>
<polygon fill="none" stroke="#000000" points="598,-361.7 598,-383.7 691,-383.7 691,-361.7 598,-361.7"/>
<text text-anchor="start" x="601" y="-369.4" font-family="Helvetica,sans-Serif" font-size="11.00" fill="#000000">bit[1]</text>
<polygon fill="none" stroke="#000000" points="433,-339.7 433,-361.7 598,-361.7 598,-339.7 433,-339.7"/>
<text text-anchor="start" x="453" y="-346.8" font-family="Helvetica,sans-Serif" font-size="11.00" fill="#000000">start_at</text>
<polygon fill="none" stroke="#000000" points="598,-339.7 598,-361.7 691,-361.7 691,-339.7 598,-339.7"/>
<text text-anchor="start" x="601" y="-347.4" font-family="Helvetica,sans-Serif" font-size="11.00" fill="#000000">datetime[19]</text>
<polygon fill="none" stroke="#000000" points="433,-317.7 433,-339.7 598,-339.7 598,-317.7 433,-317.7"/>
<text text-anchor="start" x="453" y="-324.8" font-family="Helvetica,sans-Serif" font-size="11.00" fill="#000000">end_at</text>
<polygon fill="none" stroke="#000000" points="598,-317.7 598,-339.7 691,-339.7 691,-317.7 598,-317.7"/>
<text text-anchor="start" x="601" y="-325.4" font-family="Helvetica,sans-Serif" font-size="11.00" fill="#000000">datetime[19]</text>
<polygon fill="none" stroke="#000000" points="433,-295.7 433,-317.7 598,-317.7 598,-295.7 433,-295.7"/>
<text text-anchor="start" x="453" y="-302.8" font-family="Helvetica,sans-Serif" font-size="11.00" fill="#000000">max_total_budget</text>
<polygon fill="none" stroke="#000000" points="598,-295.7 598,-317.7 691,-317.7 691,-295.7 598,-295.7"/>
<text text-anchor="start" x="601" y="-303.4" font-family="Helvetica,sans-Serif" font-size="11.00" fill="#000000">bigint[19]</text>
<polygon fill="none" stroke="#000000" points="433,-273.7 433,-295.7 598,-295.7 598,-273.7 433,-273.7"/>
<text text-anchor="start" x="453" y="-280.8" font-family="Helvetica,sans-Serif" font-size="11.00" fill="#000000">max_monthly_budget</text>
<polygon fill="none" stroke="#000000" points="598,-273.7 598,-295.7 691,-295.7 691,-273.7 598,-273.7"/>
<text text-anchor="start" x="601" y="-281.4" font-family="Helvetica,sans-Serif" font-size="11.00" fill="#000000">bigint[19]</text>
<polygon fill="none" stroke="#000000" points="433,-251.7 433,-273.7 598,-273.7 598,-251.7 433,-251.7"/>
<text text-anchor="start" x="453" y="-258.8" font-family="Helvetica,sans-Serif" font-size="11.00" fill="#000000">max_daily_budget</text>
<polygon fill="none" stroke="#000000" points="598,-251.7 598,-273.7 691,-273.7 691,-251.7 598,-251.7"/>
<text text-anchor="start" x="601" y="-259.4" font-family="Helvetica,sans-Serif" font-size="11.00" fill="#000000">bigint[19]</text>
<polygon fill="none" stroke="#000000" points="433,-229.7 433,-251.7 598,-251.7 598,-229.7 433,-229.7"/>
<text text-anchor="start" x="453" y="-236.8" font-family="Helvetica,sans-Serif" font-size="11.00" fill="#000000">max_hourly_budget</text>
<polygon fill="none" stroke="#000000" points="598,-229.7 598,-251.7 691,-251.7 691,-229.7 598,-229.7"/>
<text text-anchor="start" x="600.7832" y="-237.4" font-family="Helvetica,sans-Serif" font-size="11.00" fill="#000000">json[1073741824]</text>
<polygon fill="none" stroke="#000000" points="433,-207.7 433,-229.7 598,-229.7 598,-207.7 433,-207.7"/>
<text text-anchor="start" x="453" y="-214.8" font-family="Helvetica,sans-Serif" font-size="11.00" fill="#000000">cpv</text>
<polygon fill="none" stroke="#000000" points="598,-207.7 598,-229.7 691,-229.7 691,-207.7 598,-207.7"/>
<text text-anchor="start" x="601" y="-215.4" font-family="Helvetica,sans-Serif" font-size="11.00" fill="#000000">decimal[20,6]</text>
<polygon fill="none" stroke="#000000" points="433,-185.7 433,-207.7 598,-207.7 598,-185.7 433,-185.7"/>
<text text-anchor="start" x="453" y="-192.8" font-family="Helvetica,sans-Serif" font-size="11.00" fill="#000000">created_at</text>
<polygon fill="none" stroke="#000000" points="598,-185.7 598,-207.7 691,-207.7 691,-185.7 598,-185.7"/>
<text text-anchor="start" x="601" y="-193.4" font-family="Helvetica,sans-Serif" font-size="11.00" fill="#000000">datetime[19]</text>
<polygon fill="none" stroke="#000000" points="433,-163.7 433,-185.7 598,-185.7 598,-163.7 433,-163.7"/>
<text text-anchor="start" x="453" y="-170.8" font-family="Helvetica,sans-Serif" font-size="11.00" fill="#000000">updated_at</text>
<polygon fill="none" stroke="#000000" points="598,-163.7 598,-185.7 691,-185.7 691,-163.7 598,-163.7"/>
<text text-anchor="start" x="601" y="-171.4" font-family="Helvetica,sans-Serif" font-size="11.00" fill="#000000">datetime[19]</text>
<polygon fill="none" stroke="#000000" points="433,-141.7 433,-163.7 598,-163.7 598,-141.7 433,-141.7"/>
<text text-anchor="start" x="453" y="-148.8" font-family="Helvetica,sans-Serif" font-size="11.00" fill="#000000">deleted_at</text>
<polygon fill="none" stroke="#000000" points="598,-141.7 598,-163.7 691,-163.7 691,-141.7 598,-141.7"/>
<text text-anchor="start" x="601" y="-149.4" font-family="Helvetica,sans-Serif" font-size="11.00" fill="#000000">datetime[19]</text>
<polygon fill="#ffffff" stroke="transparent" points="433,-122.7 433,-141.7 520,-141.7 520,-122.7 433,-122.7"/>
<polygon fill="none" stroke="#000000" points="433,-122.7 433,-141.7 520,-141.7 520,-122.7 433,-122.7"/>
<text text-anchor="start" x="436" y="-128.8" font-family="Helvetica,sans-Serif" font-size="11.00" fill="#000000">&lt; 1</text>
<polygon fill="#ffffff" stroke="transparent" points="520,-122.7 520,-141.7 598,-141.7 598,-122.7 520,-122.7"/>
<polygon fill="none" stroke="#000000" points="520,-122.7 520,-141.7 598,-141.7 598,-122.7 520,-122.7"/>
<text text-anchor="start" x="588.8862" y="-128.8" font-family="Helvetica,sans-Serif" font-size="11.00" fill="#000000"> &#160;</text>
<polygon fill="#ffffff" stroke="transparent" points="598,-122.7 598,-141.7 691,-141.7 691,-122.7 598,-122.7"/>
<polygon fill="none" stroke="#000000" points="598,-122.7 598,-141.7 691,-141.7 691,-122.7 598,-122.7"/>
<text text-anchor="start" x="672.4053" y="-128.8" font-family="Helvetica,sans-Serif" font-size="11.00" fill="#000000">2 &gt;</text>
<polygon fill="none" stroke="#000000" stroke-width="2" points="432,-121.7 432,-473.7 692,-473.7 692,-121.7 432,-121.7"/>
</a>
</g>
</g>
<!-- campaigns -->
<g id="node2" class="node">
<title>campaigns</title>
<g id="a_node2"><a xlink:href="../../tables/campaigns.html" xlink:title="campaigns" target="_top">
<polygon fill="#ffffff" stroke="transparent" points="153,-346.2 153,-451.2 382,-451.2 382,-346.2 153,-346.2"/>
<polygon fill="#f5f5f5" stroke="transparent" points="153.5,-427.7 153.5,-450.7 382.5,-450.7 382.5,-427.7 153.5,-427.7"/>
<polygon fill="none" stroke="#000000" points="153.5,-427.7 153.5,-450.7 382.5,-450.7 382.5,-427.7 153.5,-427.7"/>
<text text-anchor="start" x="158.5" y="-436.8" font-family="Helvetica,sans-Serif" font-weight="bold" font-size="11.00" fill="#000000">campaigns</text>
<text text-anchor="start" x="347.5437" y="-435.8" font-family="Helvetica,sans-Serif" font-size="11.00" fill="#000000">[table]</text>
<polygon fill="none" stroke="#000000" points="153.5,-405.7 153.5,-427.7 382.5,-427.7 382.5,-405.7 153.5,-405.7"/>
<image xlink:href="../../images/primaryKeys.png" width="11px" height="12px" preserveAspectRatio="xMinYMin meet" x="158.5" y="-422.7"/>
<text text-anchor="start" x="173.5" y="-412.8" font-family="Helvetica,sans-Serif" font-size="11.00" fill="#000000">id</text>
<polygon fill="#ffffff" stroke="transparent" points="153.5,-383.7 153.5,-405.7 382.5,-405.7 382.5,-383.7 153.5,-383.7"/>
<polygon fill="none" stroke="#000000" points="153.5,-383.7 153.5,-405.7 382.5,-405.7 382.5,-383.7 153.5,-383.7"/>
<image xlink:href="../../images/foreignKeys.png" width="11px" height="12px" preserveAspectRatio="xMinYMin meet" x="158.5" y="-400.7"/>
<text text-anchor="start" x="173.5" y="-390.8" font-family="Helvetica,sans-Serif" font-size="11.00" fill="#000000">advertiser_id</text>
<polygon fill="none" stroke="#000000" points="153.5,-364.7 153.5,-383.7 382.5,-383.7 382.5,-364.7 153.5,-364.7"/>
<text text-anchor="start" x="156.5" y="-370.8" font-family="Helvetica,sans-Serif" font-size="11.00" fill="#000000">...</text>
<polygon fill="#ffffff" stroke="transparent" points="153.5,-345.7 153.5,-364.7 261.5,-364.7 261.5,-345.7 153.5,-345.7"/>
<polygon fill="none" stroke="#000000" points="153.5,-345.7 153.5,-364.7 261.5,-364.7 261.5,-345.7 153.5,-345.7"/>
<text text-anchor="start" x="156.5" y="-351.8" font-family="Helvetica,sans-Serif" font-size="11.00" fill="#000000">&lt; 1</text>
<polygon fill="#ffffff" stroke="transparent" points="261.5,-345.7 261.5,-364.7 317.5,-364.7 317.5,-345.7 261.5,-345.7"/>
<polygon fill="none" stroke="#000000" points="261.5,-345.7 261.5,-364.7 317.5,-364.7 317.5,-345.7 261.5,-345.7"/>
<text text-anchor="start" x="308.3862" y="-351.8" font-family="Helvetica,sans-Serif" font-size="11.00" fill="#000000"> &#160;</text>
<polygon fill="#ffffff" stroke="transparent" points="317.5,-345.7 317.5,-364.7 382.5,-364.7 382.5,-345.7 317.5,-345.7"/>
<polygon fill="none" stroke="#000000" points="317.5,-345.7 317.5,-364.7 382.5,-364.7 382.5,-345.7 317.5,-345.7"/>
<text text-anchor="start" x="363.9053" y="-351.8" font-family="Helvetica,sans-Serif" font-size="11.00" fill="#000000">1 &gt;</text>
</a>
</g>
</g>
<!-- adgroups&#45;&gt;campaigns -->
<g id="edge1" class="edge">
<title>adgroups:w&#45;&gt;campaigns:e</title>
<path fill="none" stroke="#000000" d="M418.4203,-416.7C406.5435,-416.7 399.158,-416.7 382.5,-416.7"/>
<polygon fill="#000000" stroke="#000000" points="425,-416.7001 433,-420.3 429,-416.7 433,-416.7 433,-416.7 433,-416.7 429,-416.7 433,-413.1 425,-416.7001 425,-416.7001"/>
<ellipse fill="none" stroke="#000000" cx="421.8" cy="-416.7001" rx="3.2" ry="3.2"/>
</g>
<!-- advertisers -->
<g id="node6" class="node">
<title>advertisers</title>
<g id="a_node6"><a xlink:href="../../tables/advertisers.html" xlink:title="advertisers" target="_top">
<polygon fill="#ffffff" stroke="transparent" points="8,-367.2 8,-428.2 104,-428.2 104,-367.2 8,-367.2"/>
<polygon fill="#f5f5f5" stroke="transparent" points="8,-404.7 8,-427.7 104,-427.7 104,-404.7 8,-404.7"/>
<polygon fill="none" stroke="#000000" points="8,-404.7 8,-427.7 104,-427.7 104,-404.7 8,-404.7"/>
<text text-anchor="start" x="12.6094" y="-413.8" font-family="Helvetica,sans-Serif" font-weight="bold" font-size="11.00" fill="#000000">advertisers</text>
<text text-anchor="start" x="69.5219" y="-412.8" font-family="Helvetica,sans-Serif" font-size="11.00" fill="#000000">[table]</text>
<polygon fill="none" stroke="#000000" points="8,-385.7 8,-404.7 104,-404.7 104,-385.7 8,-385.7"/>
<text text-anchor="start" x="11" y="-391.8" font-family="Helvetica,sans-Serif" font-size="11.00" fill="#000000">...</text>
<polygon fill="#ffffff" stroke="transparent" points="8,-366.7 8,-385.7 45,-385.7 45,-366.7 8,-366.7"/>
<polygon fill="none" stroke="#000000" points="8,-366.7 8,-385.7 45,-385.7 45,-366.7 8,-366.7"/>
<text text-anchor="start" x="11" y="-372.8" font-family="Helvetica,sans-Serif" font-size="11.00" fill="#000000"> &#160;</text>
<polygon fill="#ffffff" stroke="transparent" points="45,-366.7 45,-385.7 70,-385.7 70,-366.7 45,-366.7"/>
<polygon fill="none" stroke="#000000" points="45,-366.7 45,-385.7 70,-385.7 70,-366.7 45,-366.7"/>
<text text-anchor="start" x="60.8862" y="-372.8" font-family="Helvetica,sans-Serif" font-size="11.00" fill="#000000"> &#160;</text>
<polygon fill="#ffffff" stroke="transparent" points="70,-366.7 70,-385.7 104,-385.7 104,-366.7 70,-366.7"/>
<polygon fill="none" stroke="#000000" points="70,-366.7 70,-385.7 104,-385.7 104,-366.7 70,-366.7"/>
<text text-anchor="start" x="85.4053" y="-372.8" font-family="Helvetica,sans-Serif" font-size="11.00" fill="#000000">2 &gt;</text>
</a>
</g>
</g>
<!-- campaigns&#45;&gt;advertisers -->
<g id="edge5" class="edge">
<title>campaigns:w&#45;&gt;advertisers:e</title>
<path fill="none" stroke="#000000" d="M138.8428,-394.7C127.4139,-394.7 120.1563,-394.7 104,-394.7"/>
<polygon fill="#000000" stroke="#000000" points="145.5,-394.7001 153.5,-398.3 149.5,-394.7 153.5,-394.7 153.5,-394.7 153.5,-394.7 149.5,-394.7 153.5,-391.1 145.5,-394.7001 145.5,-394.7001"/>
<ellipse fill="none" stroke="#000000" cx="142.3" cy="-394.7001" rx="3.2" ry="3.2"/>
</g>
<!-- adgroups_locations -->
<g id="node3" class="node">
<title>adgroups_locations</title>
<g id="a_node3"><a xlink:href="../../tables/adgroups_locations.html" xlink:title="adgroups_locations" target="_top">
<polygon fill="#ffffff" stroke="transparent" points="742,-130.2 742,-257.2 894,-257.2 894,-130.2 742,-130.2"/>
<polygon fill="#f5f5f5" stroke="transparent" points="742,-233.7 742,-256.7 894,-256.7 894,-233.7 742,-233.7"/>
<polygon fill="none" stroke="#000000" points="742,-233.7 742,-256.7 894,-256.7 894,-233.7 742,-233.7"/>
<text text-anchor="start" x="747" y="-242.8" font-family="Helvetica,sans-Serif" font-weight="bold" font-size="11.00" fill="#000000">adgroups_locations</text>
<text text-anchor="start" x="859.0437" y="-241.8" font-family="Helvetica,sans-Serif" font-size="11.00" fill="#000000">[table]</text>
<polygon fill="none" stroke="#000000" points="742,-211.7 742,-233.7 894,-233.7 894,-211.7 742,-211.7"/>
<image xlink:href="../../images/primaryKeys.png" width="11px" height="12px" preserveAspectRatio="xMinYMin meet" x="747" y="-228.7"/>
<text text-anchor="start" x="762" y="-218.8" font-family="Helvetica,sans-Serif" font-size="11.00" fill="#000000">id</text>
<polygon fill="#ffffff" stroke="transparent" points="742,-189.7 742,-211.7 894,-211.7 894,-189.7 742,-189.7"/>
<polygon fill="none" stroke="#000000" points="742,-189.7 742,-211.7 894,-211.7 894,-189.7 742,-189.7"/>
<image xlink:href="../../images/foreignKeys.png" width="11px" height="12px" preserveAspectRatio="xMinYMin meet" x="747" y="-206.7"/>
<text text-anchor="start" x="762" y="-196.8" font-family="Helvetica,sans-Serif" font-size="11.00" fill="#000000">adgroup_id</text>
<polygon fill="#ffffff" stroke="transparent" points="742,-167.7 742,-189.7 894,-189.7 894,-167.7 742,-167.7"/>
<polygon fill="none" stroke="#000000" points="742,-167.7 742,-189.7 894,-189.7 894,-167.7 742,-167.7"/>
<image xlink:href="../../images/foreignKeys.png" width="11px" height="12px" preserveAspectRatio="xMinYMin meet" x="747" y="-184.7"/>
<text text-anchor="start" x="762" y="-174.8" font-family="Helvetica,sans-Serif" font-size="11.00" fill="#000000">location_id</text>
<polygon fill="none" stroke="#000000" points="742,-148.7 742,-167.7 894,-167.7 894,-148.7 742,-148.7"/>
<text text-anchor="start" x="745" y="-154.8" font-family="Helvetica,sans-Serif" font-size="11.00" fill="#000000">...</text>
<polygon fill="#ffffff" stroke="transparent" points="742,-129.7 742,-148.7 816,-148.7 816,-129.7 742,-129.7"/>
<polygon fill="none" stroke="#000000" points="742,-129.7 742,-148.7 816,-148.7 816,-129.7 742,-129.7"/>
<text text-anchor="start" x="745" y="-135.8" font-family="Helvetica,sans-Serif" font-size="11.00" fill="#000000">&lt; 2</text>
<polygon fill="#ffffff" stroke="transparent" points="816,-129.7 816,-148.7 855,-148.7 855,-129.7 816,-129.7"/>
<polygon fill="none" stroke="#000000" points="816,-129.7 816,-148.7 855,-148.7 855,-129.7 816,-129.7"/>
<text text-anchor="start" x="845.8862" y="-135.8" font-family="Helvetica,sans-Serif" font-size="11.00" fill="#000000"> &#160;</text>
<polygon fill="#ffffff" stroke="transparent" points="855,-129.7 855,-148.7 894,-148.7 894,-129.7 855,-129.7"/>
<polygon fill="none" stroke="#000000" points="855,-129.7 855,-148.7 894,-148.7 894,-129.7 855,-129.7"/>
<text text-anchor="start" x="884.8862" y="-135.8" font-family="Helvetica,sans-Serif" font-size="11.00" fill="#000000"> &#160;</text>
</a>
</g>
</g>
<!-- adgroups_locations&#45;&gt;adgroups -->
<g id="edge2" class="edge">
<title>adgroups_locations:w&#45;&gt;adgroups:e</title>
<path fill="none" stroke="#000000" d="M727.5641,-202.4789C649.9097,-224.2581 793.6856,-438.7 691,-438.7"/>
<polygon fill="#000000" stroke="#000000" points="734.0601,-201.6785 742.4403,-204.273 738.03,-201.1892 742,-200.7 742,-200.7 742,-200.7 738.03,-201.1892 741.5597,-197.127 734.0601,-201.6785 734.0601,-201.6785"/>
<ellipse fill="none" stroke="#000000" cx="730.8841" cy="-202.0698" rx="3.2" ry="3.2"/>
</g>
<!-- locations -->
<g id="node4" class="node">
<title>locations</title>
<g id="a_node4"><a xlink:href="../../tables/locations.html" xlink:title="locations" target="_top">
<polygon fill="#ffffff" stroke="transparent" points="519,-38.2 519,-99.2 605,-99.2 605,-38.2 519,-38.2"/>
<polygon fill="#f5f5f5" stroke="transparent" points="519,-75.7 519,-98.7 605,-98.7 605,-75.7 519,-75.7"/>
<polygon fill="none" stroke="#000000" points="519,-75.7 519,-98.7 605,-98.7 605,-75.7 519,-75.7"/>
<text text-anchor="start" x="523.8009" y="-84.8" font-family="Helvetica,sans-Serif" font-weight="bold" font-size="11.00" fill="#000000">locations</text>
<text text-anchor="start" x="570.5219" y="-83.8" font-family="Helvetica,sans-Serif" font-size="11.00" fill="#000000">[table]</text>
<polygon fill="none" stroke="#000000" points="519,-56.7 519,-75.7 605,-75.7 605,-56.7 519,-56.7"/>
<text text-anchor="start" x="522" y="-62.8" font-family="Helvetica,sans-Serif" font-size="11.00" fill="#000000">...</text>
<polygon fill="#ffffff" stroke="transparent" points="519,-37.7 519,-56.7 556,-56.7 556,-37.7 519,-37.7"/>
<polygon fill="none" stroke="#000000" points="519,-37.7 519,-56.7 556,-56.7 556,-37.7 519,-37.7"/>
<text text-anchor="start" x="522" y="-43.8" font-family="Helvetica,sans-Serif" font-size="11.00" fill="#000000">&lt; 1</text>
<polygon fill="#ffffff" stroke="transparent" points="556,-37.7 556,-56.7 576,-56.7 576,-37.7 556,-37.7"/>
<polygon fill="none" stroke="#000000" points="556,-37.7 556,-56.7 576,-56.7 576,-37.7 556,-37.7"/>
<text text-anchor="start" x="566.8862" y="-43.8" font-family="Helvetica,sans-Serif" font-size="11.00" fill="#000000"> &#160;</text>
<polygon fill="#ffffff" stroke="transparent" points="576,-37.7 576,-56.7 605,-56.7 605,-37.7 576,-37.7"/>
<polygon fill="none" stroke="#000000" points="576,-37.7 576,-56.7 605,-56.7 605,-37.7 576,-37.7"/>
<text text-anchor="start" x="586.4053" y="-43.8" font-family="Helvetica,sans-Serif" font-size="11.00" fill="#000000">2 &gt;</text>
</a>
</g>
</g>
<!-- adgroups_locations&#45;&gt;locations -->
<g id="edge3" class="edge">
<title>adgroups_locations:w&#45;&gt;locations:e</title>
<path fill="none" stroke="#000000" d="M727.7864,-174.7792C712.5717,-163.4213 722.509,-130.0761 701,-110.7 665.9894,-79.1611 652.1216,-65.7 605,-65.7"/>
<polygon fill="#000000" stroke="#000000" points="734.288,-176.5726 741.0427,-182.1704 738.144,-177.6363 742,-178.7 742,-178.7 742,-178.7 738.144,-177.6363 742.9573,-175.2296 734.288,-176.5726 734.288,-176.5726"/>
<ellipse fill="none" stroke="#000000" cx="731.2032" cy="-175.7217" rx="3.2" ry="3.2"/>
</g>
<!-- ads -->
<g id="node5" class="node">
<title>ads</title>
<g id="a_node5"><a xlink:href="../../tables/ads.html" xlink:title="ads" target="_top">
<polygon fill="#ffffff" stroke="transparent" points="763,-390.2 763,-495.2 873,-495.2 873,-390.2 763,-390.2"/>
<polygon fill="#f5f5f5" stroke="transparent" points="763,-471.7 763,-494.7 873,-494.7 873,-471.7 763,-471.7"/>
<polygon fill="none" stroke="#000000" points="763,-471.7 763,-494.7 873,-494.7 873,-471.7 763,-471.7"/>
<text text-anchor="start" x="768" y="-480.8" font-family="Helvetica,sans-Serif" font-weight="bold" font-size="11.00" fill="#000000">ads</text>
<text text-anchor="start" x="838.0437" y="-479.8" font-family="Helvetica,sans-Serif" font-size="11.00" fill="#000000">[table]</text>
<polygon fill="none" stroke="#000000" points="763,-449.7 763,-471.7 873,-471.7 873,-449.7 763,-449.7"/>
<image xlink:href="../../images/primaryKeys.png" width="11px" height="12px" preserveAspectRatio="xMinYMin meet" x="768" y="-466.7"/>
<text text-anchor="start" x="783" y="-456.8" font-family="Helvetica,sans-Serif" font-size="11.00" fill="#000000">id</text>
<polygon fill="#ffffff" stroke="transparent" points="763,-427.7 763,-449.7 873,-449.7 873,-427.7 763,-427.7"/>
<polygon fill="none" stroke="#000000" points="763,-427.7 763,-449.7 873,-449.7 873,-427.7 763,-427.7"/>
<image xlink:href="../../images/foreignKeys.png" width="11px" height="12px" preserveAspectRatio="xMinYMin meet" x="768" y="-444.7"/>
<text text-anchor="start" x="783" y="-434.8" font-family="Helvetica,sans-Serif" font-size="11.00" fill="#000000">adgroup_id</text>
<polygon fill="none" stroke="#000000" points="763,-408.7 763,-427.7 873,-427.7 873,-408.7 763,-408.7"/>
<text text-anchor="start" x="766" y="-414.8" font-family="Helvetica,sans-Serif" font-size="11.00" fill="#000000">...</text>
<polygon fill="#ffffff" stroke="transparent" points="763,-389.7 763,-408.7 816,-408.7 816,-389.7 763,-389.7"/>
<polygon fill="none" stroke="#000000" points="763,-389.7 763,-408.7 816,-408.7 816,-389.7 763,-389.7"/>
<text text-anchor="start" x="766" y="-395.8" font-family="Helvetica,sans-Serif" font-size="11.00" fill="#000000">&lt; 1</text>
<polygon fill="#ffffff" stroke="transparent" points="816,-389.7 816,-408.7 844,-408.7 844,-389.7 816,-389.7"/>
<polygon fill="none" stroke="#000000" points="816,-389.7 816,-408.7 844,-408.7 844,-389.7 816,-389.7"/>
<text text-anchor="start" x="834.8862" y="-395.8" font-family="Helvetica,sans-Serif" font-size="11.00" fill="#000000"> &#160;</text>
<polygon fill="#ffffff" stroke="transparent" points="844,-389.7 844,-408.7 873,-408.7 873,-389.7 844,-389.7"/>
<polygon fill="none" stroke="#000000" points="844,-389.7 844,-408.7 873,-408.7 873,-389.7 844,-389.7"/>
<text text-anchor="start" x="863.8862" y="-395.8" font-family="Helvetica,sans-Serif" font-size="11.00" fill="#000000"> &#160;</text>
</a>
</g>
</g>
<!-- ads&#45;&gt;adgroups -->
<g id="edge4" class="edge">
<title>ads:w&#45;&gt;adgroups:e</title>
<path fill="none" stroke="#000000" d="M748.3832,-438.7C727.541,-438.7 717.5,-438.7 691,-438.7"/>
<polygon fill="#000000" stroke="#000000" points="755,-438.7001 763,-442.3 759,-438.7 763,-438.7 763,-438.7 763,-438.7 759,-438.7 763,-435.1 755,-438.7001 755,-438.7001"/>
<ellipse fill="none" stroke="#000000" cx="751.8" cy="-438.7001" rx="3.2" ry="3.2"/>
</g>
</g>
</svg>
