<?xml version="1.0" encoding="UTF-8" standalone="no"?>
<!DOCTYPE svg PUBLIC "-//W3C//DTD SVG 1.1//EN"
 "http://www.w3.org/Graphics/SVG/1.1/DTD/svg11.dtd">
<!-- Generated by graphviz version 2.40.1 (20161225.0304)
 -->
<!-- Title: twoDegreesRelationshipsDiagram Pages: 1 -->
<svg width="631pt" height="393pt"
 viewBox="0.00 0.00 631.00 393.20" xmlns="http://www.w3.org/2000/svg" xmlns:xlink="http://www.w3.org/1999/xlink">
<g id="graph0" class="graph" transform="scale(1 1) rotate(0) translate(4 389.2)">
<title>twoDegreesRelationshipsDiagram</title>
<polygon fill="#ffffff" stroke="transparent" points="-4,4 -4,-389.2 627,-389.2 627,4 -4,4"/>
<text text-anchor="middle" x="72.4936" y="-7.3" font-family="Helvetica,sans-Serif" font-size="11.00" fill="#000000">Generated by SchemaSpy</text>
<!-- adgroups -->
<g id="node1" class="node">
<title>adgroups</title>
<g id="a_node1"><a xlink:href="../../tables/adgroups.html" xlink:title="adgroups" target="_top">
<polygon fill="#ffffff" stroke="transparent" points="179,-223.2 179,-328.2 344,-328.2 344,-223.2 179,-223.2"/>
<polygon fill="#f5f5f5" stroke="transparent" points="179.5,-304.7 179.5,-327.7 344.5,-327.7 344.5,-304.7 179.5,-304.7"/>
<polygon fill="none" stroke="#000000" points="179.5,-304.7 179.5,-327.7 344.5,-327.7 344.5,-304.7 179.5,-304.7"/>
<text text-anchor="start" x="184.5" y="-313.8" font-family="Helvetica,sans-Serif" font-weight="bold" font-size="11.00" fill="#000000">adgroups</text>
<text text-anchor="start" x="309.5437" y="-312.8" font-family="Helvetica,sans-Serif" font-size="11.00" fill="#000000">[table]</text>
<polygon fill="none" stroke="#000000" points="179.5,-282.7 179.5,-304.7 344.5,-304.7 344.5,-282.7 179.5,-282.7"/>
<image xlink:href="../../images/primaryKeys.png" width="11px" height="12px" preserveAspectRatio="xMinYMin meet" x="184.5" y="-299.7"/>
<text text-anchor="start" x="199.5" y="-289.8" font-family="Helvetica,sans-Serif" font-size="11.00" fill="#000000">id</text>
<polygon fill="#ffffff" stroke="transparent" points="179.5,-260.7 179.5,-282.7 344.5,-282.7 344.5,-260.7 179.5,-260.7"/>
<polygon fill="none" stroke="#000000" points="179.5,-260.7 179.5,-282.7 344.5,-282.7 344.5,-260.7 179.5,-260.7"/>
<image xlink:href="../../images/foreignKeys.png" width="11px" height="12px" preserveAspectRatio="xMinYMin meet" x="184.5" y="-277.7"/>
<text text-anchor="start" x="199.5" y="-267.8" font-family="Helvetica,sans-Serif" font-size="11.00" fill="#000000">campaign_id</text>
<polygon fill="none" stroke="#000000" points="179.5,-241.7 179.5,-260.7 344.5,-260.7 344.5,-241.7 179.5,-241.7"/>
<text text-anchor="start" x="182.5" y="-247.8" font-family="Helvetica,sans-Serif" font-size="11.00" fill="#000000">...</text>
<polygon fill="#ffffff" stroke="transparent" points="179.5,-222.7 179.5,-241.7 255.5,-241.7 255.5,-222.7 179.5,-222.7"/>
<polygon fill="none" stroke="#000000" points="179.5,-222.7 179.5,-241.7 255.5,-241.7 255.5,-222.7 179.5,-222.7"/>
<text text-anchor="start" x="182.5" y="-228.8" font-family="Helvetica,sans-Serif" font-size="11.00" fill="#000000">&lt; 1</text>
<polygon fill="#ffffff" stroke="transparent" points="255.5,-222.7 255.5,-241.7 295.5,-241.7 295.5,-222.7 255.5,-222.7"/>
<polygon fill="none" stroke="#000000" points="255.5,-222.7 255.5,-241.7 295.5,-241.7 295.5,-222.7 255.5,-222.7"/>
<text text-anchor="start" x="286.3862" y="-228.8" font-family="Helvetica,sans-Serif" font-size="11.00" fill="#000000"> &#160;</text>
<polygon fill="#ffffff" stroke="transparent" points="295.5,-222.7 295.5,-241.7 344.5,-241.7 344.5,-222.7 295.5,-222.7"/>
<polygon fill="none" stroke="#000000" points="295.5,-222.7 295.5,-241.7 344.5,-241.7 344.5,-222.7 295.5,-222.7"/>
<text text-anchor="start" x="325.9053" y="-228.8" font-family="Helvetica,sans-Serif" font-size="11.00" fill="#000000">2 &gt;</text>
</a>
</g>
</g>
<!-- campaigns -->
<g id="node2" class="node">
<title>campaigns</title>
<g id="a_node2"><a xlink:href="../../tables/campaigns.html" xlink:title="campaigns" target="_top">
<polygon fill="#ffffff" stroke="transparent" points="21,-244.2 21,-305.2 117,-305.2 117,-244.2 21,-244.2"/>
<polygon fill="#f5f5f5" stroke="transparent" points="21,-281.7 21,-304.7 117,-304.7 117,-281.7 21,-281.7"/>
<polygon fill="none" stroke="#000000" points="21,-281.7 21,-304.7 117,-304.7 117,-281.7 21,-281.7"/>
<text text-anchor="start" x="25.9114" y="-290.8" font-family="Helvetica,sans-Serif" font-weight="bold" font-size="11.00" fill="#000000">campaigns</text>
<text text-anchor="start" x="82.5219" y="-289.8" font-family="Helvetica,sans-Serif" font-size="11.00" fill="#000000">[table]</text>
<polygon fill="none" stroke="#000000" points="21,-262.7 21,-281.7 117,-281.7 117,-262.7 21,-262.7"/>
<text text-anchor="start" x="24" y="-268.8" font-family="Helvetica,sans-Serif" font-size="11.00" fill="#000000">...</text>
<polygon fill="#ffffff" stroke="transparent" points="21,-243.7 21,-262.7 63,-262.7 63,-243.7 21,-243.7"/>
<polygon fill="none" stroke="#000000" points="21,-243.7 21,-262.7 63,-262.7 63,-243.7 21,-243.7"/>
<text text-anchor="start" x="24" y="-249.8" font-family="Helvetica,sans-Serif" font-size="11.00" fill="#000000">&lt; 1</text>
<polygon fill="#ffffff" stroke="transparent" points="63,-243.7 63,-262.7 85,-262.7 85,-243.7 63,-243.7"/>
<polygon fill="none" stroke="#000000" points="63,-243.7 63,-262.7 85,-262.7 85,-243.7 63,-243.7"/>
<text text-anchor="start" x="75.8862" y="-249.8" font-family="Helvetica,sans-Serif" font-size="11.00" fill="#000000"> &#160;</text>
<polygon fill="#ffffff" stroke="transparent" points="85,-243.7 85,-262.7 117,-262.7 117,-243.7 85,-243.7"/>
<polygon fill="none" stroke="#000000" points="85,-243.7 85,-262.7 117,-262.7 117,-243.7 85,-243.7"/>
<text text-anchor="start" x="98.4053" y="-249.8" font-family="Helvetica,sans-Serif" font-size="11.00" fill="#000000">1 &gt;</text>
</a>
</g>
</g>
<!-- adgroups&#45;&gt;campaigns -->
<g id="edge1" class="edge">
<title>adgroups:w&#45;&gt;campaigns:e</title>
<path fill="none" stroke="#000000" d="M164.8024,-271.7C148.0415,-271.7 139.1354,-271.7 117,-271.7"/>
<polygon fill="#000000" stroke="#000000" points="171.5,-271.7001 179.5,-275.3 175.5,-271.7 179.5,-271.7 179.5,-271.7 179.5,-271.7 175.5,-271.7 179.5,-268.1 171.5,-271.7001 171.5,-271.7001"/>
<ellipse fill="none" stroke="#000000" cx="168.3" cy="-271.7001" rx="3.2" ry="3.2"/>
</g>
<!-- adgroups_locations -->
<g id="node3" class="node">
<title>adgroups_locations</title>
<g id="a_node3"><a xlink:href="../../tables/adgroups_locations.html" xlink:title="adgroups_locations" target="_top">
<polygon fill="#ffffff" stroke="transparent" points="393,-120.7 393,-298.7 615,-298.7 615,-120.7 393,-120.7"/>
<polygon fill="#f5f5f5" stroke="transparent" points="395,-273.7 395,-296.7 613,-296.7 613,-273.7 395,-273.7"/>
<polygon fill="none" stroke="#000000" points="395,-273.7 395,-296.7 613,-296.7 613,-273.7 395,-273.7"/>
<text text-anchor="start" x="400" y="-282.8" font-family="Helvetica,sans-Serif" font-weight="bold" font-size="11.00" fill="#000000">adgroups_locations</text>
<text text-anchor="start" x="578.0437" y="-281.8" font-family="Helvetica,sans-Serif" font-size="11.00" fill="#000000">[table]</text>
<polygon fill="none" stroke="#000000" points="395,-251.7 395,-273.7 547,-273.7 547,-251.7 395,-251.7"/>
<image xlink:href="../../images/primaryKeys.png" width="11px" height="12px" preserveAspectRatio="xMinYMin meet" x="400" y="-268.7"/>
<text text-anchor="start" x="415" y="-258.8" font-family="Helvetica,sans-Serif" font-size="11.00" fill="#000000">id</text>
<polygon fill="none" stroke="#000000" points="547,-251.7 547,-273.7 613,-273.7 613,-251.7 547,-251.7"/>
<text text-anchor="start" x="550" y="-259.4" font-family="Helvetica,sans-Serif" font-size="11.00" fill="#000000">int[10]</text>
<polygon fill="#ffffff" stroke="transparent" points="395,-229.7 395,-251.7 547,-251.7 547,-229.7 395,-229.7"/>
<polygon fill="none" stroke="#000000" points="395,-229.7 395,-251.7 547,-251.7 547,-229.7 395,-229.7"/>
<image xlink:href="../../images/foreignKeys.png" width="11px" height="12px" preserveAspectRatio="xMinYMin meet" x="400" y="-246.7"/>
<text text-anchor="start" x="415" y="-236.8" font-family="Helvetica,sans-Serif" font-size="11.00" fill="#000000">adgroup_id</text>
<polygon fill="none" stroke="#000000" points="547,-229.7 547,-251.7 613,-251.7 613,-229.7 547,-229.7"/>
<text text-anchor="start" x="550" y="-237.4" font-family="Helvetica,sans-Serif" font-size="11.00" fill="#000000">int[10]</text>
<polygon fill="#ffffff" stroke="transparent" points="395,-207.7 395,-229.7 547,-229.7 547,-207.7 395,-207.7"/>
<polygon fill="none" stroke="#000000" points="395,-207.7 395,-229.7 547,-229.7 547,-207.7 395,-207.7"/>
<image xlink:href="../../images/foreignKeys.png" width="11px" height="12px" preserveAspectRatio="xMinYMin meet" x="400" y="-224.7"/>
<text text-anchor="start" x="415" y="-214.8" font-family="Helvetica,sans-Serif" font-size="11.00" fill="#000000">location_id</text>
<polygon fill="none" stroke="#000000" points="547,-207.7 547,-229.7 613,-229.7 613,-207.7 547,-207.7"/>
<text text-anchor="start" x="550" y="-215.4" font-family="Helvetica,sans-Serif" font-size="11.00" fill="#000000">int[10]</text>
<polygon fill="none" stroke="#000000" points="395,-185.7 395,-207.7 547,-207.7 547,-185.7 395,-185.7"/>
<text text-anchor="start" x="415" y="-192.8" font-family="Helvetica,sans-Serif" font-size="11.00" fill="#000000">created_at</text>
<polygon fill="none" stroke="#000000" points="547,-185.7 547,-207.7 613,-207.7 613,-185.7 547,-185.7"/>
<text text-anchor="start" x="549.7401" y="-193.4" font-family="Helvetica,sans-Serif" font-size="11.00" fill="#000000">datetime[19]</text>
<polygon fill="none" stroke="#000000" points="395,-163.7 395,-185.7 547,-185.7 547,-163.7 395,-163.7"/>
<text text-anchor="start" x="415" y="-170.8" font-family="Helvetica,sans-Serif" font-size="11.00" fill="#000000">updated_at</text>
<polygon fill="none" stroke="#000000" points="547,-163.7 547,-185.7 613,-185.7 613,-163.7 547,-163.7"/>
<text text-anchor="start" x="549.7401" y="-171.4" font-family="Helvetica,sans-Serif" font-size="11.00" fill="#000000">datetime[19]</text>
<polygon fill="none" stroke="#000000" points="395,-141.7 395,-163.7 547,-163.7 547,-141.7 395,-141.7"/>
<text text-anchor="start" x="415" y="-148.8" font-family="Helvetica,sans-Serif" font-size="11.00" fill="#000000">deleted_at</text>
<polygon fill="none" stroke="#000000" points="547,-141.7 547,-163.7 613,-163.7 613,-141.7 547,-141.7"/>
<text text-anchor="start" x="549.7401" y="-149.4" font-family="Helvetica,sans-Serif" font-size="11.00" fill="#000000">datetime[19]</text>
<polygon fill="#ffffff" stroke="transparent" points="395,-122.7 395,-141.7 475,-141.7 475,-122.7 395,-122.7"/>
<polygon fill="none" stroke="#000000" points="395,-122.7 395,-141.7 475,-141.7 475,-122.7 395,-122.7"/>
<text text-anchor="start" x="398" y="-128.8" font-family="Helvetica,sans-Serif" font-size="11.00" fill="#000000">&lt; 2</text>
<polygon fill="#ffffff" stroke="transparent" points="475,-122.7 475,-141.7 547,-141.7 547,-122.7 475,-122.7"/>
<polygon fill="none" stroke="#000000" points="475,-122.7 475,-141.7 547,-141.7 547,-122.7 475,-122.7"/>
<text text-anchor="start" x="537.8862" y="-128.8" font-family="Helvetica,sans-Serif" font-size="11.00" fill="#000000"> &#160;</text>
<polygon fill="#ffffff" stroke="transparent" points="547,-122.7 547,-141.7 613,-141.7 613,-122.7 547,-122.7"/>
<polygon fill="none" stroke="#000000" points="547,-122.7 547,-141.7 613,-141.7 613,-122.7 547,-122.7"/>
<text text-anchor="start" x="594.4053" y="-128.8" font-family="Helvetica,sans-Serif" font-size="11.00" fill="#000000">0 &gt;</text>
<polygon fill="none" stroke="#000000" stroke-width="2" points="394,-121.7 394,-297.7 614,-297.7 614,-121.7 394,-121.7"/>
</a>
</g>
</g>
<!-- adgroups_locations&#45;&gt;adgroups -->
<g id="edge2" class="edge">
<title>adgroups_locations:w&#45;&gt;adgroups:e</title>
<path fill="none" stroke="#000000" d="M381.0458,-245.5911C366.2722,-258.7117 370.9358,-293.7 344.5,-293.7"/>
<polygon fill="#000000" stroke="#000000" points="387.4503,-243.3463 396.1908,-244.0974 391.2252,-242.0231 395,-240.7 395,-240.7 395,-240.7 391.2252,-242.0231 393.8092,-237.3026 387.4503,-243.3463 387.4503,-243.3463"/>
<ellipse fill="none" stroke="#000000" cx="384.4305" cy="-244.4048" rx="3.2" ry="3.2"/>
</g>
<!-- locations -->
<g id="node4" class="node">
<title>locations</title>
<g id="a_node4"><a xlink:href="../../tables/locations.html" xlink:title="locations" target="_top">
<polygon fill="#ffffff" stroke="transparent" points="191,-73.2 191,-178.2 332,-178.2 332,-73.2 191,-73.2"/>
<polygon fill="#f5f5f5" stroke="transparent" points="191.5,-154.7 191.5,-177.7 332.5,-177.7 332.5,-154.7 191.5,-154.7"/>
<polygon fill="none" stroke="#000000" points="191.5,-154.7 191.5,-177.7 332.5,-177.7 332.5,-154.7 191.5,-154.7"/>
<text text-anchor="start" x="196.5" y="-163.8" font-family="Helvetica,sans-Serif" font-weight="bold" font-size="11.00" fill="#000000">locations</text>
<text text-anchor="start" x="297.5437" y="-162.8" font-family="Helvetica,sans-Serif" font-size="11.00" fill="#000000">[table]</text>
<polygon fill="none" stroke="#000000" points="191.5,-132.7 191.5,-154.7 332.5,-154.7 332.5,-132.7 191.5,-132.7"/>
<image xlink:href="../../images/primaryKeys.png" width="11px" height="12px" preserveAspectRatio="xMinYMin meet" x="196.5" y="-149.7"/>
<text text-anchor="start" x="211.5" y="-139.8" font-family="Helvetica,sans-Serif" font-size="11.00" fill="#000000">id</text>
<polygon fill="#ffffff" stroke="transparent" points="191.5,-110.7 191.5,-132.7 332.5,-132.7 332.5,-110.7 191.5,-110.7"/>
<polygon fill="none" stroke="#000000" points="191.5,-110.7 191.5,-132.7 332.5,-132.7 332.5,-110.7 191.5,-110.7"/>
<image xlink:href="../../images/foreignKeys.png" width="11px" height="12px" preserveAspectRatio="xMinYMin meet" x="196.5" y="-127.7"/>
<text text-anchor="start" x="211.5" y="-117.8" font-family="Helvetica,sans-Serif" font-size="11.00" fill="#000000">location_owner_id</text>
<polygon fill="none" stroke="#000000" points="191.5,-91.7 191.5,-110.7 332.5,-110.7 332.5,-91.7 191.5,-91.7"/>
<text text-anchor="start" x="194.5" y="-97.8" font-family="Helvetica,sans-Serif" font-size="11.00" fill="#000000">...</text>
<polygon fill="#ffffff" stroke="transparent" points="191.5,-72.7 191.5,-91.7 255.5,-91.7 255.5,-72.7 191.5,-72.7"/>
<polygon fill="none" stroke="#000000" points="191.5,-72.7 191.5,-91.7 255.5,-91.7 255.5,-72.7 191.5,-72.7"/>
<text text-anchor="start" x="194.5" y="-78.8" font-family="Helvetica,sans-Serif" font-size="11.00" fill="#000000">&lt; 1</text>
<polygon fill="#ffffff" stroke="transparent" points="255.5,-72.7 255.5,-91.7 289.5,-91.7 289.5,-72.7 255.5,-72.7"/>
<polygon fill="none" stroke="#000000" points="255.5,-72.7 255.5,-91.7 289.5,-91.7 289.5,-72.7 255.5,-72.7"/>
<text text-anchor="start" x="280.3862" y="-78.8" font-family="Helvetica,sans-Serif" font-size="11.00" fill="#000000"> &#160;</text>
<polygon fill="#ffffff" stroke="transparent" points="289.5,-72.7 289.5,-91.7 332.5,-91.7 332.5,-72.7 289.5,-72.7"/>
<polygon fill="none" stroke="#000000" points="289.5,-72.7 289.5,-91.7 332.5,-91.7 332.5,-72.7 289.5,-72.7"/>
<text text-anchor="start" x="313.9053" y="-78.8" font-family="Helvetica,sans-Serif" font-size="11.00" fill="#000000">2 &gt;</text>
</a>
</g>
</g>
<!-- adgroups_locations&#45;&gt;locations -->
<g id="edge3" class="edge">
<title>adgroups_locations:w&#45;&gt;locations:e</title>
<path fill="none" stroke="#000000" d="M380.9756,-215.0826C356.8656,-200.1011 370.1275,-143.7 332.5,-143.7"/>
<polygon fill="#000000" stroke="#000000" points="387.2535,-216.7019 394.1008,-222.1859 391.1268,-217.7009 395,-218.7 395,-218.7 395,-218.7 391.1268,-217.7009 395.8992,-215.2141 387.2535,-216.7019 387.2535,-216.7019"/>
<ellipse fill="none" stroke="#000000" cx="384.155" cy="-215.9026" rx="3.2" ry="3.2"/>
</g>
<!-- location_owners -->
<g id="node6" class="node">
<title>location_owners</title>
<g id="a_node6"><a xlink:href="../../tables/location_owners.html" xlink:title="location_owners" target="_top">
<polygon fill="#ffffff" stroke="transparent" points="8,-94.2 8,-155.2 130,-155.2 130,-94.2 8,-94.2"/>
<polygon fill="#f5f5f5" stroke="transparent" points="8,-131.7 8,-154.7 130,-154.7 130,-131.7 8,-131.7"/>
<polygon fill="none" stroke="#000000" points="8,-131.7 8,-154.7 130,-154.7 130,-131.7 8,-131.7"/>
<text text-anchor="start" x="12.7696" y="-140.8" font-family="Helvetica,sans-Serif" font-weight="bold" font-size="11.00" fill="#000000">location_owners</text>
<text text-anchor="start" x="95.5219" y="-139.8" font-family="Helvetica,sans-Serif" font-size="11.00" fill="#000000">[table]</text>
<polygon fill="none" stroke="#000000" points="8,-112.7 8,-131.7 130,-131.7 130,-112.7 8,-112.7"/>
<text text-anchor="start" x="11" y="-118.8" font-family="Helvetica,sans-Serif" font-size="11.00" fill="#000000">...</text>
<polygon fill="#ffffff" stroke="transparent" points="8,-93.7 8,-112.7 58,-112.7 58,-93.7 8,-93.7"/>
<polygon fill="none" stroke="#000000" points="8,-93.7 8,-112.7 58,-112.7 58,-93.7 8,-93.7"/>
<text text-anchor="start" x="11" y="-99.8" font-family="Helvetica,sans-Serif" font-size="11.00" fill="#000000"> &#160;</text>
<polygon fill="#ffffff" stroke="transparent" points="58,-93.7 58,-112.7 89,-112.7 89,-93.7 58,-93.7"/>
<polygon fill="none" stroke="#000000" points="58,-93.7 58,-112.7 89,-112.7 89,-93.7 58,-93.7"/>
<text text-anchor="start" x="79.8862" y="-99.8" font-family="Helvetica,sans-Serif" font-size="11.00" fill="#000000"> &#160;</text>
<polygon fill="#ffffff" stroke="transparent" points="89,-93.7 89,-112.7 130,-112.7 130,-93.7 89,-93.7"/>
<polygon fill="none" stroke="#000000" points="89,-93.7 89,-112.7 130,-112.7 130,-93.7 89,-93.7"/>
<text text-anchor="start" x="111.4053" y="-99.8" font-family="Helvetica,sans-Serif" font-size="11.00" fill="#000000">1 &gt;</text>
</a>
</g>
</g>
<!-- locations&#45;&gt;location_owners -->
<g id="edge5" class="edge">
<title>locations:w&#45;&gt;location_owners:e</title>
<path fill="none" stroke="#000000" d="M177.0376,-121.7C160.5448,-121.7 151.7813,-121.7 130,-121.7"/>
<polygon fill="#000000" stroke="#000000" points="183.5,-121.7001 191.5,-125.3 187.5,-121.7 191.5,-121.7 191.5,-121.7 191.5,-121.7 187.5,-121.7 191.5,-118.1 183.5,-121.7001 183.5,-121.7001"/>
<ellipse fill="none" stroke="#000000" cx="180.3" cy="-121.7001" rx="3.2" ry="3.2"/>
</g>
<!-- ads -->
<g id="node5" class="node">
<title>ads</title>
<g id="a_node5"><a xlink:href="../../tables/ads.html" xlink:title="ads" target="_top">
<polygon fill="#ffffff" stroke="transparent" points="474,-320.2 474,-381.2 534,-381.2 534,-320.2 474,-320.2"/>
<polygon fill="#f5f5f5" stroke="transparent" points="474,-357.7 474,-380.7 534,-380.7 534,-357.7 474,-357.7"/>
<polygon fill="none" stroke="#000000" points="474,-357.7 474,-380.7 534,-380.7 534,-357.7 474,-357.7"/>
<text text-anchor="start" x="478.6351" y="-366.8" font-family="Helvetica,sans-Serif" font-weight="bold" font-size="11.00" fill="#000000">ads</text>
<text text-anchor="start" x="499.5219" y="-365.8" font-family="Helvetica,sans-Serif" font-size="11.00" fill="#000000">[table]</text>
<polygon fill="none" stroke="#000000" points="474,-338.7 474,-357.7 534,-357.7 534,-338.7 474,-338.7"/>
<text text-anchor="start" x="477" y="-344.8" font-family="Helvetica,sans-Serif" font-size="11.00" fill="#000000">...</text>
<polygon fill="#ffffff" stroke="transparent" points="474,-319.7 474,-338.7 502,-338.7 502,-319.7 474,-319.7"/>
<polygon fill="none" stroke="#000000" points="474,-319.7 474,-338.7 502,-338.7 502,-319.7 474,-319.7"/>
<text text-anchor="start" x="477" y="-325.8" font-family="Helvetica,sans-Serif" font-size="11.00" fill="#000000">&lt; 1</text>
<polygon fill="#ffffff" stroke="transparent" points="502,-319.7 502,-338.7 518,-338.7 518,-319.7 502,-319.7"/>
<polygon fill="none" stroke="#000000" points="502,-319.7 502,-338.7 518,-338.7 518,-319.7 502,-319.7"/>
<text text-anchor="start" x="508.8862" y="-325.8" font-family="Helvetica,sans-Serif" font-size="11.00" fill="#000000"> &#160;</text>
<polygon fill="#ffffff" stroke="transparent" points="518,-319.7 518,-338.7 534,-338.7 534,-319.7 518,-319.7"/>
<polygon fill="none" stroke="#000000" points="518,-319.7 518,-338.7 534,-338.7 534,-319.7 518,-319.7"/>
<text text-anchor="start" x="524.8862" y="-325.8" font-family="Helvetica,sans-Serif" font-size="11.00" fill="#000000"> &#160;</text>
</a>
</g>
</g>
<!-- ads&#45;&gt;adgroups -->
<g id="edge4" class="edge">
<title>ads:w&#45;&gt;adgroups:e</title>
<path fill="none" stroke="#000000" d="M460.2897,-342.9079C427.9555,-329.692 350.8638,-293.7 344.5,-293.7"/>
<polygon fill="#000000" stroke="#000000" points="466.448,-345.0603 472.8121,-351.0984 470.224,-346.3802 474,-347.7 474,-347.7 474,-347.7 470.224,-346.3802 475.1879,-344.3016 466.448,-345.0603 466.448,-345.0603"/>
<ellipse fill="none" stroke="#000000" cx="463.4272" cy="-344.0045" rx="3.2" ry="3.2"/>
</g>
<!-- signages -->
<g id="node7" class="node">
<title>signages</title>
<g id="a_node7"><a xlink:href="../../tables/signages.html" xlink:title="signages" target="_top">
<polygon fill="#ffffff" stroke="transparent" points="460.5,-38.2 460.5,-99.2 547.5,-99.2 547.5,-38.2 460.5,-38.2"/>
<polygon fill="#f5f5f5" stroke="transparent" points="461,-75.7 461,-98.7 548,-98.7 548,-75.7 461,-75.7"/>
<polygon fill="none" stroke="#000000" points="461,-75.7 461,-98.7 548,-98.7 548,-75.7 461,-75.7"/>
<text text-anchor="start" x="465.9923" y="-84.8" font-family="Helvetica,sans-Serif" font-weight="bold" font-size="11.00" fill="#000000">signages</text>
<text text-anchor="start" x="513.5219" y="-83.8" font-family="Helvetica,sans-Serif" font-size="11.00" fill="#000000">[table]</text>
<polygon fill="none" stroke="#000000" points="461,-56.7 461,-75.7 548,-75.7 548,-56.7 461,-56.7"/>
<text text-anchor="start" x="464" y="-62.8" font-family="Helvetica,sans-Serif" font-size="11.00" fill="#000000">...</text>
<polygon fill="#ffffff" stroke="transparent" points="461,-37.7 461,-56.7 503,-56.7 503,-37.7 461,-37.7"/>
<polygon fill="none" stroke="#000000" points="461,-37.7 461,-56.7 503,-56.7 503,-37.7 461,-37.7"/>
<text text-anchor="start" x="464" y="-43.8" font-family="Helvetica,sans-Serif" font-size="11.00" fill="#000000">&lt; 1</text>
<polygon fill="#ffffff" stroke="transparent" points="503,-37.7 503,-56.7 525,-56.7 525,-37.7 503,-37.7"/>
<polygon fill="none" stroke="#000000" points="503,-37.7 503,-56.7 525,-56.7 525,-37.7 503,-37.7"/>
<text text-anchor="start" x="515.8862" y="-43.8" font-family="Helvetica,sans-Serif" font-size="11.00" fill="#000000"> &#160;</text>
<polygon fill="#ffffff" stroke="transparent" points="525,-37.7 525,-56.7 548,-56.7 548,-37.7 525,-37.7"/>
<polygon fill="none" stroke="#000000" points="525,-37.7 525,-56.7 548,-56.7 548,-37.7 525,-37.7"/>
<text text-anchor="start" x="538.8862" y="-43.8" font-family="Helvetica,sans-Serif" font-size="11.00" fill="#000000"> &#160;</text>
</a>
</g>
</g>
<!-- signages&#45;&gt;locations -->
<g id="edge6" class="edge">
<title>signages:w&#45;&gt;locations:e</title>
<path fill="none" stroke="#000000" d="M446.4501,-67.026C420.3467,-72.2761 413.5995,-92.1755 385,-109.7 361.2969,-124.2243 360.2991,-143.7 332.5,-143.7"/>
<polygon fill="#000000" stroke="#000000" points="453.033,-66.4261 461.3267,-69.2851 457.0165,-66.0631 461,-65.7 461,-65.7 461,-65.7 457.0165,-66.0631 460.6733,-62.1149 453.033,-66.4261 453.033,-66.4261"/>
<ellipse fill="none" stroke="#000000" cx="449.8462" cy="-66.7165" rx="3.2" ry="3.2"/>
</g>
</g>
</svg>
