<?xml version="1.0" encoding="UTF-8" standalone="no"?>
<!DOCTYPE svg PUBLIC "-//W3C//DTD SVG 1.1//EN"
 "http://www.w3.org/Graphics/SVG/1.1/DTD/svg11.dtd">
<!-- Generated by graphviz version 2.40.1 (20161225.0304)
 -->
<!-- Title: twoDegreesRelationshipsDiagram Pages: 1 -->
<svg width="564pt" height="465pt"
 viewBox="0.00 0.00 564.00 464.70" xmlns="http://www.w3.org/2000/svg" xmlns:xlink="http://www.w3.org/1999/xlink">
<g id="graph0" class="graph" transform="scale(1 1) rotate(0) translate(4 460.7)">
<title>twoDegreesRelationshipsDiagram</title>
<polygon fill="#ffffff" stroke="transparent" points="-4,4 -4,-460.7 560,-460.7 560,4 -4,4"/>
<text text-anchor="middle" x="72.4936" y="-7.3" font-family="Helvetica,sans-Serif" font-size="11.00" fill="#000000">Generated by SchemaSpy</text>
<!-- adgroups -->
<g id="node1" class="node">
<title>adgroups</title>
<g id="a_node1"><a xlink:href="../../tables/adgroups.html" xlink:title="adgroups" target="_top">
<polygon fill="#ffffff" stroke="transparent" points="153,-294.7 153,-399.7 318,-399.7 318,-294.7 153,-294.7"/>
<polygon fill="#f5f5f5" stroke="transparent" points="153.5,-376.2 153.5,-399.2 318.5,-399.2 318.5,-376.2 153.5,-376.2"/>
<polygon fill="none" stroke="#000000" points="153.5,-376.2 153.5,-399.2 318.5,-399.2 318.5,-376.2 153.5,-376.2"/>
<text text-anchor="start" x="158.5" y="-385.3" font-family="Helvetica,sans-Serif" font-weight="bold" font-size="11.00" fill="#000000">adgroups</text>
<text text-anchor="start" x="283.5437" y="-384.3" font-family="Helvetica,sans-Serif" font-size="11.00" fill="#000000">[table]</text>
<polygon fill="none" stroke="#000000" points="153.5,-354.2 153.5,-376.2 318.5,-376.2 318.5,-354.2 153.5,-354.2"/>
<image xlink:href="../../images/primaryKeys.png" width="11px" height="12px" preserveAspectRatio="xMinYMin meet" x="158.5" y="-371.2"/>
<text text-anchor="start" x="173.5" y="-361.3" font-family="Helvetica,sans-Serif" font-size="11.00" fill="#000000">id</text>
<polygon fill="#ffffff" stroke="transparent" points="153.5,-332.2 153.5,-354.2 318.5,-354.2 318.5,-332.2 153.5,-332.2"/>
<polygon fill="none" stroke="#000000" points="153.5,-332.2 153.5,-354.2 318.5,-354.2 318.5,-332.2 153.5,-332.2"/>
<image xlink:href="../../images/foreignKeys.png" width="11px" height="12px" preserveAspectRatio="xMinYMin meet" x="158.5" y="-349.2"/>
<text text-anchor="start" x="173.5" y="-339.3" font-family="Helvetica,sans-Serif" font-size="11.00" fill="#000000">campaign_id</text>
<polygon fill="none" stroke="#000000" points="153.5,-313.2 153.5,-332.2 318.5,-332.2 318.5,-313.2 153.5,-313.2"/>
<text text-anchor="start" x="156.5" y="-319.3" font-family="Helvetica,sans-Serif" font-size="11.00" fill="#000000">...</text>
<polygon fill="#ffffff" stroke="transparent" points="153.5,-294.2 153.5,-313.2 229.5,-313.2 229.5,-294.2 153.5,-294.2"/>
<polygon fill="none" stroke="#000000" points="153.5,-294.2 153.5,-313.2 229.5,-313.2 229.5,-294.2 153.5,-294.2"/>
<text text-anchor="start" x="156.5" y="-300.3" font-family="Helvetica,sans-Serif" font-size="11.00" fill="#000000">&lt; 1</text>
<polygon fill="#ffffff" stroke="transparent" points="229.5,-294.2 229.5,-313.2 269.5,-313.2 269.5,-294.2 229.5,-294.2"/>
<polygon fill="none" stroke="#000000" points="229.5,-294.2 229.5,-313.2 269.5,-313.2 269.5,-294.2 229.5,-294.2"/>
<text text-anchor="start" x="260.3862" y="-300.3" font-family="Helvetica,sans-Serif" font-size="11.00" fill="#000000"> &#160;</text>
<polygon fill="#ffffff" stroke="transparent" points="269.5,-294.2 269.5,-313.2 318.5,-313.2 318.5,-294.2 269.5,-294.2"/>
<polygon fill="none" stroke="#000000" points="269.5,-294.2 269.5,-313.2 318.5,-313.2 318.5,-294.2 269.5,-294.2"/>
<text text-anchor="start" x="299.9053" y="-300.3" font-family="Helvetica,sans-Serif" font-size="11.00" fill="#000000">2 &gt;</text>
</a>
</g>
</g>
<!-- campaigns -->
<g id="node2" class="node">
<title>campaigns</title>
<g id="a_node2"><a xlink:href="../../tables/campaigns.html" xlink:title="campaigns" target="_top">
<polygon fill="#ffffff" stroke="transparent" points="8,-315.7 8,-376.7 104,-376.7 104,-315.7 8,-315.7"/>
<polygon fill="#f5f5f5" stroke="transparent" points="8,-353.2 8,-376.2 104,-376.2 104,-353.2 8,-353.2"/>
<polygon fill="none" stroke="#000000" points="8,-353.2 8,-376.2 104,-376.2 104,-353.2 8,-353.2"/>
<text text-anchor="start" x="12.9114" y="-362.3" font-family="Helvetica,sans-Serif" font-weight="bold" font-size="11.00" fill="#000000">campaigns</text>
<text text-anchor="start" x="69.5219" y="-361.3" font-family="Helvetica,sans-Serif" font-size="11.00" fill="#000000">[table]</text>
<polygon fill="none" stroke="#000000" points="8,-334.2 8,-353.2 104,-353.2 104,-334.2 8,-334.2"/>
<text text-anchor="start" x="11" y="-340.3" font-family="Helvetica,sans-Serif" font-size="11.00" fill="#000000">...</text>
<polygon fill="#ffffff" stroke="transparent" points="8,-315.2 8,-334.2 50,-334.2 50,-315.2 8,-315.2"/>
<polygon fill="none" stroke="#000000" points="8,-315.2 8,-334.2 50,-334.2 50,-315.2 8,-315.2"/>
<text text-anchor="start" x="11" y="-321.3" font-family="Helvetica,sans-Serif" font-size="11.00" fill="#000000">&lt; 1</text>
<polygon fill="#ffffff" stroke="transparent" points="50,-315.2 50,-334.2 72,-334.2 72,-315.2 50,-315.2"/>
<polygon fill="none" stroke="#000000" points="50,-315.2 50,-334.2 72,-334.2 72,-315.2 50,-315.2"/>
<text text-anchor="start" x="62.8862" y="-321.3" font-family="Helvetica,sans-Serif" font-size="11.00" fill="#000000"> &#160;</text>
<polygon fill="#ffffff" stroke="transparent" points="72,-315.2 72,-334.2 104,-334.2 104,-315.2 72,-315.2"/>
<polygon fill="none" stroke="#000000" points="72,-315.2 72,-334.2 104,-334.2 104,-315.2 72,-315.2"/>
<text text-anchor="start" x="85.4053" y="-321.3" font-family="Helvetica,sans-Serif" font-size="11.00" fill="#000000">1 &gt;</text>
</a>
</g>
</g>
<!-- adgroups&#45;&gt;campaigns -->
<g id="edge1" class="edge">
<title>adgroups:w&#45;&gt;campaigns:e</title>
<path fill="none" stroke="#000000" d="M138.8428,-343.2C127.4139,-343.2 120.1563,-343.2 104,-343.2"/>
<polygon fill="#000000" stroke="#000000" points="145.5,-343.2001 153.5,-346.8 149.5,-343.2 153.5,-343.2 153.5,-343.2 153.5,-343.2 149.5,-343.2 153.5,-339.6 145.5,-343.2001 145.5,-343.2001"/>
<ellipse fill="none" stroke="#000000" cx="142.3" cy="-343.2001" rx="3.2" ry="3.2"/>
</g>
<!-- adgroups_locations -->
<g id="node3" class="node">
<title>adgroups_locations</title>
<g id="a_node3"><a xlink:href="../../tables/adgroups_locations.html" xlink:title="adgroups_locations" target="_top">
<polygon fill="#ffffff" stroke="transparent" points="388.5,-391.7 388.5,-452.7 526.5,-452.7 526.5,-391.7 388.5,-391.7"/>
<polygon fill="#f5f5f5" stroke="transparent" points="388.5,-429.2 388.5,-452.2 526.5,-452.2 526.5,-429.2 388.5,-429.2"/>
<polygon fill="none" stroke="#000000" points="388.5,-429.2 388.5,-452.2 526.5,-452.2 526.5,-429.2 388.5,-429.2"/>
<text text-anchor="start" x="393.3178" y="-438.3" font-family="Helvetica,sans-Serif" font-weight="bold" font-size="11.00" fill="#000000">adgroups_locations</text>
<text text-anchor="start" x="492.0219" y="-437.3" font-family="Helvetica,sans-Serif" font-size="11.00" fill="#000000">[table]</text>
<polygon fill="none" stroke="#000000" points="388.5,-410.2 388.5,-429.2 526.5,-429.2 526.5,-410.2 388.5,-410.2"/>
<text text-anchor="start" x="391.5" y="-416.3" font-family="Helvetica,sans-Serif" font-size="11.00" fill="#000000">...</text>
<polygon fill="#ffffff" stroke="transparent" points="388.5,-391.2 388.5,-410.2 455.5,-410.2 455.5,-391.2 388.5,-391.2"/>
<polygon fill="none" stroke="#000000" points="388.5,-391.2 388.5,-410.2 455.5,-410.2 455.5,-391.2 388.5,-391.2"/>
<text text-anchor="start" x="391.5" y="-397.3" font-family="Helvetica,sans-Serif" font-size="11.00" fill="#000000">&lt; 2</text>
<polygon fill="#ffffff" stroke="transparent" points="455.5,-391.2 455.5,-410.2 490.5,-410.2 490.5,-391.2 455.5,-391.2"/>
<polygon fill="none" stroke="#000000" points="455.5,-391.2 455.5,-410.2 490.5,-410.2 490.5,-391.2 455.5,-391.2"/>
<text text-anchor="start" x="481.3862" y="-397.3" font-family="Helvetica,sans-Serif" font-size="11.00" fill="#000000"> &#160;</text>
<polygon fill="#ffffff" stroke="transparent" points="490.5,-391.2 490.5,-410.2 526.5,-410.2 526.5,-391.2 490.5,-391.2"/>
<polygon fill="none" stroke="#000000" points="490.5,-391.2 490.5,-410.2 526.5,-410.2 526.5,-391.2 490.5,-391.2"/>
<text text-anchor="start" x="517.3862" y="-397.3" font-family="Helvetica,sans-Serif" font-size="11.00" fill="#000000"> &#160;</text>
</a>
</g>
</g>
<!-- adgroups_locations&#45;&gt;adgroups -->
<g id="edge2" class="edge">
<title>adgroups_locations:w&#45;&gt;adgroups:e</title>
<path fill="none" stroke="#000000" d="M374.1743,-416.142C350.689,-404.7186 352.1135,-365.2 318.5,-365.2"/>
<polygon fill="#000000" stroke="#000000" points="380.6763,-417.5299 387.7484,-422.7207 384.5881,-418.3649 388.5,-419.2 388.5,-419.2 388.5,-419.2 384.5881,-418.3649 389.2516,-415.6793 380.6763,-417.5299 380.6763,-417.5299"/>
<ellipse fill="none" stroke="#000000" cx="377.5468" cy="-416.8618" rx="3.2" ry="3.2"/>
</g>
<!-- ads -->
<g id="node4" class="node">
<title>ads</title>
<g id="a_node4"><a xlink:href="../../tables/ads.html" xlink:title="ads" target="_top">
<polygon fill="#ffffff" stroke="transparent" points="367,-38.2 367,-370.2 548,-370.2 548,-38.2 367,-38.2"/>
<polygon fill="#f5f5f5" stroke="transparent" points="369.5,-345.2 369.5,-368.2 546.5,-368.2 546.5,-345.2 369.5,-345.2"/>
<polygon fill="none" stroke="#000000" points="369.5,-345.2 369.5,-368.2 546.5,-368.2 546.5,-345.2 369.5,-345.2"/>
<text text-anchor="start" x="374.5" y="-354.3" font-family="Helvetica,sans-Serif" font-weight="bold" font-size="11.00" fill="#000000">ads</text>
<text text-anchor="start" x="511.5437" y="-353.3" font-family="Helvetica,sans-Serif" font-size="11.00" fill="#000000">[table]</text>
<polygon fill="none" stroke="#000000" points="369.5,-323.2 369.5,-345.2 479.5,-345.2 479.5,-323.2 369.5,-323.2"/>
<image xlink:href="../../images/primaryKeys.png" width="11px" height="12px" preserveAspectRatio="xMinYMin meet" x="374.5" y="-340.2"/>
<text text-anchor="start" x="389.5" y="-330.3" font-family="Helvetica,sans-Serif" font-size="11.00" fill="#000000">id</text>
<polygon fill="none" stroke="#000000" points="479.5,-323.2 479.5,-345.2 546.5,-345.2 546.5,-323.2 479.5,-323.2"/>
<text text-anchor="start" x="482.5" y="-330.9" font-family="Helvetica,sans-Serif" font-size="11.00" fill="#000000">int[10]</text>
<polygon fill="#ffffff" stroke="transparent" points="369.5,-301.2 369.5,-323.2 479.5,-323.2 479.5,-301.2 369.5,-301.2"/>
<polygon fill="none" stroke="#000000" points="369.5,-301.2 369.5,-323.2 479.5,-323.2 479.5,-301.2 369.5,-301.2"/>
<image xlink:href="../../images/foreignKeys.png" width="11px" height="12px" preserveAspectRatio="xMinYMin meet" x="374.5" y="-318.2"/>
<text text-anchor="start" x="389.5" y="-308.3" font-family="Helvetica,sans-Serif" font-size="11.00" fill="#000000">adgroup_id</text>
<polygon fill="none" stroke="#000000" points="479.5,-301.2 479.5,-323.2 546.5,-323.2 546.5,-301.2 479.5,-301.2"/>
<text text-anchor="start" x="482.5" y="-308.9" font-family="Helvetica,sans-Serif" font-size="11.00" fill="#000000">int[10]</text>
<polygon fill="none" stroke="#000000" points="369.5,-279.2 369.5,-301.2 479.5,-301.2 479.5,-279.2 369.5,-279.2"/>
<text text-anchor="start" x="389.5" y="-286.3" font-family="Helvetica,sans-Serif" font-size="11.00" fill="#000000">name</text>
<polygon fill="none" stroke="#000000" points="479.5,-279.2 479.5,-301.2 546.5,-301.2 546.5,-279.2 479.5,-279.2"/>
<text text-anchor="start" x="482.4365" y="-286.9" font-family="Helvetica,sans-Serif" font-size="11.00" fill="#000000">varchar[255]</text>
<polygon fill="none" stroke="#000000" points="369.5,-257.2 369.5,-279.2 479.5,-279.2 479.5,-257.2 369.5,-257.2"/>
<text text-anchor="start" x="389.5" y="-264.3" font-family="Helvetica,sans-Serif" font-size="11.00" fill="#000000">status</text>
<polygon fill="none" stroke="#000000" points="479.5,-257.2 479.5,-279.2 546.5,-279.2 546.5,-257.2 479.5,-257.2"/>
<text text-anchor="start" x="482.5" y="-264.9" font-family="Helvetica,sans-Serif" font-size="11.00" fill="#000000">bit[1]</text>
<polygon fill="none" stroke="#000000" points="369.5,-235.2 369.5,-257.2 479.5,-257.2 479.5,-235.2 369.5,-235.2"/>
<text text-anchor="start" x="389.5" y="-242.3" font-family="Helvetica,sans-Serif" font-size="11.00" fill="#000000">start_at</text>
<polygon fill="none" stroke="#000000" points="479.5,-235.2 479.5,-257.2 546.5,-257.2 546.5,-235.2 479.5,-235.2"/>
<text text-anchor="start" x="482.5" y="-242.9" font-family="Helvetica,sans-Serif" font-size="11.00" fill="#000000">datetime[19]</text>
<polygon fill="none" stroke="#000000" points="369.5,-213.2 369.5,-235.2 479.5,-235.2 479.5,-213.2 369.5,-213.2"/>
<text text-anchor="start" x="389.5" y="-220.3" font-family="Helvetica,sans-Serif" font-size="11.00" fill="#000000">end_at</text>
<polygon fill="none" stroke="#000000" points="479.5,-213.2 479.5,-235.2 546.5,-235.2 546.5,-213.2 479.5,-213.2"/>
<text text-anchor="start" x="482.5" y="-220.9" font-family="Helvetica,sans-Serif" font-size="11.00" fill="#000000">datetime[19]</text>
<polygon fill="none" stroke="#000000" points="369.5,-191.2 369.5,-213.2 479.5,-213.2 479.5,-191.2 369.5,-191.2"/>
<text text-anchor="start" x="389.5" y="-198.3" font-family="Helvetica,sans-Serif" font-size="11.00" fill="#000000">movie_sec</text>
<polygon fill="none" stroke="#000000" points="479.5,-191.2 479.5,-213.2 546.5,-213.2 546.5,-191.2 479.5,-191.2"/>
<text text-anchor="start" x="482.5" y="-198.9" font-family="Helvetica,sans-Serif" font-size="11.00" fill="#000000">int[10]</text>
<polygon fill="none" stroke="#000000" points="369.5,-169.2 369.5,-191.2 479.5,-191.2 479.5,-169.2 369.5,-169.2"/>
<text text-anchor="start" x="389.5" y="-176.3" font-family="Helvetica,sans-Serif" font-size="11.00" fill="#000000">content_path</text>
<polygon fill="none" stroke="#000000" points="479.5,-169.2 479.5,-191.2 546.5,-191.2 546.5,-169.2 479.5,-169.2"/>
<text text-anchor="start" x="482.4365" y="-176.9" font-family="Helvetica,sans-Serif" font-size="11.00" fill="#000000">varchar[255]</text>
<polygon fill="none" stroke="#000000" points="369.5,-147.2 369.5,-169.2 479.5,-169.2 479.5,-147.2 369.5,-147.2"/>
<text text-anchor="start" x="389.5" y="-154.3" font-family="Helvetica,sans-Serif" font-size="11.00" fill="#000000">width</text>
<polygon fill="none" stroke="#000000" points="479.5,-147.2 479.5,-169.2 546.5,-169.2 546.5,-147.2 479.5,-147.2"/>
<text text-anchor="start" x="482.5" y="-154.9" font-family="Helvetica,sans-Serif" font-size="11.00" fill="#000000">int[10]</text>
<polygon fill="none" stroke="#000000" points="369.5,-125.2 369.5,-147.2 479.5,-147.2 479.5,-125.2 369.5,-125.2"/>
<text text-anchor="start" x="389.5" y="-132.3" font-family="Helvetica,sans-Serif" font-size="11.00" fill="#000000">height</text>
<polygon fill="none" stroke="#000000" points="479.5,-125.2 479.5,-147.2 546.5,-147.2 546.5,-125.2 479.5,-125.2"/>
<text text-anchor="start" x="482.5" y="-132.9" font-family="Helvetica,sans-Serif" font-size="11.00" fill="#000000">int[10]</text>
<polygon fill="none" stroke="#000000" points="369.5,-103.2 369.5,-125.2 479.5,-125.2 479.5,-103.2 369.5,-103.2"/>
<text text-anchor="start" x="389.5" y="-110.3" font-family="Helvetica,sans-Serif" font-size="11.00" fill="#000000">created_at</text>
<polygon fill="none" stroke="#000000" points="479.5,-103.2 479.5,-125.2 546.5,-125.2 546.5,-103.2 479.5,-103.2"/>
<text text-anchor="start" x="482.5" y="-110.9" font-family="Helvetica,sans-Serif" font-size="11.00" fill="#000000">datetime[19]</text>
<polygon fill="none" stroke="#000000" points="369.5,-81.2 369.5,-103.2 479.5,-103.2 479.5,-81.2 369.5,-81.2"/>
<text text-anchor="start" x="389.5" y="-88.3" font-family="Helvetica,sans-Serif" font-size="11.00" fill="#000000">updated_at</text>
<polygon fill="none" stroke="#000000" points="479.5,-81.2 479.5,-103.2 546.5,-103.2 546.5,-81.2 479.5,-81.2"/>
<text text-anchor="start" x="482.5" y="-88.9" font-family="Helvetica,sans-Serif" font-size="11.00" fill="#000000">datetime[19]</text>
<polygon fill="none" stroke="#000000" points="369.5,-59.2 369.5,-81.2 479.5,-81.2 479.5,-59.2 369.5,-59.2"/>
<text text-anchor="start" x="389.5" y="-66.3" font-family="Helvetica,sans-Serif" font-size="11.00" fill="#000000">deleted_at</text>
<polygon fill="none" stroke="#000000" points="479.5,-59.2 479.5,-81.2 546.5,-81.2 546.5,-59.2 479.5,-59.2"/>
<text text-anchor="start" x="482.5" y="-66.9" font-family="Helvetica,sans-Serif" font-size="11.00" fill="#000000">datetime[19]</text>
<polygon fill="#ffffff" stroke="transparent" points="369.5,-40.2 369.5,-59.2 428.5,-59.2 428.5,-40.2 369.5,-40.2"/>
<polygon fill="none" stroke="#000000" points="369.5,-40.2 369.5,-59.2 428.5,-59.2 428.5,-40.2 369.5,-40.2"/>
<text text-anchor="start" x="372.5" y="-46.3" font-family="Helvetica,sans-Serif" font-size="11.00" fill="#000000">&lt; 1</text>
<polygon fill="#ffffff" stroke="transparent" points="428.5,-40.2 428.5,-59.2 479.5,-59.2 479.5,-40.2 428.5,-40.2"/>
<polygon fill="none" stroke="#000000" points="428.5,-40.2 428.5,-59.2 479.5,-59.2 479.5,-40.2 428.5,-40.2"/>
<text text-anchor="start" x="470.3862" y="-46.3" font-family="Helvetica,sans-Serif" font-size="11.00" fill="#000000"> &#160;</text>
<polygon fill="#ffffff" stroke="transparent" points="479.5,-40.2 479.5,-59.2 546.5,-59.2 546.5,-40.2 479.5,-40.2"/>
<polygon fill="none" stroke="#000000" points="479.5,-40.2 479.5,-59.2 546.5,-59.2 546.5,-40.2 479.5,-40.2"/>
<text text-anchor="start" x="527.9053" y="-46.3" font-family="Helvetica,sans-Serif" font-size="11.00" fill="#000000">0 &gt;</text>
<polygon fill="none" stroke="#000000" stroke-width="2" points="368,-39.2 368,-369.2 547,-369.2 547,-39.2 368,-39.2"/>
</a>
</g>
</g>
<!-- ads&#45;&gt;adgroups -->
<g id="edge3" class="edge">
<title>ads:w&#45;&gt;adgroups:e</title>
<path fill="none" stroke="#000000" d="M355.4557,-317.0911C340.5477,-330.2117 345.0607,-365.2 318.5,-365.2"/>
<polygon fill="#000000" stroke="#000000" points="361.945,-314.8311 370.684,-315.5997 365.7225,-313.5156 369.5,-312.2 369.5,-312.2 369.5,-312.2 365.7225,-313.5156 368.316,-308.8003 361.945,-314.8311 361.945,-314.8311"/>
<ellipse fill="none" stroke="#000000" cx="358.9231" cy="-315.8836" rx="3.2" ry="3.2"/>
</g>
</g>
</svg>
