<?xml version="1.0" encoding="UTF-8" standalone="no"?>
<!DOCTYPE svg PUBLIC "-//W3C//DTD SVG 1.1//EN"
 "http://www.w3.org/Graphics/SVG/1.1/DTD/svg11.dtd">
<!-- Generated by graphviz version 2.40.1 (20161225.0304)
 -->
<!-- Title: oneDegreeRelationshipsDiagram Pages: 1 -->
<svg width="419pt" height="382pt"
 viewBox="0.00 0.00 419.00 382.20" xmlns="http://www.w3.org/2000/svg" xmlns:xlink="http://www.w3.org/1999/xlink">
<g id="graph0" class="graph" transform="scale(1 1) rotate(0) translate(4 378.2)">
<title>oneDegreeRelationshipsDiagram</title>
<polygon fill="#ffffff" stroke="transparent" points="-4,4 -4,-378.2 415,-378.2 415,4 -4,4"/>
<text text-anchor="middle" x="72.4936" y="-7.3" font-family="Helvetica,sans-Serif" font-size="11.00" fill="#000000">Generated by SchemaSpy</text>
<!-- ads -->
<g id="node1" class="node">
<title>ads</title>
<g id="a_node1"><a xlink:href="../../tables/ads.html" xlink:title="ads" target="_top">
<polygon fill="#ffffff" stroke="transparent" points="222,-38.2 222,-370.2 403,-370.2 403,-38.2 222,-38.2"/>
<polygon fill="#f5f5f5" stroke="transparent" points="224.5,-345.2 224.5,-368.2 401.5,-368.2 401.5,-345.2 224.5,-345.2"/>
<polygon fill="none" stroke="#000000" points="224.5,-345.2 224.5,-368.2 401.5,-368.2 401.5,-345.2 224.5,-345.2"/>
<text text-anchor="start" x="229.5" y="-354.3" font-family="Helvetica,sans-Serif" font-weight="bold" font-size="11.00" fill="#000000">ads</text>
<text text-anchor="start" x="366.5437" y="-353.3" font-family="Helvetica,sans-Serif" font-size="11.00" fill="#000000">[table]</text>
<polygon fill="none" stroke="#000000" points="224.5,-323.2 224.5,-345.2 334.5,-345.2 334.5,-323.2 224.5,-323.2"/>
<image xlink:href="../../images/primaryKeys.png" width="11px" height="12px" preserveAspectRatio="xMinYMin meet" x="229.5" y="-340.2"/>
<text text-anchor="start" x="244.5" y="-330.3" font-family="Helvetica,sans-Serif" font-size="11.00" fill="#000000">id</text>
<polygon fill="none" stroke="#000000" points="334.5,-323.2 334.5,-345.2 401.5,-345.2 401.5,-323.2 334.5,-323.2"/>
<text text-anchor="start" x="337.5" y="-330.9" font-family="Helvetica,sans-Serif" font-size="11.00" fill="#000000">int[10]</text>
<polygon fill="#ffffff" stroke="transparent" points="224.5,-301.2 224.5,-323.2 334.5,-323.2 334.5,-301.2 224.5,-301.2"/>
<polygon fill="none" stroke="#000000" points="224.5,-301.2 224.5,-323.2 334.5,-323.2 334.5,-301.2 224.5,-301.2"/>
<image xlink:href="../../images/foreignKeys.png" width="11px" height="12px" preserveAspectRatio="xMinYMin meet" x="229.5" y="-318.2"/>
<text text-anchor="start" x="244.5" y="-308.3" font-family="Helvetica,sans-Serif" font-size="11.00" fill="#000000">adgroup_id</text>
<polygon fill="none" stroke="#000000" points="334.5,-301.2 334.5,-323.2 401.5,-323.2 401.5,-301.2 334.5,-301.2"/>
<text text-anchor="start" x="337.5" y="-308.9" font-family="Helvetica,sans-Serif" font-size="11.00" fill="#000000">int[10]</text>
<polygon fill="none" stroke="#000000" points="224.5,-279.2 224.5,-301.2 334.5,-301.2 334.5,-279.2 224.5,-279.2"/>
<text text-anchor="start" x="244.5" y="-286.3" font-family="Helvetica,sans-Serif" font-size="11.00" fill="#000000">name</text>
<polygon fill="none" stroke="#000000" points="334.5,-279.2 334.5,-301.2 401.5,-301.2 401.5,-279.2 334.5,-279.2"/>
<text text-anchor="start" x="337.4365" y="-286.9" font-family="Helvetica,sans-Serif" font-size="11.00" fill="#000000">varchar[255]</text>
<polygon fill="none" stroke="#000000" points="224.5,-257.2 224.5,-279.2 334.5,-279.2 334.5,-257.2 224.5,-257.2"/>
<text text-anchor="start" x="244.5" y="-264.3" font-family="Helvetica,sans-Serif" font-size="11.00" fill="#000000">status</text>
<polygon fill="none" stroke="#000000" points="334.5,-257.2 334.5,-279.2 401.5,-279.2 401.5,-257.2 334.5,-257.2"/>
<text text-anchor="start" x="337.5" y="-264.9" font-family="Helvetica,sans-Serif" font-size="11.00" fill="#000000">bit[1]</text>
<polygon fill="none" stroke="#000000" points="224.5,-235.2 224.5,-257.2 334.5,-257.2 334.5,-235.2 224.5,-235.2"/>
<text text-anchor="start" x="244.5" y="-242.3" font-family="Helvetica,sans-Serif" font-size="11.00" fill="#000000">start_at</text>
<polygon fill="none" stroke="#000000" points="334.5,-235.2 334.5,-257.2 401.5,-257.2 401.5,-235.2 334.5,-235.2"/>
<text text-anchor="start" x="337.5" y="-242.9" font-family="Helvetica,sans-Serif" font-size="11.00" fill="#000000">datetime[19]</text>
<polygon fill="none" stroke="#000000" points="224.5,-213.2 224.5,-235.2 334.5,-235.2 334.5,-213.2 224.5,-213.2"/>
<text text-anchor="start" x="244.5" y="-220.3" font-family="Helvetica,sans-Serif" font-size="11.00" fill="#000000">end_at</text>
<polygon fill="none" stroke="#000000" points="334.5,-213.2 334.5,-235.2 401.5,-235.2 401.5,-213.2 334.5,-213.2"/>
<text text-anchor="start" x="337.5" y="-220.9" font-family="Helvetica,sans-Serif" font-size="11.00" fill="#000000">datetime[19]</text>
<polygon fill="none" stroke="#000000" points="224.5,-191.2 224.5,-213.2 334.5,-213.2 334.5,-191.2 224.5,-191.2"/>
<text text-anchor="start" x="244.5" y="-198.3" font-family="Helvetica,sans-Serif" font-size="11.00" fill="#000000">movie_sec</text>
<polygon fill="none" stroke="#000000" points="334.5,-191.2 334.5,-213.2 401.5,-213.2 401.5,-191.2 334.5,-191.2"/>
<text text-anchor="start" x="337.5" y="-198.9" font-family="Helvetica,sans-Serif" font-size="11.00" fill="#000000">int[10]</text>
<polygon fill="none" stroke="#000000" points="224.5,-169.2 224.5,-191.2 334.5,-191.2 334.5,-169.2 224.5,-169.2"/>
<text text-anchor="start" x="244.5" y="-176.3" font-family="Helvetica,sans-Serif" font-size="11.00" fill="#000000">content_path</text>
<polygon fill="none" stroke="#000000" points="334.5,-169.2 334.5,-191.2 401.5,-191.2 401.5,-169.2 334.5,-169.2"/>
<text text-anchor="start" x="337.4365" y="-176.9" font-family="Helvetica,sans-Serif" font-size="11.00" fill="#000000">varchar[255]</text>
<polygon fill="none" stroke="#000000" points="224.5,-147.2 224.5,-169.2 334.5,-169.2 334.5,-147.2 224.5,-147.2"/>
<text text-anchor="start" x="244.5" y="-154.3" font-family="Helvetica,sans-Serif" font-size="11.00" fill="#000000">width</text>
<polygon fill="none" stroke="#000000" points="334.5,-147.2 334.5,-169.2 401.5,-169.2 401.5,-147.2 334.5,-147.2"/>
<text text-anchor="start" x="337.5" y="-154.9" font-family="Helvetica,sans-Serif" font-size="11.00" fill="#000000">int[10]</text>
<polygon fill="none" stroke="#000000" points="224.5,-125.2 224.5,-147.2 334.5,-147.2 334.5,-125.2 224.5,-125.2"/>
<text text-anchor="start" x="244.5" y="-132.3" font-family="Helvetica,sans-Serif" font-size="11.00" fill="#000000">height</text>
<polygon fill="none" stroke="#000000" points="334.5,-125.2 334.5,-147.2 401.5,-147.2 401.5,-125.2 334.5,-125.2"/>
<text text-anchor="start" x="337.5" y="-132.9" font-family="Helvetica,sans-Serif" font-size="11.00" fill="#000000">int[10]</text>
<polygon fill="none" stroke="#000000" points="224.5,-103.2 224.5,-125.2 334.5,-125.2 334.5,-103.2 224.5,-103.2"/>
<text text-anchor="start" x="244.5" y="-110.3" font-family="Helvetica,sans-Serif" font-size="11.00" fill="#000000">created_at</text>
<polygon fill="none" stroke="#000000" points="334.5,-103.2 334.5,-125.2 401.5,-125.2 401.5,-103.2 334.5,-103.2"/>
<text text-anchor="start" x="337.5" y="-110.9" font-family="Helvetica,sans-Serif" font-size="11.00" fill="#000000">datetime[19]</text>
<polygon fill="none" stroke="#000000" points="224.5,-81.2 224.5,-103.2 334.5,-103.2 334.5,-81.2 224.5,-81.2"/>
<text text-anchor="start" x="244.5" y="-88.3" font-family="Helvetica,sans-Serif" font-size="11.00" fill="#000000">updated_at</text>
<polygon fill="none" stroke="#000000" points="334.5,-81.2 334.5,-103.2 401.5,-103.2 401.5,-81.2 334.5,-81.2"/>
<text text-anchor="start" x="337.5" y="-88.9" font-family="Helvetica,sans-Serif" font-size="11.00" fill="#000000">datetime[19]</text>
<polygon fill="none" stroke="#000000" points="224.5,-59.2 224.5,-81.2 334.5,-81.2 334.5,-59.2 224.5,-59.2"/>
<text text-anchor="start" x="244.5" y="-66.3" font-family="Helvetica,sans-Serif" font-size="11.00" fill="#000000">deleted_at</text>
<polygon fill="none" stroke="#000000" points="334.5,-59.2 334.5,-81.2 401.5,-81.2 401.5,-59.2 334.5,-59.2"/>
<text text-anchor="start" x="337.5" y="-66.9" font-family="Helvetica,sans-Serif" font-size="11.00" fill="#000000">datetime[19]</text>
<polygon fill="#ffffff" stroke="transparent" points="224.5,-40.2 224.5,-59.2 283.5,-59.2 283.5,-40.2 224.5,-40.2"/>
<polygon fill="none" stroke="#000000" points="224.5,-40.2 224.5,-59.2 283.5,-59.2 283.5,-40.2 224.5,-40.2"/>
<text text-anchor="start" x="227.5" y="-46.3" font-family="Helvetica,sans-Serif" font-size="11.00" fill="#000000">&lt; 1</text>
<polygon fill="#ffffff" stroke="transparent" points="283.5,-40.2 283.5,-59.2 334.5,-59.2 334.5,-40.2 283.5,-40.2"/>
<polygon fill="none" stroke="#000000" points="283.5,-40.2 283.5,-59.2 334.5,-59.2 334.5,-40.2 283.5,-40.2"/>
<text text-anchor="start" x="325.3862" y="-46.3" font-family="Helvetica,sans-Serif" font-size="11.00" fill="#000000"> &#160;</text>
<polygon fill="#ffffff" stroke="transparent" points="334.5,-40.2 334.5,-59.2 401.5,-59.2 401.5,-40.2 334.5,-40.2"/>
<polygon fill="none" stroke="#000000" points="334.5,-40.2 334.5,-59.2 401.5,-59.2 401.5,-40.2 334.5,-40.2"/>
<text text-anchor="start" x="382.9053" y="-46.3" font-family="Helvetica,sans-Serif" font-size="11.00" fill="#000000">0 &gt;</text>
<polygon fill="none" stroke="#000000" stroke-width="2" points="223,-39.2 223,-369.2 402,-369.2 402,-39.2 223,-39.2"/>
</a>
</g>
</g>
<!-- adgroups -->
<g id="node2" class="node">
<title>adgroups</title>
<g id="a_node2"><a xlink:href="../../tables/adgroups.html" xlink:title="adgroups" target="_top">
<polygon fill="#ffffff" stroke="transparent" points="8,-241.7 8,-346.7 173,-346.7 173,-241.7 8,-241.7"/>
<polygon fill="#f5f5f5" stroke="transparent" points="8.5,-323.2 8.5,-346.2 173.5,-346.2 173.5,-323.2 8.5,-323.2"/>
<polygon fill="none" stroke="#000000" points="8.5,-323.2 8.5,-346.2 173.5,-346.2 173.5,-323.2 8.5,-323.2"/>
<text text-anchor="start" x="13.5" y="-332.3" font-family="Helvetica,sans-Serif" font-weight="bold" font-size="11.00" fill="#000000">adgroups</text>
<text text-anchor="start" x="138.5437" y="-331.3" font-family="Helvetica,sans-Serif" font-size="11.00" fill="#000000">[table]</text>
<polygon fill="none" stroke="#000000" points="8.5,-301.2 8.5,-323.2 173.5,-323.2 173.5,-301.2 8.5,-301.2"/>
<image xlink:href="../../images/primaryKeys.png" width="11px" height="12px" preserveAspectRatio="xMinYMin meet" x="13.5" y="-318.2"/>
<text text-anchor="start" x="28.5" y="-308.3" font-family="Helvetica,sans-Serif" font-size="11.00" fill="#000000">id</text>
<polygon fill="#ffffff" stroke="transparent" points="8.5,-279.2 8.5,-301.2 173.5,-301.2 173.5,-279.2 8.5,-279.2"/>
<polygon fill="none" stroke="#000000" points="8.5,-279.2 8.5,-301.2 173.5,-301.2 173.5,-279.2 8.5,-279.2"/>
<image xlink:href="../../images/foreignKeys.png" width="11px" height="12px" preserveAspectRatio="xMinYMin meet" x="13.5" y="-296.2"/>
<text text-anchor="start" x="28.5" y="-286.3" font-family="Helvetica,sans-Serif" font-size="11.00" fill="#000000">campaign_id</text>
<polygon fill="none" stroke="#000000" points="8.5,-260.2 8.5,-279.2 173.5,-279.2 173.5,-260.2 8.5,-260.2"/>
<text text-anchor="start" x="11.5" y="-266.3" font-family="Helvetica,sans-Serif" font-size="11.00" fill="#000000">...</text>
<polygon fill="#ffffff" stroke="transparent" points="8.5,-241.2 8.5,-260.2 84.5,-260.2 84.5,-241.2 8.5,-241.2"/>
<polygon fill="none" stroke="#000000" points="8.5,-241.2 8.5,-260.2 84.5,-260.2 84.5,-241.2 8.5,-241.2"/>
<text text-anchor="start" x="11.5" y="-247.3" font-family="Helvetica,sans-Serif" font-size="11.00" fill="#000000">&lt; 1</text>
<polygon fill="#ffffff" stroke="transparent" points="84.5,-241.2 84.5,-260.2 124.5,-260.2 124.5,-241.2 84.5,-241.2"/>
<polygon fill="none" stroke="#000000" points="84.5,-241.2 84.5,-260.2 124.5,-260.2 124.5,-241.2 84.5,-241.2"/>
<text text-anchor="start" x="115.3862" y="-247.3" font-family="Helvetica,sans-Serif" font-size="11.00" fill="#000000"> &#160;</text>
<polygon fill="#ffffff" stroke="transparent" points="124.5,-241.2 124.5,-260.2 173.5,-260.2 173.5,-241.2 124.5,-241.2"/>
<polygon fill="none" stroke="#000000" points="124.5,-241.2 124.5,-260.2 173.5,-260.2 173.5,-241.2 124.5,-241.2"/>
<text text-anchor="start" x="154.9053" y="-247.3" font-family="Helvetica,sans-Serif" font-size="11.00" fill="#000000">2 &gt;</text>
</a>
</g>
</g>
<!-- ads&#45;&gt;adgroups -->
<g id="edge1" class="edge">
<title>ads:w&#45;&gt;adgroups:e</title>
<path fill="none" stroke="#000000" d="M209.776,-312.2C197.7815,-312.2 190.3229,-312.2 173.5,-312.2"/>
<polygon fill="#000000" stroke="#000000" points="216.5,-312.2001 224.5,-315.8 220.5,-312.2 224.5,-312.2 224.5,-312.2 224.5,-312.2 220.5,-312.2 224.5,-308.6 216.5,-312.2001 216.5,-312.2001"/>
<ellipse fill="none" stroke="#000000" cx="213.3" cy="-312.2001" rx="3.2" ry="3.2"/>
</g>
</g>
</svg>
