<?xml version="1.0" encoding="UTF-8" standalone="no"?>
<!DOCTYPE svg PUBLIC "-//W3C//DTD SVG 1.1//EN"
 "http://www.w3.org/Graphics/SVG/1.1/DTD/svg11.dtd">
<!-- Generated by graphviz version 2.40.1 (20161225.0304)
 -->
<!-- Title: twoDegreesRelationshipsDiagram Pages: 1 -->
<svg width="607pt" height="334pt"
 viewBox="0.00 0.00 607.00 333.70" xmlns="http://www.w3.org/2000/svg" xmlns:xlink="http://www.w3.org/1999/xlink">
<g id="graph0" class="graph" transform="scale(1 1) rotate(0) translate(4 329.7)">
<title>twoDegreesRelationshipsDiagram</title>
<polygon fill="#ffffff" stroke="transparent" points="-4,4 -4,-329.7 603,-329.7 603,4 -4,4"/>
<text text-anchor="middle" x="72.4936" y="-7.3" font-family="Helvetica,sans-Serif" font-size="11.00" fill="#000000">Generated by SchemaSpy</text>
<!-- adgroups -->
<g id="node1" class="node">
<title>adgroups</title>
<g id="a_node1"><a xlink:href="../../tables/adgroups.html" xlink:title="adgroups" target="_top">
<polygon fill="#ffffff" stroke="transparent" points="503,-259.7 503,-320.7 591,-320.7 591,-259.7 503,-259.7"/>
<polygon fill="#f5f5f5" stroke="transparent" points="503,-297.2 503,-320.2 591,-320.2 591,-297.2 503,-297.2"/>
<polygon fill="none" stroke="#000000" points="503,-297.2 503,-320.2 591,-320.2 591,-297.2 503,-297.2"/>
<text text-anchor="start" x="507.5744" y="-306.3" font-family="Helvetica,sans-Serif" font-weight="bold" font-size="11.00" fill="#000000">adgroups</text>
<text text-anchor="start" x="556.5219" y="-305.3" font-family="Helvetica,sans-Serif" font-size="11.00" fill="#000000">[table]</text>
<polygon fill="none" stroke="#000000" points="503,-278.2 503,-297.2 591,-297.2 591,-278.2 503,-278.2"/>
<text text-anchor="start" x="506" y="-284.3" font-family="Helvetica,sans-Serif" font-size="11.00" fill="#000000">...</text>
<polygon fill="#ffffff" stroke="transparent" points="503,-259.2 503,-278.2 541,-278.2 541,-259.2 503,-259.2"/>
<polygon fill="none" stroke="#000000" points="503,-259.2 503,-278.2 541,-278.2 541,-259.2 503,-259.2"/>
<text text-anchor="start" x="506" y="-265.3" font-family="Helvetica,sans-Serif" font-size="11.00" fill="#000000">&lt; 1</text>
<polygon fill="#ffffff" stroke="transparent" points="541,-259.2 541,-278.2 561,-278.2 561,-259.2 541,-259.2"/>
<polygon fill="none" stroke="#000000" points="541,-259.2 541,-278.2 561,-278.2 561,-259.2 541,-259.2"/>
<text text-anchor="start" x="551.8862" y="-265.3" font-family="Helvetica,sans-Serif" font-size="11.00" fill="#000000"> &#160;</text>
<polygon fill="#ffffff" stroke="transparent" points="561,-259.2 561,-278.2 591,-278.2 591,-259.2 561,-259.2"/>
<polygon fill="none" stroke="#000000" points="561,-259.2 561,-278.2 591,-278.2 591,-259.2 561,-259.2"/>
<text text-anchor="start" x="572.4053" y="-265.3" font-family="Helvetica,sans-Serif" font-size="11.00" fill="#000000">2 &gt;</text>
</a>
</g>
</g>
<!-- campaigns -->
<g id="node2" class="node">
<title>campaigns</title>
<g id="a_node2"><a xlink:href="../../tables/campaigns.html" xlink:title="campaigns" target="_top">
<polygon fill="#ffffff" stroke="transparent" points="225,-216.7 225,-321.7 454,-321.7 454,-216.7 225,-216.7"/>
<polygon fill="#f5f5f5" stroke="transparent" points="225.5,-298.2 225.5,-321.2 454.5,-321.2 454.5,-298.2 225.5,-298.2"/>
<polygon fill="none" stroke="#000000" points="225.5,-298.2 225.5,-321.2 454.5,-321.2 454.5,-298.2 225.5,-298.2"/>
<text text-anchor="start" x="230.5" y="-307.3" font-family="Helvetica,sans-Serif" font-weight="bold" font-size="11.00" fill="#000000">campaigns</text>
<text text-anchor="start" x="419.5437" y="-306.3" font-family="Helvetica,sans-Serif" font-size="11.00" fill="#000000">[table]</text>
<polygon fill="none" stroke="#000000" points="225.5,-276.2 225.5,-298.2 454.5,-298.2 454.5,-276.2 225.5,-276.2"/>
<image xlink:href="../../images/primaryKeys.png" width="11px" height="12px" preserveAspectRatio="xMinYMin meet" x="230.5" y="-293.2"/>
<text text-anchor="start" x="245.5" y="-283.3" font-family="Helvetica,sans-Serif" font-size="11.00" fill="#000000">id</text>
<polygon fill="#ffffff" stroke="transparent" points="225.5,-254.2 225.5,-276.2 454.5,-276.2 454.5,-254.2 225.5,-254.2"/>
<polygon fill="none" stroke="#000000" points="225.5,-254.2 225.5,-276.2 454.5,-276.2 454.5,-254.2 225.5,-254.2"/>
<image xlink:href="../../images/foreignKeys.png" width="11px" height="12px" preserveAspectRatio="xMinYMin meet" x="230.5" y="-271.2"/>
<text text-anchor="start" x="245.5" y="-261.3" font-family="Helvetica,sans-Serif" font-size="11.00" fill="#000000">advertiser_id</text>
<polygon fill="none" stroke="#000000" points="225.5,-235.2 225.5,-254.2 454.5,-254.2 454.5,-235.2 225.5,-235.2"/>
<text text-anchor="start" x="228.5" y="-241.3" font-family="Helvetica,sans-Serif" font-size="11.00" fill="#000000">...</text>
<polygon fill="#ffffff" stroke="transparent" points="225.5,-216.2 225.5,-235.2 333.5,-235.2 333.5,-216.2 225.5,-216.2"/>
<polygon fill="none" stroke="#000000" points="225.5,-216.2 225.5,-235.2 333.5,-235.2 333.5,-216.2 225.5,-216.2"/>
<text text-anchor="start" x="228.5" y="-222.3" font-family="Helvetica,sans-Serif" font-size="11.00" fill="#000000">&lt; 1</text>
<polygon fill="#ffffff" stroke="transparent" points="333.5,-216.2 333.5,-235.2 389.5,-235.2 389.5,-216.2 333.5,-216.2"/>
<polygon fill="none" stroke="#000000" points="333.5,-216.2 333.5,-235.2 389.5,-235.2 389.5,-216.2 333.5,-216.2"/>
<text text-anchor="start" x="380.3862" y="-222.3" font-family="Helvetica,sans-Serif" font-size="11.00" fill="#000000"> &#160;</text>
<polygon fill="#ffffff" stroke="transparent" points="389.5,-216.2 389.5,-235.2 454.5,-235.2 454.5,-216.2 389.5,-216.2"/>
<polygon fill="none" stroke="#000000" points="389.5,-216.2 389.5,-235.2 454.5,-235.2 454.5,-216.2 389.5,-216.2"/>
<text text-anchor="start" x="435.9053" y="-222.3" font-family="Helvetica,sans-Serif" font-size="11.00" fill="#000000">1 &gt;</text>
</a>
</g>
</g>
<!-- adgroups&#45;&gt;campaigns -->
<g id="edge1" class="edge">
<title>adgroups:w&#45;&gt;campaigns:e</title>
<path fill="none" stroke="#000000" d="M488.2829,-287.2C477.2886,-287.2 470.1615,-287.2 454.5,-287.2"/>
<polygon fill="#000000" stroke="#000000" points="495,-287.2001 503,-290.8 499,-287.2 503,-287.2 503,-287.2 503,-287.2 499,-287.2 503,-283.6 495,-287.2001 495,-287.2001"/>
<ellipse fill="none" stroke="#000000" cx="491.8" cy="-287.2001" rx="3.2" ry="3.2"/>
</g>
<!-- advertisers -->
<g id="node4" class="node">
<title>advertisers</title>
<g id="a_node4"><a xlink:href="../../tables/advertisers.html" xlink:title="advertisers" target="_top">
<polygon fill="#ffffff" stroke="transparent" points="8,-38.2 8,-238.2 176,-238.2 176,-38.2 8,-38.2"/>
<polygon fill="#f5f5f5" stroke="transparent" points="10,-213.2 10,-236.2 174,-236.2 174,-213.2 10,-213.2"/>
<polygon fill="none" stroke="#000000" points="10,-213.2 10,-236.2 174,-236.2 174,-213.2 10,-213.2"/>
<text text-anchor="start" x="15" y="-222.3" font-family="Helvetica,sans-Serif" font-weight="bold" font-size="11.00" fill="#000000">advertisers</text>
<text text-anchor="start" x="139.0437" y="-221.3" font-family="Helvetica,sans-Serif" font-size="11.00" fill="#000000">[table]</text>
<polygon fill="none" stroke="#000000" points="10,-191.2 10,-213.2 107,-213.2 107,-191.2 10,-191.2"/>
<image xlink:href="../../images/primaryKeys.png" width="11px" height="12px" preserveAspectRatio="xMinYMin meet" x="15" y="-208.2"/>
<text text-anchor="start" x="30" y="-198.3" font-family="Helvetica,sans-Serif" font-size="11.00" fill="#000000">id</text>
<polygon fill="none" stroke="#000000" points="107,-191.2 107,-213.2 174,-213.2 174,-191.2 107,-191.2"/>
<text text-anchor="start" x="110" y="-198.9" font-family="Helvetica,sans-Serif" font-size="11.00" fill="#000000">int[10]</text>
<polygon fill="none" stroke="#000000" points="10,-169.2 10,-191.2 107,-191.2 107,-169.2 10,-169.2"/>
<text text-anchor="start" x="30" y="-176.3" font-family="Helvetica,sans-Serif" font-size="11.00" fill="#000000">name</text>
<polygon fill="none" stroke="#000000" points="107,-169.2 107,-191.2 174,-191.2 174,-169.2 107,-169.2"/>
<text text-anchor="start" x="109.9365" y="-176.9" font-family="Helvetica,sans-Serif" font-size="11.00" fill="#000000">varchar[255]</text>
<polygon fill="none" stroke="#000000" points="10,-147.2 10,-169.2 107,-169.2 107,-147.2 10,-147.2"/>
<text text-anchor="start" x="30" y="-154.3" font-family="Helvetica,sans-Serif" font-size="11.00" fill="#000000">domain</text>
<polygon fill="none" stroke="#000000" points="107,-147.2 107,-169.2 174,-169.2 174,-147.2 107,-147.2"/>
<text text-anchor="start" x="109.9365" y="-154.9" font-family="Helvetica,sans-Serif" font-size="11.00" fill="#000000">varchar[255]</text>
<polygon fill="none" stroke="#000000" points="10,-125.2 10,-147.2 107,-147.2 107,-125.2 10,-125.2"/>
<text text-anchor="start" x="30" y="-132.3" font-family="Helvetica,sans-Serif" font-size="11.00" fill="#000000">is_test</text>
<polygon fill="none" stroke="#000000" points="107,-125.2 107,-147.2 174,-147.2 174,-125.2 107,-125.2"/>
<text text-anchor="start" x="110" y="-132.9" font-family="Helvetica,sans-Serif" font-size="11.00" fill="#000000">bit[1]</text>
<polygon fill="none" stroke="#000000" points="10,-103.2 10,-125.2 107,-125.2 107,-103.2 10,-103.2"/>
<text text-anchor="start" x="30" y="-110.3" font-family="Helvetica,sans-Serif" font-size="11.00" fill="#000000">created_at</text>
<polygon fill="none" stroke="#000000" points="107,-103.2 107,-125.2 174,-125.2 174,-103.2 107,-103.2"/>
<text text-anchor="start" x="110" y="-110.9" font-family="Helvetica,sans-Serif" font-size="11.00" fill="#000000">datetime[19]</text>
<polygon fill="none" stroke="#000000" points="10,-81.2 10,-103.2 107,-103.2 107,-81.2 10,-81.2"/>
<text text-anchor="start" x="30" y="-88.3" font-family="Helvetica,sans-Serif" font-size="11.00" fill="#000000">updated_at</text>
<polygon fill="none" stroke="#000000" points="107,-81.2 107,-103.2 174,-103.2 174,-81.2 107,-81.2"/>
<text text-anchor="start" x="110" y="-88.9" font-family="Helvetica,sans-Serif" font-size="11.00" fill="#000000">datetime[19]</text>
<polygon fill="none" stroke="#000000" points="10,-59.2 10,-81.2 107,-81.2 107,-59.2 10,-59.2"/>
<text text-anchor="start" x="30" y="-66.3" font-family="Helvetica,sans-Serif" font-size="11.00" fill="#000000">deleted_at</text>
<polygon fill="none" stroke="#000000" points="107,-59.2 107,-81.2 174,-81.2 174,-59.2 107,-59.2"/>
<text text-anchor="start" x="110" y="-66.9" font-family="Helvetica,sans-Serif" font-size="11.00" fill="#000000">datetime[19]</text>
<polygon fill="#ffffff" stroke="transparent" points="10,-40.2 10,-59.2 63,-59.2 63,-40.2 10,-40.2"/>
<polygon fill="none" stroke="#000000" points="10,-40.2 10,-59.2 63,-59.2 63,-40.2 10,-40.2"/>
<text text-anchor="start" x="13" y="-46.3" font-family="Helvetica,sans-Serif" font-size="11.00" fill="#000000">&lt; 0</text>
<polygon fill="#ffffff" stroke="transparent" points="63,-40.2 63,-59.2 107,-59.2 107,-40.2 63,-40.2"/>
<polygon fill="none" stroke="#000000" points="63,-40.2 63,-59.2 107,-59.2 107,-40.2 63,-40.2"/>
<text text-anchor="start" x="97.8862" y="-46.3" font-family="Helvetica,sans-Serif" font-size="11.00" fill="#000000"> &#160;</text>
<polygon fill="#ffffff" stroke="transparent" points="107,-40.2 107,-59.2 174,-59.2 174,-40.2 107,-40.2"/>
<polygon fill="none" stroke="#000000" points="107,-40.2 107,-59.2 174,-59.2 174,-40.2 107,-40.2"/>
<text text-anchor="start" x="155.4053" y="-46.3" font-family="Helvetica,sans-Serif" font-size="11.00" fill="#000000">2 &gt;</text>
<polygon fill="none" stroke="#000000" stroke-width="2" points="9,-39.2 9,-237.2 175,-237.2 175,-39.2 9,-39.2"/>
</a>
</g>
</g>
<!-- campaigns&#45;&gt;advertisers -->
<g id="edge3" class="edge">
<title>campaigns:w&#45;&gt;advertisers:e</title>
<path fill="none" stroke="#000000" d="M211.799,-260.6692C194.6358,-246.2239 204.2316,-202.2 174,-202.2"/>
<polygon fill="#000000" stroke="#000000" points="217.9045,-262.6882 224.3697,-268.618 221.7023,-263.9441 225.5,-265.2 225.5,-265.2 225.5,-265.2 221.7023,-263.9441 226.6303,-261.782 217.9045,-262.6882 217.9045,-262.6882"/>
<ellipse fill="none" stroke="#000000" cx="214.8663" cy="-261.6835" rx="3.2" ry="3.2"/>
</g>
<!-- advertiser_users -->
<g id="node3" class="node">
<title>advertiser_users</title>
<g id="a_node3"><a xlink:href="../../tables/advertiser_users.html" xlink:title="advertiser_users" target="_top">
<polygon fill="#ffffff" stroke="transparent" points="259.5,-90.7 259.5,-195.7 419.5,-195.7 419.5,-90.7 259.5,-90.7"/>
<polygon fill="#f5f5f5" stroke="transparent" points="259.5,-172.2 259.5,-195.2 419.5,-195.2 419.5,-172.2 259.5,-172.2"/>
<polygon fill="none" stroke="#000000" points="259.5,-172.2 259.5,-195.2 419.5,-195.2 419.5,-172.2 259.5,-172.2"/>
<text text-anchor="start" x="264.5" y="-181.3" font-family="Helvetica,sans-Serif" font-weight="bold" font-size="11.00" fill="#000000">advertiser_users</text>
<text text-anchor="start" x="384.5437" y="-180.3" font-family="Helvetica,sans-Serif" font-size="11.00" fill="#000000">[table]</text>
<polygon fill="none" stroke="#000000" points="259.5,-150.2 259.5,-172.2 419.5,-172.2 419.5,-150.2 259.5,-150.2"/>
<image xlink:href="../../images/primaryKeys.png" width="11px" height="12px" preserveAspectRatio="xMinYMin meet" x="264.5" y="-167.2"/>
<text text-anchor="start" x="279.5" y="-157.3" font-family="Helvetica,sans-Serif" font-size="11.00" fill="#000000">id</text>
<polygon fill="#ffffff" stroke="transparent" points="259.5,-128.2 259.5,-150.2 419.5,-150.2 419.5,-128.2 259.5,-128.2"/>
<polygon fill="none" stroke="#000000" points="259.5,-128.2 259.5,-150.2 419.5,-150.2 419.5,-128.2 259.5,-128.2"/>
<image xlink:href="../../images/foreignKeys.png" width="11px" height="12px" preserveAspectRatio="xMinYMin meet" x="264.5" y="-145.2"/>
<text text-anchor="start" x="279.5" y="-135.3" font-family="Helvetica,sans-Serif" font-size="11.00" fill="#000000">advertiser_id</text>
<polygon fill="none" stroke="#000000" points="259.5,-109.2 259.5,-128.2 419.5,-128.2 419.5,-109.2 259.5,-109.2"/>
<text text-anchor="start" x="262.5" y="-115.3" font-family="Helvetica,sans-Serif" font-size="11.00" fill="#000000">...</text>
<polygon fill="#ffffff" stroke="transparent" points="259.5,-90.2 259.5,-109.2 337.5,-109.2 337.5,-90.2 259.5,-90.2"/>
<polygon fill="none" stroke="#000000" points="259.5,-90.2 259.5,-109.2 337.5,-109.2 337.5,-90.2 259.5,-90.2"/>
<text text-anchor="start" x="262.5" y="-96.3" font-family="Helvetica,sans-Serif" font-size="11.00" fill="#000000">&lt; 1</text>
<polygon fill="#ffffff" stroke="transparent" points="337.5,-90.2 337.5,-109.2 378.5,-109.2 378.5,-90.2 337.5,-90.2"/>
<polygon fill="none" stroke="#000000" points="337.5,-90.2 337.5,-109.2 378.5,-109.2 378.5,-90.2 337.5,-90.2"/>
<text text-anchor="start" x="369.3862" y="-96.3" font-family="Helvetica,sans-Serif" font-size="11.00" fill="#000000"> &#160;</text>
<polygon fill="#ffffff" stroke="transparent" points="378.5,-90.2 378.5,-109.2 419.5,-109.2 419.5,-90.2 378.5,-90.2"/>
<polygon fill="none" stroke="#000000" points="378.5,-90.2 378.5,-109.2 419.5,-109.2 419.5,-90.2 378.5,-90.2"/>
<text text-anchor="start" x="410.3862" y="-96.3" font-family="Helvetica,sans-Serif" font-size="11.00" fill="#000000"> &#160;</text>
</a>
</g>
</g>
<!-- advertiser_users&#45;&gt;advertisers -->
<g id="edge2" class="edge">
<title>advertiser_users:w&#45;&gt;advertisers:e</title>
<path fill="none" stroke="#000000" d="M245.0365,-141.5927C213.6146,-153.1005 215.6702,-202.2 174,-202.2"/>
<polygon fill="#000000" stroke="#000000" points="251.6073,-140.5058 260.0876,-142.7517 255.5536,-139.8529 259.5,-139.2 259.5,-139.2 259.5,-139.2 255.5536,-139.8529 258.9124,-135.6483 251.6073,-140.5058 251.6073,-140.5058"/>
<ellipse fill="none" stroke="#000000" cx="248.4502" cy="-141.0281" rx="3.2" ry="3.2"/>
</g>
</g>
</svg>
