<?xml version="1.0" encoding="UTF-8" standalone="no"?>
<!DOCTYPE svg PUBLIC "-//W3C//DTD SVG 1.1//EN"
 "http://www.w3.org/Graphics/SVG/1.1/DTD/svg11.dtd">
<!-- Generated by graphviz version 2.40.1 (20161225.0304)
 -->
<!-- Title: twoDegreesRelationshipsDiagram Pages: 1 -->
<svg width="401pt" height="377pt"
 viewBox="0.00 0.00 401.00 376.70" xmlns="http://www.w3.org/2000/svg" xmlns:xlink="http://www.w3.org/1999/xlink">
<g id="graph0" class="graph" transform="scale(1 1) rotate(0) translate(4 372.7)">
<title>twoDegreesRelationshipsDiagram</title>
<polygon fill="#ffffff" stroke="transparent" points="-4,4 -4,-372.7 397,-372.7 397,4 -4,4"/>
<text text-anchor="middle" x="72.4936" y="-7.3" font-family="Helvetica,sans-Serif" font-size="11.00" fill="#000000">Generated by SchemaSpy</text>
<!-- advertiser_users -->
<g id="node1" class="node">
<title>advertiser_users</title>
<g id="a_node1"><a xlink:href="../../tables/advertiser_users.html" xlink:title="advertiser_users" target="_top">
<polygon fill="#ffffff" stroke="transparent" points="154,-120.7 154,-364.7 385,-364.7 385,-120.7 154,-120.7"/>
<polygon fill="#f5f5f5" stroke="transparent" points="156.5,-339.7 156.5,-362.7 383.5,-362.7 383.5,-339.7 156.5,-339.7"/>
<polygon fill="none" stroke="#000000" points="156.5,-339.7 156.5,-362.7 383.5,-362.7 383.5,-339.7 156.5,-339.7"/>
<text text-anchor="start" x="161.5" y="-348.8" font-family="Helvetica,sans-Serif" font-weight="bold" font-size="11.00" fill="#000000">advertiser_users</text>
<text text-anchor="start" x="348.5437" y="-347.8" font-family="Helvetica,sans-Serif" font-size="11.00" fill="#000000">[table]</text>
<polygon fill="none" stroke="#000000" points="156.5,-317.7 156.5,-339.7 316.5,-339.7 316.5,-317.7 156.5,-317.7"/>
<image xlink:href="../../images/primaryKeys.png" width="11px" height="12px" preserveAspectRatio="xMinYMin meet" x="161.5" y="-334.7"/>
<text text-anchor="start" x="176.5" y="-324.8" font-family="Helvetica,sans-Serif" font-size="11.00" fill="#000000">id</text>
<polygon fill="none" stroke="#000000" points="316.5,-317.7 316.5,-339.7 383.5,-339.7 383.5,-317.7 316.5,-317.7"/>
<text text-anchor="start" x="319.5" y="-325.4" font-family="Helvetica,sans-Serif" font-size="11.00" fill="#000000">int[10]</text>
<polygon fill="#ffffff" stroke="transparent" points="156.5,-295.7 156.5,-317.7 316.5,-317.7 316.5,-295.7 156.5,-295.7"/>
<polygon fill="none" stroke="#000000" points="156.5,-295.7 156.5,-317.7 316.5,-317.7 316.5,-295.7 156.5,-295.7"/>
<image xlink:href="../../images/foreignKeys.png" width="11px" height="12px" preserveAspectRatio="xMinYMin meet" x="161.5" y="-312.7"/>
<text text-anchor="start" x="176.5" y="-302.8" font-family="Helvetica,sans-Serif" font-size="11.00" fill="#000000">advertiser_id</text>
<polygon fill="none" stroke="#000000" points="316.5,-295.7 316.5,-317.7 383.5,-317.7 383.5,-295.7 316.5,-295.7"/>
<text text-anchor="start" x="319.5" y="-303.4" font-family="Helvetica,sans-Serif" font-size="11.00" fill="#000000">int[10]</text>
<polygon fill="none" stroke="#000000" points="156.5,-273.7 156.5,-295.7 316.5,-295.7 316.5,-273.7 156.5,-273.7"/>
<text text-anchor="start" x="176.5" y="-280.8" font-family="Helvetica,sans-Serif" font-size="11.00" fill="#000000">login_name</text>
<polygon fill="none" stroke="#000000" points="316.5,-273.7 316.5,-295.7 383.5,-295.7 383.5,-273.7 316.5,-273.7"/>
<text text-anchor="start" x="319.4365" y="-281.4" font-family="Helvetica,sans-Serif" font-size="11.00" fill="#000000">varchar[255]</text>
<polygon fill="none" stroke="#000000" points="156.5,-251.7 156.5,-273.7 316.5,-273.7 316.5,-251.7 156.5,-251.7"/>
<text text-anchor="start" x="176.5" y="-258.8" font-family="Helvetica,sans-Serif" font-size="11.00" fill="#000000">email</text>
<polygon fill="none" stroke="#000000" points="316.5,-251.7 316.5,-273.7 383.5,-273.7 383.5,-251.7 316.5,-251.7"/>
<text text-anchor="start" x="319.4365" y="-259.4" font-family="Helvetica,sans-Serif" font-size="11.00" fill="#000000">varchar[255]</text>
<polygon fill="none" stroke="#000000" points="156.5,-229.7 156.5,-251.7 316.5,-251.7 316.5,-229.7 156.5,-229.7"/>
<text text-anchor="start" x="176.5" y="-236.8" font-family="Helvetica,sans-Serif" font-size="11.00" fill="#000000">encrypted_password</text>
<polygon fill="none" stroke="#000000" points="316.5,-229.7 316.5,-251.7 383.5,-251.7 383.5,-229.7 316.5,-229.7"/>
<text text-anchor="start" x="319.4365" y="-237.4" font-family="Helvetica,sans-Serif" font-size="11.00" fill="#000000">varchar[255]</text>
<polygon fill="none" stroke="#000000" points="156.5,-207.7 156.5,-229.7 316.5,-229.7 316.5,-207.7 156.5,-207.7"/>
<text text-anchor="start" x="176.5" y="-214.8" font-family="Helvetica,sans-Serif" font-size="11.00" fill="#000000">last_sign_in_at</text>
<polygon fill="none" stroke="#000000" points="316.5,-207.7 316.5,-229.7 383.5,-229.7 383.5,-207.7 316.5,-207.7"/>
<text text-anchor="start" x="319.5" y="-215.4" font-family="Helvetica,sans-Serif" font-size="11.00" fill="#000000">datetime[19]</text>
<polygon fill="none" stroke="#000000" points="156.5,-185.7 156.5,-207.7 316.5,-207.7 316.5,-185.7 156.5,-185.7"/>
<text text-anchor="start" x="176.5" y="-192.8" font-family="Helvetica,sans-Serif" font-size="11.00" fill="#000000">created_at</text>
<polygon fill="none" stroke="#000000" points="316.5,-185.7 316.5,-207.7 383.5,-207.7 383.5,-185.7 316.5,-185.7"/>
<text text-anchor="start" x="319.5" y="-193.4" font-family="Helvetica,sans-Serif" font-size="11.00" fill="#000000">datetime[19]</text>
<polygon fill="none" stroke="#000000" points="156.5,-163.7 156.5,-185.7 316.5,-185.7 316.5,-163.7 156.5,-163.7"/>
<text text-anchor="start" x="176.5" y="-170.8" font-family="Helvetica,sans-Serif" font-size="11.00" fill="#000000">updated_at</text>
<polygon fill="none" stroke="#000000" points="316.5,-163.7 316.5,-185.7 383.5,-185.7 383.5,-163.7 316.5,-163.7"/>
<text text-anchor="start" x="319.5" y="-171.4" font-family="Helvetica,sans-Serif" font-size="11.00" fill="#000000">datetime[19]</text>
<polygon fill="none" stroke="#000000" points="156.5,-141.7 156.5,-163.7 316.5,-163.7 316.5,-141.7 156.5,-141.7"/>
<text text-anchor="start" x="176.5" y="-148.8" font-family="Helvetica,sans-Serif" font-size="11.00" fill="#000000">deleted_at</text>
<polygon fill="none" stroke="#000000" points="316.5,-141.7 316.5,-163.7 383.5,-163.7 383.5,-141.7 316.5,-141.7"/>
<text text-anchor="start" x="319.5" y="-149.4" font-family="Helvetica,sans-Serif" font-size="11.00" fill="#000000">datetime[19]</text>
<polygon fill="#ffffff" stroke="transparent" points="156.5,-122.7 156.5,-141.7 240.5,-141.7 240.5,-122.7 156.5,-122.7"/>
<polygon fill="none" stroke="#000000" points="156.5,-122.7 156.5,-141.7 240.5,-141.7 240.5,-122.7 156.5,-122.7"/>
<text text-anchor="start" x="159.5" y="-128.8" font-family="Helvetica,sans-Serif" font-size="11.00" fill="#000000">&lt; 1</text>
<polygon fill="#ffffff" stroke="transparent" points="240.5,-122.7 240.5,-141.7 316.5,-141.7 316.5,-122.7 240.5,-122.7"/>
<polygon fill="none" stroke="#000000" points="240.5,-122.7 240.5,-141.7 316.5,-141.7 316.5,-122.7 240.5,-122.7"/>
<text text-anchor="start" x="307.3862" y="-128.8" font-family="Helvetica,sans-Serif" font-size="11.00" fill="#000000"> &#160;</text>
<polygon fill="#ffffff" stroke="transparent" points="316.5,-122.7 316.5,-141.7 383.5,-141.7 383.5,-122.7 316.5,-122.7"/>
<polygon fill="none" stroke="#000000" points="316.5,-122.7 316.5,-141.7 383.5,-141.7 383.5,-122.7 316.5,-122.7"/>
<text text-anchor="start" x="364.9053" y="-128.8" font-family="Helvetica,sans-Serif" font-size="11.00" fill="#000000">0 &gt;</text>
<polygon fill="none" stroke="#000000" stroke-width="2" points="155,-121.7 155,-363.7 384,-363.7 384,-121.7 155,-121.7"/>
</a>
</g>
</g>
<!-- advertisers -->
<g id="node2" class="node">
<title>advertisers</title>
<g id="a_node2"><a xlink:href="../../tables/advertisers.html" xlink:title="advertisers" target="_top">
<polygon fill="#ffffff" stroke="transparent" points="8,-137.2 8,-220.2 105,-220.2 105,-137.2 8,-137.2"/>
<polygon fill="#f5f5f5" stroke="transparent" points="8.5,-196.7 8.5,-219.7 105.5,-219.7 105.5,-196.7 8.5,-196.7"/>
<polygon fill="none" stroke="#000000" points="8.5,-196.7 8.5,-219.7 105.5,-219.7 105.5,-196.7 8.5,-196.7"/>
<text text-anchor="start" x="13.5" y="-205.8" font-family="Helvetica,sans-Serif" font-weight="bold" font-size="11.00" fill="#000000">advertisers</text>
<text text-anchor="start" x="71.0219" y="-204.8" font-family="Helvetica,sans-Serif" font-size="11.00" fill="#000000">[table]</text>
<polygon fill="none" stroke="#000000" points="8.5,-174.7 8.5,-196.7 105.5,-196.7 105.5,-174.7 8.5,-174.7"/>
<image xlink:href="../../images/primaryKeys.png" width="11px" height="12px" preserveAspectRatio="xMinYMin meet" x="13.5" y="-191.7"/>
<text text-anchor="start" x="28.5" y="-181.8" font-family="Helvetica,sans-Serif" font-size="11.00" fill="#000000">id</text>
<polygon fill="none" stroke="#000000" points="8.5,-155.7 8.5,-174.7 105.5,-174.7 105.5,-155.7 8.5,-155.7"/>
<text text-anchor="start" x="11.5" y="-161.8" font-family="Helvetica,sans-Serif" font-size="11.00" fill="#000000">...</text>
<polygon fill="#ffffff" stroke="transparent" points="8.5,-136.7 8.5,-155.7 46.5,-155.7 46.5,-136.7 8.5,-136.7"/>
<polygon fill="none" stroke="#000000" points="8.5,-136.7 8.5,-155.7 46.5,-155.7 46.5,-136.7 8.5,-136.7"/>
<text text-anchor="start" x="11.5" y="-142.8" font-family="Helvetica,sans-Serif" font-size="11.00" fill="#000000"> &#160;</text>
<polygon fill="#ffffff" stroke="transparent" points="46.5,-136.7 46.5,-155.7 71.5,-155.7 71.5,-136.7 46.5,-136.7"/>
<polygon fill="none" stroke="#000000" points="46.5,-136.7 46.5,-155.7 71.5,-155.7 71.5,-136.7 46.5,-136.7"/>
<text text-anchor="start" x="62.3862" y="-142.8" font-family="Helvetica,sans-Serif" font-size="11.00" fill="#000000"> &#160;</text>
<polygon fill="#ffffff" stroke="transparent" points="71.5,-136.7 71.5,-155.7 105.5,-155.7 105.5,-136.7 71.5,-136.7"/>
<polygon fill="none" stroke="#000000" points="71.5,-136.7 71.5,-155.7 105.5,-155.7 105.5,-136.7 71.5,-136.7"/>
<text text-anchor="start" x="86.9053" y="-142.8" font-family="Helvetica,sans-Serif" font-size="11.00" fill="#000000">2 &gt;</text>
</a>
</g>
</g>
<!-- advertiser_users&#45;&gt;advertisers -->
<g id="edge1" class="edge">
<title>advertiser_users:w&#45;&gt;advertisers:e</title>
<path fill="none" stroke="#000000" d="M142.2982,-303.2092C110.2098,-283.37 157.9323,-185.7 105.5,-185.7"/>
<polygon fill="#000000" stroke="#000000" points="148.7312,-304.7904 155.6407,-310.1959 152.6156,-305.7452 156.5,-306.7 156.5,-306.7 156.5,-306.7 152.6156,-305.7452 157.3593,-303.2041 148.7312,-304.7904 148.7312,-304.7904"/>
<ellipse fill="none" stroke="#000000" cx="145.6237" cy="-304.0266" rx="3.2" ry="3.2"/>
</g>
<!-- campaigns -->
<g id="node3" class="node">
<title>campaigns</title>
<g id="a_node3"><a xlink:href="../../tables/campaigns.html" xlink:title="campaigns" target="_top">
<polygon fill="#ffffff" stroke="transparent" points="221.5,-38.2 221.5,-99.2 317.5,-99.2 317.5,-38.2 221.5,-38.2"/>
<polygon fill="#f5f5f5" stroke="transparent" points="221.5,-75.7 221.5,-98.7 317.5,-98.7 317.5,-75.7 221.5,-75.7"/>
<polygon fill="none" stroke="#000000" points="221.5,-75.7 221.5,-98.7 317.5,-98.7 317.5,-75.7 221.5,-75.7"/>
<text text-anchor="start" x="226.4114" y="-84.8" font-family="Helvetica,sans-Serif" font-weight="bold" font-size="11.00" fill="#000000">campaigns</text>
<text text-anchor="start" x="283.0219" y="-83.8" font-family="Helvetica,sans-Serif" font-size="11.00" fill="#000000">[table]</text>
<polygon fill="none" stroke="#000000" points="221.5,-56.7 221.5,-75.7 317.5,-75.7 317.5,-56.7 221.5,-56.7"/>
<text text-anchor="start" x="224.5" y="-62.8" font-family="Helvetica,sans-Serif" font-size="11.00" fill="#000000">...</text>
<polygon fill="#ffffff" stroke="transparent" points="221.5,-37.7 221.5,-56.7 263.5,-56.7 263.5,-37.7 221.5,-37.7"/>
<polygon fill="none" stroke="#000000" points="221.5,-37.7 221.5,-56.7 263.5,-56.7 263.5,-37.7 221.5,-37.7"/>
<text text-anchor="start" x="224.5" y="-43.8" font-family="Helvetica,sans-Serif" font-size="11.00" fill="#000000">&lt; 1</text>
<polygon fill="#ffffff" stroke="transparent" points="263.5,-37.7 263.5,-56.7 285.5,-56.7 285.5,-37.7 263.5,-37.7"/>
<polygon fill="none" stroke="#000000" points="263.5,-37.7 263.5,-56.7 285.5,-56.7 285.5,-37.7 263.5,-37.7"/>
<text text-anchor="start" x="276.3862" y="-43.8" font-family="Helvetica,sans-Serif" font-size="11.00" fill="#000000"> &#160;</text>
<polygon fill="#ffffff" stroke="transparent" points="285.5,-37.7 285.5,-56.7 317.5,-56.7 317.5,-37.7 285.5,-37.7"/>
<polygon fill="none" stroke="#000000" points="285.5,-37.7 285.5,-56.7 317.5,-56.7 317.5,-37.7 285.5,-37.7"/>
<text text-anchor="start" x="298.9053" y="-43.8" font-family="Helvetica,sans-Serif" font-size="11.00" fill="#000000">1 &gt;</text>
</a>
</g>
</g>
<!-- campaigns&#45;&gt;advertisers -->
<g id="edge2" class="edge">
<title>campaigns:w&#45;&gt;advertisers:e</title>
<path fill="none" stroke="#000000" d="M207.0201,-66.6282C179.5351,-70.5066 169.3354,-86.3546 146,-110.7 119.7861,-138.0485 143.3829,-185.7 105.5,-185.7"/>
<polygon fill="#000000" stroke="#000000" points="213.5164,-66.2118 221.7303,-69.2926 217.5082,-65.9559 221.5,-65.7 221.5,-65.7 221.5,-65.7 217.5082,-65.9559 221.2697,-62.1074 213.5164,-66.2118 213.5164,-66.2118"/>
<ellipse fill="none" stroke="#000000" cx="210.3229" cy="-66.4166" rx="3.2" ry="3.2"/>
</g>
</g>
</svg>
