<?xml version="1.0" encoding="UTF-8" standalone="no"?>
<!DOCTYPE svg PUBLIC "-//W3C//DTD SVG 1.1//EN"
 "http://www.w3.org/Graphics/SVG/1.1/DTD/svg11.dtd">
<!-- Generated by graphviz version 2.40.1 (20161225.0304)
 -->
<!-- Title: oneDegreeRelationshipsDiagram Pages: 1 -->
<svg width="401pt" height="294pt"
 viewBox="0.00 0.00 401.00 294.20" xmlns="http://www.w3.org/2000/svg" xmlns:xlink="http://www.w3.org/1999/xlink">
<g id="graph0" class="graph" transform="scale(1 1) rotate(0) translate(4 290.2)">
<title>oneDegreeRelationshipsDiagram</title>
<polygon fill="#ffffff" stroke="transparent" points="-4,4 -4,-290.2 397,-290.2 397,4 -4,4"/>
<text text-anchor="middle" x="72.4936" y="-7.3" font-family="Helvetica,sans-Serif" font-size="11.00" fill="#000000">Generated by SchemaSpy</text>
<!-- advertiser_users -->
<g id="node1" class="node">
<title>advertiser_users</title>
<g id="a_node1"><a xlink:href="../../tables/advertiser_users.html" xlink:title="advertiser_users" target="_top">
<polygon fill="#ffffff" stroke="transparent" points="154,-38.2 154,-282.2 385,-282.2 385,-38.2 154,-38.2"/>
<polygon fill="#f5f5f5" stroke="transparent" points="156.5,-257.2 156.5,-280.2 383.5,-280.2 383.5,-257.2 156.5,-257.2"/>
<polygon fill="none" stroke="#000000" points="156.5,-257.2 156.5,-280.2 383.5,-280.2 383.5,-257.2 156.5,-257.2"/>
<text text-anchor="start" x="161.5" y="-266.3" font-family="Helvetica,sans-Serif" font-weight="bold" font-size="11.00" fill="#000000">advertiser_users</text>
<text text-anchor="start" x="348.5437" y="-265.3" font-family="Helvetica,sans-Serif" font-size="11.00" fill="#000000">[table]</text>
<polygon fill="none" stroke="#000000" points="156.5,-235.2 156.5,-257.2 316.5,-257.2 316.5,-235.2 156.5,-235.2"/>
<image xlink:href="../../images/primaryKeys.png" width="11px" height="12px" preserveAspectRatio="xMinYMin meet" x="161.5" y="-252.2"/>
<text text-anchor="start" x="176.5" y="-242.3" font-family="Helvetica,sans-Serif" font-size="11.00" fill="#000000">id</text>
<polygon fill="none" stroke="#000000" points="316.5,-235.2 316.5,-257.2 383.5,-257.2 383.5,-235.2 316.5,-235.2"/>
<text text-anchor="start" x="319.5" y="-242.9" font-family="Helvetica,sans-Serif" font-size="11.00" fill="#000000">int[10]</text>
<polygon fill="#ffffff" stroke="transparent" points="156.5,-213.2 156.5,-235.2 316.5,-235.2 316.5,-213.2 156.5,-213.2"/>
<polygon fill="none" stroke="#000000" points="156.5,-213.2 156.5,-235.2 316.5,-235.2 316.5,-213.2 156.5,-213.2"/>
<image xlink:href="../../images/foreignKeys.png" width="11px" height="12px" preserveAspectRatio="xMinYMin meet" x="161.5" y="-230.2"/>
<text text-anchor="start" x="176.5" y="-220.3" font-family="Helvetica,sans-Serif" font-size="11.00" fill="#000000">advertiser_id</text>
<polygon fill="none" stroke="#000000" points="316.5,-213.2 316.5,-235.2 383.5,-235.2 383.5,-213.2 316.5,-213.2"/>
<text text-anchor="start" x="319.5" y="-220.9" font-family="Helvetica,sans-Serif" font-size="11.00" fill="#000000">int[10]</text>
<polygon fill="none" stroke="#000000" points="156.5,-191.2 156.5,-213.2 316.5,-213.2 316.5,-191.2 156.5,-191.2"/>
<text text-anchor="start" x="176.5" y="-198.3" font-family="Helvetica,sans-Serif" font-size="11.00" fill="#000000">login_name</text>
<polygon fill="none" stroke="#000000" points="316.5,-191.2 316.5,-213.2 383.5,-213.2 383.5,-191.2 316.5,-191.2"/>
<text text-anchor="start" x="319.4365" y="-198.9" font-family="Helvetica,sans-Serif" font-size="11.00" fill="#000000">varchar[255]</text>
<polygon fill="none" stroke="#000000" points="156.5,-169.2 156.5,-191.2 316.5,-191.2 316.5,-169.2 156.5,-169.2"/>
<text text-anchor="start" x="176.5" y="-176.3" font-family="Helvetica,sans-Serif" font-size="11.00" fill="#000000">email</text>
<polygon fill="none" stroke="#000000" points="316.5,-169.2 316.5,-191.2 383.5,-191.2 383.5,-169.2 316.5,-169.2"/>
<text text-anchor="start" x="319.4365" y="-176.9" font-family="Helvetica,sans-Serif" font-size="11.00" fill="#000000">varchar[255]</text>
<polygon fill="none" stroke="#000000" points="156.5,-147.2 156.5,-169.2 316.5,-169.2 316.5,-147.2 156.5,-147.2"/>
<text text-anchor="start" x="176.5" y="-154.3" font-family="Helvetica,sans-Serif" font-size="11.00" fill="#000000">encrypted_password</text>
<polygon fill="none" stroke="#000000" points="316.5,-147.2 316.5,-169.2 383.5,-169.2 383.5,-147.2 316.5,-147.2"/>
<text text-anchor="start" x="319.4365" y="-154.9" font-family="Helvetica,sans-Serif" font-size="11.00" fill="#000000">varchar[255]</text>
<polygon fill="none" stroke="#000000" points="156.5,-125.2 156.5,-147.2 316.5,-147.2 316.5,-125.2 156.5,-125.2"/>
<text text-anchor="start" x="176.5" y="-132.3" font-family="Helvetica,sans-Serif" font-size="11.00" fill="#000000">last_sign_in_at</text>
<polygon fill="none" stroke="#000000" points="316.5,-125.2 316.5,-147.2 383.5,-147.2 383.5,-125.2 316.5,-125.2"/>
<text text-anchor="start" x="319.5" y="-132.9" font-family="Helvetica,sans-Serif" font-size="11.00" fill="#000000">datetime[19]</text>
<polygon fill="none" stroke="#000000" points="156.5,-103.2 156.5,-125.2 316.5,-125.2 316.5,-103.2 156.5,-103.2"/>
<text text-anchor="start" x="176.5" y="-110.3" font-family="Helvetica,sans-Serif" font-size="11.00" fill="#000000">created_at</text>
<polygon fill="none" stroke="#000000" points="316.5,-103.2 316.5,-125.2 383.5,-125.2 383.5,-103.2 316.5,-103.2"/>
<text text-anchor="start" x="319.5" y="-110.9" font-family="Helvetica,sans-Serif" font-size="11.00" fill="#000000">datetime[19]</text>
<polygon fill="none" stroke="#000000" points="156.5,-81.2 156.5,-103.2 316.5,-103.2 316.5,-81.2 156.5,-81.2"/>
<text text-anchor="start" x="176.5" y="-88.3" font-family="Helvetica,sans-Serif" font-size="11.00" fill="#000000">updated_at</text>
<polygon fill="none" stroke="#000000" points="316.5,-81.2 316.5,-103.2 383.5,-103.2 383.5,-81.2 316.5,-81.2"/>
<text text-anchor="start" x="319.5" y="-88.9" font-family="Helvetica,sans-Serif" font-size="11.00" fill="#000000">datetime[19]</text>
<polygon fill="none" stroke="#000000" points="156.5,-59.2 156.5,-81.2 316.5,-81.2 316.5,-59.2 156.5,-59.2"/>
<text text-anchor="start" x="176.5" y="-66.3" font-family="Helvetica,sans-Serif" font-size="11.00" fill="#000000">deleted_at</text>
<polygon fill="none" stroke="#000000" points="316.5,-59.2 316.5,-81.2 383.5,-81.2 383.5,-59.2 316.5,-59.2"/>
<text text-anchor="start" x="319.5" y="-66.9" font-family="Helvetica,sans-Serif" font-size="11.00" fill="#000000">datetime[19]</text>
<polygon fill="#ffffff" stroke="transparent" points="156.5,-40.2 156.5,-59.2 240.5,-59.2 240.5,-40.2 156.5,-40.2"/>
<polygon fill="none" stroke="#000000" points="156.5,-40.2 156.5,-59.2 240.5,-59.2 240.5,-40.2 156.5,-40.2"/>
<text text-anchor="start" x="159.5" y="-46.3" font-family="Helvetica,sans-Serif" font-size="11.00" fill="#000000">&lt; 1</text>
<polygon fill="#ffffff" stroke="transparent" points="240.5,-40.2 240.5,-59.2 316.5,-59.2 316.5,-40.2 240.5,-40.2"/>
<polygon fill="none" stroke="#000000" points="240.5,-40.2 240.5,-59.2 316.5,-59.2 316.5,-40.2 240.5,-40.2"/>
<text text-anchor="start" x="307.3862" y="-46.3" font-family="Helvetica,sans-Serif" font-size="11.00" fill="#000000"> &#160;</text>
<polygon fill="#ffffff" stroke="transparent" points="316.5,-40.2 316.5,-59.2 383.5,-59.2 383.5,-40.2 316.5,-40.2"/>
<polygon fill="none" stroke="#000000" points="316.5,-40.2 316.5,-59.2 383.5,-59.2 383.5,-40.2 316.5,-40.2"/>
<text text-anchor="start" x="364.9053" y="-46.3" font-family="Helvetica,sans-Serif" font-size="11.00" fill="#000000">0 &gt;</text>
<polygon fill="none" stroke="#000000" stroke-width="2" points="155,-39.2 155,-281.2 384,-281.2 384,-39.2 155,-39.2"/>
</a>
</g>
</g>
<!-- advertisers -->
<g id="node2" class="node">
<title>advertisers</title>
<g id="a_node2"><a xlink:href="../../tables/advertisers.html" xlink:title="advertisers" target="_top">
<polygon fill="#ffffff" stroke="transparent" points="8,-175.7 8,-258.7 105,-258.7 105,-175.7 8,-175.7"/>
<polygon fill="#f5f5f5" stroke="transparent" points="8.5,-235.2 8.5,-258.2 105.5,-258.2 105.5,-235.2 8.5,-235.2"/>
<polygon fill="none" stroke="#000000" points="8.5,-235.2 8.5,-258.2 105.5,-258.2 105.5,-235.2 8.5,-235.2"/>
<text text-anchor="start" x="13.5" y="-244.3" font-family="Helvetica,sans-Serif" font-weight="bold" font-size="11.00" fill="#000000">advertisers</text>
<text text-anchor="start" x="71.0219" y="-243.3" font-family="Helvetica,sans-Serif" font-size="11.00" fill="#000000">[table]</text>
<polygon fill="none" stroke="#000000" points="8.5,-213.2 8.5,-235.2 105.5,-235.2 105.5,-213.2 8.5,-213.2"/>
<image xlink:href="../../images/primaryKeys.png" width="11px" height="12px" preserveAspectRatio="xMinYMin meet" x="13.5" y="-230.2"/>
<text text-anchor="start" x="28.5" y="-220.3" font-family="Helvetica,sans-Serif" font-size="11.00" fill="#000000">id</text>
<polygon fill="none" stroke="#000000" points="8.5,-194.2 8.5,-213.2 105.5,-213.2 105.5,-194.2 8.5,-194.2"/>
<text text-anchor="start" x="11.5" y="-200.3" font-family="Helvetica,sans-Serif" font-size="11.00" fill="#000000">...</text>
<polygon fill="#ffffff" stroke="transparent" points="8.5,-175.2 8.5,-194.2 46.5,-194.2 46.5,-175.2 8.5,-175.2"/>
<polygon fill="none" stroke="#000000" points="8.5,-175.2 8.5,-194.2 46.5,-194.2 46.5,-175.2 8.5,-175.2"/>
<text text-anchor="start" x="11.5" y="-181.3" font-family="Helvetica,sans-Serif" font-size="11.00" fill="#000000"> &#160;</text>
<polygon fill="#ffffff" stroke="transparent" points="46.5,-175.2 46.5,-194.2 71.5,-194.2 71.5,-175.2 46.5,-175.2"/>
<polygon fill="none" stroke="#000000" points="46.5,-175.2 46.5,-194.2 71.5,-194.2 71.5,-175.2 46.5,-175.2"/>
<text text-anchor="start" x="62.3862" y="-181.3" font-family="Helvetica,sans-Serif" font-size="11.00" fill="#000000"> &#160;</text>
<polygon fill="#ffffff" stroke="transparent" points="71.5,-175.2 71.5,-194.2 105.5,-194.2 105.5,-175.2 71.5,-175.2"/>
<polygon fill="none" stroke="#000000" points="71.5,-175.2 71.5,-194.2 105.5,-194.2 105.5,-175.2 71.5,-175.2"/>
<text text-anchor="start" x="86.9053" y="-181.3" font-family="Helvetica,sans-Serif" font-size="11.00" fill="#000000">2 &gt;</text>
</a>
</g>
</g>
<!-- advertiser_users&#45;&gt;advertisers -->
<g id="edge1" class="edge">
<title>advertiser_users:w&#45;&gt;advertisers:e</title>
<path fill="none" stroke="#000000" d="M141.776,-224.2C129.7815,-224.2 122.3229,-224.2 105.5,-224.2"/>
<polygon fill="#000000" stroke="#000000" points="148.5,-224.2001 156.5,-227.8 152.5,-224.2 156.5,-224.2 156.5,-224.2 156.5,-224.2 152.5,-224.2 156.5,-220.6 148.5,-224.2001 148.5,-224.2001"/>
<ellipse fill="none" stroke="#000000" cx="145.3" cy="-224.2001" rx="3.2" ry="3.2"/>
</g>
</g>
</svg>
