<?xml version="1.0" encoding="UTF-8" standalone="no"?>
<!DOCTYPE svg PUBLIC "-//W3C//DTD SVG 1.1//EN"
 "http://www.w3.org/Graphics/SVG/1.1/DTD/svg11.dtd">
<!-- Generated by graphviz version 2.40.1 (20161225.0304)
 -->
<!-- Title: oneDegreeRelationshipsDiagram Pages: 1 -->
<svg width="710pt" height="447pt"
 viewBox="0.00 0.00 710.00 446.70" xmlns="http://www.w3.org/2000/svg" xmlns:xlink="http://www.w3.org/1999/xlink">
<g id="graph0" class="graph" transform="scale(1 1) rotate(0) translate(4 442.7)">
<title>oneDegreeRelationshipsDiagram</title>
<polygon fill="#ffffff" stroke="transparent" points="-4,4 -4,-442.7 706,-442.7 706,4 -4,4"/>
<text text-anchor="middle" x="72.4936" y="-7.3" font-family="Helvetica,sans-Serif" font-size="11.00" fill="#000000">Generated by SchemaSpy</text>
<!-- adgroups -->
<g id="node1" class="node">
<title>adgroups</title>
<g id="a_node1"><a xlink:href="../../tables/adgroups.html" xlink:title="adgroups" target="_top">
<polygon fill="#ffffff" stroke="transparent" points="529,-329.7 529,-434.7 694,-434.7 694,-329.7 529,-329.7"/>
<polygon fill="#f5f5f5" stroke="transparent" points="529.5,-411.2 529.5,-434.2 694.5,-434.2 694.5,-411.2 529.5,-411.2"/>
<polygon fill="none" stroke="#000000" points="529.5,-411.2 529.5,-434.2 694.5,-434.2 694.5,-411.2 529.5,-411.2"/>
<text text-anchor="start" x="534.5" y="-420.3" font-family="Helvetica,sans-Serif" font-weight="bold" font-size="11.00" fill="#000000">adgroups</text>
<text text-anchor="start" x="659.5437" y="-419.3" font-family="Helvetica,sans-Serif" font-size="11.00" fill="#000000">[table]</text>
<polygon fill="none" stroke="#000000" points="529.5,-389.2 529.5,-411.2 694.5,-411.2 694.5,-389.2 529.5,-389.2"/>
<image xlink:href="../../images/primaryKeys.png" width="11px" height="12px" preserveAspectRatio="xMinYMin meet" x="534.5" y="-406.2"/>
<text text-anchor="start" x="549.5" y="-396.3" font-family="Helvetica,sans-Serif" font-size="11.00" fill="#000000">id</text>
<polygon fill="#ffffff" stroke="transparent" points="529.5,-367.2 529.5,-389.2 694.5,-389.2 694.5,-367.2 529.5,-367.2"/>
<polygon fill="none" stroke="#000000" points="529.5,-367.2 529.5,-389.2 694.5,-389.2 694.5,-367.2 529.5,-367.2"/>
<image xlink:href="../../images/foreignKeys.png" width="11px" height="12px" preserveAspectRatio="xMinYMin meet" x="534.5" y="-384.2"/>
<text text-anchor="start" x="549.5" y="-374.3" font-family="Helvetica,sans-Serif" font-size="11.00" fill="#000000">campaign_id</text>
<polygon fill="none" stroke="#000000" points="529.5,-348.2 529.5,-367.2 694.5,-367.2 694.5,-348.2 529.5,-348.2"/>
<text text-anchor="start" x="532.5" y="-354.3" font-family="Helvetica,sans-Serif" font-size="11.00" fill="#000000">...</text>
<polygon fill="#ffffff" stroke="transparent" points="529.5,-329.2 529.5,-348.2 605.5,-348.2 605.5,-329.2 529.5,-329.2"/>
<polygon fill="none" stroke="#000000" points="529.5,-329.2 529.5,-348.2 605.5,-348.2 605.5,-329.2 529.5,-329.2"/>
<text text-anchor="start" x="532.5" y="-335.3" font-family="Helvetica,sans-Serif" font-size="11.00" fill="#000000">&lt; 1</text>
<polygon fill="#ffffff" stroke="transparent" points="605.5,-329.2 605.5,-348.2 645.5,-348.2 645.5,-329.2 605.5,-329.2"/>
<polygon fill="none" stroke="#000000" points="605.5,-329.2 605.5,-348.2 645.5,-348.2 645.5,-329.2 605.5,-329.2"/>
<text text-anchor="start" x="636.3862" y="-335.3" font-family="Helvetica,sans-Serif" font-size="11.00" fill="#000000"> &#160;</text>
<polygon fill="#ffffff" stroke="transparent" points="645.5,-329.2 645.5,-348.2 694.5,-348.2 694.5,-329.2 645.5,-329.2"/>
<polygon fill="none" stroke="#000000" points="645.5,-329.2 645.5,-348.2 694.5,-348.2 694.5,-329.2 645.5,-329.2"/>
<text text-anchor="start" x="675.9053" y="-335.3" font-family="Helvetica,sans-Serif" font-size="11.00" fill="#000000">2 &gt;</text>
</a>
</g>
</g>
<!-- campaigns -->
<g id="node2" class="node">
<title>campaigns</title>
<g id="a_node2"><a xlink:href="../../tables/campaigns.html" xlink:title="campaigns" target="_top">
<polygon fill="#ffffff" stroke="transparent" points="154,-38.2 154,-414.2 480,-414.2 480,-38.2 154,-38.2"/>
<polygon fill="#f5f5f5" stroke="transparent" points="156,-389.2 156,-412.2 478,-412.2 478,-389.2 156,-389.2"/>
<polygon fill="none" stroke="#000000" points="156,-389.2 156,-412.2 478,-412.2 478,-389.2 156,-389.2"/>
<text text-anchor="start" x="161" y="-398.3" font-family="Helvetica,sans-Serif" font-weight="bold" font-size="11.00" fill="#000000">campaigns</text>
<text text-anchor="start" x="443.0437" y="-397.3" font-family="Helvetica,sans-Serif" font-size="11.00" fill="#000000">[table]</text>
<polygon fill="none" stroke="#000000" points="156,-367.2 156,-389.2 385,-389.2 385,-367.2 156,-367.2"/>
<image xlink:href="../../images/primaryKeys.png" width="11px" height="12px" preserveAspectRatio="xMinYMin meet" x="161" y="-384.2"/>
<text text-anchor="start" x="176" y="-374.3" font-family="Helvetica,sans-Serif" font-size="11.00" fill="#000000">id</text>
<polygon fill="none" stroke="#000000" points="385,-367.2 385,-389.2 478,-389.2 478,-367.2 385,-367.2"/>
<text text-anchor="start" x="388" y="-374.9" font-family="Helvetica,sans-Serif" font-size="11.00" fill="#000000">int[10]</text>
<polygon fill="#ffffff" stroke="transparent" points="156,-345.2 156,-367.2 385,-367.2 385,-345.2 156,-345.2"/>
<polygon fill="none" stroke="#000000" points="156,-345.2 156,-367.2 385,-367.2 385,-345.2 156,-345.2"/>
<image xlink:href="../../images/foreignKeys.png" width="11px" height="12px" preserveAspectRatio="xMinYMin meet" x="161" y="-362.2"/>
<text text-anchor="start" x="176" y="-352.3" font-family="Helvetica,sans-Serif" font-size="11.00" fill="#000000">advertiser_id</text>
<polygon fill="none" stroke="#000000" points="385,-345.2 385,-367.2 478,-367.2 478,-345.2 385,-345.2"/>
<text text-anchor="start" x="388" y="-352.9" font-family="Helvetica,sans-Serif" font-size="11.00" fill="#000000">int[10]</text>
<polygon fill="none" stroke="#000000" points="156,-323.2 156,-345.2 385,-345.2 385,-323.2 156,-323.2"/>
<text text-anchor="start" x="176" y="-330.3" font-family="Helvetica,sans-Serif" font-size="11.00" fill="#000000">name</text>
<polygon fill="none" stroke="#000000" points="385,-323.2 385,-345.2 478,-345.2 478,-323.2 385,-323.2"/>
<text text-anchor="start" x="388" y="-330.9" font-family="Helvetica,sans-Serif" font-size="11.00" fill="#000000">varchar[255]</text>
<polygon fill="none" stroke="#000000" points="156,-301.2 156,-323.2 385,-323.2 385,-301.2 156,-301.2"/>
<text text-anchor="start" x="176" y="-308.3" font-family="Helvetica,sans-Serif" font-size="11.00" fill="#000000">status</text>
<polygon fill="none" stroke="#000000" points="385,-301.2 385,-323.2 478,-323.2 478,-301.2 385,-301.2"/>
<text text-anchor="start" x="388" y="-308.9" font-family="Helvetica,sans-Serif" font-size="11.00" fill="#000000">bit[1]</text>
<polygon fill="none" stroke="#000000" points="156,-279.2 156,-301.2 385,-301.2 385,-279.2 156,-279.2"/>
<text text-anchor="start" x="176" y="-286.3" font-family="Helvetica,sans-Serif" font-size="11.00" fill="#000000">start_at</text>
<polygon fill="none" stroke="#000000" points="385,-279.2 385,-301.2 478,-301.2 478,-279.2 385,-279.2"/>
<text text-anchor="start" x="388" y="-286.9" font-family="Helvetica,sans-Serif" font-size="11.00" fill="#000000">datetime[19]</text>
<polygon fill="none" stroke="#000000" points="156,-257.2 156,-279.2 385,-279.2 385,-257.2 156,-257.2"/>
<text text-anchor="start" x="176" y="-264.3" font-family="Helvetica,sans-Serif" font-size="11.00" fill="#000000">end_at</text>
<polygon fill="none" stroke="#000000" points="385,-257.2 385,-279.2 478,-279.2 478,-257.2 385,-257.2"/>
<text text-anchor="start" x="388" y="-264.9" font-family="Helvetica,sans-Serif" font-size="11.00" fill="#000000">datetime[19]</text>
<polygon fill="none" stroke="#000000" points="156,-235.2 156,-257.2 385,-257.2 385,-235.2 156,-235.2"/>
<text text-anchor="start" x="176" y="-242.3" font-family="Helvetica,sans-Serif" font-size="11.00" fill="#000000">revenue_share_rate</text>
<polygon fill="none" stroke="#000000" points="385,-235.2 385,-257.2 478,-257.2 478,-235.2 385,-235.2"/>
<text text-anchor="start" x="388" y="-242.9" font-family="Helvetica,sans-Serif" font-size="11.00" fill="#000000">decimal[20,3]</text>
<polygon fill="none" stroke="#000000" points="156,-213.2 156,-235.2 385,-235.2 385,-213.2 156,-213.2"/>
<text text-anchor="start" x="176" y="-220.3" font-family="Helvetica,sans-Serif" font-size="11.00" fill="#000000">max_total_budget</text>
<polygon fill="none" stroke="#000000" points="385,-213.2 385,-235.2 478,-235.2 478,-213.2 385,-213.2"/>
<text text-anchor="start" x="388" y="-220.9" font-family="Helvetica,sans-Serif" font-size="11.00" fill="#000000">bigint[19]</text>
<polygon fill="none" stroke="#000000" points="156,-191.2 156,-213.2 385,-213.2 385,-191.2 156,-191.2"/>
<text text-anchor="start" x="176" y="-198.3" font-family="Helvetica,sans-Serif" font-size="11.00" fill="#000000">max_monthly_budget</text>
<polygon fill="none" stroke="#000000" points="385,-191.2 385,-213.2 478,-213.2 478,-191.2 385,-191.2"/>
<text text-anchor="start" x="388" y="-198.9" font-family="Helvetica,sans-Serif" font-size="11.00" fill="#000000">bigint[19]</text>
<polygon fill="none" stroke="#000000" points="156,-169.2 156,-191.2 385,-191.2 385,-169.2 156,-169.2"/>
<text text-anchor="start" x="176" y="-176.3" font-family="Helvetica,sans-Serif" font-size="11.00" fill="#000000">max_daily_budget</text>
<polygon fill="none" stroke="#000000" points="385,-169.2 385,-191.2 478,-191.2 478,-169.2 385,-169.2"/>
<text text-anchor="start" x="388" y="-176.9" font-family="Helvetica,sans-Serif" font-size="11.00" fill="#000000">bigint[19]</text>
<polygon fill="none" stroke="#000000" points="156,-147.2 156,-169.2 385,-169.2 385,-147.2 156,-147.2"/>
<text text-anchor="start" x="176" y="-154.3" font-family="Helvetica,sans-Serif" font-size="11.00" fill="#000000">max_hourly_budget</text>
<polygon fill="none" stroke="#000000" points="385,-147.2 385,-169.2 478,-169.2 478,-147.2 385,-147.2"/>
<text text-anchor="start" x="387.7833" y="-154.9" font-family="Helvetica,sans-Serif" font-size="11.00" fill="#000000">json[1073741824]</text>
<polygon fill="none" stroke="#000000" points="156,-125.2 156,-147.2 385,-147.2 385,-125.2 156,-125.2"/>
<text text-anchor="start" x="176" y="-132.3" font-family="Helvetica,sans-Serif" font-size="11.00" fill="#000000">frequency_control_interval_sec</text>
<polygon fill="none" stroke="#000000" points="385,-125.2 385,-147.2 478,-147.2 478,-125.2 385,-125.2"/>
<text text-anchor="start" x="388" y="-132.9" font-family="Helvetica,sans-Serif" font-size="11.00" fill="#000000">int[10]</text>
<polygon fill="none" stroke="#000000" points="156,-103.2 156,-125.2 385,-125.2 385,-103.2 156,-103.2"/>
<text text-anchor="start" x="176" y="-110.3" font-family="Helvetica,sans-Serif" font-size="11.00" fill="#000000">created_at</text>
<polygon fill="none" stroke="#000000" points="385,-103.2 385,-125.2 478,-125.2 478,-103.2 385,-103.2"/>
<text text-anchor="start" x="388" y="-110.9" font-family="Helvetica,sans-Serif" font-size="11.00" fill="#000000">datetime[19]</text>
<polygon fill="none" stroke="#000000" points="156,-81.2 156,-103.2 385,-103.2 385,-81.2 156,-81.2"/>
<text text-anchor="start" x="176" y="-88.3" font-family="Helvetica,sans-Serif" font-size="11.00" fill="#000000">updated_at</text>
<polygon fill="none" stroke="#000000" points="385,-81.2 385,-103.2 478,-103.2 478,-81.2 385,-81.2"/>
<text text-anchor="start" x="388" y="-88.9" font-family="Helvetica,sans-Serif" font-size="11.00" fill="#000000">datetime[19]</text>
<polygon fill="none" stroke="#000000" points="156,-59.2 156,-81.2 385,-81.2 385,-59.2 156,-59.2"/>
<text text-anchor="start" x="176" y="-66.3" font-family="Helvetica,sans-Serif" font-size="11.00" fill="#000000">deleted_at</text>
<polygon fill="none" stroke="#000000" points="385,-59.2 385,-81.2 478,-81.2 478,-59.2 385,-59.2"/>
<text text-anchor="start" x="388" y="-66.9" font-family="Helvetica,sans-Serif" font-size="11.00" fill="#000000">datetime[19]</text>
<polygon fill="#ffffff" stroke="transparent" points="156,-40.2 156,-59.2 275,-59.2 275,-40.2 156,-40.2"/>
<polygon fill="none" stroke="#000000" points="156,-40.2 156,-59.2 275,-59.2 275,-40.2 156,-40.2"/>
<text text-anchor="start" x="159" y="-46.3" font-family="Helvetica,sans-Serif" font-size="11.00" fill="#000000">&lt; 1</text>
<polygon fill="#ffffff" stroke="transparent" points="275,-40.2 275,-59.2 385,-59.2 385,-40.2 275,-40.2"/>
<polygon fill="none" stroke="#000000" points="275,-40.2 275,-59.2 385,-59.2 385,-40.2 275,-40.2"/>
<text text-anchor="start" x="375.8862" y="-46.3" font-family="Helvetica,sans-Serif" font-size="11.00" fill="#000000"> &#160;</text>
<polygon fill="#ffffff" stroke="transparent" points="385,-40.2 385,-59.2 478,-59.2 478,-40.2 385,-40.2"/>
<polygon fill="none" stroke="#000000" points="385,-40.2 385,-59.2 478,-59.2 478,-40.2 385,-40.2"/>
<text text-anchor="start" x="459.4053" y="-46.3" font-family="Helvetica,sans-Serif" font-size="11.00" fill="#000000">1 &gt;</text>
<polygon fill="none" stroke="#000000" stroke-width="2" points="155,-39.2 155,-413.2 479,-413.2 479,-39.2 155,-39.2"/>
</a>
</g>
</g>
<!-- adgroups&#45;&gt;campaigns -->
<g id="edge1" class="edge">
<title>adgroups:w&#45;&gt;campaigns:e</title>
<path fill="none" stroke="#000000" d="M515.0156,-378.2C502.6771,-378.2 495.1667,-378.2 478,-378.2"/>
<polygon fill="#000000" stroke="#000000" points="521.5,-378.2001 529.5,-381.8 525.5,-378.2 529.5,-378.2 529.5,-378.2 529.5,-378.2 525.5,-378.2 529.5,-374.6 521.5,-378.2001 521.5,-378.2001"/>
<ellipse fill="none" stroke="#000000" cx="518.3" cy="-378.2001" rx="3.2" ry="3.2"/>
</g>
<!-- advertisers -->
<g id="node3" class="node">
<title>advertisers</title>
<g id="a_node3"><a xlink:href="../../tables/advertisers.html" xlink:title="advertisers" target="_top">
<polygon fill="#ffffff" stroke="transparent" points="8,-307.7 8,-390.7 105,-390.7 105,-307.7 8,-307.7"/>
<polygon fill="#f5f5f5" stroke="transparent" points="8.5,-367.2 8.5,-390.2 105.5,-390.2 105.5,-367.2 8.5,-367.2"/>
<polygon fill="none" stroke="#000000" points="8.5,-367.2 8.5,-390.2 105.5,-390.2 105.5,-367.2 8.5,-367.2"/>
<text text-anchor="start" x="13.5" y="-376.3" font-family="Helvetica,sans-Serif" font-weight="bold" font-size="11.00" fill="#000000">advertisers</text>
<text text-anchor="start" x="71.0219" y="-375.3" font-family="Helvetica,sans-Serif" font-size="11.00" fill="#000000">[table]</text>
<polygon fill="none" stroke="#000000" points="8.5,-345.2 8.5,-367.2 105.5,-367.2 105.5,-345.2 8.5,-345.2"/>
<image xlink:href="../../images/primaryKeys.png" width="11px" height="12px" preserveAspectRatio="xMinYMin meet" x="13.5" y="-362.2"/>
<text text-anchor="start" x="28.5" y="-352.3" font-family="Helvetica,sans-Serif" font-size="11.00" fill="#000000">id</text>
<polygon fill="none" stroke="#000000" points="8.5,-326.2 8.5,-345.2 105.5,-345.2 105.5,-326.2 8.5,-326.2"/>
<text text-anchor="start" x="11.5" y="-332.3" font-family="Helvetica,sans-Serif" font-size="11.00" fill="#000000">...</text>
<polygon fill="#ffffff" stroke="transparent" points="8.5,-307.2 8.5,-326.2 46.5,-326.2 46.5,-307.2 8.5,-307.2"/>
<polygon fill="none" stroke="#000000" points="8.5,-307.2 8.5,-326.2 46.5,-326.2 46.5,-307.2 8.5,-307.2"/>
<text text-anchor="start" x="11.5" y="-313.3" font-family="Helvetica,sans-Serif" font-size="11.00" fill="#000000"> &#160;</text>
<polygon fill="#ffffff" stroke="transparent" points="46.5,-307.2 46.5,-326.2 71.5,-326.2 71.5,-307.2 46.5,-307.2"/>
<polygon fill="none" stroke="#000000" points="46.5,-307.2 46.5,-326.2 71.5,-326.2 71.5,-307.2 46.5,-307.2"/>
<text text-anchor="start" x="62.3862" y="-313.3" font-family="Helvetica,sans-Serif" font-size="11.00" fill="#000000"> &#160;</text>
<polygon fill="#ffffff" stroke="transparent" points="71.5,-307.2 71.5,-326.2 105.5,-326.2 105.5,-307.2 71.5,-307.2"/>
<polygon fill="none" stroke="#000000" points="71.5,-307.2 71.5,-326.2 105.5,-326.2 105.5,-307.2 71.5,-307.2"/>
<text text-anchor="start" x="86.9053" y="-313.3" font-family="Helvetica,sans-Serif" font-size="11.00" fill="#000000">2 &gt;</text>
</a>
</g>
</g>
<!-- campaigns&#45;&gt;advertisers -->
<g id="edge2" class="edge">
<title>campaigns:w&#45;&gt;advertisers:e</title>
<path fill="none" stroke="#000000" d="M141.4203,-356.2C129.5435,-356.2 122.158,-356.2 105.5,-356.2"/>
<polygon fill="#000000" stroke="#000000" points="148,-356.2001 156,-359.8 152,-356.2 156,-356.2 156,-356.2 156,-356.2 152,-356.2 156,-352.6 148,-356.2001 148,-356.2001"/>
<ellipse fill="none" stroke="#000000" cx="144.8" cy="-356.2001" rx="3.2" ry="3.2"/>
</g>
</g>
</svg>
