<?xml version="1.0" encoding="UTF-8" standalone="no"?>
<!DOCTYPE svg PUBLIC "-//W3C//DTD SVG 1.1//EN"
 "http://www.w3.org/Graphics/SVG/1.1/DTD/svg11.dtd">
<!-- Generated by graphviz version 2.40.1 (20161225.0304)
 -->
<!-- Title: twoDegreesRelationshipsDiagram Pages: 1 -->
<svg width="616pt" height="431pt"
 viewBox="0.00 0.00 616.00 430.70" xmlns="http://www.w3.org/2000/svg" xmlns:xlink="http://www.w3.org/1999/xlink">
<g id="graph0" class="graph" transform="scale(1 1) rotate(0) translate(4 426.7)">
<title>twoDegreesRelationshipsDiagram</title>
<polygon fill="#ffffff" stroke="transparent" points="-4,4 -4,-426.7 612,-426.7 612,4 -4,4"/>
<text text-anchor="middle" x="72.4936" y="-7.3" font-family="Helvetica,sans-Serif" font-size="11.00" fill="#000000">Generated by SchemaSpy</text>
<!-- adgroups_locations -->
<g id="node1" class="node">
<title>adgroups_locations</title>
<g id="a_node1"><a xlink:href="../../tables/adgroups_locations.html" xlink:title="adgroups_locations" target="_top">
<polygon fill="#ffffff" stroke="transparent" points="448,-291.7 448,-418.7 600,-418.7 600,-291.7 448,-291.7"/>
<polygon fill="#f5f5f5" stroke="transparent" points="448,-395.2 448,-418.2 600,-418.2 600,-395.2 448,-395.2"/>
<polygon fill="none" stroke="#000000" points="448,-395.2 448,-418.2 600,-418.2 600,-395.2 448,-395.2"/>
<text text-anchor="start" x="453" y="-404.3" font-family="Helvetica,sans-Serif" font-weight="bold" font-size="11.00" fill="#000000">adgroups_locations</text>
<text text-anchor="start" x="565.0437" y="-403.3" font-family="Helvetica,sans-Serif" font-size="11.00" fill="#000000">[table]</text>
<polygon fill="none" stroke="#000000" points="448,-373.2 448,-395.2 600,-395.2 600,-373.2 448,-373.2"/>
<image xlink:href="../../images/primaryKeys.png" width="11px" height="12px" preserveAspectRatio="xMinYMin meet" x="453" y="-390.2"/>
<text text-anchor="start" x="468" y="-380.3" font-family="Helvetica,sans-Serif" font-size="11.00" fill="#000000">id</text>
<polygon fill="#ffffff" stroke="transparent" points="448,-351.2 448,-373.2 600,-373.2 600,-351.2 448,-351.2"/>
<polygon fill="none" stroke="#000000" points="448,-351.2 448,-373.2 600,-373.2 600,-351.2 448,-351.2"/>
<image xlink:href="../../images/foreignKeys.png" width="11px" height="12px" preserveAspectRatio="xMinYMin meet" x="453" y="-368.2"/>
<text text-anchor="start" x="468" y="-358.3" font-family="Helvetica,sans-Serif" font-size="11.00" fill="#000000">adgroup_id</text>
<polygon fill="#ffffff" stroke="transparent" points="448,-329.2 448,-351.2 600,-351.2 600,-329.2 448,-329.2"/>
<polygon fill="none" stroke="#000000" points="448,-329.2 448,-351.2 600,-351.2 600,-329.2 448,-329.2"/>
<image xlink:href="../../images/foreignKeys.png" width="11px" height="12px" preserveAspectRatio="xMinYMin meet" x="453" y="-346.2"/>
<text text-anchor="start" x="468" y="-336.3" font-family="Helvetica,sans-Serif" font-size="11.00" fill="#000000">location_id</text>
<polygon fill="none" stroke="#000000" points="448,-310.2 448,-329.2 600,-329.2 600,-310.2 448,-310.2"/>
<text text-anchor="start" x="451" y="-316.3" font-family="Helvetica,sans-Serif" font-size="11.00" fill="#000000">...</text>
<polygon fill="#ffffff" stroke="transparent" points="448,-291.2 448,-310.2 522,-310.2 522,-291.2 448,-291.2"/>
<polygon fill="none" stroke="#000000" points="448,-291.2 448,-310.2 522,-310.2 522,-291.2 448,-291.2"/>
<text text-anchor="start" x="451" y="-297.3" font-family="Helvetica,sans-Serif" font-size="11.00" fill="#000000">&lt; 2</text>
<polygon fill="#ffffff" stroke="transparent" points="522,-291.2 522,-310.2 561,-310.2 561,-291.2 522,-291.2"/>
<polygon fill="none" stroke="#000000" points="522,-291.2 522,-310.2 561,-310.2 561,-291.2 522,-291.2"/>
<text text-anchor="start" x="551.8862" y="-297.3" font-family="Helvetica,sans-Serif" font-size="11.00" fill="#000000"> &#160;</text>
<polygon fill="#ffffff" stroke="transparent" points="561,-291.2 561,-310.2 600,-310.2 600,-291.2 561,-291.2"/>
<polygon fill="none" stroke="#000000" points="561,-291.2 561,-310.2 600,-310.2 600,-291.2 561,-291.2"/>
<text text-anchor="start" x="590.8862" y="-297.3" font-family="Helvetica,sans-Serif" font-size="11.00" fill="#000000"> &#160;</text>
</a>
</g>
</g>
<!-- adgroups -->
<g id="node2" class="node">
<title>adgroups</title>
<g id="a_node2"><a xlink:href="../../tables/adgroups.html" xlink:title="adgroups" target="_top">
<polygon fill="#ffffff" stroke="transparent" points="249,-334.7 249,-395.7 337,-395.7 337,-334.7 249,-334.7"/>
<polygon fill="#f5f5f5" stroke="transparent" points="249,-372.2 249,-395.2 337,-395.2 337,-372.2 249,-372.2"/>
<polygon fill="none" stroke="#000000" points="249,-372.2 249,-395.2 337,-395.2 337,-372.2 249,-372.2"/>
<text text-anchor="start" x="253.5744" y="-381.3" font-family="Helvetica,sans-Serif" font-weight="bold" font-size="11.00" fill="#000000">adgroups</text>
<text text-anchor="start" x="302.5219" y="-380.3" font-family="Helvetica,sans-Serif" font-size="11.00" fill="#000000">[table]</text>
<polygon fill="none" stroke="#000000" points="249,-353.2 249,-372.2 337,-372.2 337,-353.2 249,-353.2"/>
<text text-anchor="start" x="252" y="-359.3" font-family="Helvetica,sans-Serif" font-size="11.00" fill="#000000">...</text>
<polygon fill="#ffffff" stroke="transparent" points="249,-334.2 249,-353.2 287,-353.2 287,-334.2 249,-334.2"/>
<polygon fill="none" stroke="#000000" points="249,-334.2 249,-353.2 287,-353.2 287,-334.2 249,-334.2"/>
<text text-anchor="start" x="252" y="-340.3" font-family="Helvetica,sans-Serif" font-size="11.00" fill="#000000">&lt; 1</text>
<polygon fill="#ffffff" stroke="transparent" points="287,-334.2 287,-353.2 307,-353.2 307,-334.2 287,-334.2"/>
<polygon fill="none" stroke="#000000" points="287,-334.2 287,-353.2 307,-353.2 307,-334.2 287,-334.2"/>
<text text-anchor="start" x="297.8862" y="-340.3" font-family="Helvetica,sans-Serif" font-size="11.00" fill="#000000"> &#160;</text>
<polygon fill="#ffffff" stroke="transparent" points="307,-334.2 307,-353.2 337,-353.2 337,-334.2 307,-334.2"/>
<polygon fill="none" stroke="#000000" points="307,-334.2 307,-353.2 337,-353.2 337,-334.2 307,-334.2"/>
<text text-anchor="start" x="318.4053" y="-340.3" font-family="Helvetica,sans-Serif" font-size="11.00" fill="#000000">2 &gt;</text>
</a>
</g>
</g>
<!-- adgroups_locations&#45;&gt;adgroups -->
<g id="edge1" class="edge">
<title>adgroups_locations:w&#45;&gt;adgroups:e</title>
<path fill="none" stroke="#000000" d="M433.5385,-362.2C395.6535,-362.2 381.1302,-362.2 337,-362.2"/>
<polygon fill="#000000" stroke="#000000" points="440,-362.2001 448,-365.8 444,-362.2 448,-362.2 448,-362.2 448,-362.2 444,-362.2 448,-358.6 440,-362.2001 440,-362.2001"/>
<ellipse fill="none" stroke="#000000" cx="436.8" cy="-362.2001" rx="3.2" ry="3.2"/>
</g>
<!-- locations -->
<g id="node3" class="node">
<title>locations</title>
<g id="a_node3"><a xlink:href="../../tables/locations.html" xlink:title="locations" target="_top">
<polygon fill="#ffffff" stroke="transparent" points="187,-38.2 187,-282.2 399,-282.2 399,-38.2 187,-38.2"/>
<polygon fill="#f5f5f5" stroke="transparent" points="189,-257.2 189,-280.2 397,-280.2 397,-257.2 189,-257.2"/>
<polygon fill="none" stroke="#000000" points="189,-257.2 189,-280.2 397,-280.2 397,-257.2 189,-257.2"/>
<text text-anchor="start" x="194" y="-266.3" font-family="Helvetica,sans-Serif" font-weight="bold" font-size="11.00" fill="#000000">locations</text>
<text text-anchor="start" x="362.0437" y="-265.3" font-family="Helvetica,sans-Serif" font-size="11.00" fill="#000000">[table]</text>
<polygon fill="none" stroke="#000000" points="189,-235.2 189,-257.2 330,-257.2 330,-235.2 189,-235.2"/>
<image xlink:href="../../images/primaryKeys.png" width="11px" height="12px" preserveAspectRatio="xMinYMin meet" x="194" y="-252.2"/>
<text text-anchor="start" x="209" y="-242.3" font-family="Helvetica,sans-Serif" font-size="11.00" fill="#000000">id</text>
<polygon fill="none" stroke="#000000" points="330,-235.2 330,-257.2 397,-257.2 397,-235.2 330,-235.2"/>
<text text-anchor="start" x="333" y="-242.9" font-family="Helvetica,sans-Serif" font-size="11.00" fill="#000000">int[10]</text>
<polygon fill="#ffffff" stroke="transparent" points="189,-213.2 189,-235.2 330,-235.2 330,-213.2 189,-213.2"/>
<polygon fill="none" stroke="#000000" points="189,-213.2 189,-235.2 330,-235.2 330,-213.2 189,-213.2"/>
<image xlink:href="../../images/foreignKeys.png" width="11px" height="12px" preserveAspectRatio="xMinYMin meet" x="194" y="-230.2"/>
<text text-anchor="start" x="209" y="-220.3" font-family="Helvetica,sans-Serif" font-size="11.00" fill="#000000">location_owner_id</text>
<polygon fill="none" stroke="#000000" points="330,-213.2 330,-235.2 397,-235.2 397,-213.2 330,-213.2"/>
<text text-anchor="start" x="333" y="-220.9" font-family="Helvetica,sans-Serif" font-size="11.00" fill="#000000">int[10]</text>
<polygon fill="none" stroke="#000000" points="189,-191.2 189,-213.2 330,-213.2 330,-191.2 189,-191.2"/>
<text text-anchor="start" x="209" y="-198.3" font-family="Helvetica,sans-Serif" font-size="11.00" fill="#000000">name</text>
<polygon fill="none" stroke="#000000" points="330,-191.2 330,-213.2 397,-213.2 397,-191.2 330,-191.2"/>
<text text-anchor="start" x="332.9365" y="-198.9" font-family="Helvetica,sans-Serif" font-size="11.00" fill="#000000">varchar[255]</text>
<polygon fill="none" stroke="#000000" points="189,-169.2 189,-191.2 330,-191.2 330,-169.2 189,-169.2"/>
<text text-anchor="start" x="209" y="-176.3" font-family="Helvetica,sans-Serif" font-size="11.00" fill="#000000">address</text>
<polygon fill="none" stroke="#000000" points="330,-169.2 330,-191.2 397,-191.2 397,-169.2 330,-169.2"/>
<text text-anchor="start" x="332.9365" y="-176.9" font-family="Helvetica,sans-Serif" font-size="11.00" fill="#000000">varchar[255]</text>
<polygon fill="none" stroke="#000000" points="189,-147.2 189,-169.2 330,-169.2 330,-147.2 189,-147.2"/>
<text text-anchor="start" x="209" y="-154.3" font-family="Helvetica,sans-Serif" font-size="11.00" fill="#000000">latitude</text>
<polygon fill="none" stroke="#000000" points="330,-147.2 330,-169.2 397,-169.2 397,-147.2 330,-147.2"/>
<text text-anchor="start" x="333" y="-154.9" font-family="Helvetica,sans-Serif" font-size="11.00" fill="#000000">double[22]</text>
<polygon fill="none" stroke="#000000" points="189,-125.2 189,-147.2 330,-147.2 330,-125.2 189,-125.2"/>
<text text-anchor="start" x="209" y="-132.3" font-family="Helvetica,sans-Serif" font-size="11.00" fill="#000000">longitude</text>
<polygon fill="none" stroke="#000000" points="330,-125.2 330,-147.2 397,-147.2 397,-125.2 330,-125.2"/>
<text text-anchor="start" x="333" y="-132.9" font-family="Helvetica,sans-Serif" font-size="11.00" fill="#000000">double[22]</text>
<polygon fill="none" stroke="#000000" points="189,-103.2 189,-125.2 330,-125.2 330,-103.2 189,-103.2"/>
<text text-anchor="start" x="209" y="-110.3" font-family="Helvetica,sans-Serif" font-size="11.00" fill="#000000">created_at</text>
<polygon fill="none" stroke="#000000" points="330,-103.2 330,-125.2 397,-125.2 397,-103.2 330,-103.2"/>
<text text-anchor="start" x="333" y="-110.9" font-family="Helvetica,sans-Serif" font-size="11.00" fill="#000000">datetime[19]</text>
<polygon fill="none" stroke="#000000" points="189,-81.2 189,-103.2 330,-103.2 330,-81.2 189,-81.2"/>
<text text-anchor="start" x="209" y="-88.3" font-family="Helvetica,sans-Serif" font-size="11.00" fill="#000000">updated_at</text>
<polygon fill="none" stroke="#000000" points="330,-81.2 330,-103.2 397,-103.2 397,-81.2 330,-81.2"/>
<text text-anchor="start" x="333" y="-88.9" font-family="Helvetica,sans-Serif" font-size="11.00" fill="#000000">datetime[19]</text>
<polygon fill="none" stroke="#000000" points="189,-59.2 189,-81.2 330,-81.2 330,-59.2 189,-59.2"/>
<text text-anchor="start" x="209" y="-66.3" font-family="Helvetica,sans-Serif" font-size="11.00" fill="#000000">deleted_at</text>
<polygon fill="none" stroke="#000000" points="330,-59.2 330,-81.2 397,-81.2 397,-59.2 330,-59.2"/>
<text text-anchor="start" x="333" y="-66.9" font-family="Helvetica,sans-Serif" font-size="11.00" fill="#000000">datetime[19]</text>
<polygon fill="#ffffff" stroke="transparent" points="189,-40.2 189,-59.2 264,-59.2 264,-40.2 189,-40.2"/>
<polygon fill="none" stroke="#000000" points="189,-40.2 189,-59.2 264,-59.2 264,-40.2 189,-40.2"/>
<text text-anchor="start" x="192" y="-46.3" font-family="Helvetica,sans-Serif" font-size="11.00" fill="#000000">&lt; 1</text>
<polygon fill="#ffffff" stroke="transparent" points="264,-40.2 264,-59.2 330,-59.2 330,-40.2 264,-40.2"/>
<polygon fill="none" stroke="#000000" points="264,-40.2 264,-59.2 330,-59.2 330,-40.2 264,-40.2"/>
<text text-anchor="start" x="320.8862" y="-46.3" font-family="Helvetica,sans-Serif" font-size="11.00" fill="#000000"> &#160;</text>
<polygon fill="#ffffff" stroke="transparent" points="330,-40.2 330,-59.2 397,-59.2 397,-40.2 330,-40.2"/>
<polygon fill="none" stroke="#000000" points="330,-40.2 330,-59.2 397,-59.2 397,-40.2 330,-40.2"/>
<text text-anchor="start" x="378.4053" y="-46.3" font-family="Helvetica,sans-Serif" font-size="11.00" fill="#000000">2 &gt;</text>
<polygon fill="none" stroke="#000000" stroke-width="2" points="188,-39.2 188,-281.2 398,-281.2 398,-39.2 188,-39.2"/>
</a>
</g>
</g>
<!-- adgroups_locations&#45;&gt;locations -->
<g id="edge2" class="edge">
<title>adgroups_locations:w&#45;&gt;locations:e</title>
<path fill="none" stroke="#000000" d="M434.1116,-336.1609C410.0536,-318.1688 438.5893,-246.2 397,-246.2"/>
<polygon fill="#000000" stroke="#000000" points="440.3183,-337.9659 446.9947,-343.6568 444.1591,-339.083 448,-340.2 448,-340.2 448,-340.2 444.1591,-339.083 449.0053,-336.7432 440.3183,-337.9659 440.3183,-337.9659"/>
<ellipse fill="none" stroke="#000000" cx="437.2456" cy="-337.0723" rx="3.2" ry="3.2"/>
</g>
<!-- location_owners -->
<g id="node4" class="node">
<title>location_owners</title>
<g id="a_node4"><a xlink:href="../../tables/location_owners.html" xlink:title="location_owners" target="_top">
<polygon fill="#ffffff" stroke="transparent" points="8,-175.7 8,-258.7 138,-258.7 138,-175.7 8,-175.7"/>
<polygon fill="#f5f5f5" stroke="transparent" points="8,-235.2 8,-258.2 138,-258.2 138,-235.2 8,-235.2"/>
<polygon fill="none" stroke="#000000" points="8,-235.2 8,-258.2 138,-258.2 138,-235.2 8,-235.2"/>
<text text-anchor="start" x="13" y="-244.3" font-family="Helvetica,sans-Serif" font-weight="bold" font-size="11.00" fill="#000000">location_owners</text>
<text text-anchor="start" x="103.0437" y="-243.3" font-family="Helvetica,sans-Serif" font-size="11.00" fill="#000000">[table]</text>
<polygon fill="none" stroke="#000000" points="8,-213.2 8,-235.2 138,-235.2 138,-213.2 8,-213.2"/>
<image xlink:href="../../images/primaryKeys.png" width="11px" height="12px" preserveAspectRatio="xMinYMin meet" x="13" y="-230.2"/>
<text text-anchor="start" x="28" y="-220.3" font-family="Helvetica,sans-Serif" font-size="11.00" fill="#000000">id</text>
<polygon fill="none" stroke="#000000" points="8,-194.2 8,-213.2 138,-213.2 138,-194.2 8,-194.2"/>
<text text-anchor="start" x="11" y="-200.3" font-family="Helvetica,sans-Serif" font-size="11.00" fill="#000000">...</text>
<polygon fill="#ffffff" stroke="transparent" points="8,-175.2 8,-194.2 62,-194.2 62,-175.2 8,-175.2"/>
<polygon fill="none" stroke="#000000" points="8,-175.2 8,-194.2 62,-194.2 62,-175.2 8,-175.2"/>
<text text-anchor="start" x="11" y="-181.3" font-family="Helvetica,sans-Serif" font-size="11.00" fill="#000000"> &#160;</text>
<polygon fill="#ffffff" stroke="transparent" points="62,-175.2 62,-194.2 95,-194.2 95,-175.2 62,-175.2"/>
<polygon fill="none" stroke="#000000" points="62,-175.2 62,-194.2 95,-194.2 95,-175.2 62,-175.2"/>
<text text-anchor="start" x="85.8862" y="-181.3" font-family="Helvetica,sans-Serif" font-size="11.00" fill="#000000"> &#160;</text>
<polygon fill="#ffffff" stroke="transparent" points="95,-175.2 95,-194.2 138,-194.2 138,-175.2 95,-175.2"/>
<polygon fill="none" stroke="#000000" points="95,-175.2 95,-194.2 138,-194.2 138,-175.2 95,-175.2"/>
<text text-anchor="start" x="119.4053" y="-181.3" font-family="Helvetica,sans-Serif" font-size="11.00" fill="#000000">1 &gt;</text>
</a>
</g>
</g>
<!-- locations&#45;&gt;location_owners -->
<g id="edge3" class="edge">
<title>locations:w&#45;&gt;location_owners:e</title>
<path fill="none" stroke="#000000" d="M174.276,-224.2C162.2815,-224.2 154.8229,-224.2 138,-224.2"/>
<polygon fill="#000000" stroke="#000000" points="181,-224.2001 189,-227.8 185,-224.2 189,-224.2 189,-224.2 189,-224.2 185,-224.2 189,-220.6 181,-224.2001 181,-224.2001"/>
<ellipse fill="none" stroke="#000000" cx="177.8" cy="-224.2001" rx="3.2" ry="3.2"/>
</g>
<!-- signages -->
<g id="node5" class="node">
<title>signages</title>
<g id="a_node5"><a xlink:href="../../tables/signages.html" xlink:title="signages" target="_top">
<polygon fill="#ffffff" stroke="transparent" points="475.5,-165.7 475.5,-270.7 572.5,-270.7 572.5,-165.7 475.5,-165.7"/>
<polygon fill="#f5f5f5" stroke="transparent" points="476,-247.2 476,-270.2 573,-270.2 573,-247.2 476,-247.2"/>
<polygon fill="none" stroke="#000000" points="476,-247.2 476,-270.2 573,-270.2 573,-247.2 476,-247.2"/>
<text text-anchor="start" x="481" y="-256.3" font-family="Helvetica,sans-Serif" font-weight="bold" font-size="11.00" fill="#000000">signages</text>
<text text-anchor="start" x="538.0437" y="-255.3" font-family="Helvetica,sans-Serif" font-size="11.00" fill="#000000">[table]</text>
<polygon fill="none" stroke="#000000" points="476,-225.2 476,-247.2 573,-247.2 573,-225.2 476,-225.2"/>
<image xlink:href="../../images/primaryKeys.png" width="11px" height="12px" preserveAspectRatio="xMinYMin meet" x="481" y="-242.2"/>
<text text-anchor="start" x="496" y="-232.3" font-family="Helvetica,sans-Serif" font-size="11.00" fill="#000000">id</text>
<polygon fill="#ffffff" stroke="transparent" points="476,-203.2 476,-225.2 573,-225.2 573,-203.2 476,-203.2"/>
<polygon fill="none" stroke="#000000" points="476,-203.2 476,-225.2 573,-225.2 573,-203.2 476,-203.2"/>
<image xlink:href="../../images/foreignKeys.png" width="11px" height="12px" preserveAspectRatio="xMinYMin meet" x="481" y="-220.2"/>
<text text-anchor="start" x="496" y="-210.3" font-family="Helvetica,sans-Serif" font-size="11.00" fill="#000000">location_id</text>
<polygon fill="none" stroke="#000000" points="476,-184.2 476,-203.2 573,-203.2 573,-184.2 476,-184.2"/>
<text text-anchor="start" x="479" y="-190.3" font-family="Helvetica,sans-Serif" font-size="11.00" fill="#000000">...</text>
<polygon fill="#ffffff" stroke="transparent" points="476,-165.2 476,-184.2 523,-184.2 523,-165.2 476,-165.2"/>
<polygon fill="none" stroke="#000000" points="476,-165.2 476,-184.2 523,-184.2 523,-165.2 476,-165.2"/>
<text text-anchor="start" x="479" y="-171.3" font-family="Helvetica,sans-Serif" font-size="11.00" fill="#000000">&lt; 1</text>
<polygon fill="#ffffff" stroke="transparent" points="523,-165.2 523,-184.2 548,-184.2 548,-165.2 523,-165.2"/>
<polygon fill="none" stroke="#000000" points="523,-165.2 523,-184.2 548,-184.2 548,-165.2 523,-165.2"/>
<text text-anchor="start" x="538.8862" y="-171.3" font-family="Helvetica,sans-Serif" font-size="11.00" fill="#000000"> &#160;</text>
<polygon fill="#ffffff" stroke="transparent" points="548,-165.2 548,-184.2 573,-184.2 573,-165.2 548,-165.2"/>
<polygon fill="none" stroke="#000000" points="548,-165.2 548,-184.2 573,-184.2 573,-165.2 548,-165.2"/>
<text text-anchor="start" x="563.8862" y="-171.3" font-family="Helvetica,sans-Serif" font-size="11.00" fill="#000000"> &#160;</text>
</a>
</g>
</g>
<!-- signages&#45;&gt;locations -->
<g id="edge4" class="edge">
<title>signages:w&#45;&gt;locations:e</title>
<path fill="none" stroke="#000000" d="M461.5365,-216.0121C436.4588,-222.7815 429.407,-246.2 397,-246.2"/>
<polygon fill="#000000" stroke="#000000" points="468.0621,-215.1946 476.4476,-217.7721 472.031,-214.6973 476,-214.2 476,-214.2 476,-214.2 472.031,-214.6973 475.5524,-210.6279 468.0621,-215.1946 468.0621,-215.1946"/>
<ellipse fill="none" stroke="#000000" cx="464.8869" cy="-215.5924" rx="3.2" ry="3.2"/>
</g>
</g>
</svg>
