<?xml version="1.0" encoding="UTF-8" standalone="no"?>
<!DOCTYPE svg PUBLIC "-//W3C//DTD SVG 1.1//EN"
 "http://www.w3.org/Graphics/SVG/1.1/DTD/svg11.dtd">
<!-- Generated by graphviz version 2.40.1 (20161225.0304)
 -->
<!-- Title: oneDegreeRelationshipsDiagram Pages: 1 -->
<svg width="415pt" height="293pt"
 viewBox="0.00 0.00 415.00 292.70" xmlns="http://www.w3.org/2000/svg" xmlns:xlink="http://www.w3.org/1999/xlink">
<g id="graph0" class="graph" transform="scale(1 1) rotate(0) translate(4 288.7)">
<title>oneDegreeRelationshipsDiagram</title>
<polygon fill="#ffffff" stroke="transparent" points="-4,4 -4,-288.7 411,-288.7 411,4 -4,4"/>
<text text-anchor="middle" x="72.4936" y="-7.3" font-family="Helvetica,sans-Serif" font-size="11.00" fill="#000000">Generated by SchemaSpy</text>
<!-- locations -->
<g id="node1" class="node">
<title>locations</title>
<g id="a_node1"><a xlink:href="../../tables/locations.html" xlink:title="locations" target="_top">
<polygon fill="#ffffff" stroke="transparent" points="258,-175.7 258,-280.7 399,-280.7 399,-175.7 258,-175.7"/>
<polygon fill="#f5f5f5" stroke="transparent" points="258.5,-257.2 258.5,-280.2 399.5,-280.2 399.5,-257.2 258.5,-257.2"/>
<polygon fill="none" stroke="#000000" points="258.5,-257.2 258.5,-280.2 399.5,-280.2 399.5,-257.2 258.5,-257.2"/>
<text text-anchor="start" x="263.5" y="-266.3" font-family="Helvetica,sans-Serif" font-weight="bold" font-size="11.00" fill="#000000">locations</text>
<text text-anchor="start" x="364.5437" y="-265.3" font-family="Helvetica,sans-Serif" font-size="11.00" fill="#000000">[table]</text>
<polygon fill="none" stroke="#000000" points="258.5,-235.2 258.5,-257.2 399.5,-257.2 399.5,-235.2 258.5,-235.2"/>
<image xlink:href="../../images/primaryKeys.png" width="11px" height="12px" preserveAspectRatio="xMinYMin meet" x="263.5" y="-252.2"/>
<text text-anchor="start" x="278.5" y="-242.3" font-family="Helvetica,sans-Serif" font-size="11.00" fill="#000000">id</text>
<polygon fill="#ffffff" stroke="transparent" points="258.5,-213.2 258.5,-235.2 399.5,-235.2 399.5,-213.2 258.5,-213.2"/>
<polygon fill="none" stroke="#000000" points="258.5,-213.2 258.5,-235.2 399.5,-235.2 399.5,-213.2 258.5,-213.2"/>
<image xlink:href="../../images/foreignKeys.png" width="11px" height="12px" preserveAspectRatio="xMinYMin meet" x="263.5" y="-230.2"/>
<text text-anchor="start" x="278.5" y="-220.3" font-family="Helvetica,sans-Serif" font-size="11.00" fill="#000000">location_owner_id</text>
<polygon fill="none" stroke="#000000" points="258.5,-194.2 258.5,-213.2 399.5,-213.2 399.5,-194.2 258.5,-194.2"/>
<text text-anchor="start" x="261.5" y="-200.3" font-family="Helvetica,sans-Serif" font-size="11.00" fill="#000000">...</text>
<polygon fill="#ffffff" stroke="transparent" points="258.5,-175.2 258.5,-194.2 322.5,-194.2 322.5,-175.2 258.5,-175.2"/>
<polygon fill="none" stroke="#000000" points="258.5,-175.2 258.5,-194.2 322.5,-194.2 322.5,-175.2 258.5,-175.2"/>
<text text-anchor="start" x="261.5" y="-181.3" font-family="Helvetica,sans-Serif" font-size="11.00" fill="#000000">&lt; 1</text>
<polygon fill="#ffffff" stroke="transparent" points="322.5,-175.2 322.5,-194.2 356.5,-194.2 356.5,-175.2 322.5,-175.2"/>
<polygon fill="none" stroke="#000000" points="322.5,-175.2 322.5,-194.2 356.5,-194.2 356.5,-175.2 322.5,-175.2"/>
<text text-anchor="start" x="347.3862" y="-181.3" font-family="Helvetica,sans-Serif" font-size="11.00" fill="#000000"> &#160;</text>
<polygon fill="#ffffff" stroke="transparent" points="356.5,-175.2 356.5,-194.2 399.5,-194.2 399.5,-175.2 356.5,-175.2"/>
<polygon fill="none" stroke="#000000" points="356.5,-175.2 356.5,-194.2 399.5,-194.2 399.5,-175.2 356.5,-175.2"/>
<text text-anchor="start" x="380.9053" y="-181.3" font-family="Helvetica,sans-Serif" font-size="11.00" fill="#000000">2 &gt;</text>
</a>
</g>
</g>
<!-- location_owners -->
<g id="node2" class="node">
<title>location_owners</title>
<g id="a_node2"><a xlink:href="../../tables/location_owners.html" xlink:title="location_owners" target="_top">
<polygon fill="#ffffff" stroke="transparent" points="8,-38.2 8,-260.2 209,-260.2 209,-38.2 8,-38.2"/>
<polygon fill="#f5f5f5" stroke="transparent" points="10.5,-235.2 10.5,-258.2 207.5,-258.2 207.5,-235.2 10.5,-235.2"/>
<polygon fill="none" stroke="#000000" points="10.5,-235.2 10.5,-258.2 207.5,-258.2 207.5,-235.2 10.5,-235.2"/>
<text text-anchor="start" x="15.5" y="-244.3" font-family="Helvetica,sans-Serif" font-weight="bold" font-size="11.00" fill="#000000">location_owners</text>
<text text-anchor="start" x="172.5437" y="-243.3" font-family="Helvetica,sans-Serif" font-size="11.00" fill="#000000">[table]</text>
<polygon fill="none" stroke="#000000" points="10.5,-213.2 10.5,-235.2 140.5,-235.2 140.5,-213.2 10.5,-213.2"/>
<image xlink:href="../../images/primaryKeys.png" width="11px" height="12px" preserveAspectRatio="xMinYMin meet" x="15.5" y="-230.2"/>
<text text-anchor="start" x="30.5" y="-220.3" font-family="Helvetica,sans-Serif" font-size="11.00" fill="#000000">id</text>
<polygon fill="none" stroke="#000000" points="140.5,-213.2 140.5,-235.2 207.5,-235.2 207.5,-213.2 140.5,-213.2"/>
<text text-anchor="start" x="143.5" y="-220.9" font-family="Helvetica,sans-Serif" font-size="11.00" fill="#000000">int[10]</text>
<polygon fill="none" stroke="#000000" points="10.5,-191.2 10.5,-213.2 140.5,-213.2 140.5,-191.2 10.5,-191.2"/>
<text text-anchor="start" x="30.5" y="-198.3" font-family="Helvetica,sans-Serif" font-size="11.00" fill="#000000">name</text>
<polygon fill="none" stroke="#000000" points="140.5,-191.2 140.5,-213.2 207.5,-213.2 207.5,-191.2 140.5,-191.2"/>
<text text-anchor="start" x="143.4365" y="-198.9" font-family="Helvetica,sans-Serif" font-size="11.00" fill="#000000">varchar[255]</text>
<polygon fill="none" stroke="#000000" points="10.5,-169.2 10.5,-191.2 140.5,-191.2 140.5,-169.2 10.5,-169.2"/>
<text text-anchor="start" x="30.5" y="-176.3" font-family="Helvetica,sans-Serif" font-size="11.00" fill="#000000">hoge</text>
<polygon fill="none" stroke="#000000" points="140.5,-169.2 140.5,-191.2 207.5,-191.2 207.5,-169.2 140.5,-169.2"/>
<text text-anchor="start" x="143.4365" y="-176.9" font-family="Helvetica,sans-Serif" font-size="11.00" fill="#000000">varchar[255]</text>
<polygon fill="none" stroke="#000000" points="10.5,-147.2 10.5,-169.2 140.5,-169.2 140.5,-147.2 10.5,-147.2"/>
<text text-anchor="start" x="30.5" y="-154.3" font-family="Helvetica,sans-Serif" font-size="11.00" fill="#000000">fuga</text>
<polygon fill="none" stroke="#000000" points="140.5,-147.2 140.5,-169.2 207.5,-169.2 207.5,-147.2 140.5,-147.2"/>
<text text-anchor="start" x="143.4365" y="-154.9" font-family="Helvetica,sans-Serif" font-size="11.00" fill="#000000">varchar[255]</text>
<polygon fill="none" stroke="#000000" points="10.5,-125.2 10.5,-147.2 140.5,-147.2 140.5,-125.2 10.5,-125.2"/>
<text text-anchor="start" x="30.5" y="-132.3" font-family="Helvetica,sans-Serif" font-size="11.00" fill="#000000">is_test</text>
<polygon fill="none" stroke="#000000" points="140.5,-125.2 140.5,-147.2 207.5,-147.2 207.5,-125.2 140.5,-125.2"/>
<text text-anchor="start" x="143.5" y="-132.9" font-family="Helvetica,sans-Serif" font-size="11.00" fill="#000000">bit[1]</text>
<polygon fill="none" stroke="#000000" points="10.5,-103.2 10.5,-125.2 140.5,-125.2 140.5,-103.2 10.5,-103.2"/>
<text text-anchor="start" x="30.5" y="-110.3" font-family="Helvetica,sans-Serif" font-size="11.00" fill="#000000">created_at</text>
<polygon fill="none" stroke="#000000" points="140.5,-103.2 140.5,-125.2 207.5,-125.2 207.5,-103.2 140.5,-103.2"/>
<text text-anchor="start" x="143.5" y="-110.9" font-family="Helvetica,sans-Serif" font-size="11.00" fill="#000000">datetime[19]</text>
<polygon fill="none" stroke="#000000" points="10.5,-81.2 10.5,-103.2 140.5,-103.2 140.5,-81.2 10.5,-81.2"/>
<text text-anchor="start" x="30.5" y="-88.3" font-family="Helvetica,sans-Serif" font-size="11.00" fill="#000000">updated_at</text>
<polygon fill="none" stroke="#000000" points="140.5,-81.2 140.5,-103.2 207.5,-103.2 207.5,-81.2 140.5,-81.2"/>
<text text-anchor="start" x="143.5" y="-88.9" font-family="Helvetica,sans-Serif" font-size="11.00" fill="#000000">datetime[19]</text>
<polygon fill="none" stroke="#000000" points="10.5,-59.2 10.5,-81.2 140.5,-81.2 140.5,-59.2 10.5,-59.2"/>
<text text-anchor="start" x="30.5" y="-66.3" font-family="Helvetica,sans-Serif" font-size="11.00" fill="#000000">deleted_at</text>
<polygon fill="none" stroke="#000000" points="140.5,-59.2 140.5,-81.2 207.5,-81.2 207.5,-59.2 140.5,-59.2"/>
<text text-anchor="start" x="143.5" y="-66.9" font-family="Helvetica,sans-Serif" font-size="11.00" fill="#000000">datetime[19]</text>
<polygon fill="#ffffff" stroke="transparent" points="10.5,-40.2 10.5,-59.2 79.5,-59.2 79.5,-40.2 10.5,-40.2"/>
<polygon fill="none" stroke="#000000" points="10.5,-40.2 10.5,-59.2 79.5,-59.2 79.5,-40.2 10.5,-40.2"/>
<text text-anchor="start" x="13.5" y="-46.3" font-family="Helvetica,sans-Serif" font-size="11.00" fill="#000000">&lt; 0</text>
<polygon fill="#ffffff" stroke="transparent" points="79.5,-40.2 79.5,-59.2 140.5,-59.2 140.5,-40.2 79.5,-40.2"/>
<polygon fill="none" stroke="#000000" points="79.5,-40.2 79.5,-59.2 140.5,-59.2 140.5,-40.2 79.5,-40.2"/>
<text text-anchor="start" x="131.3862" y="-46.3" font-family="Helvetica,sans-Serif" font-size="11.00" fill="#000000"> &#160;</text>
<polygon fill="#ffffff" stroke="transparent" points="140.5,-40.2 140.5,-59.2 207.5,-59.2 207.5,-40.2 140.5,-40.2"/>
<polygon fill="none" stroke="#000000" points="140.5,-40.2 140.5,-59.2 207.5,-59.2 207.5,-40.2 140.5,-40.2"/>
<text text-anchor="start" x="188.9053" y="-46.3" font-family="Helvetica,sans-Serif" font-size="11.00" fill="#000000">1 &gt;</text>
<polygon fill="none" stroke="#000000" stroke-width="2" points="9,-39.2 9,-259.2 208,-259.2 208,-39.2 9,-39.2"/>
</a>
</g>
</g>
<!-- locations&#45;&gt;location_owners -->
<g id="edge1" class="edge">
<title>locations:w&#45;&gt;location_owners:e</title>
<path fill="none" stroke="#000000" d="M243.776,-224.2C231.7815,-224.2 224.3229,-224.2 207.5,-224.2"/>
<polygon fill="#000000" stroke="#000000" points="250.5,-224.2001 258.5,-227.8 254.5,-224.2 258.5,-224.2 258.5,-224.2 258.5,-224.2 254.5,-224.2 258.5,-220.6 250.5,-224.2001 250.5,-224.2001"/>
<ellipse fill="none" stroke="#000000" cx="247.3" cy="-224.2001" rx="3.2" ry="3.2"/>
</g>
</g>
</svg>
