<?xml version="1.0" encoding="UTF-8" standalone="no"?>
<!DOCTYPE svg PUBLIC "-//W3C//DTD SVG 1.1//EN"
 "http://www.w3.org/Graphics/SVG/1.1/DTD/svg11.dtd">
<!-- Generated by graphviz version 2.40.1 (20161225.0304)
 -->
<!-- Title: oneDegreeRelationshipsDiagram Pages: 1 -->
<svg width="616pt" height="400pt"
 viewBox="0.00 0.00 616.00 399.70" xmlns="http://www.w3.org/2000/svg" xmlns:xlink="http://www.w3.org/1999/xlink">
<g id="graph0" class="graph" transform="scale(1 1) rotate(0) translate(4 395.7)">
<title>oneDegreeRelationshipsDiagram</title>
<polygon fill="#ffffff" stroke="transparent" points="-4,4 -4,-395.7 612,-395.7 612,4 -4,4"/>
<text text-anchor="middle" x="72.4936" y="-7.3" font-family="Helvetica,sans-Serif" font-size="11.00" fill="#000000">Generated by SchemaSpy</text>
<!-- adgroups_locations -->
<g id="node1" class="node">
<title>adgroups_locations</title>
<g id="a_node1"><a xlink:href="../../tables/adgroups_locations.html" xlink:title="adgroups_locations" target="_top">
<polygon fill="#ffffff" stroke="transparent" points="448,-260.7 448,-387.7 600,-387.7 600,-260.7 448,-260.7"/>
<polygon fill="#f5f5f5" stroke="transparent" points="448,-364.2 448,-387.2 600,-387.2 600,-364.2 448,-364.2"/>
<polygon fill="none" stroke="#000000" points="448,-364.2 448,-387.2 600,-387.2 600,-364.2 448,-364.2"/>
<text text-anchor="start" x="453" y="-373.3" font-family="Helvetica,sans-Serif" font-weight="bold" font-size="11.00" fill="#000000">adgroups_locations</text>
<text text-anchor="start" x="565.0437" y="-372.3" font-family="Helvetica,sans-Serif" font-size="11.00" fill="#000000">[table]</text>
<polygon fill="none" stroke="#000000" points="448,-342.2 448,-364.2 600,-364.2 600,-342.2 448,-342.2"/>
<image xlink:href="../../images/primaryKeys.png" width="11px" height="12px" preserveAspectRatio="xMinYMin meet" x="453" y="-359.2"/>
<text text-anchor="start" x="468" y="-349.3" font-family="Helvetica,sans-Serif" font-size="11.00" fill="#000000">id</text>
<polygon fill="#ffffff" stroke="transparent" points="448,-320.2 448,-342.2 600,-342.2 600,-320.2 448,-320.2"/>
<polygon fill="none" stroke="#000000" points="448,-320.2 448,-342.2 600,-342.2 600,-320.2 448,-320.2"/>
<image xlink:href="../../images/foreignKeys.png" width="11px" height="12px" preserveAspectRatio="xMinYMin meet" x="453" y="-337.2"/>
<text text-anchor="start" x="468" y="-327.3" font-family="Helvetica,sans-Serif" font-size="11.00" fill="#000000">adgroup_id</text>
<polygon fill="#ffffff" stroke="transparent" points="448,-298.2 448,-320.2 600,-320.2 600,-298.2 448,-298.2"/>
<polygon fill="none" stroke="#000000" points="448,-298.2 448,-320.2 600,-320.2 600,-298.2 448,-298.2"/>
<image xlink:href="../../images/foreignKeys.png" width="11px" height="12px" preserveAspectRatio="xMinYMin meet" x="453" y="-315.2"/>
<text text-anchor="start" x="468" y="-305.3" font-family="Helvetica,sans-Serif" font-size="11.00" fill="#000000">location_id</text>
<polygon fill="none" stroke="#000000" points="448,-279.2 448,-298.2 600,-298.2 600,-279.2 448,-279.2"/>
<text text-anchor="start" x="451" y="-285.3" font-family="Helvetica,sans-Serif" font-size="11.00" fill="#000000">...</text>
<polygon fill="#ffffff" stroke="transparent" points="448,-260.2 448,-279.2 522,-279.2 522,-260.2 448,-260.2"/>
<polygon fill="none" stroke="#000000" points="448,-260.2 448,-279.2 522,-279.2 522,-260.2 448,-260.2"/>
<text text-anchor="start" x="451" y="-266.3" font-family="Helvetica,sans-Serif" font-size="11.00" fill="#000000">&lt; 2</text>
<polygon fill="#ffffff" stroke="transparent" points="522,-260.2 522,-279.2 561,-279.2 561,-260.2 522,-260.2"/>
<polygon fill="none" stroke="#000000" points="522,-260.2 522,-279.2 561,-279.2 561,-260.2 522,-260.2"/>
<text text-anchor="start" x="551.8862" y="-266.3" font-family="Helvetica,sans-Serif" font-size="11.00" fill="#000000"> &#160;</text>
<polygon fill="#ffffff" stroke="transparent" points="561,-260.2 561,-279.2 600,-279.2 600,-260.2 561,-260.2"/>
<polygon fill="none" stroke="#000000" points="561,-260.2 561,-279.2 600,-279.2 600,-260.2 561,-260.2"/>
<text text-anchor="start" x="590.8862" y="-266.3" font-family="Helvetica,sans-Serif" font-size="11.00" fill="#000000"> &#160;</text>
</a>
</g>
</g>
<!-- locations -->
<g id="node2" class="node">
<title>locations</title>
<g id="a_node2"><a xlink:href="../../tables/locations.html" xlink:title="locations" target="_top">
<polygon fill="#ffffff" stroke="transparent" points="187,-38.2 187,-282.2 399,-282.2 399,-38.2 187,-38.2"/>
<polygon fill="#f5f5f5" stroke="transparent" points="189,-257.2 189,-280.2 397,-280.2 397,-257.2 189,-257.2"/>
<polygon fill="none" stroke="#000000" points="189,-257.2 189,-280.2 397,-280.2 397,-257.2 189,-257.2"/>
<text text-anchor="start" x="194" y="-266.3" font-family="Helvetica,sans-Serif" font-weight="bold" font-size="11.00" fill="#000000">locations</text>
<text text-anchor="start" x="362.0437" y="-265.3" font-family="Helvetica,sans-Serif" font-size="11.00" fill="#000000">[table]</text>
<polygon fill="none" stroke="#000000" points="189,-235.2 189,-257.2 330,-257.2 330,-235.2 189,-235.2"/>
<image xlink:href="../../images/primaryKeys.png" width="11px" height="12px" preserveAspectRatio="xMinYMin meet" x="194" y="-252.2"/>
<text text-anchor="start" x="209" y="-242.3" font-family="Helvetica,sans-Serif" font-size="11.00" fill="#000000">id</text>
<polygon fill="none" stroke="#000000" points="330,-235.2 330,-257.2 397,-257.2 397,-235.2 330,-235.2"/>
<text text-anchor="start" x="333" y="-242.9" font-family="Helvetica,sans-Serif" font-size="11.00" fill="#000000">int[10]</text>
<polygon fill="#ffffff" stroke="transparent" points="189,-213.2 189,-235.2 330,-235.2 330,-213.2 189,-213.2"/>
<polygon fill="none" stroke="#000000" points="189,-213.2 189,-235.2 330,-235.2 330,-213.2 189,-213.2"/>
<image xlink:href="../../images/foreignKeys.png" width="11px" height="12px" preserveAspectRatio="xMinYMin meet" x="194" y="-230.2"/>
<text text-anchor="start" x="209" y="-220.3" font-family="Helvetica,sans-Serif" font-size="11.00" fill="#000000">location_owner_id</text>
<polygon fill="none" stroke="#000000" points="330,-213.2 330,-235.2 397,-235.2 397,-213.2 330,-213.2"/>
<text text-anchor="start" x="333" y="-220.9" font-family="Helvetica,sans-Serif" font-size="11.00" fill="#000000">int[10]</text>
<polygon fill="none" stroke="#000000" points="189,-191.2 189,-213.2 330,-213.2 330,-191.2 189,-191.2"/>
<text text-anchor="start" x="209" y="-198.3" font-family="Helvetica,sans-Serif" font-size="11.00" fill="#000000">name</text>
<polygon fill="none" stroke="#000000" points="330,-191.2 330,-213.2 397,-213.2 397,-191.2 330,-191.2"/>
<text text-anchor="start" x="332.9365" y="-198.9" font-family="Helvetica,sans-Serif" font-size="11.00" fill="#000000">varchar[255]</text>
<polygon fill="none" stroke="#000000" points="189,-169.2 189,-191.2 330,-191.2 330,-169.2 189,-169.2"/>
<text text-anchor="start" x="209" y="-176.3" font-family="Helvetica,sans-Serif" font-size="11.00" fill="#000000">address</text>
<polygon fill="none" stroke="#000000" points="330,-169.2 330,-191.2 397,-191.2 397,-169.2 330,-169.2"/>
<text text-anchor="start" x="332.9365" y="-176.9" font-family="Helvetica,sans-Serif" font-size="11.00" fill="#000000">varchar[255]</text>
<polygon fill="none" stroke="#000000" points="189,-147.2 189,-169.2 330,-169.2 330,-147.2 189,-147.2"/>
<text text-anchor="start" x="209" y="-154.3" font-family="Helvetica,sans-Serif" font-size="11.00" fill="#000000">latitude</text>
<polygon fill="none" stroke="#000000" points="330,-147.2 330,-169.2 397,-169.2 397,-147.2 330,-147.2"/>
<text text-anchor="start" x="333" y="-154.9" font-family="Helvetica,sans-Serif" font-size="11.00" fill="#000000">double[22]</text>
<polygon fill="none" stroke="#000000" points="189,-125.2 189,-147.2 330,-147.2 330,-125.2 189,-125.2"/>
<text text-anchor="start" x="209" y="-132.3" font-family="Helvetica,sans-Serif" font-size="11.00" fill="#000000">longitude</text>
<polygon fill="none" stroke="#000000" points="330,-125.2 330,-147.2 397,-147.2 397,-125.2 330,-125.2"/>
<text text-anchor="start" x="333" y="-132.9" font-family="Helvetica,sans-Serif" font-size="11.00" fill="#000000">double[22]</text>
<polygon fill="none" stroke="#000000" points="189,-103.2 189,-125.2 330,-125.2 330,-103.2 189,-103.2"/>
<text text-anchor="start" x="209" y="-110.3" font-family="Helvetica,sans-Serif" font-size="11.00" fill="#000000">created_at</text>
<polygon fill="none" stroke="#000000" points="330,-103.2 330,-125.2 397,-125.2 397,-103.2 330,-103.2"/>
<text text-anchor="start" x="333" y="-110.9" font-family="Helvetica,sans-Serif" font-size="11.00" fill="#000000">datetime[19]</text>
<polygon fill="none" stroke="#000000" points="189,-81.2 189,-103.2 330,-103.2 330,-81.2 189,-81.2"/>
<text text-anchor="start" x="209" y="-88.3" font-family="Helvetica,sans-Serif" font-size="11.00" fill="#000000">updated_at</text>
<polygon fill="none" stroke="#000000" points="330,-81.2 330,-103.2 397,-103.2 397,-81.2 330,-81.2"/>
<text text-anchor="start" x="333" y="-88.9" font-family="Helvetica,sans-Serif" font-size="11.00" fill="#000000">datetime[19]</text>
<polygon fill="none" stroke="#000000" points="189,-59.2 189,-81.2 330,-81.2 330,-59.2 189,-59.2"/>
<text text-anchor="start" x="209" y="-66.3" font-family="Helvetica,sans-Serif" font-size="11.00" fill="#000000">deleted_at</text>
<polygon fill="none" stroke="#000000" points="330,-59.2 330,-81.2 397,-81.2 397,-59.2 330,-59.2"/>
<text text-anchor="start" x="333" y="-66.9" font-family="Helvetica,sans-Serif" font-size="11.00" fill="#000000">datetime[19]</text>
<polygon fill="#ffffff" stroke="transparent" points="189,-40.2 189,-59.2 264,-59.2 264,-40.2 189,-40.2"/>
<polygon fill="none" stroke="#000000" points="189,-40.2 189,-59.2 264,-59.2 264,-40.2 189,-40.2"/>
<text text-anchor="start" x="192" y="-46.3" font-family="Helvetica,sans-Serif" font-size="11.00" fill="#000000">&lt; 1</text>
<polygon fill="#ffffff" stroke="transparent" points="264,-40.2 264,-59.2 330,-59.2 330,-40.2 264,-40.2"/>
<polygon fill="none" stroke="#000000" points="264,-40.2 264,-59.2 330,-59.2 330,-40.2 264,-40.2"/>
<text text-anchor="start" x="320.8862" y="-46.3" font-family="Helvetica,sans-Serif" font-size="11.00" fill="#000000"> &#160;</text>
<polygon fill="#ffffff" stroke="transparent" points="330,-40.2 330,-59.2 397,-59.2 397,-40.2 330,-40.2"/>
<polygon fill="none" stroke="#000000" points="330,-40.2 330,-59.2 397,-59.2 397,-40.2 330,-40.2"/>
<text text-anchor="start" x="378.4053" y="-46.3" font-family="Helvetica,sans-Serif" font-size="11.00" fill="#000000">2 &gt;</text>
<polygon fill="none" stroke="#000000" stroke-width="2" points="188,-39.2 188,-281.2 398,-281.2 398,-39.2 188,-39.2"/>
</a>
</g>
</g>
<!-- adgroups_locations&#45;&gt;locations -->
<g id="edge1" class="edge">
<title>adgroups_locations:w&#45;&gt;locations:e</title>
<path fill="none" stroke="#000000" d="M433.9033,-304.2565C417.525,-289.4048 426.8329,-246.2 397,-246.2"/>
<polygon fill="#000000" stroke="#000000" points="440.4507,-306.5526 446.8087,-312.5972 444.2254,-307.8763 448,-309.2 448,-309.2 448,-309.2 444.2254,-307.8763 449.1913,-305.8028 440.4507,-306.5526 440.4507,-306.5526"/>
<ellipse fill="none" stroke="#000000" cx="437.431" cy="-305.4936" rx="3.2" ry="3.2"/>
</g>
<!-- location_owners -->
<g id="node3" class="node">
<title>location_owners</title>
<g id="a_node3"><a xlink:href="../../tables/location_owners.html" xlink:title="location_owners" target="_top">
<polygon fill="#ffffff" stroke="transparent" points="8,-175.7 8,-258.7 138,-258.7 138,-175.7 8,-175.7"/>
<polygon fill="#f5f5f5" stroke="transparent" points="8,-235.2 8,-258.2 138,-258.2 138,-235.2 8,-235.2"/>
<polygon fill="none" stroke="#000000" points="8,-235.2 8,-258.2 138,-258.2 138,-235.2 8,-235.2"/>
<text text-anchor="start" x="13" y="-244.3" font-family="Helvetica,sans-Serif" font-weight="bold" font-size="11.00" fill="#000000">location_owners</text>
<text text-anchor="start" x="103.0437" y="-243.3" font-family="Helvetica,sans-Serif" font-size="11.00" fill="#000000">[table]</text>
<polygon fill="none" stroke="#000000" points="8,-213.2 8,-235.2 138,-235.2 138,-213.2 8,-213.2"/>
<image xlink:href="../../images/primaryKeys.png" width="11px" height="12px" preserveAspectRatio="xMinYMin meet" x="13" y="-230.2"/>
<text text-anchor="start" x="28" y="-220.3" font-family="Helvetica,sans-Serif" font-size="11.00" fill="#000000">id</text>
<polygon fill="none" stroke="#000000" points="8,-194.2 8,-213.2 138,-213.2 138,-194.2 8,-194.2"/>
<text text-anchor="start" x="11" y="-200.3" font-family="Helvetica,sans-Serif" font-size="11.00" fill="#000000">...</text>
<polygon fill="#ffffff" stroke="transparent" points="8,-175.2 8,-194.2 62,-194.2 62,-175.2 8,-175.2"/>
<polygon fill="none" stroke="#000000" points="8,-175.2 8,-194.2 62,-194.2 62,-175.2 8,-175.2"/>
<text text-anchor="start" x="11" y="-181.3" font-family="Helvetica,sans-Serif" font-size="11.00" fill="#000000"> &#160;</text>
<polygon fill="#ffffff" stroke="transparent" points="62,-175.2 62,-194.2 95,-194.2 95,-175.2 62,-175.2"/>
<polygon fill="none" stroke="#000000" points="62,-175.2 62,-194.2 95,-194.2 95,-175.2 62,-175.2"/>
<text text-anchor="start" x="85.8862" y="-181.3" font-family="Helvetica,sans-Serif" font-size="11.00" fill="#000000"> &#160;</text>
<polygon fill="#ffffff" stroke="transparent" points="95,-175.2 95,-194.2 138,-194.2 138,-175.2 95,-175.2"/>
<polygon fill="none" stroke="#000000" points="95,-175.2 95,-194.2 138,-194.2 138,-175.2 95,-175.2"/>
<text text-anchor="start" x="119.4053" y="-181.3" font-family="Helvetica,sans-Serif" font-size="11.00" fill="#000000">1 &gt;</text>
</a>
</g>
</g>
<!-- locations&#45;&gt;location_owners -->
<g id="edge2" class="edge">
<title>locations:w&#45;&gt;location_owners:e</title>
<path fill="none" stroke="#000000" d="M174.276,-224.2C162.2815,-224.2 154.8229,-224.2 138,-224.2"/>
<polygon fill="#000000" stroke="#000000" points="181,-224.2001 189,-227.8 185,-224.2 189,-224.2 189,-224.2 189,-224.2 185,-224.2 189,-220.6 181,-224.2001 181,-224.2001"/>
<ellipse fill="none" stroke="#000000" cx="177.8" cy="-224.2001" rx="3.2" ry="3.2"/>
</g>
<!-- signages -->
<g id="node4" class="node">
<title>signages</title>
<g id="a_node4"><a xlink:href="../../tables/signages.html" xlink:title="signages" target="_top">
<polygon fill="#ffffff" stroke="transparent" points="475.5,-134.7 475.5,-239.7 572.5,-239.7 572.5,-134.7 475.5,-134.7"/>
<polygon fill="#f5f5f5" stroke="transparent" points="476,-216.2 476,-239.2 573,-239.2 573,-216.2 476,-216.2"/>
<polygon fill="none" stroke="#000000" points="476,-216.2 476,-239.2 573,-239.2 573,-216.2 476,-216.2"/>
<text text-anchor="start" x="481" y="-225.3" font-family="Helvetica,sans-Serif" font-weight="bold" font-size="11.00" fill="#000000">signages</text>
<text text-anchor="start" x="538.0437" y="-224.3" font-family="Helvetica,sans-Serif" font-size="11.00" fill="#000000">[table]</text>
<polygon fill="none" stroke="#000000" points="476,-194.2 476,-216.2 573,-216.2 573,-194.2 476,-194.2"/>
<image xlink:href="../../images/primaryKeys.png" width="11px" height="12px" preserveAspectRatio="xMinYMin meet" x="481" y="-211.2"/>
<text text-anchor="start" x="496" y="-201.3" font-family="Helvetica,sans-Serif" font-size="11.00" fill="#000000">id</text>
<polygon fill="#ffffff" stroke="transparent" points="476,-172.2 476,-194.2 573,-194.2 573,-172.2 476,-172.2"/>
<polygon fill="none" stroke="#000000" points="476,-172.2 476,-194.2 573,-194.2 573,-172.2 476,-172.2"/>
<image xlink:href="../../images/foreignKeys.png" width="11px" height="12px" preserveAspectRatio="xMinYMin meet" x="481" y="-189.2"/>
<text text-anchor="start" x="496" y="-179.3" font-family="Helvetica,sans-Serif" font-size="11.00" fill="#000000">location_id</text>
<polygon fill="none" stroke="#000000" points="476,-153.2 476,-172.2 573,-172.2 573,-153.2 476,-153.2"/>
<text text-anchor="start" x="479" y="-159.3" font-family="Helvetica,sans-Serif" font-size="11.00" fill="#000000">...</text>
<polygon fill="#ffffff" stroke="transparent" points="476,-134.2 476,-153.2 523,-153.2 523,-134.2 476,-134.2"/>
<polygon fill="none" stroke="#000000" points="476,-134.2 476,-153.2 523,-153.2 523,-134.2 476,-134.2"/>
<text text-anchor="start" x="479" y="-140.3" font-family="Helvetica,sans-Serif" font-size="11.00" fill="#000000">&lt; 1</text>
<polygon fill="#ffffff" stroke="transparent" points="523,-134.2 523,-153.2 548,-153.2 548,-134.2 523,-134.2"/>
<polygon fill="none" stroke="#000000" points="523,-134.2 523,-153.2 548,-153.2 548,-134.2 523,-134.2"/>
<text text-anchor="start" x="538.8862" y="-140.3" font-family="Helvetica,sans-Serif" font-size="11.00" fill="#000000"> &#160;</text>
<polygon fill="#ffffff" stroke="transparent" points="548,-134.2 548,-153.2 573,-153.2 573,-134.2 548,-134.2"/>
<polygon fill="none" stroke="#000000" points="548,-134.2 548,-153.2 573,-153.2 573,-134.2 548,-134.2"/>
<text text-anchor="start" x="563.8862" y="-140.3" font-family="Helvetica,sans-Serif" font-size="11.00" fill="#000000"> &#160;</text>
</a>
</g>
</g>
<!-- signages&#45;&gt;locations -->
<g id="edge3" class="edge">
<title>signages:w&#45;&gt;locations:e</title>
<path fill="none" stroke="#000000" d="M461.5537,-185.907C432.9249,-197.9656 436.2951,-246.2 397,-246.2"/>
<polygon fill="#000000" stroke="#000000" points="468.1369,-184.6735 476.6631,-186.7384 472.0684,-183.9367 476,-183.2 476,-183.2 476,-183.2 472.0684,-183.9367 475.3369,-179.6616 468.1369,-184.6735 468.1369,-184.6735"/>
<ellipse fill="none" stroke="#000000" cx="464.9916" cy="-185.2629" rx="3.2" ry="3.2"/>
</g>
</g>
</svg>
