<?xml version="1.0" encoding="UTF-8" standalone="no"?>
<!DOCTYPE svg PUBLIC "-//W3C//DTD SVG 1.1//EN"
 "http://www.w3.org/Graphics/SVG/1.1/DTD/svg11.dtd">
<!-- Generated by graphviz version 2.40.1 (20161225.0304)
 -->
<!-- Title: twoDegreesRelationshipsDiagram Pages: 1 -->
<svg width="602pt" height="311pt"
 viewBox="0.00 0.00 602.00 310.70" xmlns="http://www.w3.org/2000/svg" xmlns:xlink="http://www.w3.org/1999/xlink">
<g id="graph0" class="graph" transform="scale(1 1) rotate(0) translate(4 306.7)">
<title>twoDegreesRelationshipsDiagram</title>
<polygon fill="#ffffff" stroke="transparent" points="-4,4 -4,-306.7 598,-306.7 598,4 -4,4"/>
<text text-anchor="middle" x="72.4936" y="-7.3" font-family="Helvetica,sans-Serif" font-size="11.00" fill="#000000">Generated by SchemaSpy</text>
<!-- adgroups_locations -->
<g id="node1" class="node">
<title>adgroups_locations</title>
<g id="a_node1"><a xlink:href="../../tables/adgroups_locations.html" xlink:title="adgroups_locations" target="_top">
<polygon fill="#ffffff" stroke="transparent" points="448,-237.7 448,-298.7 586,-298.7 586,-237.7 448,-237.7"/>
<polygon fill="#f5f5f5" stroke="transparent" points="448,-275.2 448,-298.2 586,-298.2 586,-275.2 448,-275.2"/>
<polygon fill="none" stroke="#000000" points="448,-275.2 448,-298.2 586,-298.2 586,-275.2 448,-275.2"/>
<text text-anchor="start" x="452.8178" y="-284.3" font-family="Helvetica,sans-Serif" font-weight="bold" font-size="11.00" fill="#000000">adgroups_locations</text>
<text text-anchor="start" x="551.5219" y="-283.3" font-family="Helvetica,sans-Serif" font-size="11.00" fill="#000000">[table]</text>
<polygon fill="none" stroke="#000000" points="448,-256.2 448,-275.2 586,-275.2 586,-256.2 448,-256.2"/>
<text text-anchor="start" x="451" y="-262.3" font-family="Helvetica,sans-Serif" font-size="11.00" fill="#000000">...</text>
<polygon fill="#ffffff" stroke="transparent" points="448,-237.2 448,-256.2 515,-256.2 515,-237.2 448,-237.2"/>
<polygon fill="none" stroke="#000000" points="448,-237.2 448,-256.2 515,-256.2 515,-237.2 448,-237.2"/>
<text text-anchor="start" x="451" y="-243.3" font-family="Helvetica,sans-Serif" font-size="11.00" fill="#000000">&lt; 2</text>
<polygon fill="#ffffff" stroke="transparent" points="515,-237.2 515,-256.2 550,-256.2 550,-237.2 515,-237.2"/>
<polygon fill="none" stroke="#000000" points="515,-237.2 515,-256.2 550,-256.2 550,-237.2 515,-237.2"/>
<text text-anchor="start" x="540.8862" y="-243.3" font-family="Helvetica,sans-Serif" font-size="11.00" fill="#000000"> &#160;</text>
<polygon fill="#ffffff" stroke="transparent" points="550,-237.2 550,-256.2 586,-256.2 586,-237.2 550,-237.2"/>
<polygon fill="none" stroke="#000000" points="550,-237.2 550,-256.2 586,-256.2 586,-237.2 550,-237.2"/>
<text text-anchor="start" x="576.8862" y="-243.3" font-family="Helvetica,sans-Serif" font-size="11.00" fill="#000000"> &#160;</text>
</a>
</g>
</g>
<!-- locations -->
<g id="node2" class="node">
<title>locations</title>
<g id="a_node2"><a xlink:href="../../tables/locations.html" xlink:title="locations" target="_top">
<polygon fill="#ffffff" stroke="transparent" points="258,-153.7 258,-258.7 399,-258.7 399,-153.7 258,-153.7"/>
<polygon fill="#f5f5f5" stroke="transparent" points="258.5,-235.2 258.5,-258.2 399.5,-258.2 399.5,-235.2 258.5,-235.2"/>
<polygon fill="none" stroke="#000000" points="258.5,-235.2 258.5,-258.2 399.5,-258.2 399.5,-235.2 258.5,-235.2"/>
<text text-anchor="start" x="263.5" y="-244.3" font-family="Helvetica,sans-Serif" font-weight="bold" font-size="11.00" fill="#000000">locations</text>
<text text-anchor="start" x="364.5437" y="-243.3" font-family="Helvetica,sans-Serif" font-size="11.00" fill="#000000">[table]</text>
<polygon fill="none" stroke="#000000" points="258.5,-213.2 258.5,-235.2 399.5,-235.2 399.5,-213.2 258.5,-213.2"/>
<image xlink:href="../../images/primaryKeys.png" width="11px" height="12px" preserveAspectRatio="xMinYMin meet" x="263.5" y="-230.2"/>
<text text-anchor="start" x="278.5" y="-220.3" font-family="Helvetica,sans-Serif" font-size="11.00" fill="#000000">id</text>
<polygon fill="#ffffff" stroke="transparent" points="258.5,-191.2 258.5,-213.2 399.5,-213.2 399.5,-191.2 258.5,-191.2"/>
<polygon fill="none" stroke="#000000" points="258.5,-191.2 258.5,-213.2 399.5,-213.2 399.5,-191.2 258.5,-191.2"/>
<image xlink:href="../../images/foreignKeys.png" width="11px" height="12px" preserveAspectRatio="xMinYMin meet" x="263.5" y="-208.2"/>
<text text-anchor="start" x="278.5" y="-198.3" font-family="Helvetica,sans-Serif" font-size="11.00" fill="#000000">location_owner_id</text>
<polygon fill="none" stroke="#000000" points="258.5,-172.2 258.5,-191.2 399.5,-191.2 399.5,-172.2 258.5,-172.2"/>
<text text-anchor="start" x="261.5" y="-178.3" font-family="Helvetica,sans-Serif" font-size="11.00" fill="#000000">...</text>
<polygon fill="#ffffff" stroke="transparent" points="258.5,-153.2 258.5,-172.2 322.5,-172.2 322.5,-153.2 258.5,-153.2"/>
<polygon fill="none" stroke="#000000" points="258.5,-153.2 258.5,-172.2 322.5,-172.2 322.5,-153.2 258.5,-153.2"/>
<text text-anchor="start" x="261.5" y="-159.3" font-family="Helvetica,sans-Serif" font-size="11.00" fill="#000000">&lt; 1</text>
<polygon fill="#ffffff" stroke="transparent" points="322.5,-153.2 322.5,-172.2 356.5,-172.2 356.5,-153.2 322.5,-153.2"/>
<polygon fill="none" stroke="#000000" points="322.5,-153.2 322.5,-172.2 356.5,-172.2 356.5,-153.2 322.5,-153.2"/>
<text text-anchor="start" x="347.3862" y="-159.3" font-family="Helvetica,sans-Serif" font-size="11.00" fill="#000000"> &#160;</text>
<polygon fill="#ffffff" stroke="transparent" points="356.5,-153.2 356.5,-172.2 399.5,-172.2 399.5,-153.2 356.5,-153.2"/>
<polygon fill="none" stroke="#000000" points="356.5,-153.2 356.5,-172.2 399.5,-172.2 399.5,-153.2 356.5,-153.2"/>
<text text-anchor="start" x="380.9053" y="-159.3" font-family="Helvetica,sans-Serif" font-size="11.00" fill="#000000">2 &gt;</text>
</a>
</g>
</g>
<!-- adgroups_locations&#45;&gt;locations -->
<g id="edge1" class="edge">
<title>adgroups_locations:w&#45;&gt;locations:e</title>
<path fill="none" stroke="#000000" d="M434.2884,-260.4968C421.5191,-249.7274 421.7719,-224.2 399.5,-224.2"/>
<polygon fill="#000000" stroke="#000000" points="440.4328,-262.6043 446.8319,-268.6052 444.2164,-263.9022 448,-265.2 448,-265.2 448,-265.2 444.2164,-263.9022 449.1681,-261.7948 440.4328,-262.6043 440.4328,-262.6043"/>
<ellipse fill="none" stroke="#000000" cx="437.4059" cy="-261.5661" rx="3.2" ry="3.2"/>
</g>
<!-- location_owners -->
<g id="node3" class="node">
<title>location_owners</title>
<g id="a_node3"><a xlink:href="../../tables/location_owners.html" xlink:title="location_owners" target="_top">
<polygon fill="#ffffff" stroke="transparent" points="8,-38.2 8,-238.2 209,-238.2 209,-38.2 8,-38.2"/>
<polygon fill="#f5f5f5" stroke="transparent" points="10.5,-213.2 10.5,-236.2 207.5,-236.2 207.5,-213.2 10.5,-213.2"/>
<polygon fill="none" stroke="#000000" points="10.5,-213.2 10.5,-236.2 207.5,-236.2 207.5,-213.2 10.5,-213.2"/>
<text text-anchor="start" x="15.5" y="-222.3" font-family="Helvetica,sans-Serif" font-weight="bold" font-size="11.00" fill="#000000">location_owners</text>
<text text-anchor="start" x="172.5437" y="-221.3" font-family="Helvetica,sans-Serif" font-size="11.00" fill="#000000">[table]</text>
<polygon fill="none" stroke="#000000" points="10.5,-191.2 10.5,-213.2 140.5,-213.2 140.5,-191.2 10.5,-191.2"/>
<image xlink:href="../../images/primaryKeys.png" width="11px" height="12px" preserveAspectRatio="xMinYMin meet" x="15.5" y="-208.2"/>
<text text-anchor="start" x="30.5" y="-198.3" font-family="Helvetica,sans-Serif" font-size="11.00" fill="#000000">id</text>
<polygon fill="none" stroke="#000000" points="140.5,-191.2 140.5,-213.2 207.5,-213.2 207.5,-191.2 140.5,-191.2"/>
<text text-anchor="start" x="143.5" y="-198.9" font-family="Helvetica,sans-Serif" font-size="11.00" fill="#000000">int[10]</text>
<polygon fill="none" stroke="#000000" points="10.5,-169.2 10.5,-191.2 140.5,-191.2 140.5,-169.2 10.5,-169.2"/>
<text text-anchor="start" x="30.5" y="-176.3" font-family="Helvetica,sans-Serif" font-size="11.00" fill="#000000">name</text>
<polygon fill="none" stroke="#000000" points="140.5,-169.2 140.5,-191.2 207.5,-191.2 207.5,-169.2 140.5,-169.2"/>
<text text-anchor="start" x="143.4365" y="-176.9" font-family="Helvetica,sans-Serif" font-size="11.00" fill="#000000">varchar[255]</text>
<polygon fill="none" stroke="#000000" points="10.5,-147.2 10.5,-169.2 140.5,-169.2 140.5,-147.2 10.5,-147.2"/>
<text text-anchor="start" x="30.5" y="-154.3" font-family="Helvetica,sans-Serif" font-size="11.00" fill="#000000">hoge</text>
<polygon fill="none" stroke="#000000" points="140.5,-147.2 140.5,-169.2 207.5,-169.2 207.5,-147.2 140.5,-147.2"/>
<text text-anchor="start" x="143.4365" y="-154.9" font-family="Helvetica,sans-Serif" font-size="11.00" fill="#000000">varchar[255]</text>
<polygon fill="none" stroke="#000000" points="10.5,-125.2 10.5,-147.2 140.5,-147.2 140.5,-125.2 10.5,-125.2"/>
<text text-anchor="start" x="30.5" y="-132.3" font-family="Helvetica,sans-Serif" font-size="11.00" fill="#000000">is_test</text>
<polygon fill="none" stroke="#000000" points="140.5,-125.2 140.5,-147.2 207.5,-147.2 207.5,-125.2 140.5,-125.2"/>
<text text-anchor="start" x="143.5" y="-132.9" font-family="Helvetica,sans-Serif" font-size="11.00" fill="#000000">bit[1]</text>
<polygon fill="none" stroke="#000000" points="10.5,-103.2 10.5,-125.2 140.5,-125.2 140.5,-103.2 10.5,-103.2"/>
<text text-anchor="start" x="30.5" y="-110.3" font-family="Helvetica,sans-Serif" font-size="11.00" fill="#000000">created_at</text>
<polygon fill="none" stroke="#000000" points="140.5,-103.2 140.5,-125.2 207.5,-125.2 207.5,-103.2 140.5,-103.2"/>
<text text-anchor="start" x="143.5" y="-110.9" font-family="Helvetica,sans-Serif" font-size="11.00" fill="#000000">datetime[19]</text>
<polygon fill="none" stroke="#000000" points="10.5,-81.2 10.5,-103.2 140.5,-103.2 140.5,-81.2 10.5,-81.2"/>
<text text-anchor="start" x="30.5" y="-88.3" font-family="Helvetica,sans-Serif" font-size="11.00" fill="#000000">updated_at</text>
<polygon fill="none" stroke="#000000" points="140.5,-81.2 140.5,-103.2 207.5,-103.2 207.5,-81.2 140.5,-81.2"/>
<text text-anchor="start" x="143.5" y="-88.9" font-family="Helvetica,sans-Serif" font-size="11.00" fill="#000000">datetime[19]</text>
<polygon fill="none" stroke="#000000" points="10.5,-59.2 10.5,-81.2 140.5,-81.2 140.5,-59.2 10.5,-59.2"/>
<text text-anchor="start" x="30.5" y="-66.3" font-family="Helvetica,sans-Serif" font-size="11.00" fill="#000000">deleted_at</text>
<polygon fill="none" stroke="#000000" points="140.5,-59.2 140.5,-81.2 207.5,-81.2 207.5,-59.2 140.5,-59.2"/>
<text text-anchor="start" x="143.5" y="-66.9" font-family="Helvetica,sans-Serif" font-size="11.00" fill="#000000">datetime[19]</text>
<polygon fill="#ffffff" stroke="transparent" points="10.5,-40.2 10.5,-59.2 79.5,-59.2 79.5,-40.2 10.5,-40.2"/>
<polygon fill="none" stroke="#000000" points="10.5,-40.2 10.5,-59.2 79.5,-59.2 79.5,-40.2 10.5,-40.2"/>
<text text-anchor="start" x="13.5" y="-46.3" font-family="Helvetica,sans-Serif" font-size="11.00" fill="#000000">&lt; 0</text>
<polygon fill="#ffffff" stroke="transparent" points="79.5,-40.2 79.5,-59.2 140.5,-59.2 140.5,-40.2 79.5,-40.2"/>
<polygon fill="none" stroke="#000000" points="79.5,-40.2 79.5,-59.2 140.5,-59.2 140.5,-40.2 79.5,-40.2"/>
<text text-anchor="start" x="131.3862" y="-46.3" font-family="Helvetica,sans-Serif" font-size="11.00" fill="#000000"> &#160;</text>
<polygon fill="#ffffff" stroke="transparent" points="140.5,-40.2 140.5,-59.2 207.5,-59.2 207.5,-40.2 140.5,-40.2"/>
<polygon fill="none" stroke="#000000" points="140.5,-40.2 140.5,-59.2 207.5,-59.2 207.5,-40.2 140.5,-40.2"/>
<text text-anchor="start" x="188.9053" y="-46.3" font-family="Helvetica,sans-Serif" font-size="11.00" fill="#000000">1 &gt;</text>
<polygon fill="none" stroke="#000000" stroke-width="2" points="9,-39.2 9,-237.2 208,-237.2 208,-39.2 9,-39.2"/>
</a>
</g>
</g>
<!-- locations&#45;&gt;location_owners -->
<g id="edge2" class="edge">
<title>locations:w&#45;&gt;location_owners:e</title>
<path fill="none" stroke="#000000" d="M243.776,-202.2C231.7815,-202.2 224.3229,-202.2 207.5,-202.2"/>
<polygon fill="#000000" stroke="#000000" points="250.5,-202.2001 258.5,-205.8 254.5,-202.2 258.5,-202.2 258.5,-202.2 258.5,-202.2 254.5,-202.2 258.5,-198.6 250.5,-202.2001 250.5,-202.2001"/>
<ellipse fill="none" stroke="#000000" cx="247.3" cy="-202.2001" rx="3.2" ry="3.2"/>
</g>
<!-- signages -->
<g id="node4" class="node">
<title>signages</title>
<g id="a_node4"><a xlink:href="../../tables/signages.html" xlink:title="signages" target="_top">
<polygon fill="#ffffff" stroke="transparent" points="473.5,-155.7 473.5,-216.7 560.5,-216.7 560.5,-155.7 473.5,-155.7"/>
<polygon fill="#f5f5f5" stroke="transparent" points="474,-193.2 474,-216.2 561,-216.2 561,-193.2 474,-193.2"/>
<polygon fill="none" stroke="#000000" points="474,-193.2 474,-216.2 561,-216.2 561,-193.2 474,-193.2"/>
<text text-anchor="start" x="478.9923" y="-202.3" font-family="Helvetica,sans-Serif" font-weight="bold" font-size="11.00" fill="#000000">signages</text>
<text text-anchor="start" x="526.5219" y="-201.3" font-family="Helvetica,sans-Serif" font-size="11.00" fill="#000000">[table]</text>
<polygon fill="none" stroke="#000000" points="474,-174.2 474,-193.2 561,-193.2 561,-174.2 474,-174.2"/>
<text text-anchor="start" x="477" y="-180.3" font-family="Helvetica,sans-Serif" font-size="11.00" fill="#000000">...</text>
<polygon fill="#ffffff" stroke="transparent" points="474,-155.2 474,-174.2 516,-174.2 516,-155.2 474,-155.2"/>
<polygon fill="none" stroke="#000000" points="474,-155.2 474,-174.2 516,-174.2 516,-155.2 474,-155.2"/>
<text text-anchor="start" x="477" y="-161.3" font-family="Helvetica,sans-Serif" font-size="11.00" fill="#000000">&lt; 1</text>
<polygon fill="#ffffff" stroke="transparent" points="516,-155.2 516,-174.2 538,-174.2 538,-155.2 516,-155.2"/>
<polygon fill="none" stroke="#000000" points="516,-155.2 516,-174.2 538,-174.2 538,-155.2 516,-155.2"/>
<text text-anchor="start" x="528.8862" y="-161.3" font-family="Helvetica,sans-Serif" font-size="11.00" fill="#000000"> &#160;</text>
<polygon fill="#ffffff" stroke="transparent" points="538,-155.2 538,-174.2 561,-174.2 561,-155.2 538,-155.2"/>
<polygon fill="none" stroke="#000000" points="538,-155.2 538,-174.2 561,-174.2 561,-155.2 538,-155.2"/>
<text text-anchor="start" x="551.8862" y="-161.3" font-family="Helvetica,sans-Serif" font-size="11.00" fill="#000000"> &#160;</text>
</a>
</g>
</g>
<!-- signages&#45;&gt;locations -->
<g id="edge3" class="edge">
<title>signages:w&#45;&gt;locations:e</title>
<path fill="none" stroke="#000000" d="M459.4856,-185.642C435.6722,-194.4685 431.6841,-224.2 399.5,-224.2"/>
<polygon fill="#000000" stroke="#000000" points="466.1109,-184.5273 474.5973,-186.7501 470.0554,-183.8637 474,-183.2 474,-183.2 474,-183.2 470.0554,-183.8637 473.4027,-179.6499 466.1109,-184.5273 466.1109,-184.5273"/>
<ellipse fill="none" stroke="#000000" cx="462.9552" cy="-185.0583" rx="3.2" ry="3.2"/>
</g>
</g>
</svg>
