<?xml version="1.0" encoding="UTF-8" standalone="no"?>
<!DOCTYPE svg PUBLIC "-//W3C//DTD SVG 1.1//EN"
 "http://www.w3.org/Graphics/SVG/1.1/DTD/svg11.dtd">
<!-- Generated by graphviz version 2.40.1 (20161225.0304)
 -->
<!-- Title: oneDegreeRelationshipsDiagram Pages: 1 -->
<svg width="338pt" height="316pt"
 viewBox="0.00 0.00 338.00 316.20" xmlns="http://www.w3.org/2000/svg" xmlns:xlink="http://www.w3.org/1999/xlink">
<g id="graph0" class="graph" transform="scale(1 1) rotate(0) translate(4 312.2)">
<title>oneDegreeRelationshipsDiagram</title>
<polygon fill="#ffffff" stroke="transparent" points="-4,4 -4,-312.2 334,-312.2 334,4 -4,4"/>
<text text-anchor="middle" x="72.4936" y="-7.3" font-family="Helvetica,sans-Serif" font-size="11.00" fill="#000000">Generated by SchemaSpy</text>
<!-- others -->
<g id="node1" class="node">
<title>others</title>
<g id="a_node1"><a xlink:href="../../tables/others.html" xlink:title="others" target="_top">
<polygon fill="#ffffff" stroke="transparent" points="154,-38.2 154,-304.2 322,-304.2 322,-38.2 154,-38.2"/>
<polygon fill="#f5f5f5" stroke="transparent" points="156,-279.2 156,-302.2 320,-302.2 320,-279.2 156,-279.2"/>
<polygon fill="none" stroke="#000000" points="156,-279.2 156,-302.2 320,-302.2 320,-279.2 156,-279.2"/>
<text text-anchor="start" x="161" y="-288.3" font-family="Helvetica,sans-Serif" font-weight="bold" font-size="11.00" fill="#000000">others</text>
<text text-anchor="start" x="285.0437" y="-287.3" font-family="Helvetica,sans-Serif" font-size="11.00" fill="#000000">[table]</text>
<polygon fill="none" stroke="#000000" points="156,-257.2 156,-279.2 253,-279.2 253,-257.2 156,-257.2"/>
<image xlink:href="../../images/primaryKeys.png" width="11px" height="12px" preserveAspectRatio="xMinYMin meet" x="161" y="-274.2"/>
<text text-anchor="start" x="176" y="-264.3" font-family="Helvetica,sans-Serif" font-size="11.00" fill="#000000">id</text>
<polygon fill="none" stroke="#000000" points="253,-257.2 253,-279.2 320,-279.2 320,-257.2 253,-257.2"/>
<text text-anchor="start" x="256" y="-264.9" font-family="Helvetica,sans-Serif" font-size="11.00" fill="#000000">bigint[19]</text>
<polygon fill="#ffffff" stroke="transparent" points="156,-235.2 156,-257.2 253,-257.2 253,-235.2 156,-235.2"/>
<polygon fill="none" stroke="#000000" points="156,-235.2 156,-257.2 253,-257.2 253,-235.2 156,-235.2"/>
<image xlink:href="../../images/foreignKeys.png" width="11px" height="12px" preserveAspectRatio="xMinYMin meet" x="161" y="-252.2"/>
<text text-anchor="start" x="176" y="-242.3" font-family="Helvetica,sans-Serif" font-size="11.00" fill="#000000">todo_id</text>
<polygon fill="none" stroke="#000000" points="253,-235.2 253,-257.2 320,-257.2 320,-235.2 253,-235.2"/>
<text text-anchor="start" x="256" y="-242.9" font-family="Helvetica,sans-Serif" font-size="11.00" fill="#000000">bigint[19]</text>
<polygon fill="none" stroke="#000000" points="156,-213.2 156,-235.2 253,-235.2 253,-213.2 156,-213.2"/>
<text text-anchor="start" x="176" y="-220.3" font-family="Helvetica,sans-Serif" font-size="11.00" fill="#000000">title</text>
<polygon fill="none" stroke="#000000" points="253,-213.2 253,-235.2 320,-235.2 320,-213.2 253,-213.2"/>
<text text-anchor="start" x="255.9365" y="-220.9" font-family="Helvetica,sans-Serif" font-size="11.00" fill="#000000">varchar[255]</text>
<polygon fill="none" stroke="#000000" points="156,-191.2 156,-213.2 253,-213.2 253,-191.2 156,-191.2"/>
<text text-anchor="start" x="176" y="-198.3" font-family="Helvetica,sans-Serif" font-size="11.00" fill="#000000">description</text>
<polygon fill="none" stroke="#000000" points="253,-191.2 253,-213.2 320,-213.2 320,-191.2 253,-191.2"/>
<text text-anchor="start" x="256" y="-198.9" font-family="Helvetica,sans-Serif" font-size="11.00" fill="#000000">text[65535]</text>
<polygon fill="none" stroke="#000000" points="156,-169.2 156,-191.2 253,-191.2 253,-169.2 156,-169.2"/>
<text text-anchor="start" x="176" y="-176.3" font-family="Helvetica,sans-Serif" font-size="11.00" fill="#000000">hoge</text>
<polygon fill="none" stroke="#000000" points="253,-169.2 253,-191.2 320,-191.2 320,-169.2 253,-169.2"/>
<text text-anchor="start" x="255.9365" y="-176.9" font-family="Helvetica,sans-Serif" font-size="11.00" fill="#000000">varchar[255]</text>
<polygon fill="none" stroke="#000000" points="156,-147.2 156,-169.2 253,-169.2 253,-147.2 156,-147.2"/>
<text text-anchor="start" x="176" y="-154.3" font-family="Helvetica,sans-Serif" font-size="11.00" fill="#000000">fuga</text>
<polygon fill="none" stroke="#000000" points="253,-147.2 253,-169.2 320,-169.2 320,-147.2 253,-147.2"/>
<text text-anchor="start" x="255.9365" y="-154.9" font-family="Helvetica,sans-Serif" font-size="11.00" fill="#000000">varchar[255]</text>
<polygon fill="none" stroke="#000000" points="156,-125.2 156,-147.2 253,-147.2 253,-125.2 156,-125.2"/>
<text text-anchor="start" x="176" y="-132.3" font-family="Helvetica,sans-Serif" font-size="11.00" fill="#000000">don</text>
<polygon fill="none" stroke="#000000" points="253,-125.2 253,-147.2 320,-147.2 320,-125.2 253,-125.2"/>
<text text-anchor="start" x="255.9365" y="-132.9" font-family="Helvetica,sans-Serif" font-size="11.00" fill="#000000">varchar[255]</text>
<polygon fill="none" stroke="#000000" points="156,-103.2 156,-125.2 253,-125.2 253,-103.2 156,-103.2"/>
<text text-anchor="start" x="176" y="-110.3" font-family="Helvetica,sans-Serif" font-size="11.00" fill="#000000">created_at</text>
<polygon fill="none" stroke="#000000" points="253,-103.2 253,-125.2 320,-125.2 320,-103.2 253,-103.2"/>
<text text-anchor="start" x="256" y="-110.9" font-family="Helvetica,sans-Serif" font-size="11.00" fill="#000000">datetime[19]</text>
<polygon fill="none" stroke="#000000" points="156,-81.2 156,-103.2 253,-103.2 253,-81.2 156,-81.2"/>
<text text-anchor="start" x="176" y="-88.3" font-family="Helvetica,sans-Serif" font-size="11.00" fill="#000000">updated_at</text>
<polygon fill="none" stroke="#000000" points="253,-81.2 253,-103.2 320,-103.2 320,-81.2 253,-81.2"/>
<text text-anchor="start" x="256" y="-88.9" font-family="Helvetica,sans-Serif" font-size="11.00" fill="#000000">datetime[19]</text>
<polygon fill="none" stroke="#000000" points="156,-59.2 156,-81.2 253,-81.2 253,-59.2 156,-59.2"/>
<text text-anchor="start" x="176" y="-66.3" font-family="Helvetica,sans-Serif" font-size="11.00" fill="#000000">deleted_at</text>
<polygon fill="none" stroke="#000000" points="253,-59.2 253,-81.2 320,-81.2 320,-59.2 253,-59.2"/>
<text text-anchor="start" x="256" y="-66.9" font-family="Helvetica,sans-Serif" font-size="11.00" fill="#000000">datetime[19]</text>
<polygon fill="#ffffff" stroke="transparent" points="156,-40.2 156,-59.2 196,-59.2 196,-40.2 156,-40.2"/>
<polygon fill="none" stroke="#000000" points="156,-40.2 156,-59.2 196,-59.2 196,-40.2 156,-40.2"/>
<text text-anchor="start" x="159" y="-46.3" font-family="Helvetica,sans-Serif" font-size="11.00" fill="#000000">&lt; 1</text>
<polygon fill="#ffffff" stroke="transparent" points="196,-40.2 196,-59.2 253,-59.2 253,-40.2 196,-40.2"/>
<polygon fill="none" stroke="#000000" points="196,-40.2 196,-59.2 253,-59.2 253,-40.2 196,-40.2"/>
<text text-anchor="start" x="217.6105" y="-46.3" font-family="Helvetica,sans-Serif" font-size="11.00" fill="#000000">0 rows</text>
<polygon fill="#ffffff" stroke="transparent" points="253,-40.2 253,-59.2 320,-59.2 320,-40.2 253,-40.2"/>
<polygon fill="none" stroke="#000000" points="253,-40.2 253,-59.2 320,-59.2 320,-40.2 253,-40.2"/>
<text text-anchor="start" x="301.4053" y="-46.3" font-family="Helvetica,sans-Serif" font-size="11.00" fill="#000000">0 &gt;</text>
<polygon fill="none" stroke="#000000" stroke-width="2" points="155,-39.2 155,-303.2 321,-303.2 321,-39.2 155,-39.2"/>
</a>
</g>
</g>
<!-- todo -->
<g id="node2" class="node">
<title>todo</title>
<g id="a_node2"><a xlink:href="../../tables/todo.html" xlink:title="todo" target="_top">
<polygon fill="#ffffff" stroke="transparent" points="8,-197.7 8,-280.7 105,-280.7 105,-197.7 8,-197.7"/>
<polygon fill="#f5f5f5" stroke="transparent" points="8.5,-257.2 8.5,-280.2 105.5,-280.2 105.5,-257.2 8.5,-257.2"/>
<polygon fill="none" stroke="#000000" points="8.5,-257.2 8.5,-280.2 105.5,-280.2 105.5,-257.2 8.5,-257.2"/>
<text text-anchor="start" x="13.5" y="-266.3" font-family="Helvetica,sans-Serif" font-weight="bold" font-size="11.00" fill="#000000">todo</text>
<text text-anchor="start" x="70.5437" y="-265.3" font-family="Helvetica,sans-Serif" font-size="11.00" fill="#000000">[table]</text>
<polygon fill="none" stroke="#000000" points="8.5,-235.2 8.5,-257.2 105.5,-257.2 105.5,-235.2 8.5,-235.2"/>
<image xlink:href="../../images/primaryKeys.png" width="11px" height="12px" preserveAspectRatio="xMinYMin meet" x="13.5" y="-252.2"/>
<text text-anchor="start" x="28.5" y="-242.3" font-family="Helvetica,sans-Serif" font-size="11.00" fill="#000000">id</text>
<polygon fill="none" stroke="#000000" points="8.5,-216.2 8.5,-235.2 105.5,-235.2 105.5,-216.2 8.5,-216.2"/>
<text text-anchor="start" x="11.5" y="-222.3" font-family="Helvetica,sans-Serif" font-size="11.00" fill="#000000">...</text>
<polygon fill="#ffffff" stroke="transparent" points="8.5,-197.2 8.5,-216.2 33.5,-216.2 33.5,-197.2 8.5,-197.2"/>
<polygon fill="none" stroke="#000000" points="8.5,-197.2 8.5,-216.2 33.5,-216.2 33.5,-197.2 8.5,-197.2"/>
<text text-anchor="start" x="11.5" y="-203.3" font-family="Helvetica,sans-Serif" font-size="11.00" fill="#000000"> &#160;</text>
<polygon fill="#ffffff" stroke="transparent" points="33.5,-197.2 33.5,-216.2 77.5,-216.2 77.5,-197.2 33.5,-197.2"/>
<polygon fill="none" stroke="#000000" points="33.5,-197.2 33.5,-216.2 77.5,-216.2 77.5,-197.2 33.5,-197.2"/>
<text text-anchor="start" x="42.1105" y="-203.3" font-family="Helvetica,sans-Serif" font-size="11.00" fill="#000000">0 rows</text>
<polygon fill="#ffffff" stroke="transparent" points="77.5,-197.2 77.5,-216.2 105.5,-216.2 105.5,-197.2 77.5,-197.2"/>
<polygon fill="none" stroke="#000000" points="77.5,-197.2 77.5,-216.2 105.5,-216.2 105.5,-197.2 77.5,-197.2"/>
<text text-anchor="start" x="86.9053" y="-203.3" font-family="Helvetica,sans-Serif" font-size="11.00" fill="#000000">1 &gt;</text>
</a>
</g>
</g>
<!-- others&#45;&gt;todo -->
<g id="edge1" class="edge">
<title>others:w&#45;&gt;todo:e</title>
<path fill="none" stroke="#000000" d="M141.4203,-246.2C129.5435,-246.2 122.158,-246.2 105.5,-246.2"/>
<polygon fill="#000000" stroke="#000000" points="148,-246.2001 156,-249.8 152,-246.2 156,-246.2 156,-246.2 156,-246.2 152,-246.2 156,-242.6 148,-246.2001 148,-246.2001"/>
<ellipse fill="none" stroke="#000000" cx="144.8" cy="-246.2001" rx="3.2" ry="3.2"/>
</g>
</g>
</svg>
