<?xml version="1.0" encoding="UTF-8" standalone="no"?>
<!DOCTYPE svg PUBLIC "-//W3C//DTD SVG 1.1//EN"
 "http://www.w3.org/Graphics/SVG/1.1/DTD/svg11.dtd">
<!-- Generated by graphviz version 2.40.1 (20161225.0304)
 -->
<!-- Title: oneDegreeRelationshipsDiagram Pages: 1 -->
<svg width="382pt" height="272pt"
 viewBox="0.00 0.00 382.00 272.20" xmlns="http://www.w3.org/2000/svg" xmlns:xlink="http://www.w3.org/1999/xlink">
<g id="graph0" class="graph" transform="scale(1 1) rotate(0) translate(4 268.2)">
<title>oneDegreeRelationshipsDiagram</title>
<polygon fill="#ffffff" stroke="transparent" points="-4,4 -4,-268.2 378,-268.2 378,4 -4,4"/>
<text text-anchor="middle" x="72.4936" y="-7.3" font-family="Helvetica,sans-Serif" font-size="11.00" fill="#000000">Generated by SchemaSpy</text>
<!-- signages -->
<g id="node1" class="node">
<title>signages</title>
<g id="a_node1"><a xlink:href="../../tables/signages.html" xlink:title="signages" target="_top">
<polygon fill="#ffffff" stroke="transparent" points="198,-38.2 198,-260.2 366,-260.2 366,-38.2 198,-38.2"/>
<polygon fill="#f5f5f5" stroke="transparent" points="200,-235.2 200,-258.2 364,-258.2 364,-235.2 200,-235.2"/>
<polygon fill="none" stroke="#000000" points="200,-235.2 200,-258.2 364,-258.2 364,-235.2 200,-235.2"/>
<text text-anchor="start" x="205" y="-244.3" font-family="Helvetica,sans-Serif" font-weight="bold" font-size="11.00" fill="#000000">signages</text>
<text text-anchor="start" x="329.0437" y="-243.3" font-family="Helvetica,sans-Serif" font-size="11.00" fill="#000000">[table]</text>
<polygon fill="none" stroke="#000000" points="200,-213.2 200,-235.2 297,-235.2 297,-213.2 200,-213.2"/>
<image xlink:href="../../images/primaryKeys.png" width="11px" height="12px" preserveAspectRatio="xMinYMin meet" x="205" y="-230.2"/>
<text text-anchor="start" x="220" y="-220.3" font-family="Helvetica,sans-Serif" font-size="11.00" fill="#000000">id</text>
<polygon fill="none" stroke="#000000" points="297,-213.2 297,-235.2 364,-235.2 364,-213.2 297,-213.2"/>
<text text-anchor="start" x="300" y="-220.9" font-family="Helvetica,sans-Serif" font-size="11.00" fill="#000000">int[10]</text>
<polygon fill="#ffffff" stroke="transparent" points="200,-191.2 200,-213.2 297,-213.2 297,-191.2 200,-191.2"/>
<polygon fill="none" stroke="#000000" points="200,-191.2 200,-213.2 297,-213.2 297,-191.2 200,-191.2"/>
<image xlink:href="../../images/foreignKeys.png" width="11px" height="12px" preserveAspectRatio="xMinYMin meet" x="205" y="-208.2"/>
<text text-anchor="start" x="220" y="-198.3" font-family="Helvetica,sans-Serif" font-size="11.00" fill="#000000">location_id</text>
<polygon fill="none" stroke="#000000" points="297,-191.2 297,-213.2 364,-213.2 364,-191.2 297,-191.2"/>
<text text-anchor="start" x="300" y="-198.9" font-family="Helvetica,sans-Serif" font-size="11.00" fill="#000000">int[10]</text>
<polygon fill="none" stroke="#000000" points="200,-169.2 200,-191.2 297,-191.2 297,-169.2 200,-169.2"/>
<text text-anchor="start" x="220" y="-176.3" font-family="Helvetica,sans-Serif" font-size="11.00" fill="#000000">hashkey</text>
<polygon fill="none" stroke="#000000" points="297,-169.2 297,-191.2 364,-191.2 364,-169.2 297,-169.2"/>
<text text-anchor="start" x="299.9365" y="-176.9" font-family="Helvetica,sans-Serif" font-size="11.00" fill="#000000">varchar[255]</text>
<polygon fill="none" stroke="#000000" points="200,-147.2 200,-169.2 297,-169.2 297,-147.2 200,-147.2"/>
<text text-anchor="start" x="220" y="-154.3" font-family="Helvetica,sans-Serif" font-size="11.00" fill="#000000">external_id</text>
<polygon fill="none" stroke="#000000" points="297,-147.2 297,-169.2 364,-169.2 364,-147.2 297,-147.2"/>
<text text-anchor="start" x="299.9365" y="-154.9" font-family="Helvetica,sans-Serif" font-size="11.00" fill="#000000">varchar[255]</text>
<polygon fill="none" stroke="#000000" points="200,-125.2 200,-147.2 297,-147.2 297,-125.2 200,-125.2"/>
<text text-anchor="start" x="220" y="-132.3" font-family="Helvetica,sans-Serif" font-size="11.00" fill="#000000">is_active</text>
<polygon fill="none" stroke="#000000" points="297,-125.2 297,-147.2 364,-147.2 364,-125.2 297,-125.2"/>
<text text-anchor="start" x="300" y="-132.9" font-family="Helvetica,sans-Serif" font-size="11.00" fill="#000000">bit[1]</text>
<polygon fill="none" stroke="#000000" points="200,-103.2 200,-125.2 297,-125.2 297,-103.2 200,-103.2"/>
<text text-anchor="start" x="220" y="-110.3" font-family="Helvetica,sans-Serif" font-size="11.00" fill="#000000">created_at</text>
<polygon fill="none" stroke="#000000" points="297,-103.2 297,-125.2 364,-125.2 364,-103.2 297,-103.2"/>
<text text-anchor="start" x="300" y="-110.9" font-family="Helvetica,sans-Serif" font-size="11.00" fill="#000000">datetime[19]</text>
<polygon fill="none" stroke="#000000" points="200,-81.2 200,-103.2 297,-103.2 297,-81.2 200,-81.2"/>
<text text-anchor="start" x="220" y="-88.3" font-family="Helvetica,sans-Serif" font-size="11.00" fill="#000000">updated_at</text>
<polygon fill="none" stroke="#000000" points="297,-81.2 297,-103.2 364,-103.2 364,-81.2 297,-81.2"/>
<text text-anchor="start" x="300" y="-88.9" font-family="Helvetica,sans-Serif" font-size="11.00" fill="#000000">datetime[19]</text>
<polygon fill="none" stroke="#000000" points="200,-59.2 200,-81.2 297,-81.2 297,-59.2 200,-59.2"/>
<text text-anchor="start" x="220" y="-66.3" font-family="Helvetica,sans-Serif" font-size="11.00" fill="#000000">deleted_at</text>
<polygon fill="none" stroke="#000000" points="297,-59.2 297,-81.2 364,-81.2 364,-59.2 297,-59.2"/>
<text text-anchor="start" x="300" y="-66.9" font-family="Helvetica,sans-Serif" font-size="11.00" fill="#000000">datetime[19]</text>
<polygon fill="#ffffff" stroke="transparent" points="200,-40.2 200,-59.2 253,-59.2 253,-40.2 200,-40.2"/>
<polygon fill="none" stroke="#000000" points="200,-40.2 200,-59.2 253,-59.2 253,-40.2 200,-40.2"/>
<text text-anchor="start" x="203" y="-46.3" font-family="Helvetica,sans-Serif" font-size="11.00" fill="#000000">&lt; 1</text>
<polygon fill="#ffffff" stroke="transparent" points="253,-40.2 253,-59.2 297,-59.2 297,-40.2 253,-40.2"/>
<polygon fill="none" stroke="#000000" points="253,-40.2 253,-59.2 297,-59.2 297,-40.2 253,-40.2"/>
<text text-anchor="start" x="287.8862" y="-46.3" font-family="Helvetica,sans-Serif" font-size="11.00" fill="#000000"> &#160;</text>
<polygon fill="#ffffff" stroke="transparent" points="297,-40.2 297,-59.2 364,-59.2 364,-40.2 297,-40.2"/>
<polygon fill="none" stroke="#000000" points="297,-40.2 297,-59.2 364,-59.2 364,-40.2 297,-40.2"/>
<text text-anchor="start" x="345.4053" y="-46.3" font-family="Helvetica,sans-Serif" font-size="11.00" fill="#000000">0 &gt;</text>
<polygon fill="none" stroke="#000000" stroke-width="2" points="199,-39.2 199,-259.2 365,-259.2 365,-39.2 199,-39.2"/>
</a>
</g>
</g>
<!-- locations -->
<g id="node2" class="node">
<title>locations</title>
<g id="a_node2"><a xlink:href="../../tables/locations.html" xlink:title="locations" target="_top">
<polygon fill="#ffffff" stroke="transparent" points="8,-131.7 8,-236.7 149,-236.7 149,-131.7 8,-131.7"/>
<polygon fill="#f5f5f5" stroke="transparent" points="8.5,-213.2 8.5,-236.2 149.5,-236.2 149.5,-213.2 8.5,-213.2"/>
<polygon fill="none" stroke="#000000" points="8.5,-213.2 8.5,-236.2 149.5,-236.2 149.5,-213.2 8.5,-213.2"/>
<text text-anchor="start" x="13.5" y="-222.3" font-family="Helvetica,sans-Serif" font-weight="bold" font-size="11.00" fill="#000000">locations</text>
<text text-anchor="start" x="114.5437" y="-221.3" font-family="Helvetica,sans-Serif" font-size="11.00" fill="#000000">[table]</text>
<polygon fill="none" stroke="#000000" points="8.5,-191.2 8.5,-213.2 149.5,-213.2 149.5,-191.2 8.5,-191.2"/>
<image xlink:href="../../images/primaryKeys.png" width="11px" height="12px" preserveAspectRatio="xMinYMin meet" x="13.5" y="-208.2"/>
<text text-anchor="start" x="28.5" y="-198.3" font-family="Helvetica,sans-Serif" font-size="11.00" fill="#000000">id</text>
<polygon fill="#ffffff" stroke="transparent" points="8.5,-169.2 8.5,-191.2 149.5,-191.2 149.5,-169.2 8.5,-169.2"/>
<polygon fill="none" stroke="#000000" points="8.5,-169.2 8.5,-191.2 149.5,-191.2 149.5,-169.2 8.5,-169.2"/>
<image xlink:href="../../images/foreignKeys.png" width="11px" height="12px" preserveAspectRatio="xMinYMin meet" x="13.5" y="-186.2"/>
<text text-anchor="start" x="28.5" y="-176.3" font-family="Helvetica,sans-Serif" font-size="11.00" fill="#000000">location_owner_id</text>
<polygon fill="none" stroke="#000000" points="8.5,-150.2 8.5,-169.2 149.5,-169.2 149.5,-150.2 8.5,-150.2"/>
<text text-anchor="start" x="11.5" y="-156.3" font-family="Helvetica,sans-Serif" font-size="11.00" fill="#000000">...</text>
<polygon fill="#ffffff" stroke="transparent" points="8.5,-131.2 8.5,-150.2 72.5,-150.2 72.5,-131.2 8.5,-131.2"/>
<polygon fill="none" stroke="#000000" points="8.5,-131.2 8.5,-150.2 72.5,-150.2 72.5,-131.2 8.5,-131.2"/>
<text text-anchor="start" x="11.5" y="-137.3" font-family="Helvetica,sans-Serif" font-size="11.00" fill="#000000">&lt; 1</text>
<polygon fill="#ffffff" stroke="transparent" points="72.5,-131.2 72.5,-150.2 106.5,-150.2 106.5,-131.2 72.5,-131.2"/>
<polygon fill="none" stroke="#000000" points="72.5,-131.2 72.5,-150.2 106.5,-150.2 106.5,-131.2 72.5,-131.2"/>
<text text-anchor="start" x="97.3862" y="-137.3" font-family="Helvetica,sans-Serif" font-size="11.00" fill="#000000"> &#160;</text>
<polygon fill="#ffffff" stroke="transparent" points="106.5,-131.2 106.5,-150.2 149.5,-150.2 149.5,-131.2 106.5,-131.2"/>
<polygon fill="none" stroke="#000000" points="106.5,-131.2 106.5,-150.2 149.5,-150.2 149.5,-131.2 106.5,-131.2"/>
<text text-anchor="start" x="130.9053" y="-137.3" font-family="Helvetica,sans-Serif" font-size="11.00" fill="#000000">2 &gt;</text>
</a>
</g>
</g>
<!-- signages&#45;&gt;locations -->
<g id="edge1" class="edge">
<title>signages:w&#45;&gt;locations:e</title>
<path fill="none" stroke="#000000" d="M185.4203,-202.2C173.5435,-202.2 166.158,-202.2 149.5,-202.2"/>
<polygon fill="#000000" stroke="#000000" points="192,-202.2001 200,-205.8 196,-202.2 200,-202.2 200,-202.2 200,-202.2 196,-202.2 200,-198.6 192,-202.2001 192,-202.2001"/>
<ellipse fill="none" stroke="#000000" cx="188.8" cy="-202.2001" rx="3.2" ry="3.2"/>
</g>
</g>
</svg>
