<?xml version="1.0" encoding="UTF-8" standalone="no"?>
<!DOCTYPE svg PUBLIC "-//W3C//DTD SVG 1.1//EN"
 "http://www.w3.org/Graphics/SVG/1.1/DTD/svg11.dtd">
<!-- Generated by graphviz version 2.40.1 (20161225.0304)
 -->
<!-- Title: twoDegreesRelationshipsDiagram Pages: 1 -->
<svg width="553pt" height="355pt"
 viewBox="0.00 0.00 553.00 354.70" xmlns="http://www.w3.org/2000/svg" xmlns:xlink="http://www.w3.org/1999/xlink">
<g id="graph0" class="graph" transform="scale(1 1) rotate(0) translate(4 350.7)">
<title>twoDegreesRelationshipsDiagram</title>
<polygon fill="#ffffff" stroke="transparent" points="-4,4 -4,-350.7 549,-350.7 549,4 -4,4"/>
<text text-anchor="middle" x="72.4936" y="-7.3" font-family="Helvetica,sans-Serif" font-size="11.00" fill="#000000">Generated by SchemaSpy</text>
<!-- adgroups_locations -->
<g id="node1" class="node">
<title>adgroups_locations</title>
<g id="a_node1"><a xlink:href="../../tables/adgroups_locations.html" xlink:title="adgroups_locations" target="_top">
<polygon fill="#ffffff" stroke="transparent" points="384,-281.7 384,-342.7 522,-342.7 522,-281.7 384,-281.7"/>
<polygon fill="#f5f5f5" stroke="transparent" points="384,-319.2 384,-342.2 522,-342.2 522,-319.2 384,-319.2"/>
<polygon fill="none" stroke="#000000" points="384,-319.2 384,-342.2 522,-342.2 522,-319.2 384,-319.2"/>
<text text-anchor="start" x="388.8178" y="-328.3" font-family="Helvetica,sans-Serif" font-weight="bold" font-size="11.00" fill="#000000">adgroups_locations</text>
<text text-anchor="start" x="487.5219" y="-327.3" font-family="Helvetica,sans-Serif" font-size="11.00" fill="#000000">[table]</text>
<polygon fill="none" stroke="#000000" points="384,-300.2 384,-319.2 522,-319.2 522,-300.2 384,-300.2"/>
<text text-anchor="start" x="387" y="-306.3" font-family="Helvetica,sans-Serif" font-size="11.00" fill="#000000">...</text>
<polygon fill="#ffffff" stroke="transparent" points="384,-281.2 384,-300.2 451,-300.2 451,-281.2 384,-281.2"/>
<polygon fill="none" stroke="#000000" points="384,-281.2 384,-300.2 451,-300.2 451,-281.2 384,-281.2"/>
<text text-anchor="start" x="387" y="-287.3" font-family="Helvetica,sans-Serif" font-size="11.00" fill="#000000">&lt; 2</text>
<polygon fill="#ffffff" stroke="transparent" points="451,-281.2 451,-300.2 486,-300.2 486,-281.2 451,-281.2"/>
<polygon fill="none" stroke="#000000" points="451,-281.2 451,-300.2 486,-300.2 486,-281.2 451,-281.2"/>
<text text-anchor="start" x="476.8862" y="-287.3" font-family="Helvetica,sans-Serif" font-size="11.00" fill="#000000"> &#160;</text>
<polygon fill="#ffffff" stroke="transparent" points="486,-281.2 486,-300.2 522,-300.2 522,-281.2 486,-281.2"/>
<polygon fill="none" stroke="#000000" points="486,-281.2 486,-300.2 522,-300.2 522,-281.2 486,-281.2"/>
<text text-anchor="start" x="512.8862" y="-287.3" font-family="Helvetica,sans-Serif" font-size="11.00" fill="#000000"> &#160;</text>
</a>
</g>
</g>
<!-- locations -->
<g id="node2" class="node">
<title>locations</title>
<g id="a_node2"><a xlink:href="../../tables/locations.html" xlink:title="locations" target="_top">
<polygon fill="#ffffff" stroke="transparent" points="179,-184.7 179,-289.7 320,-289.7 320,-184.7 179,-184.7"/>
<polygon fill="#f5f5f5" stroke="transparent" points="179.5,-266.2 179.5,-289.2 320.5,-289.2 320.5,-266.2 179.5,-266.2"/>
<polygon fill="none" stroke="#000000" points="179.5,-266.2 179.5,-289.2 320.5,-289.2 320.5,-266.2 179.5,-266.2"/>
<text text-anchor="start" x="184.5" y="-275.3" font-family="Helvetica,sans-Serif" font-weight="bold" font-size="11.00" fill="#000000">locations</text>
<text text-anchor="start" x="285.5437" y="-274.3" font-family="Helvetica,sans-Serif" font-size="11.00" fill="#000000">[table]</text>
<polygon fill="none" stroke="#000000" points="179.5,-244.2 179.5,-266.2 320.5,-266.2 320.5,-244.2 179.5,-244.2"/>
<image xlink:href="../../images/primaryKeys.png" width="11px" height="12px" preserveAspectRatio="xMinYMin meet" x="184.5" y="-261.2"/>
<text text-anchor="start" x="199.5" y="-251.3" font-family="Helvetica,sans-Serif" font-size="11.00" fill="#000000">id</text>
<polygon fill="#ffffff" stroke="transparent" points="179.5,-222.2 179.5,-244.2 320.5,-244.2 320.5,-222.2 179.5,-222.2"/>
<polygon fill="none" stroke="#000000" points="179.5,-222.2 179.5,-244.2 320.5,-244.2 320.5,-222.2 179.5,-222.2"/>
<image xlink:href="../../images/foreignKeys.png" width="11px" height="12px" preserveAspectRatio="xMinYMin meet" x="184.5" y="-239.2"/>
<text text-anchor="start" x="199.5" y="-229.3" font-family="Helvetica,sans-Serif" font-size="11.00" fill="#000000">location_owner_id</text>
<polygon fill="none" stroke="#000000" points="179.5,-203.2 179.5,-222.2 320.5,-222.2 320.5,-203.2 179.5,-203.2"/>
<text text-anchor="start" x="182.5" y="-209.3" font-family="Helvetica,sans-Serif" font-size="11.00" fill="#000000">...</text>
<polygon fill="#ffffff" stroke="transparent" points="179.5,-184.2 179.5,-203.2 243.5,-203.2 243.5,-184.2 179.5,-184.2"/>
<polygon fill="none" stroke="#000000" points="179.5,-184.2 179.5,-203.2 243.5,-203.2 243.5,-184.2 179.5,-184.2"/>
<text text-anchor="start" x="182.5" y="-190.3" font-family="Helvetica,sans-Serif" font-size="11.00" fill="#000000">&lt; 1</text>
<polygon fill="#ffffff" stroke="transparent" points="243.5,-184.2 243.5,-203.2 277.5,-203.2 277.5,-184.2 243.5,-184.2"/>
<polygon fill="none" stroke="#000000" points="243.5,-184.2 243.5,-203.2 277.5,-203.2 277.5,-184.2 243.5,-184.2"/>
<text text-anchor="start" x="268.3862" y="-190.3" font-family="Helvetica,sans-Serif" font-size="11.00" fill="#000000"> &#160;</text>
<polygon fill="#ffffff" stroke="transparent" points="277.5,-184.2 277.5,-203.2 320.5,-203.2 320.5,-184.2 277.5,-184.2"/>
<polygon fill="none" stroke="#000000" points="277.5,-184.2 277.5,-203.2 320.5,-203.2 320.5,-184.2 277.5,-184.2"/>
<text text-anchor="start" x="301.9053" y="-190.3" font-family="Helvetica,sans-Serif" font-size="11.00" fill="#000000">2 &gt;</text>
</a>
</g>
</g>
<!-- adgroups_locations&#45;&gt;locations -->
<g id="edge1" class="edge">
<title>adgroups_locations:w&#45;&gt;locations:e</title>
<path fill="none" stroke="#000000" d="M369.76,-305.6569C349.1004,-293.6434 351.7586,-255.2 320.5,-255.2"/>
<polygon fill="#000000" stroke="#000000" points="376.2367,-307.2683 383.1308,-312.6935 380.1183,-308.2342 384,-309.2 384,-309.2 384,-309.2 380.1183,-308.2342 384.8692,-305.7065 376.2367,-307.2683 376.2367,-307.2683"/>
<ellipse fill="none" stroke="#000000" cx="373.1314" cy="-306.4957" rx="3.2" ry="3.2"/>
</g>
<!-- location_owners -->
<g id="node3" class="node">
<title>location_owners</title>
<g id="a_node3"><a xlink:href="../../tables/location_owners.html" xlink:title="location_owners" target="_top">
<polygon fill="#ffffff" stroke="transparent" points="8,-205.7 8,-266.7 130,-266.7 130,-205.7 8,-205.7"/>
<polygon fill="#f5f5f5" stroke="transparent" points="8,-243.2 8,-266.2 130,-266.2 130,-243.2 8,-243.2"/>
<polygon fill="none" stroke="#000000" points="8,-243.2 8,-266.2 130,-266.2 130,-243.2 8,-243.2"/>
<text text-anchor="start" x="12.7696" y="-252.3" font-family="Helvetica,sans-Serif" font-weight="bold" font-size="11.00" fill="#000000">location_owners</text>
<text text-anchor="start" x="95.5219" y="-251.3" font-family="Helvetica,sans-Serif" font-size="11.00" fill="#000000">[table]</text>
<polygon fill="none" stroke="#000000" points="8,-224.2 8,-243.2 130,-243.2 130,-224.2 8,-224.2"/>
<text text-anchor="start" x="11" y="-230.3" font-family="Helvetica,sans-Serif" font-size="11.00" fill="#000000">...</text>
<polygon fill="#ffffff" stroke="transparent" points="8,-205.2 8,-224.2 58,-224.2 58,-205.2 8,-205.2"/>
<polygon fill="none" stroke="#000000" points="8,-205.2 8,-224.2 58,-224.2 58,-205.2 8,-205.2"/>
<text text-anchor="start" x="11" y="-211.3" font-family="Helvetica,sans-Serif" font-size="11.00" fill="#000000"> &#160;</text>
<polygon fill="#ffffff" stroke="transparent" points="58,-205.2 58,-224.2 89,-224.2 89,-205.2 58,-205.2"/>
<polygon fill="none" stroke="#000000" points="58,-205.2 58,-224.2 89,-224.2 89,-205.2 58,-205.2"/>
<text text-anchor="start" x="79.8862" y="-211.3" font-family="Helvetica,sans-Serif" font-size="11.00" fill="#000000"> &#160;</text>
<polygon fill="#ffffff" stroke="transparent" points="89,-205.2 89,-224.2 130,-224.2 130,-205.2 89,-205.2"/>
<polygon fill="none" stroke="#000000" points="89,-205.2 89,-224.2 130,-224.2 130,-205.2 89,-205.2"/>
<text text-anchor="start" x="111.4053" y="-211.3" font-family="Helvetica,sans-Serif" font-size="11.00" fill="#000000">1 &gt;</text>
</a>
</g>
</g>
<!-- locations&#45;&gt;location_owners -->
<g id="edge2" class="edge">
<title>locations:w&#45;&gt;location_owners:e</title>
<path fill="none" stroke="#000000" d="M164.8428,-233.2C153.4139,-233.2 146.1563,-233.2 130,-233.2"/>
<polygon fill="#000000" stroke="#000000" points="171.5,-233.2001 179.5,-236.8 175.5,-233.2 179.5,-233.2 179.5,-233.2 179.5,-233.2 175.5,-233.2 179.5,-229.6 171.5,-233.2001 171.5,-233.2001"/>
<ellipse fill="none" stroke="#000000" cx="168.3" cy="-233.2001" rx="3.2" ry="3.2"/>
</g>
<!-- signages -->
<g id="node4" class="node">
<title>signages</title>
<g id="a_node4"><a xlink:href="../../tables/signages.html" xlink:title="signages" target="_top">
<polygon fill="#ffffff" stroke="transparent" points="369,-38.2 369,-260.2 537,-260.2 537,-38.2 369,-38.2"/>
<polygon fill="#f5f5f5" stroke="transparent" points="371,-235.2 371,-258.2 535,-258.2 535,-235.2 371,-235.2"/>
<polygon fill="none" stroke="#000000" points="371,-235.2 371,-258.2 535,-258.2 535,-235.2 371,-235.2"/>
<text text-anchor="start" x="376" y="-244.3" font-family="Helvetica,sans-Serif" font-weight="bold" font-size="11.00" fill="#000000">signages</text>
<text text-anchor="start" x="500.0437" y="-243.3" font-family="Helvetica,sans-Serif" font-size="11.00" fill="#000000">[table]</text>
<polygon fill="none" stroke="#000000" points="371,-213.2 371,-235.2 468,-235.2 468,-213.2 371,-213.2"/>
<image xlink:href="../../images/primaryKeys.png" width="11px" height="12px" preserveAspectRatio="xMinYMin meet" x="376" y="-230.2"/>
<text text-anchor="start" x="391" y="-220.3" font-family="Helvetica,sans-Serif" font-size="11.00" fill="#000000">id</text>
<polygon fill="none" stroke="#000000" points="468,-213.2 468,-235.2 535,-235.2 535,-213.2 468,-213.2"/>
<text text-anchor="start" x="471" y="-220.9" font-family="Helvetica,sans-Serif" font-size="11.00" fill="#000000">int[10]</text>
<polygon fill="#ffffff" stroke="transparent" points="371,-191.2 371,-213.2 468,-213.2 468,-191.2 371,-191.2"/>
<polygon fill="none" stroke="#000000" points="371,-191.2 371,-213.2 468,-213.2 468,-191.2 371,-191.2"/>
<image xlink:href="../../images/foreignKeys.png" width="11px" height="12px" preserveAspectRatio="xMinYMin meet" x="376" y="-208.2"/>
<text text-anchor="start" x="391" y="-198.3" font-family="Helvetica,sans-Serif" font-size="11.00" fill="#000000">location_id</text>
<polygon fill="none" stroke="#000000" points="468,-191.2 468,-213.2 535,-213.2 535,-191.2 468,-191.2"/>
<text text-anchor="start" x="471" y="-198.9" font-family="Helvetica,sans-Serif" font-size="11.00" fill="#000000">int[10]</text>
<polygon fill="none" stroke="#000000" points="371,-169.2 371,-191.2 468,-191.2 468,-169.2 371,-169.2"/>
<text text-anchor="start" x="391" y="-176.3" font-family="Helvetica,sans-Serif" font-size="11.00" fill="#000000">hashkey</text>
<polygon fill="none" stroke="#000000" points="468,-169.2 468,-191.2 535,-191.2 535,-169.2 468,-169.2"/>
<text text-anchor="start" x="470.9365" y="-176.9" font-family="Helvetica,sans-Serif" font-size="11.00" fill="#000000">varchar[255]</text>
<polygon fill="none" stroke="#000000" points="371,-147.2 371,-169.2 468,-169.2 468,-147.2 371,-147.2"/>
<text text-anchor="start" x="391" y="-154.3" font-family="Helvetica,sans-Serif" font-size="11.00" fill="#000000">external_id</text>
<polygon fill="none" stroke="#000000" points="468,-147.2 468,-169.2 535,-169.2 535,-147.2 468,-147.2"/>
<text text-anchor="start" x="470.9365" y="-154.9" font-family="Helvetica,sans-Serif" font-size="11.00" fill="#000000">varchar[255]</text>
<polygon fill="none" stroke="#000000" points="371,-125.2 371,-147.2 468,-147.2 468,-125.2 371,-125.2"/>
<text text-anchor="start" x="391" y="-132.3" font-family="Helvetica,sans-Serif" font-size="11.00" fill="#000000">is_active</text>
<polygon fill="none" stroke="#000000" points="468,-125.2 468,-147.2 535,-147.2 535,-125.2 468,-125.2"/>
<text text-anchor="start" x="471" y="-132.9" font-family="Helvetica,sans-Serif" font-size="11.00" fill="#000000">bit[1]</text>
<polygon fill="none" stroke="#000000" points="371,-103.2 371,-125.2 468,-125.2 468,-103.2 371,-103.2"/>
<text text-anchor="start" x="391" y="-110.3" font-family="Helvetica,sans-Serif" font-size="11.00" fill="#000000">created_at</text>
<polygon fill="none" stroke="#000000" points="468,-103.2 468,-125.2 535,-125.2 535,-103.2 468,-103.2"/>
<text text-anchor="start" x="471" y="-110.9" font-family="Helvetica,sans-Serif" font-size="11.00" fill="#000000">datetime[19]</text>
<polygon fill="none" stroke="#000000" points="371,-81.2 371,-103.2 468,-103.2 468,-81.2 371,-81.2"/>
<text text-anchor="start" x="391" y="-88.3" font-family="Helvetica,sans-Serif" font-size="11.00" fill="#000000">updated_at</text>
<polygon fill="none" stroke="#000000" points="468,-81.2 468,-103.2 535,-103.2 535,-81.2 468,-81.2"/>
<text text-anchor="start" x="471" y="-88.9" font-family="Helvetica,sans-Serif" font-size="11.00" fill="#000000">datetime[19]</text>
<polygon fill="none" stroke="#000000" points="371,-59.2 371,-81.2 468,-81.2 468,-59.2 371,-59.2"/>
<text text-anchor="start" x="391" y="-66.3" font-family="Helvetica,sans-Serif" font-size="11.00" fill="#000000">deleted_at</text>
<polygon fill="none" stroke="#000000" points="468,-59.2 468,-81.2 535,-81.2 535,-59.2 468,-59.2"/>
<text text-anchor="start" x="471" y="-66.9" font-family="Helvetica,sans-Serif" font-size="11.00" fill="#000000">datetime[19]</text>
<polygon fill="#ffffff" stroke="transparent" points="371,-40.2 371,-59.2 424,-59.2 424,-40.2 371,-40.2"/>
<polygon fill="none" stroke="#000000" points="371,-40.2 371,-59.2 424,-59.2 424,-40.2 371,-40.2"/>
<text text-anchor="start" x="374" y="-46.3" font-family="Helvetica,sans-Serif" font-size="11.00" fill="#000000">&lt; 1</text>
<polygon fill="#ffffff" stroke="transparent" points="424,-40.2 424,-59.2 468,-59.2 468,-40.2 424,-40.2"/>
<polygon fill="none" stroke="#000000" points="424,-40.2 424,-59.2 468,-59.2 468,-40.2 424,-40.2"/>
<text text-anchor="start" x="458.8862" y="-46.3" font-family="Helvetica,sans-Serif" font-size="11.00" fill="#000000"> &#160;</text>
<polygon fill="#ffffff" stroke="transparent" points="468,-40.2 468,-59.2 535,-59.2 535,-40.2 468,-40.2"/>
<polygon fill="none" stroke="#000000" points="468,-40.2 468,-59.2 535,-59.2 535,-40.2 468,-40.2"/>
<text text-anchor="start" x="516.4053" y="-46.3" font-family="Helvetica,sans-Serif" font-size="11.00" fill="#000000">0 &gt;</text>
<polygon fill="none" stroke="#000000" stroke-width="2" points="370,-39.2 370,-259.2 536,-259.2 536,-39.2 370,-39.2"/>
</a>
</g>
</g>
<!-- signages&#45;&gt;locations -->
<g id="edge3" class="edge">
<title>signages:w&#45;&gt;locations:e</title>
<path fill="none" stroke="#000000" d="M357.0458,-207.0911C342.2722,-220.2117 346.9358,-255.2 320.5,-255.2"/>
<polygon fill="#000000" stroke="#000000" points="363.4503,-204.8463 372.1908,-205.5974 367.2252,-203.5231 371,-202.2 371,-202.2 371,-202.2 367.2252,-203.5231 369.8092,-198.8026 363.4503,-204.8463 363.4503,-204.8463"/>
<ellipse fill="none" stroke="#000000" cx="360.4305" cy="-205.9048" rx="3.2" ry="3.2"/>
</g>
</g>
</svg>
