<?xml version="1.0" encoding="UTF-8" standalone="no"?>
<!DOCTYPE svg PUBLIC "-//W3C//DTD SVG 1.1//EN"
 "http://www.w3.org/Graphics/SVG/1.1/DTD/svg11.dtd">
<!-- Generated by graphviz version 2.40.1 (20161225.0304)
 -->
<!-- Title: oneDegreeRelationshipsDiagram Pages: 1 -->
<svg width="338pt" height="249pt"
 viewBox="0.00 0.00 338.00 248.70" xmlns="http://www.w3.org/2000/svg" xmlns:xlink="http://www.w3.org/1999/xlink">
<g id="graph0" class="graph" transform="scale(1 1) rotate(0) translate(4 244.7)">
<title>oneDegreeRelationshipsDiagram</title>
<polygon fill="#ffffff" stroke="transparent" points="-4,4 -4,-244.7 334,-244.7 334,4 -4,4"/>
<text text-anchor="middle" x="72.4936" y="-7.3" font-family="Helvetica,sans-Serif" font-size="11.00" fill="#000000">Generated by SchemaSpy</text>
<!-- others -->
<g id="node1" class="node">
<title>others</title>
<g id="a_node1"><a xlink:href="../../tables/others.html" xlink:title="others" target="_top">
<polygon fill="#ffffff" stroke="transparent" points="225,-131.7 225,-236.7 322,-236.7 322,-131.7 225,-131.7"/>
<polygon fill="#f5f5f5" stroke="transparent" points="225.5,-213.2 225.5,-236.2 322.5,-236.2 322.5,-213.2 225.5,-213.2"/>
<polygon fill="none" stroke="#000000" points="225.5,-213.2 225.5,-236.2 322.5,-236.2 322.5,-213.2 225.5,-213.2"/>
<text text-anchor="start" x="230.5" y="-222.3" font-family="Helvetica,sans-Serif" font-weight="bold" font-size="11.00" fill="#000000">others</text>
<text text-anchor="start" x="287.5437" y="-221.3" font-family="Helvetica,sans-Serif" font-size="11.00" fill="#000000">[table]</text>
<polygon fill="none" stroke="#000000" points="225.5,-191.2 225.5,-213.2 322.5,-213.2 322.5,-191.2 225.5,-191.2"/>
<image xlink:href="../../images/primaryKeys.png" width="11px" height="12px" preserveAspectRatio="xMinYMin meet" x="230.5" y="-208.2"/>
<text text-anchor="start" x="245.5" y="-198.3" font-family="Helvetica,sans-Serif" font-size="11.00" fill="#000000">id</text>
<polygon fill="#ffffff" stroke="transparent" points="225.5,-169.2 225.5,-191.2 322.5,-191.2 322.5,-169.2 225.5,-169.2"/>
<polygon fill="none" stroke="#000000" points="225.5,-169.2 225.5,-191.2 322.5,-191.2 322.5,-169.2 225.5,-169.2"/>
<image xlink:href="../../images/foreignKeys.png" width="11px" height="12px" preserveAspectRatio="xMinYMin meet" x="230.5" y="-186.2"/>
<text text-anchor="start" x="245.5" y="-176.3" font-family="Helvetica,sans-Serif" font-size="11.00" fill="#000000">todo_id</text>
<polygon fill="none" stroke="#000000" points="225.5,-150.2 225.5,-169.2 322.5,-169.2 322.5,-150.2 225.5,-150.2"/>
<text text-anchor="start" x="228.5" y="-156.3" font-family="Helvetica,sans-Serif" font-size="11.00" fill="#000000">...</text>
<polygon fill="#ffffff" stroke="transparent" points="225.5,-131.2 225.5,-150.2 259.5,-150.2 259.5,-131.2 225.5,-131.2"/>
<polygon fill="none" stroke="#000000" points="225.5,-131.2 225.5,-150.2 259.5,-150.2 259.5,-131.2 225.5,-131.2"/>
<text text-anchor="start" x="228.5" y="-137.3" font-family="Helvetica,sans-Serif" font-size="11.00" fill="#000000">&lt; 1</text>
<polygon fill="#ffffff" stroke="transparent" points="259.5,-131.2 259.5,-150.2 303.5,-150.2 303.5,-131.2 259.5,-131.2"/>
<polygon fill="none" stroke="#000000" points="259.5,-131.2 259.5,-150.2 303.5,-150.2 303.5,-131.2 259.5,-131.2"/>
<text text-anchor="start" x="268.1105" y="-137.3" font-family="Helvetica,sans-Serif" font-size="11.00" fill="#000000">0 rows</text>
<polygon fill="#ffffff" stroke="transparent" points="303.5,-131.2 303.5,-150.2 322.5,-150.2 322.5,-131.2 303.5,-131.2"/>
<polygon fill="none" stroke="#000000" points="303.5,-131.2 303.5,-150.2 322.5,-150.2 322.5,-131.2 303.5,-131.2"/>
<text text-anchor="start" x="313.3862" y="-137.3" font-family="Helvetica,sans-Serif" font-size="11.00" fill="#000000"> &#160;</text>
</a>
</g>
</g>
<!-- todo -->
<g id="node2" class="node">
<title>todo</title>
<g id="a_node2"><a xlink:href="../../tables/todo.html" xlink:title="todo" target="_top">
<polygon fill="#ffffff" stroke="transparent" points="8,-38.2 8,-216.2 176,-216.2 176,-38.2 8,-38.2"/>
<polygon fill="#f5f5f5" stroke="transparent" points="10,-191.2 10,-214.2 174,-214.2 174,-191.2 10,-191.2"/>
<polygon fill="none" stroke="#000000" points="10,-191.2 10,-214.2 174,-214.2 174,-191.2 10,-191.2"/>
<text text-anchor="start" x="15" y="-200.3" font-family="Helvetica,sans-Serif" font-weight="bold" font-size="11.00" fill="#000000">todo</text>
<text text-anchor="start" x="139.0437" y="-199.3" font-family="Helvetica,sans-Serif" font-size="11.00" fill="#000000">[table]</text>
<polygon fill="none" stroke="#000000" points="10,-169.2 10,-191.2 107,-191.2 107,-169.2 10,-169.2"/>
<image xlink:href="../../images/primaryKeys.png" width="11px" height="12px" preserveAspectRatio="xMinYMin meet" x="15" y="-186.2"/>
<text text-anchor="start" x="30" y="-176.3" font-family="Helvetica,sans-Serif" font-size="11.00" fill="#000000">id</text>
<polygon fill="none" stroke="#000000" points="107,-169.2 107,-191.2 174,-191.2 174,-169.2 107,-169.2"/>
<text text-anchor="start" x="110" y="-176.9" font-family="Helvetica,sans-Serif" font-size="11.00" fill="#000000">bigint[19]</text>
<polygon fill="none" stroke="#000000" points="10,-147.2 10,-169.2 107,-169.2 107,-147.2 10,-147.2"/>
<text text-anchor="start" x="30" y="-154.3" font-family="Helvetica,sans-Serif" font-size="11.00" fill="#000000">title</text>
<polygon fill="none" stroke="#000000" points="107,-147.2 107,-169.2 174,-169.2 174,-147.2 107,-147.2"/>
<text text-anchor="start" x="109.9365" y="-154.9" font-family="Helvetica,sans-Serif" font-size="11.00" fill="#000000">varchar[255]</text>
<polygon fill="none" stroke="#000000" points="10,-125.2 10,-147.2 107,-147.2 107,-125.2 10,-125.2"/>
<text text-anchor="start" x="30" y="-132.3" font-family="Helvetica,sans-Serif" font-size="11.00" fill="#000000">description</text>
<polygon fill="none" stroke="#000000" points="107,-125.2 107,-147.2 174,-147.2 174,-125.2 107,-125.2"/>
<text text-anchor="start" x="110" y="-132.9" font-family="Helvetica,sans-Serif" font-size="11.00" fill="#000000">text[65535]</text>
<polygon fill="none" stroke="#000000" points="10,-103.2 10,-125.2 107,-125.2 107,-103.2 10,-103.2"/>
<text text-anchor="start" x="30" y="-110.3" font-family="Helvetica,sans-Serif" font-size="11.00" fill="#000000">created_at</text>
<polygon fill="none" stroke="#000000" points="107,-103.2 107,-125.2 174,-125.2 174,-103.2 107,-103.2"/>
<text text-anchor="start" x="110" y="-110.9" font-family="Helvetica,sans-Serif" font-size="11.00" fill="#000000">datetime[19]</text>
<polygon fill="none" stroke="#000000" points="10,-81.2 10,-103.2 107,-103.2 107,-81.2 10,-81.2"/>
<text text-anchor="start" x="30" y="-88.3" font-family="Helvetica,sans-Serif" font-size="11.00" fill="#000000">updated_at</text>
<polygon fill="none" stroke="#000000" points="107,-81.2 107,-103.2 174,-103.2 174,-81.2 107,-81.2"/>
<text text-anchor="start" x="110" y="-88.9" font-family="Helvetica,sans-Serif" font-size="11.00" fill="#000000">datetime[19]</text>
<polygon fill="none" stroke="#000000" points="10,-59.2 10,-81.2 107,-81.2 107,-59.2 10,-59.2"/>
<text text-anchor="start" x="30" y="-66.3" font-family="Helvetica,sans-Serif" font-size="11.00" fill="#000000">deleted_at</text>
<polygon fill="none" stroke="#000000" points="107,-59.2 107,-81.2 174,-81.2 174,-59.2 107,-59.2"/>
<text text-anchor="start" x="110" y="-66.9" font-family="Helvetica,sans-Serif" font-size="11.00" fill="#000000">datetime[19]</text>
<polygon fill="#ffffff" stroke="transparent" points="10,-40.2 10,-59.2 50,-59.2 50,-40.2 10,-40.2"/>
<polygon fill="none" stroke="#000000" points="10,-40.2 10,-59.2 50,-59.2 50,-40.2 10,-40.2"/>
<text text-anchor="start" x="13" y="-46.3" font-family="Helvetica,sans-Serif" font-size="11.00" fill="#000000">&lt; 0</text>
<polygon fill="#ffffff" stroke="transparent" points="50,-40.2 50,-59.2 107,-59.2 107,-40.2 50,-40.2"/>
<polygon fill="none" stroke="#000000" points="50,-40.2 50,-59.2 107,-59.2 107,-40.2 50,-40.2"/>
<text text-anchor="start" x="71.6105" y="-46.3" font-family="Helvetica,sans-Serif" font-size="11.00" fill="#000000">0 rows</text>
<polygon fill="#ffffff" stroke="transparent" points="107,-40.2 107,-59.2 174,-59.2 174,-40.2 107,-40.2"/>
<polygon fill="none" stroke="#000000" points="107,-40.2 107,-59.2 174,-59.2 174,-40.2 107,-40.2"/>
<text text-anchor="start" x="155.4053" y="-46.3" font-family="Helvetica,sans-Serif" font-size="11.00" fill="#000000">1 &gt;</text>
<polygon fill="none" stroke="#000000" stroke-width="2" points="9,-39.2 9,-215.2 175,-215.2 175,-39.2 9,-39.2"/>
</a>
</g>
</g>
<!-- others&#45;&gt;todo -->
<g id="edge1" class="edge">
<title>others:w&#45;&gt;todo:e</title>
<path fill="none" stroke="#000000" d="M211.0156,-180.2C198.6771,-180.2 191.1667,-180.2 174,-180.2"/>
<polygon fill="#000000" stroke="#000000" points="217.5,-180.2001 225.5,-183.8 221.5,-180.2 225.5,-180.2 225.5,-180.2 225.5,-180.2 221.5,-180.2 225.5,-176.6 217.5,-180.2001 217.5,-180.2001"/>
<ellipse fill="none" stroke="#000000" cx="214.3" cy="-180.2001" rx="3.2" ry="3.2"/>
</g>
</g>
</svg>
