<?xml version="1.0" encoding="UTF-8" standalone="no"?>
<!DOCTYPE svg PUBLIC "-//W3C//DTD SVG 1.1//EN"
 "http://www.w3.org/Graphics/SVG/1.1/DTD/svg11.dtd">
<!-- Generated by graphviz version 2.40.1 (20161225.0304)
 -->
<!-- Title: compactRelationshipsDiagram Pages: 1 -->
<svg width="267pt" height="155pt"
 viewBox="0.00 0.00 267.00 155.20" xmlns="http://www.w3.org/2000/svg" xmlns:xlink="http://www.w3.org/1999/xlink">
<g id="graph0" class="graph" transform="scale(1 1) rotate(0) translate(4 151.2)">
<title>compactRelationshipsDiagram</title>
<polygon fill="#ffffff" stroke="transparent" points="-4,4 -4,-151.2 263,-151.2 263,4 -4,4"/>
<text text-anchor="middle" x="72.4936" y="-7.3" font-family="Helvetica,sans-Serif" font-size="11.00" fill="#000000">Generated by SchemaSpy</text>
<!-- others -->
<g id="node1" class="node">
<title>others</title>
<g id="a_node1"><a xlink:href="../../tables/others.html" xlink:title="others" target="_top">
<polygon fill="#ffffff" stroke="transparent" points="154,-38.2 154,-143.2 251,-143.2 251,-38.2 154,-38.2"/>
<polygon fill="#f5f5f5" stroke="transparent" points="154.5,-119.7 154.5,-142.7 251.5,-142.7 251.5,-119.7 154.5,-119.7"/>
<polygon fill="none" stroke="#000000" points="154.5,-119.7 154.5,-142.7 251.5,-142.7 251.5,-119.7 154.5,-119.7"/>
<text text-anchor="start" x="159.5" y="-128.8" font-family="Helvetica,sans-Serif" font-weight="bold" font-size="11.00" fill="#000000">others</text>
<text text-anchor="start" x="216.5437" y="-127.8" font-family="Helvetica,sans-Serif" font-size="11.00" fill="#000000">[table]</text>
<polygon fill="none" stroke="#000000" points="154.5,-97.7 154.5,-119.7 251.5,-119.7 251.5,-97.7 154.5,-97.7"/>
<image xlink:href="../../images/primaryKeys.png" width="11px" height="12px" preserveAspectRatio="xMinYMin meet" x="159.5" y="-114.7"/>
<text text-anchor="start" x="174.5" y="-104.8" font-family="Helvetica,sans-Serif" font-size="11.00" fill="#000000">id</text>
<polygon fill="#ffffff" stroke="transparent" points="154.5,-75.7 154.5,-97.7 251.5,-97.7 251.5,-75.7 154.5,-75.7"/>
<polygon fill="none" stroke="#000000" points="154.5,-75.7 154.5,-97.7 251.5,-97.7 251.5,-75.7 154.5,-75.7"/>
<image xlink:href="../../images/foreignKeys.png" width="11px" height="12px" preserveAspectRatio="xMinYMin meet" x="159.5" y="-92.7"/>
<text text-anchor="start" x="174.5" y="-82.8" font-family="Helvetica,sans-Serif" font-size="11.00" fill="#000000">todo_id</text>
<polygon fill="none" stroke="#000000" points="154.5,-56.7 154.5,-75.7 251.5,-75.7 251.5,-56.7 154.5,-56.7"/>
<text text-anchor="start" x="157.5" y="-62.8" font-family="Helvetica,sans-Serif" font-size="11.00" fill="#000000">...</text>
<polygon fill="#ffffff" stroke="transparent" points="154.5,-37.7 154.5,-56.7 188.5,-56.7 188.5,-37.7 154.5,-37.7"/>
<polygon fill="none" stroke="#000000" points="154.5,-37.7 154.5,-56.7 188.5,-56.7 188.5,-37.7 154.5,-37.7"/>
<text text-anchor="start" x="157.5" y="-43.8" font-family="Helvetica,sans-Serif" font-size="11.00" fill="#000000">&lt; 1</text>
<polygon fill="#ffffff" stroke="transparent" points="188.5,-37.7 188.5,-56.7 232.5,-56.7 232.5,-37.7 188.5,-37.7"/>
<polygon fill="none" stroke="#000000" points="188.5,-37.7 188.5,-56.7 232.5,-56.7 232.5,-37.7 188.5,-37.7"/>
<text text-anchor="start" x="197.1105" y="-43.8" font-family="Helvetica,sans-Serif" font-size="11.00" fill="#000000">0 rows</text>
<polygon fill="#ffffff" stroke="transparent" points="232.5,-37.7 232.5,-56.7 251.5,-56.7 251.5,-37.7 232.5,-37.7"/>
<polygon fill="none" stroke="#000000" points="232.5,-37.7 232.5,-56.7 251.5,-56.7 251.5,-37.7 232.5,-37.7"/>
<text text-anchor="start" x="242.3862" y="-43.8" font-family="Helvetica,sans-Serif" font-size="11.00" fill="#000000"> &#160;</text>
</a>
</g>
</g>
<!-- todo -->
<g id="node2" class="node">
<title>todo</title>
<g id="a_node2"><a xlink:href="../../tables/todo.html" xlink:title="todo" target="_top">
<polygon fill="#ffffff" stroke="transparent" points="8,-38.2 8,-121.2 105,-121.2 105,-38.2 8,-38.2"/>
<polygon fill="#f5f5f5" stroke="transparent" points="8.5,-97.7 8.5,-120.7 105.5,-120.7 105.5,-97.7 8.5,-97.7"/>
<polygon fill="none" stroke="#000000" points="8.5,-97.7 8.5,-120.7 105.5,-120.7 105.5,-97.7 8.5,-97.7"/>
<text text-anchor="start" x="13.5" y="-106.8" font-family="Helvetica,sans-Serif" font-weight="bold" font-size="11.00" fill="#000000">todo</text>
<text text-anchor="start" x="70.5437" y="-105.8" font-family="Helvetica,sans-Serif" font-size="11.00" fill="#000000">[table]</text>
<polygon fill="none" stroke="#000000" points="8.5,-75.7 8.5,-97.7 105.5,-97.7 105.5,-75.7 8.5,-75.7"/>
<image xlink:href="../../images/primaryKeys.png" width="11px" height="12px" preserveAspectRatio="xMinYMin meet" x="13.5" y="-92.7"/>
<text text-anchor="start" x="28.5" y="-82.8" font-family="Helvetica,sans-Serif" font-size="11.00" fill="#000000">id</text>
<polygon fill="none" stroke="#000000" points="8.5,-56.7 8.5,-75.7 105.5,-75.7 105.5,-56.7 8.5,-56.7"/>
<text text-anchor="start" x="11.5" y="-62.8" font-family="Helvetica,sans-Serif" font-size="11.00" fill="#000000">...</text>
<polygon fill="#ffffff" stroke="transparent" points="8.5,-37.7 8.5,-56.7 33.5,-56.7 33.5,-37.7 8.5,-37.7"/>
<polygon fill="none" stroke="#000000" points="8.5,-37.7 8.5,-56.7 33.5,-56.7 33.5,-37.7 8.5,-37.7"/>
<text text-anchor="start" x="11.5" y="-43.8" font-family="Helvetica,sans-Serif" font-size="11.00" fill="#000000"> &#160;</text>
<polygon fill="#ffffff" stroke="transparent" points="33.5,-37.7 33.5,-56.7 77.5,-56.7 77.5,-37.7 33.5,-37.7"/>
<polygon fill="none" stroke="#000000" points="33.5,-37.7 33.5,-56.7 77.5,-56.7 77.5,-37.7 33.5,-37.7"/>
<text text-anchor="start" x="42.1105" y="-43.8" font-family="Helvetica,sans-Serif" font-size="11.00" fill="#000000">0 rows</text>
<polygon fill="#ffffff" stroke="transparent" points="77.5,-37.7 77.5,-56.7 105.5,-56.7 105.5,-37.7 77.5,-37.7"/>
<polygon fill="none" stroke="#000000" points="77.5,-37.7 77.5,-56.7 105.5,-56.7 105.5,-37.7 77.5,-37.7"/>
<text text-anchor="start" x="86.9053" y="-43.8" font-family="Helvetica,sans-Serif" font-size="11.00" fill="#000000">1 &gt;</text>
</a>
</g>
</g>
<!-- others&#45;&gt;todo -->
<g id="edge1" class="edge">
<title>others:w&#45;&gt;todo:e</title>
<path fill="none" stroke="#000000" d="M139.9909,-86.7C128.6774,-86.7 121.4931,-86.7 105.5,-86.7"/>
<polygon fill="#000000" stroke="#000000" points="146.5,-86.7001 154.5,-90.3 150.5,-86.7 154.5,-86.7 154.5,-86.7 154.5,-86.7 150.5,-86.7 154.5,-83.1 146.5,-86.7001 146.5,-86.7001"/>
<ellipse fill="none" stroke="#000000" cx="143.3" cy="-86.7001" rx="3.2" ry="3.2"/>
</g>
</g>
</svg>
