<?xml version="1.0" encoding="UTF-8" standalone="no"?>
<!DOCTYPE svg PUBLIC "-//W3C//DTD SVG 1.1//EN"
 "http://www.w3.org/Graphics/SVG/1.1/DTD/svg11.dtd">
<!-- Generated by graphviz version 2.40.1 (20161225.0304)
 -->
<!-- Title: compactRelationshipsDiagram Pages: 1 -->
<svg width="814pt" height="437pt"
 viewBox="0.00 0.00 814.00 437.20" xmlns="http://www.w3.org/2000/svg" xmlns:xlink="http://www.w3.org/1999/xlink">
<g id="graph0" class="graph" transform="scale(1 1) rotate(0) translate(4 433.2)">
<title>compactRelationshipsDiagram</title>
<polygon fill="#ffffff" stroke="transparent" points="-4,4 -4,-433.2 810,-433.2 810,4 -4,4"/>
<text text-anchor="middle" x="72.4936" y="-7.3" font-family="Helvetica,sans-Serif" font-size="11.00" fill="#000000">Generated by SchemaSpy</text>
<!-- adgroups -->
<g id="node1" class="node">
<title>adgroups</title>
<g id="a_node1"><a xlink:href="../../tables/adgroups.html" xlink:title="adgroups" target="_top">
<polygon fill="#ffffff" stroke="transparent" points="432,-216.2 432,-321.2 597,-321.2 597,-216.2 432,-216.2"/>
<polygon fill="#f5f5f5" stroke="transparent" points="432.5,-297.7 432.5,-320.7 597.5,-320.7 597.5,-297.7 432.5,-297.7"/>
<polygon fill="none" stroke="#000000" points="432.5,-297.7 432.5,-320.7 597.5,-320.7 597.5,-297.7 432.5,-297.7"/>
<text text-anchor="start" x="437.5" y="-306.8" font-family="Helvetica,sans-Serif" font-weight="bold" font-size="11.00" fill="#000000">adgroups</text>
<text text-anchor="start" x="562.5437" y="-305.8" font-family="Helvetica,sans-Serif" font-size="11.00" fill="#000000">[table]</text>
<polygon fill="none" stroke="#000000" points="432.5,-275.7 432.5,-297.7 597.5,-297.7 597.5,-275.7 432.5,-275.7"/>
<image xlink:href="../../images/primaryKeys.png" width="11px" height="12px" preserveAspectRatio="xMinYMin meet" x="437.5" y="-292.7"/>
<text text-anchor="start" x="452.5" y="-282.8" font-family="Helvetica,sans-Serif" font-size="11.00" fill="#000000">id</text>
<polygon fill="#ffffff" stroke="transparent" points="432.5,-253.7 432.5,-275.7 597.5,-275.7 597.5,-253.7 432.5,-253.7"/>
<polygon fill="none" stroke="#000000" points="432.5,-253.7 432.5,-275.7 597.5,-275.7 597.5,-253.7 432.5,-253.7"/>
<image xlink:href="../../images/foreignKeys.png" width="11px" height="12px" preserveAspectRatio="xMinYMin meet" x="437.5" y="-270.7"/>
<text text-anchor="start" x="452.5" y="-260.8" font-family="Helvetica,sans-Serif" font-size="11.00" fill="#000000">campaign_id</text>
<polygon fill="none" stroke="#000000" points="432.5,-234.7 432.5,-253.7 597.5,-253.7 597.5,-234.7 432.5,-234.7"/>
<text text-anchor="start" x="435.5" y="-240.8" font-family="Helvetica,sans-Serif" font-size="11.00" fill="#000000">...</text>
<polygon fill="#ffffff" stroke="transparent" points="432.5,-215.7 432.5,-234.7 508.5,-234.7 508.5,-215.7 432.5,-215.7"/>
<polygon fill="none" stroke="#000000" points="432.5,-215.7 432.5,-234.7 508.5,-234.7 508.5,-215.7 432.5,-215.7"/>
<text text-anchor="start" x="435.5" y="-221.8" font-family="Helvetica,sans-Serif" font-size="11.00" fill="#000000">&lt; 1</text>
<polygon fill="#ffffff" stroke="transparent" points="508.5,-215.7 508.5,-234.7 548.5,-234.7 548.5,-215.7 508.5,-215.7"/>
<polygon fill="none" stroke="#000000" points="508.5,-215.7 508.5,-234.7 548.5,-234.7 548.5,-215.7 508.5,-215.7"/>
<text text-anchor="start" x="539.3862" y="-221.8" font-family="Helvetica,sans-Serif" font-size="11.00" fill="#000000"> &#160;</text>
<polygon fill="#ffffff" stroke="transparent" points="548.5,-215.7 548.5,-234.7 597.5,-234.7 597.5,-215.7 548.5,-215.7"/>
<polygon fill="none" stroke="#000000" points="548.5,-215.7 548.5,-234.7 597.5,-234.7 597.5,-215.7 548.5,-215.7"/>
<text text-anchor="start" x="578.9053" y="-221.8" font-family="Helvetica,sans-Serif" font-size="11.00" fill="#000000">2 &gt;</text>
</a>
</g>
</g>
<!-- campaigns -->
<g id="node6" class="node">
<title>campaigns</title>
<g id="a_node6"><a xlink:href="../../tables/campaigns.html" xlink:title="campaigns" target="_top">
<polygon fill="#ffffff" stroke="transparent" points="154,-194.2 154,-299.2 383,-299.2 383,-194.2 154,-194.2"/>
<polygon fill="#f5f5f5" stroke="transparent" points="154.5,-275.7 154.5,-298.7 383.5,-298.7 383.5,-275.7 154.5,-275.7"/>
<polygon fill="none" stroke="#000000" points="154.5,-275.7 154.5,-298.7 383.5,-298.7 383.5,-275.7 154.5,-275.7"/>
<text text-anchor="start" x="159.5" y="-284.8" font-family="Helvetica,sans-Serif" font-weight="bold" font-size="11.00" fill="#000000">campaigns</text>
<text text-anchor="start" x="348.5437" y="-283.8" font-family="Helvetica,sans-Serif" font-size="11.00" fill="#000000">[table]</text>
<polygon fill="none" stroke="#000000" points="154.5,-253.7 154.5,-275.7 383.5,-275.7 383.5,-253.7 154.5,-253.7"/>
<image xlink:href="../../images/primaryKeys.png" width="11px" height="12px" preserveAspectRatio="xMinYMin meet" x="159.5" y="-270.7"/>
<text text-anchor="start" x="174.5" y="-260.8" font-family="Helvetica,sans-Serif" font-size="11.00" fill="#000000">id</text>
<polygon fill="#ffffff" stroke="transparent" points="154.5,-231.7 154.5,-253.7 383.5,-253.7 383.5,-231.7 154.5,-231.7"/>
<polygon fill="none" stroke="#000000" points="154.5,-231.7 154.5,-253.7 383.5,-253.7 383.5,-231.7 154.5,-231.7"/>
<image xlink:href="../../images/foreignKeys.png" width="11px" height="12px" preserveAspectRatio="xMinYMin meet" x="159.5" y="-248.7"/>
<text text-anchor="start" x="174.5" y="-238.8" font-family="Helvetica,sans-Serif" font-size="11.00" fill="#000000">advertiser_id</text>
<polygon fill="none" stroke="#000000" points="154.5,-212.7 154.5,-231.7 383.5,-231.7 383.5,-212.7 154.5,-212.7"/>
<text text-anchor="start" x="157.5" y="-218.8" font-family="Helvetica,sans-Serif" font-size="11.00" fill="#000000">...</text>
<polygon fill="#ffffff" stroke="transparent" points="154.5,-193.7 154.5,-212.7 262.5,-212.7 262.5,-193.7 154.5,-193.7"/>
<polygon fill="none" stroke="#000000" points="154.5,-193.7 154.5,-212.7 262.5,-212.7 262.5,-193.7 154.5,-193.7"/>
<text text-anchor="start" x="157.5" y="-199.8" font-family="Helvetica,sans-Serif" font-size="11.00" fill="#000000">&lt; 1</text>
<polygon fill="#ffffff" stroke="transparent" points="262.5,-193.7 262.5,-212.7 318.5,-212.7 318.5,-193.7 262.5,-193.7"/>
<polygon fill="none" stroke="#000000" points="262.5,-193.7 262.5,-212.7 318.5,-212.7 318.5,-193.7 262.5,-193.7"/>
<text text-anchor="start" x="309.3862" y="-199.8" font-family="Helvetica,sans-Serif" font-size="11.00" fill="#000000"> &#160;</text>
<polygon fill="#ffffff" stroke="transparent" points="318.5,-193.7 318.5,-212.7 383.5,-212.7 383.5,-193.7 318.5,-193.7"/>
<polygon fill="none" stroke="#000000" points="318.5,-193.7 318.5,-212.7 383.5,-212.7 383.5,-193.7 318.5,-193.7"/>
<text text-anchor="start" x="364.9053" y="-199.8" font-family="Helvetica,sans-Serif" font-size="11.00" fill="#000000">1 &gt;</text>
</a>
</g>
</g>
<!-- adgroups&#45;&gt;campaigns -->
<g id="edge1" class="edge">
<title>adgroups:w&#45;&gt;campaigns:e</title>
<path fill="none" stroke="#000000" d="M417.9909,-264.7C406.6774,-264.7 399.4931,-264.7 383.5,-264.7"/>
<polygon fill="#000000" stroke="#000000" points="424.5,-264.7001 432.5,-268.3 428.5,-264.7 432.5,-264.7 432.5,-264.7 432.5,-264.7 428.5,-264.7 432.5,-261.1 424.5,-264.7001 424.5,-264.7001"/>
<ellipse fill="none" stroke="#000000" cx="421.3" cy="-264.7001" rx="3.2" ry="3.2"/>
</g>
<!-- adgroups_locations -->
<g id="node2" class="node">
<title>adgroups_locations</title>
<g id="a_node2"><a xlink:href="../../tables/adgroups_locations.html" xlink:title="adgroups_locations" target="_top">
<polygon fill="#ffffff" stroke="transparent" points="646,-164.2 646,-291.2 798,-291.2 798,-164.2 646,-164.2"/>
<polygon fill="#f5f5f5" stroke="transparent" points="646,-267.7 646,-290.7 798,-290.7 798,-267.7 646,-267.7"/>
<polygon fill="none" stroke="#000000" points="646,-267.7 646,-290.7 798,-290.7 798,-267.7 646,-267.7"/>
<text text-anchor="start" x="651" y="-276.8" font-family="Helvetica,sans-Serif" font-weight="bold" font-size="11.00" fill="#000000">adgroups_locations</text>
<text text-anchor="start" x="763.0437" y="-275.8" font-family="Helvetica,sans-Serif" font-size="11.00" fill="#000000">[table]</text>
<polygon fill="none" stroke="#000000" points="646,-245.7 646,-267.7 798,-267.7 798,-245.7 646,-245.7"/>
<image xlink:href="../../images/primaryKeys.png" width="11px" height="12px" preserveAspectRatio="xMinYMin meet" x="651" y="-262.7"/>
<text text-anchor="start" x="666" y="-252.8" font-family="Helvetica,sans-Serif" font-size="11.00" fill="#000000">id</text>
<polygon fill="#ffffff" stroke="transparent" points="646,-223.7 646,-245.7 798,-245.7 798,-223.7 646,-223.7"/>
<polygon fill="none" stroke="#000000" points="646,-223.7 646,-245.7 798,-245.7 798,-223.7 646,-223.7"/>
<image xlink:href="../../images/foreignKeys.png" width="11px" height="12px" preserveAspectRatio="xMinYMin meet" x="651" y="-240.7"/>
<text text-anchor="start" x="666" y="-230.8" font-family="Helvetica,sans-Serif" font-size="11.00" fill="#000000">adgroup_id</text>
<polygon fill="#ffffff" stroke="transparent" points="646,-201.7 646,-223.7 798,-223.7 798,-201.7 646,-201.7"/>
<polygon fill="none" stroke="#000000" points="646,-201.7 646,-223.7 798,-223.7 798,-201.7 646,-201.7"/>
<image xlink:href="../../images/foreignKeys.png" width="11px" height="12px" preserveAspectRatio="xMinYMin meet" x="651" y="-218.7"/>
<text text-anchor="start" x="666" y="-208.8" font-family="Helvetica,sans-Serif" font-size="11.00" fill="#000000">location_id</text>
<polygon fill="none" stroke="#000000" points="646,-182.7 646,-201.7 798,-201.7 798,-182.7 646,-182.7"/>
<text text-anchor="start" x="649" y="-188.8" font-family="Helvetica,sans-Serif" font-size="11.00" fill="#000000">...</text>
<polygon fill="#ffffff" stroke="transparent" points="646,-163.7 646,-182.7 720,-182.7 720,-163.7 646,-163.7"/>
<polygon fill="none" stroke="#000000" points="646,-163.7 646,-182.7 720,-182.7 720,-163.7 646,-163.7"/>
<text text-anchor="start" x="649" y="-169.8" font-family="Helvetica,sans-Serif" font-size="11.00" fill="#000000">&lt; 2</text>
<polygon fill="#ffffff" stroke="transparent" points="720,-163.7 720,-182.7 759,-182.7 759,-163.7 720,-163.7"/>
<polygon fill="none" stroke="#000000" points="720,-163.7 720,-182.7 759,-182.7 759,-163.7 720,-163.7"/>
<text text-anchor="start" x="749.8862" y="-169.8" font-family="Helvetica,sans-Serif" font-size="11.00" fill="#000000"> &#160;</text>
<polygon fill="#ffffff" stroke="transparent" points="759,-163.7 759,-182.7 798,-182.7 798,-163.7 759,-163.7"/>
<polygon fill="none" stroke="#000000" points="759,-163.7 759,-182.7 798,-182.7 798,-163.7 759,-163.7"/>
<text text-anchor="start" x="788.8862" y="-169.8" font-family="Helvetica,sans-Serif" font-size="11.00" fill="#000000"> &#160;</text>
</a>
</g>
</g>
<!-- adgroups_locations&#45;&gt;adgroups -->
<g id="edge2" class="edge">
<title>adgroups_locations:w&#45;&gt;adgroups:e</title>
<path fill="none" stroke="#000000" d="M632.0921,-239.8761C618.3749,-253.0289 622.9307,-286.7 597.5,-286.7"/>
<polygon fill="#000000" stroke="#000000" points="638.5024,-237.4904 647.2557,-238.0739 642.2512,-236.0952 646,-234.7 646,-234.7 646,-234.7 642.2512,-236.0952 644.7443,-231.3261 638.5024,-237.4904 638.5024,-237.4904"/>
<ellipse fill="none" stroke="#000000" cx="635.5034" cy="-238.6066" rx="3.2" ry="3.2"/>
</g>
<!-- locations -->
<g id="node8" class="node">
<title>locations</title>
<g id="a_node8"><a xlink:href="../../tables/locations.html" xlink:title="locations" target="_top">
<polygon fill="#ffffff" stroke="transparent" points="444,-53.2 444,-158.2 585,-158.2 585,-53.2 444,-53.2"/>
<polygon fill="#f5f5f5" stroke="transparent" points="444.5,-134.7 444.5,-157.7 585.5,-157.7 585.5,-134.7 444.5,-134.7"/>
<polygon fill="none" stroke="#000000" points="444.5,-134.7 444.5,-157.7 585.5,-157.7 585.5,-134.7 444.5,-134.7"/>
<text text-anchor="start" x="449.5" y="-143.8" font-family="Helvetica,sans-Serif" font-weight="bold" font-size="11.00" fill="#000000">locations</text>
<text text-anchor="start" x="550.5437" y="-142.8" font-family="Helvetica,sans-Serif" font-size="11.00" fill="#000000">[table]</text>
<polygon fill="none" stroke="#000000" points="444.5,-112.7 444.5,-134.7 585.5,-134.7 585.5,-112.7 444.5,-112.7"/>
<image xlink:href="../../images/primaryKeys.png" width="11px" height="12px" preserveAspectRatio="xMinYMin meet" x="449.5" y="-129.7"/>
<text text-anchor="start" x="464.5" y="-119.8" font-family="Helvetica,sans-Serif" font-size="11.00" fill="#000000">id</text>
<polygon fill="#ffffff" stroke="transparent" points="444.5,-90.7 444.5,-112.7 585.5,-112.7 585.5,-90.7 444.5,-90.7"/>
<polygon fill="none" stroke="#000000" points="444.5,-90.7 444.5,-112.7 585.5,-112.7 585.5,-90.7 444.5,-90.7"/>
<image xlink:href="../../images/foreignKeys.png" width="11px" height="12px" preserveAspectRatio="xMinYMin meet" x="449.5" y="-107.7"/>
<text text-anchor="start" x="464.5" y="-97.8" font-family="Helvetica,sans-Serif" font-size="11.00" fill="#000000">location_owner_id</text>
<polygon fill="none" stroke="#000000" points="444.5,-71.7 444.5,-90.7 585.5,-90.7 585.5,-71.7 444.5,-71.7"/>
<text text-anchor="start" x="447.5" y="-77.8" font-family="Helvetica,sans-Serif" font-size="11.00" fill="#000000">...</text>
<polygon fill="#ffffff" stroke="transparent" points="444.5,-52.7 444.5,-71.7 508.5,-71.7 508.5,-52.7 444.5,-52.7"/>
<polygon fill="none" stroke="#000000" points="444.5,-52.7 444.5,-71.7 508.5,-71.7 508.5,-52.7 444.5,-52.7"/>
<text text-anchor="start" x="447.5" y="-58.8" font-family="Helvetica,sans-Serif" font-size="11.00" fill="#000000">&lt; 1</text>
<polygon fill="#ffffff" stroke="transparent" points="508.5,-52.7 508.5,-71.7 542.5,-71.7 542.5,-52.7 508.5,-52.7"/>
<polygon fill="none" stroke="#000000" points="508.5,-52.7 508.5,-71.7 542.5,-71.7 542.5,-52.7 508.5,-52.7"/>
<text text-anchor="start" x="533.3862" y="-58.8" font-family="Helvetica,sans-Serif" font-size="11.00" fill="#000000"> &#160;</text>
<polygon fill="#ffffff" stroke="transparent" points="542.5,-52.7 542.5,-71.7 585.5,-71.7 585.5,-52.7 542.5,-52.7"/>
<polygon fill="none" stroke="#000000" points="542.5,-52.7 542.5,-71.7 585.5,-71.7 585.5,-52.7 542.5,-52.7"/>
<text text-anchor="start" x="566.9053" y="-58.8" font-family="Helvetica,sans-Serif" font-size="11.00" fill="#000000">2 &gt;</text>
</a>
</g>
</g>
<!-- adgroups_locations&#45;&gt;locations -->
<g id="edge3" class="edge">
<title>adgroups_locations:w&#45;&gt;locations:e</title>
<path fill="none" stroke="#000000" d="M631.9805,-209.1009C605.4687,-192.4504 627.5376,-123.7 585.5,-123.7"/>
<polygon fill="#000000" stroke="#000000" points="638.2513,-210.7107 645.1048,-216.1869 642.1256,-211.7053 646,-212.7 646,-212.7 646,-212.7 642.1256,-211.7053 646.8952,-209.2131 638.2513,-210.7107 638.2513,-210.7107"/>
<ellipse fill="none" stroke="#000000" cx="635.1518" cy="-209.915" rx="3.2" ry="3.2"/>
</g>
<!-- ads -->
<g id="node3" class="node">
<title>ads</title>
<g id="a_node3"><a xlink:href="../../tables/ads.html" xlink:title="ads" target="_top">
<polygon fill="#ffffff" stroke="transparent" points="667,-312.2 667,-417.2 777,-417.2 777,-312.2 667,-312.2"/>
<polygon fill="#f5f5f5" stroke="transparent" points="667,-393.7 667,-416.7 777,-416.7 777,-393.7 667,-393.7"/>
<polygon fill="none" stroke="#000000" points="667,-393.7 667,-416.7 777,-416.7 777,-393.7 667,-393.7"/>
<text text-anchor="start" x="672" y="-402.8" font-family="Helvetica,sans-Serif" font-weight="bold" font-size="11.00" fill="#000000">ads</text>
<text text-anchor="start" x="742.0437" y="-401.8" font-family="Helvetica,sans-Serif" font-size="11.00" fill="#000000">[table]</text>
<polygon fill="none" stroke="#000000" points="667,-371.7 667,-393.7 777,-393.7 777,-371.7 667,-371.7"/>
<image xlink:href="../../images/primaryKeys.png" width="11px" height="12px" preserveAspectRatio="xMinYMin meet" x="672" y="-388.7"/>
<text text-anchor="start" x="687" y="-378.8" font-family="Helvetica,sans-Serif" font-size="11.00" fill="#000000">id</text>
<polygon fill="#ffffff" stroke="transparent" points="667,-349.7 667,-371.7 777,-371.7 777,-349.7 667,-349.7"/>
<polygon fill="none" stroke="#000000" points="667,-349.7 667,-371.7 777,-371.7 777,-349.7 667,-349.7"/>
<image xlink:href="../../images/foreignKeys.png" width="11px" height="12px" preserveAspectRatio="xMinYMin meet" x="672" y="-366.7"/>
<text text-anchor="start" x="687" y="-356.8" font-family="Helvetica,sans-Serif" font-size="11.00" fill="#000000">adgroup_id</text>
<polygon fill="none" stroke="#000000" points="667,-330.7 667,-349.7 777,-349.7 777,-330.7 667,-330.7"/>
<text text-anchor="start" x="670" y="-336.8" font-family="Helvetica,sans-Serif" font-size="11.00" fill="#000000">...</text>
<polygon fill="#ffffff" stroke="transparent" points="667,-311.7 667,-330.7 720,-330.7 720,-311.7 667,-311.7"/>
<polygon fill="none" stroke="#000000" points="667,-311.7 667,-330.7 720,-330.7 720,-311.7 667,-311.7"/>
<text text-anchor="start" x="670" y="-317.8" font-family="Helvetica,sans-Serif" font-size="11.00" fill="#000000">&lt; 1</text>
<polygon fill="#ffffff" stroke="transparent" points="720,-311.7 720,-330.7 748,-330.7 748,-311.7 720,-311.7"/>
<polygon fill="none" stroke="#000000" points="720,-311.7 720,-330.7 748,-330.7 748,-311.7 720,-311.7"/>
<text text-anchor="start" x="738.8862" y="-317.8" font-family="Helvetica,sans-Serif" font-size="11.00" fill="#000000"> &#160;</text>
<polygon fill="#ffffff" stroke="transparent" points="748,-311.7 748,-330.7 777,-330.7 777,-311.7 748,-311.7"/>
<polygon fill="none" stroke="#000000" points="748,-311.7 748,-330.7 777,-330.7 777,-311.7 748,-311.7"/>
<text text-anchor="start" x="767.8862" y="-317.8" font-family="Helvetica,sans-Serif" font-size="11.00" fill="#000000"> &#160;</text>
</a>
</g>
</g>
<!-- ads&#45;&gt;adgroups -->
<g id="edge4" class="edge">
<title>ads:w&#45;&gt;adgroups:e</title>
<path fill="none" stroke="#000000" d="M652.91,-357.5203C626.036,-343.3563 636.9799,-286.7 597.5,-286.7"/>
<polygon fill="#000000" stroke="#000000" points="659.1962,-358.9389 666.2075,-364.2117 663.0981,-359.8194 667,-360.7 667,-360.7 667,-360.7 663.0981,-359.8194 667.7925,-357.1883 659.1962,-358.9389 659.1962,-358.9389"/>
<ellipse fill="none" stroke="#000000" cx="656.0747" cy="-358.2344" rx="3.2" ry="3.2"/>
</g>
<!-- advertiser_users -->
<g id="node4" class="node">
<title>advertiser_users</title>
<g id="a_node4"><a xlink:href="../../tables/advertiser_users.html" xlink:title="advertiser_users" target="_top">
<polygon fill="#ffffff" stroke="transparent" points="188.5,-320.2 188.5,-425.2 348.5,-425.2 348.5,-320.2 188.5,-320.2"/>
<polygon fill="#f5f5f5" stroke="transparent" points="188.5,-401.7 188.5,-424.7 348.5,-424.7 348.5,-401.7 188.5,-401.7"/>
<polygon fill="none" stroke="#000000" points="188.5,-401.7 188.5,-424.7 348.5,-424.7 348.5,-401.7 188.5,-401.7"/>
<text text-anchor="start" x="193.5" y="-410.8" font-family="Helvetica,sans-Serif" font-weight="bold" font-size="11.00" fill="#000000">advertiser_users</text>
<text text-anchor="start" x="313.5437" y="-409.8" font-family="Helvetica,sans-Serif" font-size="11.00" fill="#000000">[table]</text>
<polygon fill="none" stroke="#000000" points="188.5,-379.7 188.5,-401.7 348.5,-401.7 348.5,-379.7 188.5,-379.7"/>
<image xlink:href="../../images/primaryKeys.png" width="11px" height="12px" preserveAspectRatio="xMinYMin meet" x="193.5" y="-396.7"/>
<text text-anchor="start" x="208.5" y="-386.8" font-family="Helvetica,sans-Serif" font-size="11.00" fill="#000000">id</text>
<polygon fill="#ffffff" stroke="transparent" points="188.5,-357.7 188.5,-379.7 348.5,-379.7 348.5,-357.7 188.5,-357.7"/>
<polygon fill="none" stroke="#000000" points="188.5,-357.7 188.5,-379.7 348.5,-379.7 348.5,-357.7 188.5,-357.7"/>
<image xlink:href="../../images/foreignKeys.png" width="11px" height="12px" preserveAspectRatio="xMinYMin meet" x="193.5" y="-374.7"/>
<text text-anchor="start" x="208.5" y="-364.8" font-family="Helvetica,sans-Serif" font-size="11.00" fill="#000000">advertiser_id</text>
<polygon fill="none" stroke="#000000" points="188.5,-338.7 188.5,-357.7 348.5,-357.7 348.5,-338.7 188.5,-338.7"/>
<text text-anchor="start" x="191.5" y="-344.8" font-family="Helvetica,sans-Serif" font-size="11.00" fill="#000000">...</text>
<polygon fill="#ffffff" stroke="transparent" points="188.5,-319.7 188.5,-338.7 266.5,-338.7 266.5,-319.7 188.5,-319.7"/>
<polygon fill="none" stroke="#000000" points="188.5,-319.7 188.5,-338.7 266.5,-338.7 266.5,-319.7 188.5,-319.7"/>
<text text-anchor="start" x="191.5" y="-325.8" font-family="Helvetica,sans-Serif" font-size="11.00" fill="#000000">&lt; 1</text>
<polygon fill="#ffffff" stroke="transparent" points="266.5,-319.7 266.5,-338.7 307.5,-338.7 307.5,-319.7 266.5,-319.7"/>
<polygon fill="none" stroke="#000000" points="266.5,-319.7 266.5,-338.7 307.5,-338.7 307.5,-319.7 266.5,-319.7"/>
<text text-anchor="start" x="298.3862" y="-325.8" font-family="Helvetica,sans-Serif" font-size="11.00" fill="#000000"> &#160;</text>
<polygon fill="#ffffff" stroke="transparent" points="307.5,-319.7 307.5,-338.7 348.5,-338.7 348.5,-319.7 307.5,-319.7"/>
<polygon fill="none" stroke="#000000" points="307.5,-319.7 307.5,-338.7 348.5,-338.7 348.5,-319.7 307.5,-319.7"/>
<text text-anchor="start" x="339.3862" y="-325.8" font-family="Helvetica,sans-Serif" font-size="11.00" fill="#000000"> &#160;</text>
</a>
</g>
</g>
<!-- advertisers -->
<g id="node5" class="node">
<title>advertisers</title>
<g id="a_node5"><a xlink:href="../../tables/advertisers.html" xlink:title="advertisers" target="_top">
<polygon fill="#ffffff" stroke="transparent" points="8,-257.2 8,-340.2 105,-340.2 105,-257.2 8,-257.2"/>
<polygon fill="#f5f5f5" stroke="transparent" points="8.5,-316.7 8.5,-339.7 105.5,-339.7 105.5,-316.7 8.5,-316.7"/>
<polygon fill="none" stroke="#000000" points="8.5,-316.7 8.5,-339.7 105.5,-339.7 105.5,-316.7 8.5,-316.7"/>
<text text-anchor="start" x="13.5" y="-325.8" font-family="Helvetica,sans-Serif" font-weight="bold" font-size="11.00" fill="#000000">advertisers</text>
<text text-anchor="start" x="71.0219" y="-324.8" font-family="Helvetica,sans-Serif" font-size="11.00" fill="#000000">[table]</text>
<polygon fill="none" stroke="#000000" points="8.5,-294.7 8.5,-316.7 105.5,-316.7 105.5,-294.7 8.5,-294.7"/>
<image xlink:href="../../images/primaryKeys.png" width="11px" height="12px" preserveAspectRatio="xMinYMin meet" x="13.5" y="-311.7"/>
<text text-anchor="start" x="28.5" y="-301.8" font-family="Helvetica,sans-Serif" font-size="11.00" fill="#000000">id</text>
<polygon fill="none" stroke="#000000" points="8.5,-275.7 8.5,-294.7 105.5,-294.7 105.5,-275.7 8.5,-275.7"/>
<text text-anchor="start" x="11.5" y="-281.8" font-family="Helvetica,sans-Serif" font-size="11.00" fill="#000000">...</text>
<polygon fill="#ffffff" stroke="transparent" points="8.5,-256.7 8.5,-275.7 46.5,-275.7 46.5,-256.7 8.5,-256.7"/>
<polygon fill="none" stroke="#000000" points="8.5,-256.7 8.5,-275.7 46.5,-275.7 46.5,-256.7 8.5,-256.7"/>
<text text-anchor="start" x="11.5" y="-262.8" font-family="Helvetica,sans-Serif" font-size="11.00" fill="#000000"> &#160;</text>
<polygon fill="#ffffff" stroke="transparent" points="46.5,-256.7 46.5,-275.7 71.5,-275.7 71.5,-256.7 46.5,-256.7"/>
<polygon fill="none" stroke="#000000" points="46.5,-256.7 46.5,-275.7 71.5,-275.7 71.5,-256.7 46.5,-256.7"/>
<text text-anchor="start" x="62.3862" y="-262.8" font-family="Helvetica,sans-Serif" font-size="11.00" fill="#000000"> &#160;</text>
<polygon fill="#ffffff" stroke="transparent" points="71.5,-256.7 71.5,-275.7 105.5,-275.7 105.5,-256.7 71.5,-256.7"/>
<polygon fill="none" stroke="#000000" points="71.5,-256.7 71.5,-275.7 105.5,-275.7 105.5,-256.7 71.5,-256.7"/>
<text text-anchor="start" x="86.9053" y="-262.8" font-family="Helvetica,sans-Serif" font-size="11.00" fill="#000000">2 &gt;</text>
</a>
</g>
</g>
<!-- advertiser_users&#45;&gt;advertisers -->
<g id="edge5" class="edge">
<title>advertiser_users:w&#45;&gt;advertisers:e</title>
<path fill="none" stroke="#000000" d="M173.9378,-366.1523C143.6987,-354.366 146.2038,-305.7 105.5,-305.7"/>
<polygon fill="#000000" stroke="#000000" points="180.6197,-367.3213 187.8796,-372.2461 184.5598,-368.0106 188.5,-368.7 188.5,-368.7 188.5,-368.7 184.5598,-368.0106 189.1204,-365.1539 180.6197,-367.3213 180.6197,-367.3213"/>
<ellipse fill="none" stroke="#000000" cx="177.4676" cy="-366.7698" rx="3.2" ry="3.2"/>
</g>
<!-- campaigns&#45;&gt;advertisers -->
<g id="edge6" class="edge">
<title>campaigns:w&#45;&gt;advertisers:e</title>
<path fill="none" stroke="#000000" d="M140.7151,-247.6435C124.8751,-262.4952 134.8754,-305.7 105.5,-305.7"/>
<polygon fill="#000000" stroke="#000000" points="146.9696,-245.4006 155.7153,-246.0887 150.7348,-244.0503 154.5,-242.7 154.5,-242.7 154.5,-242.7 150.7348,-244.0503 153.2847,-239.3113 146.9696,-245.4006 146.9696,-245.4006"/>
<ellipse fill="none" stroke="#000000" cx="143.9574" cy="-246.4808" rx="3.2" ry="3.2"/>
</g>
<!-- location_owners -->
<g id="node7" class="node">
<title>location_owners</title>
<g id="a_node7"><a xlink:href="../../tables/location_owners.html" xlink:title="location_owners" target="_top">
<polygon fill="#ffffff" stroke="transparent" points="203.5,-53.2 203.5,-136.2 333.5,-136.2 333.5,-53.2 203.5,-53.2"/>
<polygon fill="#f5f5f5" stroke="transparent" points="203.5,-112.7 203.5,-135.7 333.5,-135.7 333.5,-112.7 203.5,-112.7"/>
<polygon fill="none" stroke="#000000" points="203.5,-112.7 203.5,-135.7 333.5,-135.7 333.5,-112.7 203.5,-112.7"/>
<text text-anchor="start" x="208.5" y="-121.8" font-family="Helvetica,sans-Serif" font-weight="bold" font-size="11.00" fill="#000000">location_owners</text>
<text text-anchor="start" x="298.5437" y="-120.8" font-family="Helvetica,sans-Serif" font-size="11.00" fill="#000000">[table]</text>
<polygon fill="none" stroke="#000000" points="203.5,-90.7 203.5,-112.7 333.5,-112.7 333.5,-90.7 203.5,-90.7"/>
<image xlink:href="../../images/primaryKeys.png" width="11px" height="12px" preserveAspectRatio="xMinYMin meet" x="208.5" y="-107.7"/>
<text text-anchor="start" x="223.5" y="-97.8" font-family="Helvetica,sans-Serif" font-size="11.00" fill="#000000">id</text>
<polygon fill="none" stroke="#000000" points="203.5,-71.7 203.5,-90.7 333.5,-90.7 333.5,-71.7 203.5,-71.7"/>
<text text-anchor="start" x="206.5" y="-77.8" font-family="Helvetica,sans-Serif" font-size="11.00" fill="#000000">...</text>
<polygon fill="#ffffff" stroke="transparent" points="203.5,-52.7 203.5,-71.7 257.5,-71.7 257.5,-52.7 203.5,-52.7"/>
<polygon fill="none" stroke="#000000" points="203.5,-52.7 203.5,-71.7 257.5,-71.7 257.5,-52.7 203.5,-52.7"/>
<text text-anchor="start" x="206.5" y="-58.8" font-family="Helvetica,sans-Serif" font-size="11.00" fill="#000000"> &#160;</text>
<polygon fill="#ffffff" stroke="transparent" points="257.5,-52.7 257.5,-71.7 290.5,-71.7 290.5,-52.7 257.5,-52.7"/>
<polygon fill="none" stroke="#000000" points="257.5,-52.7 257.5,-71.7 290.5,-71.7 290.5,-52.7 257.5,-52.7"/>
<text text-anchor="start" x="281.3862" y="-58.8" font-family="Helvetica,sans-Serif" font-size="11.00" fill="#000000"> &#160;</text>
<polygon fill="#ffffff" stroke="transparent" points="290.5,-52.7 290.5,-71.7 333.5,-71.7 333.5,-52.7 290.5,-52.7"/>
<polygon fill="none" stroke="#000000" points="290.5,-52.7 290.5,-71.7 333.5,-71.7 333.5,-52.7 290.5,-52.7"/>
<text text-anchor="start" x="314.9053" y="-58.8" font-family="Helvetica,sans-Serif" font-size="11.00" fill="#000000">1 &gt;</text>
</a>
</g>
</g>
<!-- locations&#45;&gt;location_owners -->
<g id="edge7" class="edge">
<title>locations:w&#45;&gt;location_owners:e</title>
<path fill="none" stroke="#000000" d="M430.0385,-101.7C392.1535,-101.7 377.6302,-101.7 333.5,-101.7"/>
<polygon fill="#000000" stroke="#000000" points="436.5,-101.7001 444.5,-105.3 440.5,-101.7 444.5,-101.7 444.5,-101.7 444.5,-101.7 440.5,-101.7 444.5,-98.1 436.5,-101.7001 436.5,-101.7001"/>
<ellipse fill="none" stroke="#000000" cx="433.3" cy="-101.7001" rx="3.2" ry="3.2"/>
</g>
<!-- signages -->
<g id="node9" class="node">
<title>signages</title>
<g id="a_node9"><a xlink:href="../../tables/signages.html" xlink:title="signages" target="_top">
<polygon fill="#ffffff" stroke="transparent" points="673.5,-38.2 673.5,-143.2 770.5,-143.2 770.5,-38.2 673.5,-38.2"/>
<polygon fill="#f5f5f5" stroke="transparent" points="674,-119.7 674,-142.7 771,-142.7 771,-119.7 674,-119.7"/>
<polygon fill="none" stroke="#000000" points="674,-119.7 674,-142.7 771,-142.7 771,-119.7 674,-119.7"/>
<text text-anchor="start" x="679" y="-128.8" font-family="Helvetica,sans-Serif" font-weight="bold" font-size="11.00" fill="#000000">signages</text>
<text text-anchor="start" x="736.0437" y="-127.8" font-family="Helvetica,sans-Serif" font-size="11.00" fill="#000000">[table]</text>
<polygon fill="none" stroke="#000000" points="674,-97.7 674,-119.7 771,-119.7 771,-97.7 674,-97.7"/>
<image xlink:href="../../images/primaryKeys.png" width="11px" height="12px" preserveAspectRatio="xMinYMin meet" x="679" y="-114.7"/>
<text text-anchor="start" x="694" y="-104.8" font-family="Helvetica,sans-Serif" font-size="11.00" fill="#000000">id</text>
<polygon fill="#ffffff" stroke="transparent" points="674,-75.7 674,-97.7 771,-97.7 771,-75.7 674,-75.7"/>
<polygon fill="none" stroke="#000000" points="674,-75.7 674,-97.7 771,-97.7 771,-75.7 674,-75.7"/>
<image xlink:href="../../images/foreignKeys.png" width="11px" height="12px" preserveAspectRatio="xMinYMin meet" x="679" y="-92.7"/>
<text text-anchor="start" x="694" y="-82.8" font-family="Helvetica,sans-Serif" font-size="11.00" fill="#000000">location_id</text>
<polygon fill="none" stroke="#000000" points="674,-56.7 674,-75.7 771,-75.7 771,-56.7 674,-56.7"/>
<text text-anchor="start" x="677" y="-62.8" font-family="Helvetica,sans-Serif" font-size="11.00" fill="#000000">...</text>
<polygon fill="#ffffff" stroke="transparent" points="674,-37.7 674,-56.7 721,-56.7 721,-37.7 674,-37.7"/>
<polygon fill="none" stroke="#000000" points="674,-37.7 674,-56.7 721,-56.7 721,-37.7 674,-37.7"/>
<text text-anchor="start" x="677" y="-43.8" font-family="Helvetica,sans-Serif" font-size="11.00" fill="#000000">&lt; 1</text>
<polygon fill="#ffffff" stroke="transparent" points="721,-37.7 721,-56.7 746,-56.7 746,-37.7 721,-37.7"/>
<polygon fill="none" stroke="#000000" points="721,-37.7 721,-56.7 746,-56.7 746,-37.7 721,-37.7"/>
<text text-anchor="start" x="736.8862" y="-43.8" font-family="Helvetica,sans-Serif" font-size="11.00" fill="#000000"> &#160;</text>
<polygon fill="#ffffff" stroke="transparent" points="746,-37.7 746,-56.7 771,-56.7 771,-37.7 746,-37.7"/>
<polygon fill="none" stroke="#000000" points="746,-37.7 746,-56.7 771,-56.7 771,-37.7 746,-37.7"/>
<text text-anchor="start" x="761.8862" y="-43.8" font-family="Helvetica,sans-Serif" font-size="11.00" fill="#000000"> &#160;</text>
</a>
</g>
</g>
<!-- signages&#45;&gt;locations -->
<g id="edge8" class="edge">
<title>signages:w&#45;&gt;locations:e</title>
<path fill="none" stroke="#000000" d="M659.3084,-88.386C629.8788,-95.6242 622.6369,-123.7 585.5,-123.7"/>
<polygon fill="#000000" stroke="#000000" points="666.0522,-87.6121 674.4105,-90.2765 670.0261,-87.1561 674,-86.7 674,-86.7 674,-86.7 670.0261,-87.1561 673.5895,-83.1235 666.0522,-87.6121 666.0522,-87.6121"/>
<ellipse fill="none" stroke="#000000" cx="662.873" cy="-87.977" rx="3.2" ry="3.2"/>
</g>
</g>
</svg>
