<?xml version="1.0" encoding="UTF-8" standalone="no"?>
<!DOCTYPE svg PUBLIC "-//W3C//DTD SVG 1.1//EN"
 "http://www.w3.org/Graphics/SVG/1.1/DTD/svg11.dtd">
<!-- Generated by graphviz version 2.40.1 (20161225.0304)
 -->
<!-- Title: largeRelationshipsDiagram Pages: 1 -->
<svg width="814pt" height="997pt"
 viewBox="0.00 0.00 814.00 997.20" xmlns="http://www.w3.org/2000/svg" xmlns:xlink="http://www.w3.org/1999/xlink">
<g id="graph0" class="graph" transform="scale(1 1) rotate(0) translate(4 993.2)">
<title>largeRelationshipsDiagram</title>
<polygon fill="#ffffff" stroke="transparent" points="-4,4 -4,-993.2 810,-993.2 810,4 -4,4"/>
<text text-anchor="middle" x="72.4936" y="-7.3" font-family="Helvetica,sans-Serif" font-size="11.00" fill="#000000">Generated by SchemaSpy</text>
<!-- adgroups -->
<g id="node1" class="node">
<title>adgroups</title>
<g id="a_node1"><a xlink:href="../../tables/adgroups.html" xlink:title="adgroups" target="_top">
<polygon fill="#ffffff" stroke="transparent" points="432,-396.2 432,-746.2 597,-746.2 597,-396.2 432,-396.2"/>
<polygon fill="#f5f5f5" stroke="transparent" points="432.5,-723.2 432.5,-746.2 597.5,-746.2 597.5,-723.2 432.5,-723.2"/>
<polygon fill="none" stroke="#000000" points="432.5,-723.2 432.5,-746.2 597.5,-746.2 597.5,-723.2 432.5,-723.2"/>
<text text-anchor="start" x="437.5" y="-732.3" font-family="Helvetica,sans-Serif" font-weight="bold" font-size="11.00" fill="#000000">adgroups</text>
<text text-anchor="start" x="562.5437" y="-731.3" font-family="Helvetica,sans-Serif" font-size="11.00" fill="#000000">[table]</text>
<polygon fill="none" stroke="#000000" points="432.5,-701.2 432.5,-723.2 597.5,-723.2 597.5,-701.2 432.5,-701.2"/>
<image xlink:href="../../images/primaryKeys.png" width="11px" height="12px" preserveAspectRatio="xMinYMin meet" x="437.5" y="-718.2"/>
<text text-anchor="start" x="452.5" y="-708.3" font-family="Helvetica,sans-Serif" font-size="11.00" fill="#000000">id</text>
<polygon fill="#ffffff" stroke="transparent" points="432.5,-679.2 432.5,-701.2 597.5,-701.2 597.5,-679.2 432.5,-679.2"/>
<polygon fill="none" stroke="#000000" points="432.5,-679.2 432.5,-701.2 597.5,-701.2 597.5,-679.2 432.5,-679.2"/>
<image xlink:href="../../images/foreignKeys.png" width="11px" height="12px" preserveAspectRatio="xMinYMin meet" x="437.5" y="-696.2"/>
<text text-anchor="start" x="452.5" y="-686.3" font-family="Helvetica,sans-Serif" font-size="11.00" fill="#000000">campaign_id</text>
<polygon fill="none" stroke="#000000" points="432.5,-657.2 432.5,-679.2 597.5,-679.2 597.5,-657.2 432.5,-657.2"/>
<text text-anchor="start" x="452.5" y="-664.3" font-family="Helvetica,sans-Serif" font-size="11.00" fill="#000000">name</text>
<polygon fill="none" stroke="#000000" points="432.5,-635.2 432.5,-657.2 597.5,-657.2 597.5,-635.2 432.5,-635.2"/>
<text text-anchor="start" x="452.5" y="-642.3" font-family="Helvetica,sans-Serif" font-size="11.00" fill="#000000">status</text>
<polygon fill="none" stroke="#000000" points="432.5,-613.2 432.5,-635.2 597.5,-635.2 597.5,-613.2 432.5,-613.2"/>
<text text-anchor="start" x="452.5" y="-620.3" font-family="Helvetica,sans-Serif" font-size="11.00" fill="#000000">start_at</text>
<polygon fill="none" stroke="#000000" points="432.5,-591.2 432.5,-613.2 597.5,-613.2 597.5,-591.2 432.5,-591.2"/>
<text text-anchor="start" x="452.5" y="-598.3" font-family="Helvetica,sans-Serif" font-size="11.00" fill="#000000">end_at</text>
<polygon fill="none" stroke="#000000" points="432.5,-569.2 432.5,-591.2 597.5,-591.2 597.5,-569.2 432.5,-569.2"/>
<text text-anchor="start" x="452.5" y="-576.3" font-family="Helvetica,sans-Serif" font-size="11.00" fill="#000000">max_total_budget</text>
<polygon fill="none" stroke="#000000" points="432.5,-547.2 432.5,-569.2 597.5,-569.2 597.5,-547.2 432.5,-547.2"/>
<text text-anchor="start" x="452.5" y="-554.3" font-family="Helvetica,sans-Serif" font-size="11.00" fill="#000000">max_monthly_budget</text>
<polygon fill="none" stroke="#000000" points="432.5,-525.2 432.5,-547.2 597.5,-547.2 597.5,-525.2 432.5,-525.2"/>
<text text-anchor="start" x="452.5" y="-532.3" font-family="Helvetica,sans-Serif" font-size="11.00" fill="#000000">max_daily_budget</text>
<polygon fill="none" stroke="#000000" points="432.5,-503.2 432.5,-525.2 597.5,-525.2 597.5,-503.2 432.5,-503.2"/>
<text text-anchor="start" x="452.5" y="-510.3" font-family="Helvetica,sans-Serif" font-size="11.00" fill="#000000">max_hourly_budget</text>
<polygon fill="none" stroke="#000000" points="432.5,-481.2 432.5,-503.2 597.5,-503.2 597.5,-481.2 432.5,-481.2"/>
<text text-anchor="start" x="452.5" y="-488.3" font-family="Helvetica,sans-Serif" font-size="11.00" fill="#000000">cpv</text>
<polygon fill="none" stroke="#000000" points="432.5,-459.2 432.5,-481.2 597.5,-481.2 597.5,-459.2 432.5,-459.2"/>
<text text-anchor="start" x="452.5" y="-466.3" font-family="Helvetica,sans-Serif" font-size="11.00" fill="#000000">created_at</text>
<polygon fill="none" stroke="#000000" points="432.5,-437.2 432.5,-459.2 597.5,-459.2 597.5,-437.2 432.5,-437.2"/>
<text text-anchor="start" x="452.5" y="-444.3" font-family="Helvetica,sans-Serif" font-size="11.00" fill="#000000">updated_at</text>
<polygon fill="none" stroke="#000000" points="432.5,-415.2 432.5,-437.2 597.5,-437.2 597.5,-415.2 432.5,-415.2"/>
<text text-anchor="start" x="452.5" y="-422.3" font-family="Helvetica,sans-Serif" font-size="11.00" fill="#000000">deleted_at</text>
<polygon fill="#ffffff" stroke="transparent" points="432.5,-396.2 432.5,-415.2 508.5,-415.2 508.5,-396.2 432.5,-396.2"/>
<polygon fill="none" stroke="#000000" points="432.5,-396.2 432.5,-415.2 508.5,-415.2 508.5,-396.2 432.5,-396.2"/>
<text text-anchor="start" x="435.5" y="-402.3" font-family="Helvetica,sans-Serif" font-size="11.00" fill="#000000">&lt; 1</text>
<polygon fill="#ffffff" stroke="transparent" points="508.5,-396.2 508.5,-415.2 548.5,-415.2 548.5,-396.2 508.5,-396.2"/>
<polygon fill="none" stroke="#000000" points="508.5,-396.2 508.5,-415.2 548.5,-415.2 548.5,-396.2 508.5,-396.2"/>
<text text-anchor="start" x="539.3862" y="-402.3" font-family="Helvetica,sans-Serif" font-size="11.00" fill="#000000"> &#160;</text>
<polygon fill="#ffffff" stroke="transparent" points="548.5,-396.2 548.5,-415.2 597.5,-415.2 597.5,-396.2 548.5,-396.2"/>
<polygon fill="none" stroke="#000000" points="548.5,-396.2 548.5,-415.2 597.5,-415.2 597.5,-396.2 548.5,-396.2"/>
<text text-anchor="start" x="578.9053" y="-402.3" font-family="Helvetica,sans-Serif" font-size="11.00" fill="#000000">2 &gt;</text>
</a>
</g>
</g>
<!-- campaigns -->
<g id="node6" class="node">
<title>campaigns</title>
<g id="a_node6"><a xlink:href="../../tables/campaigns.html" xlink:title="campaigns" target="_top">
<polygon fill="#ffffff" stroke="transparent" points="154,-352.2 154,-724.2 383,-724.2 383,-352.2 154,-352.2"/>
<polygon fill="#f5f5f5" stroke="transparent" points="154.5,-701.2 154.5,-724.2 383.5,-724.2 383.5,-701.2 154.5,-701.2"/>
<polygon fill="none" stroke="#000000" points="154.5,-701.2 154.5,-724.2 383.5,-724.2 383.5,-701.2 154.5,-701.2"/>
<text text-anchor="start" x="159.5" y="-710.3" font-family="Helvetica,sans-Serif" font-weight="bold" font-size="11.00" fill="#000000">campaigns</text>
<text text-anchor="start" x="348.5437" y="-709.3" font-family="Helvetica,sans-Serif" font-size="11.00" fill="#000000">[table]</text>
<polygon fill="none" stroke="#000000" points="154.5,-679.2 154.5,-701.2 383.5,-701.2 383.5,-679.2 154.5,-679.2"/>
<image xlink:href="../../images/primaryKeys.png" width="11px" height="12px" preserveAspectRatio="xMinYMin meet" x="159.5" y="-696.2"/>
<text text-anchor="start" x="174.5" y="-686.3" font-family="Helvetica,sans-Serif" font-size="11.00" fill="#000000">id</text>
<polygon fill="#ffffff" stroke="transparent" points="154.5,-657.2 154.5,-679.2 383.5,-679.2 383.5,-657.2 154.5,-657.2"/>
<polygon fill="none" stroke="#000000" points="154.5,-657.2 154.5,-679.2 383.5,-679.2 383.5,-657.2 154.5,-657.2"/>
<image xlink:href="../../images/foreignKeys.png" width="11px" height="12px" preserveAspectRatio="xMinYMin meet" x="159.5" y="-674.2"/>
<text text-anchor="start" x="174.5" y="-664.3" font-family="Helvetica,sans-Serif" font-size="11.00" fill="#000000">advertiser_id</text>
<polygon fill="none" stroke="#000000" points="154.5,-635.2 154.5,-657.2 383.5,-657.2 383.5,-635.2 154.5,-635.2"/>
<text text-anchor="start" x="174.5" y="-642.3" font-family="Helvetica,sans-Serif" font-size="11.00" fill="#000000">name</text>
<polygon fill="none" stroke="#000000" points="154.5,-613.2 154.5,-635.2 383.5,-635.2 383.5,-613.2 154.5,-613.2"/>
<text text-anchor="start" x="174.5" y="-620.3" font-family="Helvetica,sans-Serif" font-size="11.00" fill="#000000">status</text>
<polygon fill="none" stroke="#000000" points="154.5,-591.2 154.5,-613.2 383.5,-613.2 383.5,-591.2 154.5,-591.2"/>
<text text-anchor="start" x="174.5" y="-598.3" font-family="Helvetica,sans-Serif" font-size="11.00" fill="#000000">start_at</text>
<polygon fill="none" stroke="#000000" points="154.5,-569.2 154.5,-591.2 383.5,-591.2 383.5,-569.2 154.5,-569.2"/>
<text text-anchor="start" x="174.5" y="-576.3" font-family="Helvetica,sans-Serif" font-size="11.00" fill="#000000">end_at</text>
<polygon fill="none" stroke="#000000" points="154.5,-547.2 154.5,-569.2 383.5,-569.2 383.5,-547.2 154.5,-547.2"/>
<text text-anchor="start" x="174.5" y="-554.3" font-family="Helvetica,sans-Serif" font-size="11.00" fill="#000000">revenue_share_rate</text>
<polygon fill="none" stroke="#000000" points="154.5,-525.2 154.5,-547.2 383.5,-547.2 383.5,-525.2 154.5,-525.2"/>
<text text-anchor="start" x="174.5" y="-532.3" font-family="Helvetica,sans-Serif" font-size="11.00" fill="#000000">max_total_budget</text>
<polygon fill="none" stroke="#000000" points="154.5,-503.2 154.5,-525.2 383.5,-525.2 383.5,-503.2 154.5,-503.2"/>
<text text-anchor="start" x="174.5" y="-510.3" font-family="Helvetica,sans-Serif" font-size="11.00" fill="#000000">max_monthly_budget</text>
<polygon fill="none" stroke="#000000" points="154.5,-481.2 154.5,-503.2 383.5,-503.2 383.5,-481.2 154.5,-481.2"/>
<text text-anchor="start" x="174.5" y="-488.3" font-family="Helvetica,sans-Serif" font-size="11.00" fill="#000000">max_daily_budget</text>
<polygon fill="none" stroke="#000000" points="154.5,-459.2 154.5,-481.2 383.5,-481.2 383.5,-459.2 154.5,-459.2"/>
<text text-anchor="start" x="174.5" y="-466.3" font-family="Helvetica,sans-Serif" font-size="11.00" fill="#000000">max_hourly_budget</text>
<polygon fill="none" stroke="#000000" points="154.5,-437.2 154.5,-459.2 383.5,-459.2 383.5,-437.2 154.5,-437.2"/>
<text text-anchor="start" x="174.5" y="-444.3" font-family="Helvetica,sans-Serif" font-size="11.00" fill="#000000">frequency_control_interval_sec</text>
<polygon fill="none" stroke="#000000" points="154.5,-415.2 154.5,-437.2 383.5,-437.2 383.5,-415.2 154.5,-415.2"/>
<text text-anchor="start" x="174.5" y="-422.3" font-family="Helvetica,sans-Serif" font-size="11.00" fill="#000000">created_at</text>
<polygon fill="none" stroke="#000000" points="154.5,-393.2 154.5,-415.2 383.5,-415.2 383.5,-393.2 154.5,-393.2"/>
<text text-anchor="start" x="174.5" y="-400.3" font-family="Helvetica,sans-Serif" font-size="11.00" fill="#000000">updated_at</text>
<polygon fill="none" stroke="#000000" points="154.5,-371.2 154.5,-393.2 383.5,-393.2 383.5,-371.2 154.5,-371.2"/>
<text text-anchor="start" x="174.5" y="-378.3" font-family="Helvetica,sans-Serif" font-size="11.00" fill="#000000">deleted_at</text>
<polygon fill="#ffffff" stroke="transparent" points="154.5,-352.2 154.5,-371.2 262.5,-371.2 262.5,-352.2 154.5,-352.2"/>
<polygon fill="none" stroke="#000000" points="154.5,-352.2 154.5,-371.2 262.5,-371.2 262.5,-352.2 154.5,-352.2"/>
<text text-anchor="start" x="157.5" y="-358.3" font-family="Helvetica,sans-Serif" font-size="11.00" fill="#000000">&lt; 1</text>
<polygon fill="#ffffff" stroke="transparent" points="262.5,-352.2 262.5,-371.2 318.5,-371.2 318.5,-352.2 262.5,-352.2"/>
<polygon fill="none" stroke="#000000" points="262.5,-352.2 262.5,-371.2 318.5,-371.2 318.5,-352.2 262.5,-352.2"/>
<text text-anchor="start" x="309.3862" y="-358.3" font-family="Helvetica,sans-Serif" font-size="11.00" fill="#000000"> &#160;</text>
<polygon fill="#ffffff" stroke="transparent" points="318.5,-352.2 318.5,-371.2 383.5,-371.2 383.5,-352.2 318.5,-352.2"/>
<polygon fill="none" stroke="#000000" points="318.5,-352.2 318.5,-371.2 383.5,-371.2 383.5,-352.2 318.5,-352.2"/>
<text text-anchor="start" x="364.9053" y="-358.3" font-family="Helvetica,sans-Serif" font-size="11.00" fill="#000000">1 &gt;</text>
</a>
</g>
</g>
<!-- adgroups&#45;&gt;campaigns -->
<g id="edge1" class="edge">
<title>adgroups:w&#45;&gt;campaigns:e</title>
<path fill="none" stroke="#000000" d="M417.9909,-690.2C406.6774,-690.2 399.4931,-690.2 383.5,-690.2"/>
<polygon fill="#000000" stroke="#000000" points="424.5,-690.2001 432.5,-693.8 428.5,-690.2 432.5,-690.2 432.5,-690.2 432.5,-690.2 428.5,-690.2 432.5,-686.6 424.5,-690.2001 424.5,-690.2001"/>
<ellipse fill="none" stroke="#000000" cx="421.3" cy="-690.2001" rx="3.2" ry="3.2"/>
</g>
<!-- adgroups_locations -->
<g id="node2" class="node">
<title>adgroups_locations</title>
<g id="a_node2"><a xlink:href="../../tables/adgroups_locations.html" xlink:title="adgroups_locations" target="_top">
<polygon fill="#ffffff" stroke="transparent" points="646,-283.2 646,-457.2 798,-457.2 798,-283.2 646,-283.2"/>
<polygon fill="#f5f5f5" stroke="transparent" points="646,-434.2 646,-457.2 798,-457.2 798,-434.2 646,-434.2"/>
<polygon fill="none" stroke="#000000" points="646,-434.2 646,-457.2 798,-457.2 798,-434.2 646,-434.2"/>
<text text-anchor="start" x="651" y="-443.3" font-family="Helvetica,sans-Serif" font-weight="bold" font-size="11.00" fill="#000000">adgroups_locations</text>
<text text-anchor="start" x="763.0437" y="-442.3" font-family="Helvetica,sans-Serif" font-size="11.00" fill="#000000">[table]</text>
<polygon fill="none" stroke="#000000" points="646,-412.2 646,-434.2 798,-434.2 798,-412.2 646,-412.2"/>
<image xlink:href="../../images/primaryKeys.png" width="11px" height="12px" preserveAspectRatio="xMinYMin meet" x="651" y="-429.2"/>
<text text-anchor="start" x="666" y="-419.3" font-family="Helvetica,sans-Serif" font-size="11.00" fill="#000000">id</text>
<polygon fill="#ffffff" stroke="transparent" points="646,-390.2 646,-412.2 798,-412.2 798,-390.2 646,-390.2"/>
<polygon fill="none" stroke="#000000" points="646,-390.2 646,-412.2 798,-412.2 798,-390.2 646,-390.2"/>
<image xlink:href="../../images/foreignKeys.png" width="11px" height="12px" preserveAspectRatio="xMinYMin meet" x="651" y="-407.2"/>
<text text-anchor="start" x="666" y="-397.3" font-family="Helvetica,sans-Serif" font-size="11.00" fill="#000000">adgroup_id</text>
<polygon fill="#ffffff" stroke="transparent" points="646,-368.2 646,-390.2 798,-390.2 798,-368.2 646,-368.2"/>
<polygon fill="none" stroke="#000000" points="646,-368.2 646,-390.2 798,-390.2 798,-368.2 646,-368.2"/>
<image xlink:href="../../images/foreignKeys.png" width="11px" height="12px" preserveAspectRatio="xMinYMin meet" x="651" y="-385.2"/>
<text text-anchor="start" x="666" y="-375.3" font-family="Helvetica,sans-Serif" font-size="11.00" fill="#000000">location_id</text>
<polygon fill="none" stroke="#000000" points="646,-346.2 646,-368.2 798,-368.2 798,-346.2 646,-346.2"/>
<text text-anchor="start" x="666" y="-353.3" font-family="Helvetica,sans-Serif" font-size="11.00" fill="#000000">created_at</text>
<polygon fill="none" stroke="#000000" points="646,-324.2 646,-346.2 798,-346.2 798,-324.2 646,-324.2"/>
<text text-anchor="start" x="666" y="-331.3" font-family="Helvetica,sans-Serif" font-size="11.00" fill="#000000">updated_at</text>
<polygon fill="none" stroke="#000000" points="646,-302.2 646,-324.2 798,-324.2 798,-302.2 646,-302.2"/>
<text text-anchor="start" x="666" y="-309.3" font-family="Helvetica,sans-Serif" font-size="11.00" fill="#000000">deleted_at</text>
<polygon fill="#ffffff" stroke="transparent" points="646,-283.2 646,-302.2 720,-302.2 720,-283.2 646,-283.2"/>
<polygon fill="none" stroke="#000000" points="646,-283.2 646,-302.2 720,-302.2 720,-283.2 646,-283.2"/>
<text text-anchor="start" x="649" y="-289.3" font-family="Helvetica,sans-Serif" font-size="11.00" fill="#000000">&lt; 2</text>
<polygon fill="#ffffff" stroke="transparent" points="720,-283.2 720,-302.2 759,-302.2 759,-283.2 720,-283.2"/>
<polygon fill="none" stroke="#000000" points="720,-283.2 720,-302.2 759,-302.2 759,-283.2 720,-283.2"/>
<text text-anchor="start" x="749.8862" y="-289.3" font-family="Helvetica,sans-Serif" font-size="11.00" fill="#000000"> &#160;</text>
<polygon fill="#ffffff" stroke="transparent" points="759,-283.2 759,-302.2 798,-302.2 798,-283.2 759,-283.2"/>
<polygon fill="none" stroke="#000000" points="759,-283.2 759,-302.2 798,-302.2 798,-283.2 759,-283.2"/>
<text text-anchor="start" x="788.8862" y="-289.3" font-family="Helvetica,sans-Serif" font-size="11.00" fill="#000000"> &#160;</text>
</a>
</g>
</g>
<!-- adgroups_locations&#45;&gt;adgroups -->
<g id="edge2" class="edge">
<title>adgroups_locations:w&#45;&gt;adgroups:e</title>
<path fill="none" stroke="#000000" d="M632.4066,-406.598C589.349,-447.8956 661.9819,-712.2 597.5,-712.2"/>
<polygon fill="#000000" stroke="#000000" points="638.5648,-404.1526 647.3287,-404.5458 642.2824,-402.6763 646,-401.2 646,-401.2 646,-401.2 642.2824,-402.6763 644.6713,-397.8542 638.5648,-404.1526 638.5648,-404.1526"/>
<ellipse fill="none" stroke="#000000" cx="635.5907" cy="-405.3336" rx="3.2" ry="3.2"/>
</g>
<!-- locations -->
<g id="node8" class="node">
<title>locations</title>
<g id="a_node8"><a xlink:href="../../tables/locations.html" xlink:title="locations" target="_top">
<polygon fill="#ffffff" stroke="transparent" points="444,-38.2 444,-278.2 585,-278.2 585,-38.2 444,-38.2"/>
<polygon fill="#f5f5f5" stroke="transparent" points="444.5,-255.2 444.5,-278.2 585.5,-278.2 585.5,-255.2 444.5,-255.2"/>
<polygon fill="none" stroke="#000000" points="444.5,-255.2 444.5,-278.2 585.5,-278.2 585.5,-255.2 444.5,-255.2"/>
<text text-anchor="start" x="449.5" y="-264.3" font-family="Helvetica,sans-Serif" font-weight="bold" font-size="11.00" fill="#000000">locations</text>
<text text-anchor="start" x="550.5437" y="-263.3" font-family="Helvetica,sans-Serif" font-size="11.00" fill="#000000">[table]</text>
<polygon fill="none" stroke="#000000" points="444.5,-233.2 444.5,-255.2 585.5,-255.2 585.5,-233.2 444.5,-233.2"/>
<image xlink:href="../../images/primaryKeys.png" width="11px" height="12px" preserveAspectRatio="xMinYMin meet" x="449.5" y="-250.2"/>
<text text-anchor="start" x="464.5" y="-240.3" font-family="Helvetica,sans-Serif" font-size="11.00" fill="#000000">id</text>
<polygon fill="#ffffff" stroke="transparent" points="444.5,-211.2 444.5,-233.2 585.5,-233.2 585.5,-211.2 444.5,-211.2"/>
<polygon fill="none" stroke="#000000" points="444.5,-211.2 444.5,-233.2 585.5,-233.2 585.5,-211.2 444.5,-211.2"/>
<image xlink:href="../../images/foreignKeys.png" width="11px" height="12px" preserveAspectRatio="xMinYMin meet" x="449.5" y="-228.2"/>
<text text-anchor="start" x="464.5" y="-218.3" font-family="Helvetica,sans-Serif" font-size="11.00" fill="#000000">location_owner_id</text>
<polygon fill="none" stroke="#000000" points="444.5,-189.2 444.5,-211.2 585.5,-211.2 585.5,-189.2 444.5,-189.2"/>
<text text-anchor="start" x="464.5" y="-196.3" font-family="Helvetica,sans-Serif" font-size="11.00" fill="#000000">name</text>
<polygon fill="none" stroke="#000000" points="444.5,-167.2 444.5,-189.2 585.5,-189.2 585.5,-167.2 444.5,-167.2"/>
<text text-anchor="start" x="464.5" y="-174.3" font-family="Helvetica,sans-Serif" font-size="11.00" fill="#000000">address</text>
<polygon fill="none" stroke="#000000" points="444.5,-145.2 444.5,-167.2 585.5,-167.2 585.5,-145.2 444.5,-145.2"/>
<text text-anchor="start" x="464.5" y="-152.3" font-family="Helvetica,sans-Serif" font-size="11.00" fill="#000000">latitude</text>
<polygon fill="none" stroke="#000000" points="444.5,-123.2 444.5,-145.2 585.5,-145.2 585.5,-123.2 444.5,-123.2"/>
<text text-anchor="start" x="464.5" y="-130.3" font-family="Helvetica,sans-Serif" font-size="11.00" fill="#000000">longitude</text>
<polygon fill="none" stroke="#000000" points="444.5,-101.2 444.5,-123.2 585.5,-123.2 585.5,-101.2 444.5,-101.2"/>
<text text-anchor="start" x="464.5" y="-108.3" font-family="Helvetica,sans-Serif" font-size="11.00" fill="#000000">created_at</text>
<polygon fill="none" stroke="#000000" points="444.5,-79.2 444.5,-101.2 585.5,-101.2 585.5,-79.2 444.5,-79.2"/>
<text text-anchor="start" x="464.5" y="-86.3" font-family="Helvetica,sans-Serif" font-size="11.00" fill="#000000">updated_at</text>
<polygon fill="none" stroke="#000000" points="444.5,-57.2 444.5,-79.2 585.5,-79.2 585.5,-57.2 444.5,-57.2"/>
<text text-anchor="start" x="464.5" y="-64.3" font-family="Helvetica,sans-Serif" font-size="11.00" fill="#000000">deleted_at</text>
<polygon fill="#ffffff" stroke="transparent" points="444.5,-38.2 444.5,-57.2 508.5,-57.2 508.5,-38.2 444.5,-38.2"/>
<polygon fill="none" stroke="#000000" points="444.5,-38.2 444.5,-57.2 508.5,-57.2 508.5,-38.2 444.5,-38.2"/>
<text text-anchor="start" x="447.5" y="-44.3" font-family="Helvetica,sans-Serif" font-size="11.00" fill="#000000">&lt; 1</text>
<polygon fill="#ffffff" stroke="transparent" points="508.5,-38.2 508.5,-57.2 542.5,-57.2 542.5,-38.2 508.5,-38.2"/>
<polygon fill="none" stroke="#000000" points="508.5,-38.2 508.5,-57.2 542.5,-57.2 542.5,-38.2 508.5,-38.2"/>
<text text-anchor="start" x="533.3862" y="-44.3" font-family="Helvetica,sans-Serif" font-size="11.00" fill="#000000"> &#160;</text>
<polygon fill="#ffffff" stroke="transparent" points="542.5,-38.2 542.5,-57.2 585.5,-57.2 585.5,-38.2 542.5,-38.2"/>
<polygon fill="none" stroke="#000000" points="542.5,-38.2 542.5,-57.2 585.5,-57.2 585.5,-38.2 542.5,-38.2"/>
<text text-anchor="start" x="566.9053" y="-44.3" font-family="Helvetica,sans-Serif" font-size="11.00" fill="#000000">2 &gt;</text>
</a>
</g>
</g>
<!-- adgroups_locations&#45;&gt;locations -->
<g id="edge3" class="edge">
<title>adgroups_locations:w&#45;&gt;locations:e</title>
<path fill="none" stroke="#000000" d="M631.647,-376.2548C591.6744,-356.5124 645.4708,-244.2 585.5,-244.2"/>
<polygon fill="#000000" stroke="#000000" points="638.1633,-377.5919 645.2763,-382.7265 642.0816,-378.3959 646,-379.2 646,-379.2 646,-379.2 642.0816,-378.3959 646.7237,-375.6735 638.1633,-377.5919 638.1633,-377.5919"/>
<ellipse fill="none" stroke="#000000" cx="635.0286" cy="-376.9486" rx="3.2" ry="3.2"/>
</g>
<!-- ads -->
<g id="node3" class="node">
<title>ads</title>
<g id="a_node3"><a xlink:href="../../tables/ads.html" xlink:title="ads" target="_top">
<polygon fill="#ffffff" stroke="transparent" points="667,-478.2 667,-806.2 777,-806.2 777,-478.2 667,-478.2"/>
<polygon fill="#f5f5f5" stroke="transparent" points="667,-783.2 667,-806.2 777,-806.2 777,-783.2 667,-783.2"/>
<polygon fill="none" stroke="#000000" points="667,-783.2 667,-806.2 777,-806.2 777,-783.2 667,-783.2"/>
<text text-anchor="start" x="672" y="-792.3" font-family="Helvetica,sans-Serif" font-weight="bold" font-size="11.00" fill="#000000">ads</text>
<text text-anchor="start" x="742.0437" y="-791.3" font-family="Helvetica,sans-Serif" font-size="11.00" fill="#000000">[table]</text>
<polygon fill="none" stroke="#000000" points="667,-761.2 667,-783.2 777,-783.2 777,-761.2 667,-761.2"/>
<image xlink:href="../../images/primaryKeys.png" width="11px" height="12px" preserveAspectRatio="xMinYMin meet" x="672" y="-778.2"/>
<text text-anchor="start" x="687" y="-768.3" font-family="Helvetica,sans-Serif" font-size="11.00" fill="#000000">id</text>
<polygon fill="#ffffff" stroke="transparent" points="667,-739.2 667,-761.2 777,-761.2 777,-739.2 667,-739.2"/>
<polygon fill="none" stroke="#000000" points="667,-739.2 667,-761.2 777,-761.2 777,-739.2 667,-739.2"/>
<image xlink:href="../../images/foreignKeys.png" width="11px" height="12px" preserveAspectRatio="xMinYMin meet" x="672" y="-756.2"/>
<text text-anchor="start" x="687" y="-746.3" font-family="Helvetica,sans-Serif" font-size="11.00" fill="#000000">adgroup_id</text>
<polygon fill="none" stroke="#000000" points="667,-717.2 667,-739.2 777,-739.2 777,-717.2 667,-717.2"/>
<text text-anchor="start" x="687" y="-724.3" font-family="Helvetica,sans-Serif" font-size="11.00" fill="#000000">name</text>
<polygon fill="none" stroke="#000000" points="667,-695.2 667,-717.2 777,-717.2 777,-695.2 667,-695.2"/>
<text text-anchor="start" x="687" y="-702.3" font-family="Helvetica,sans-Serif" font-size="11.00" fill="#000000">status</text>
<polygon fill="none" stroke="#000000" points="667,-673.2 667,-695.2 777,-695.2 777,-673.2 667,-673.2"/>
<text text-anchor="start" x="687" y="-680.3" font-family="Helvetica,sans-Serif" font-size="11.00" fill="#000000">start_at</text>
<polygon fill="none" stroke="#000000" points="667,-651.2 667,-673.2 777,-673.2 777,-651.2 667,-651.2"/>
<text text-anchor="start" x="687" y="-658.3" font-family="Helvetica,sans-Serif" font-size="11.00" fill="#000000">end_at</text>
<polygon fill="none" stroke="#000000" points="667,-629.2 667,-651.2 777,-651.2 777,-629.2 667,-629.2"/>
<text text-anchor="start" x="687" y="-636.3" font-family="Helvetica,sans-Serif" font-size="11.00" fill="#000000">movie_sec</text>
<polygon fill="none" stroke="#000000" points="667,-607.2 667,-629.2 777,-629.2 777,-607.2 667,-607.2"/>
<text text-anchor="start" x="687" y="-614.3" font-family="Helvetica,sans-Serif" font-size="11.00" fill="#000000">content_path</text>
<polygon fill="none" stroke="#000000" points="667,-585.2 667,-607.2 777,-607.2 777,-585.2 667,-585.2"/>
<text text-anchor="start" x="687" y="-592.3" font-family="Helvetica,sans-Serif" font-size="11.00" fill="#000000">width</text>
<polygon fill="none" stroke="#000000" points="667,-563.2 667,-585.2 777,-585.2 777,-563.2 667,-563.2"/>
<text text-anchor="start" x="687" y="-570.3" font-family="Helvetica,sans-Serif" font-size="11.00" fill="#000000">height</text>
<polygon fill="none" stroke="#000000" points="667,-541.2 667,-563.2 777,-563.2 777,-541.2 667,-541.2"/>
<text text-anchor="start" x="687" y="-548.3" font-family="Helvetica,sans-Serif" font-size="11.00" fill="#000000">created_at</text>
<polygon fill="none" stroke="#000000" points="667,-519.2 667,-541.2 777,-541.2 777,-519.2 667,-519.2"/>
<text text-anchor="start" x="687" y="-526.3" font-family="Helvetica,sans-Serif" font-size="11.00" fill="#000000">updated_at</text>
<polygon fill="none" stroke="#000000" points="667,-497.2 667,-519.2 777,-519.2 777,-497.2 667,-497.2"/>
<text text-anchor="start" x="687" y="-504.3" font-family="Helvetica,sans-Serif" font-size="11.00" fill="#000000">deleted_at</text>
<polygon fill="#ffffff" stroke="transparent" points="667,-478.2 667,-497.2 720,-497.2 720,-478.2 667,-478.2"/>
<polygon fill="none" stroke="#000000" points="667,-478.2 667,-497.2 720,-497.2 720,-478.2 667,-478.2"/>
<text text-anchor="start" x="670" y="-484.3" font-family="Helvetica,sans-Serif" font-size="11.00" fill="#000000">&lt; 1</text>
<polygon fill="#ffffff" stroke="transparent" points="720,-478.2 720,-497.2 748,-497.2 748,-478.2 720,-478.2"/>
<polygon fill="none" stroke="#000000" points="720,-478.2 720,-497.2 748,-497.2 748,-478.2 720,-478.2"/>
<text text-anchor="start" x="738.8862" y="-484.3" font-family="Helvetica,sans-Serif" font-size="11.00" fill="#000000"> &#160;</text>
<polygon fill="#ffffff" stroke="transparent" points="748,-478.2 748,-497.2 777,-497.2 777,-478.2 748,-478.2"/>
<polygon fill="none" stroke="#000000" points="748,-478.2 748,-497.2 777,-497.2 777,-478.2 748,-478.2"/>
<text text-anchor="start" x="767.8862" y="-484.3" font-family="Helvetica,sans-Serif" font-size="11.00" fill="#000000"> &#160;</text>
</a>
</g>
</g>
<!-- ads&#45;&gt;adgroups -->
<g id="edge4" class="edge">
<title>ads:w&#45;&gt;adgroups:e</title>
<path fill="none" stroke="#000000" d="M652.5676,-747.5881C631.1603,-739.0028 627.0663,-712.2 597.5,-712.2"/>
<polygon fill="#000000" stroke="#000000" points="659.1279,-748.7753 666.3589,-753.7425 663.0639,-749.4877 667,-750.2 667,-750.2 667,-750.2 663.0639,-749.4877 667.6411,-746.6575 659.1279,-748.7753 659.1279,-748.7753"/>
<ellipse fill="none" stroke="#000000" cx="655.979" cy="-748.2054" rx="3.2" ry="3.2"/>
</g>
<!-- advertiser_users -->
<g id="node4" class="node">
<title>advertiser_users</title>
<g id="a_node4"><a xlink:href="../../tables/advertiser_users.html" xlink:title="advertiser_users" target="_top">
<polygon fill="#ffffff" stroke="transparent" points="188.5,-745.2 188.5,-985.2 348.5,-985.2 348.5,-745.2 188.5,-745.2"/>
<polygon fill="#f5f5f5" stroke="transparent" points="188.5,-962.2 188.5,-985.2 348.5,-985.2 348.5,-962.2 188.5,-962.2"/>
<polygon fill="none" stroke="#000000" points="188.5,-962.2 188.5,-985.2 348.5,-985.2 348.5,-962.2 188.5,-962.2"/>
<text text-anchor="start" x="193.5" y="-971.3" font-family="Helvetica,sans-Serif" font-weight="bold" font-size="11.00" fill="#000000">advertiser_users</text>
<text text-anchor="start" x="313.5437" y="-970.3" font-family="Helvetica,sans-Serif" font-size="11.00" fill="#000000">[table]</text>
<polygon fill="none" stroke="#000000" points="188.5,-940.2 188.5,-962.2 348.5,-962.2 348.5,-940.2 188.5,-940.2"/>
<image xlink:href="../../images/primaryKeys.png" width="11px" height="12px" preserveAspectRatio="xMinYMin meet" x="193.5" y="-957.2"/>
<text text-anchor="start" x="208.5" y="-947.3" font-family="Helvetica,sans-Serif" font-size="11.00" fill="#000000">id</text>
<polygon fill="#ffffff" stroke="transparent" points="188.5,-918.2 188.5,-940.2 348.5,-940.2 348.5,-918.2 188.5,-918.2"/>
<polygon fill="none" stroke="#000000" points="188.5,-918.2 188.5,-940.2 348.5,-940.2 348.5,-918.2 188.5,-918.2"/>
<image xlink:href="../../images/foreignKeys.png" width="11px" height="12px" preserveAspectRatio="xMinYMin meet" x="193.5" y="-935.2"/>
<text text-anchor="start" x="208.5" y="-925.3" font-family="Helvetica,sans-Serif" font-size="11.00" fill="#000000">advertiser_id</text>
<polygon fill="none" stroke="#000000" points="188.5,-896.2 188.5,-918.2 348.5,-918.2 348.5,-896.2 188.5,-896.2"/>
<text text-anchor="start" x="208.5" y="-903.3" font-family="Helvetica,sans-Serif" font-size="11.00" fill="#000000">login_name</text>
<polygon fill="none" stroke="#000000" points="188.5,-874.2 188.5,-896.2 348.5,-896.2 348.5,-874.2 188.5,-874.2"/>
<text text-anchor="start" x="208.5" y="-881.3" font-family="Helvetica,sans-Serif" font-size="11.00" fill="#000000">email</text>
<polygon fill="none" stroke="#000000" points="188.5,-852.2 188.5,-874.2 348.5,-874.2 348.5,-852.2 188.5,-852.2"/>
<text text-anchor="start" x="208.5" y="-859.3" font-family="Helvetica,sans-Serif" font-size="11.00" fill="#000000">encrypted_password</text>
<polygon fill="none" stroke="#000000" points="188.5,-830.2 188.5,-852.2 348.5,-852.2 348.5,-830.2 188.5,-830.2"/>
<text text-anchor="start" x="208.5" y="-837.3" font-family="Helvetica,sans-Serif" font-size="11.00" fill="#000000">last_sign_in_at</text>
<polygon fill="none" stroke="#000000" points="188.5,-808.2 188.5,-830.2 348.5,-830.2 348.5,-808.2 188.5,-808.2"/>
<text text-anchor="start" x="208.5" y="-815.3" font-family="Helvetica,sans-Serif" font-size="11.00" fill="#000000">created_at</text>
<polygon fill="none" stroke="#000000" points="188.5,-786.2 188.5,-808.2 348.5,-808.2 348.5,-786.2 188.5,-786.2"/>
<text text-anchor="start" x="208.5" y="-793.3" font-family="Helvetica,sans-Serif" font-size="11.00" fill="#000000">updated_at</text>
<polygon fill="none" stroke="#000000" points="188.5,-764.2 188.5,-786.2 348.5,-786.2 348.5,-764.2 188.5,-764.2"/>
<text text-anchor="start" x="208.5" y="-771.3" font-family="Helvetica,sans-Serif" font-size="11.00" fill="#000000">deleted_at</text>
<polygon fill="#ffffff" stroke="transparent" points="188.5,-745.2 188.5,-764.2 266.5,-764.2 266.5,-745.2 188.5,-745.2"/>
<polygon fill="none" stroke="#000000" points="188.5,-745.2 188.5,-764.2 266.5,-764.2 266.5,-745.2 188.5,-745.2"/>
<text text-anchor="start" x="191.5" y="-751.3" font-family="Helvetica,sans-Serif" font-size="11.00" fill="#000000">&lt; 1</text>
<polygon fill="#ffffff" stroke="transparent" points="266.5,-745.2 266.5,-764.2 307.5,-764.2 307.5,-745.2 266.5,-745.2"/>
<polygon fill="none" stroke="#000000" points="266.5,-745.2 266.5,-764.2 307.5,-764.2 307.5,-745.2 266.5,-745.2"/>
<text text-anchor="start" x="298.3862" y="-751.3" font-family="Helvetica,sans-Serif" font-size="11.00" fill="#000000"> &#160;</text>
<polygon fill="#ffffff" stroke="transparent" points="307.5,-745.2 307.5,-764.2 348.5,-764.2 348.5,-745.2 307.5,-745.2"/>
<polygon fill="none" stroke="#000000" points="307.5,-745.2 307.5,-764.2 348.5,-764.2 348.5,-745.2 307.5,-745.2"/>
<text text-anchor="start" x="339.3862" y="-751.3" font-family="Helvetica,sans-Serif" font-size="11.00" fill="#000000"> &#160;</text>
</a>
</g>
</g>
<!-- advertisers -->
<g id="node5" class="node">
<title>advertisers</title>
<g id="a_node5"><a xlink:href="../../tables/advertisers.html" xlink:title="advertisers" target="_top">
<polygon fill="#ffffff" stroke="transparent" points="8,-636.2 8,-832.2 105,-832.2 105,-636.2 8,-636.2"/>
<polygon fill="#f5f5f5" stroke="transparent" points="8.5,-809.2 8.5,-832.2 105.5,-832.2 105.5,-809.2 8.5,-809.2"/>
<polygon fill="none" stroke="#000000" points="8.5,-809.2 8.5,-832.2 105.5,-832.2 105.5,-809.2 8.5,-809.2"/>
<text text-anchor="start" x="13.5" y="-818.3" font-family="Helvetica,sans-Serif" font-weight="bold" font-size="11.00" fill="#000000">advertisers</text>
<text text-anchor="start" x="71.0219" y="-817.3" font-family="Helvetica,sans-Serif" font-size="11.00" fill="#000000">[table]</text>
<polygon fill="none" stroke="#000000" points="8.5,-787.2 8.5,-809.2 105.5,-809.2 105.5,-787.2 8.5,-787.2"/>
<image xlink:href="../../images/primaryKeys.png" width="11px" height="12px" preserveAspectRatio="xMinYMin meet" x="13.5" y="-804.2"/>
<text text-anchor="start" x="28.5" y="-794.3" font-family="Helvetica,sans-Serif" font-size="11.00" fill="#000000">id</text>
<polygon fill="none" stroke="#000000" points="8.5,-765.2 8.5,-787.2 105.5,-787.2 105.5,-765.2 8.5,-765.2"/>
<text text-anchor="start" x="28.5" y="-772.3" font-family="Helvetica,sans-Serif" font-size="11.00" fill="#000000">name</text>
<polygon fill="none" stroke="#000000" points="8.5,-743.2 8.5,-765.2 105.5,-765.2 105.5,-743.2 8.5,-743.2"/>
<text text-anchor="start" x="28.5" y="-750.3" font-family="Helvetica,sans-Serif" font-size="11.00" fill="#000000">domain</text>
<polygon fill="none" stroke="#000000" points="8.5,-721.2 8.5,-743.2 105.5,-743.2 105.5,-721.2 8.5,-721.2"/>
<text text-anchor="start" x="28.5" y="-728.3" font-family="Helvetica,sans-Serif" font-size="11.00" fill="#000000">is_test</text>
<polygon fill="none" stroke="#000000" points="8.5,-699.2 8.5,-721.2 105.5,-721.2 105.5,-699.2 8.5,-699.2"/>
<text text-anchor="start" x="28.5" y="-706.3" font-family="Helvetica,sans-Serif" font-size="11.00" fill="#000000">created_at</text>
<polygon fill="none" stroke="#000000" points="8.5,-677.2 8.5,-699.2 105.5,-699.2 105.5,-677.2 8.5,-677.2"/>
<text text-anchor="start" x="28.5" y="-684.3" font-family="Helvetica,sans-Serif" font-size="11.00" fill="#000000">updated_at</text>
<polygon fill="none" stroke="#000000" points="8.5,-655.2 8.5,-677.2 105.5,-677.2 105.5,-655.2 8.5,-655.2"/>
<text text-anchor="start" x="28.5" y="-662.3" font-family="Helvetica,sans-Serif" font-size="11.00" fill="#000000">deleted_at</text>
<polygon fill="#ffffff" stroke="transparent" points="8.5,-636.2 8.5,-655.2 46.5,-655.2 46.5,-636.2 8.5,-636.2"/>
<polygon fill="none" stroke="#000000" points="8.5,-636.2 8.5,-655.2 46.5,-655.2 46.5,-636.2 8.5,-636.2"/>
<text text-anchor="start" x="11.5" y="-642.3" font-family="Helvetica,sans-Serif" font-size="11.00" fill="#000000"> &#160;</text>
<polygon fill="#ffffff" stroke="transparent" points="46.5,-636.2 46.5,-655.2 71.5,-655.2 71.5,-636.2 46.5,-636.2"/>
<polygon fill="none" stroke="#000000" points="46.5,-636.2 46.5,-655.2 71.5,-655.2 71.5,-636.2 46.5,-636.2"/>
<text text-anchor="start" x="62.3862" y="-642.3" font-family="Helvetica,sans-Serif" font-size="11.00" fill="#000000"> &#160;</text>
<polygon fill="#ffffff" stroke="transparent" points="71.5,-636.2 71.5,-655.2 105.5,-655.2 105.5,-636.2 71.5,-636.2"/>
<polygon fill="none" stroke="#000000" points="71.5,-636.2 71.5,-655.2 105.5,-655.2 105.5,-636.2 71.5,-636.2"/>
<text text-anchor="start" x="86.9053" y="-642.3" font-family="Helvetica,sans-Serif" font-size="11.00" fill="#000000">2 &gt;</text>
</a>
</g>
</g>
<!-- advertiser_users&#45;&gt;advertisers -->
<g id="edge5" class="edge">
<title>advertiser_users:w&#45;&gt;advertisers:e</title>
<path fill="none" stroke="#000000" d="M174.1959,-926.8144C127.5661,-909.0596 168.9054,-798.2 105.5,-798.2"/>
<polygon fill="#000000" stroke="#000000" points="180.609,-927.8839 187.9078,-932.751 184.5545,-928.542 188.5,-929.2 188.5,-929.2 188.5,-929.2 184.5545,-928.542 189.0922,-925.649 180.609,-927.8839 180.609,-927.8839"/>
<ellipse fill="none" stroke="#000000" cx="177.4526" cy="-927.3575" rx="3.2" ry="3.2"/>
</g>
<!-- campaigns&#45;&gt;advertisers -->
<g id="edge6" class="edge">
<title>campaigns:w&#45;&gt;advertisers:e</title>
<path fill="none" stroke="#000000" d="M140.0544,-671.6772C106.0041,-692.3508 161.2159,-798.2 105.5,-798.2"/>
<polygon fill="#000000" stroke="#000000" points="146.7222,-670.0722 155.3425,-671.7 150.6111,-669.1361 154.5,-668.2 154.5,-668.2 154.5,-668.2 150.6111,-669.1361 153.6575,-664.7 146.7222,-670.0722 146.7222,-670.0722"/>
<ellipse fill="none" stroke="#000000" cx="143.611" cy="-670.8211" rx="3.2" ry="3.2"/>
</g>
<!-- location_owners -->
<g id="node7" class="node">
<title>location_owners</title>
<g id="a_node7"><a xlink:href="../../tables/location_owners.html" xlink:title="location_owners" target="_top">
<polygon fill="#ffffff" stroke="transparent" points="203.5,-38.2 203.5,-256.2 333.5,-256.2 333.5,-38.2 203.5,-38.2"/>
<polygon fill="#f5f5f5" stroke="transparent" points="203.5,-233.2 203.5,-256.2 333.5,-256.2 333.5,-233.2 203.5,-233.2"/>
<polygon fill="none" stroke="#000000" points="203.5,-233.2 203.5,-256.2 333.5,-256.2 333.5,-233.2 203.5,-233.2"/>
<text text-anchor="start" x="208.5" y="-242.3" font-family="Helvetica,sans-Serif" font-weight="bold" font-size="11.00" fill="#000000">location_owners</text>
<text text-anchor="start" x="298.5437" y="-241.3" font-family="Helvetica,sans-Serif" font-size="11.00" fill="#000000">[table]</text>
<polygon fill="none" stroke="#000000" points="203.5,-211.2 203.5,-233.2 333.5,-233.2 333.5,-211.2 203.5,-211.2"/>
<image xlink:href="../../images/primaryKeys.png" width="11px" height="12px" preserveAspectRatio="xMinYMin meet" x="208.5" y="-228.2"/>
<text text-anchor="start" x="223.5" y="-218.3" font-family="Helvetica,sans-Serif" font-size="11.00" fill="#000000">id</text>
<polygon fill="none" stroke="#000000" points="203.5,-189.2 203.5,-211.2 333.5,-211.2 333.5,-189.2 203.5,-189.2"/>
<text text-anchor="start" x="223.5" y="-196.3" font-family="Helvetica,sans-Serif" font-size="11.00" fill="#000000">name</text>
<polygon fill="none" stroke="#000000" points="203.5,-167.2 203.5,-189.2 333.5,-189.2 333.5,-167.2 203.5,-167.2"/>
<text text-anchor="start" x="223.5" y="-174.3" font-family="Helvetica,sans-Serif" font-size="11.00" fill="#000000">hoge</text>
<polygon fill="none" stroke="#000000" points="203.5,-145.2 203.5,-167.2 333.5,-167.2 333.5,-145.2 203.5,-145.2"/>
<text text-anchor="start" x="223.5" y="-152.3" font-family="Helvetica,sans-Serif" font-size="11.00" fill="#000000">fuga</text>
<polygon fill="none" stroke="#000000" points="203.5,-123.2 203.5,-145.2 333.5,-145.2 333.5,-123.2 203.5,-123.2"/>
<text text-anchor="start" x="223.5" y="-130.3" font-family="Helvetica,sans-Serif" font-size="11.00" fill="#000000">is_test</text>
<polygon fill="none" stroke="#000000" points="203.5,-101.2 203.5,-123.2 333.5,-123.2 333.5,-101.2 203.5,-101.2"/>
<text text-anchor="start" x="223.5" y="-108.3" font-family="Helvetica,sans-Serif" font-size="11.00" fill="#000000">created_at</text>
<polygon fill="none" stroke="#000000" points="203.5,-79.2 203.5,-101.2 333.5,-101.2 333.5,-79.2 203.5,-79.2"/>
<text text-anchor="start" x="223.5" y="-86.3" font-family="Helvetica,sans-Serif" font-size="11.00" fill="#000000">updated_at</text>
<polygon fill="none" stroke="#000000" points="203.5,-57.2 203.5,-79.2 333.5,-79.2 333.5,-57.2 203.5,-57.2"/>
<text text-anchor="start" x="223.5" y="-64.3" font-family="Helvetica,sans-Serif" font-size="11.00" fill="#000000">deleted_at</text>
<polygon fill="#ffffff" stroke="transparent" points="203.5,-38.2 203.5,-57.2 257.5,-57.2 257.5,-38.2 203.5,-38.2"/>
<polygon fill="none" stroke="#000000" points="203.5,-38.2 203.5,-57.2 257.5,-57.2 257.5,-38.2 203.5,-38.2"/>
<text text-anchor="start" x="206.5" y="-44.3" font-family="Helvetica,sans-Serif" font-size="11.00" fill="#000000"> &#160;</text>
<polygon fill="#ffffff" stroke="transparent" points="257.5,-38.2 257.5,-57.2 290.5,-57.2 290.5,-38.2 257.5,-38.2"/>
<polygon fill="none" stroke="#000000" points="257.5,-38.2 257.5,-57.2 290.5,-57.2 290.5,-38.2 257.5,-38.2"/>
<text text-anchor="start" x="281.3862" y="-44.3" font-family="Helvetica,sans-Serif" font-size="11.00" fill="#000000"> &#160;</text>
<polygon fill="#ffffff" stroke="transparent" points="290.5,-38.2 290.5,-57.2 333.5,-57.2 333.5,-38.2 290.5,-38.2"/>
<polygon fill="none" stroke="#000000" points="290.5,-38.2 290.5,-57.2 333.5,-57.2 333.5,-38.2 290.5,-38.2"/>
<text text-anchor="start" x="314.9053" y="-44.3" font-family="Helvetica,sans-Serif" font-size="11.00" fill="#000000">1 &gt;</text>
</a>
</g>
</g>
<!-- locations&#45;&gt;location_owners -->
<g id="edge7" class="edge">
<title>locations:w&#45;&gt;location_owners:e</title>
<path fill="none" stroke="#000000" d="M430.0385,-222.2C392.1535,-222.2 377.6302,-222.2 333.5,-222.2"/>
<polygon fill="#000000" stroke="#000000" points="436.5,-222.2001 444.5,-225.8 440.5,-222.2 444.5,-222.2 444.5,-222.2 444.5,-222.2 440.5,-222.2 444.5,-218.6 436.5,-222.2001 436.5,-222.2001"/>
<ellipse fill="none" stroke="#000000" cx="433.3" cy="-222.2001" rx="3.2" ry="3.2"/>
</g>
<!-- signages -->
<g id="node9" class="node">
<title>signages</title>
<g id="a_node9"><a xlink:href="../../tables/signages.html" xlink:title="signages" target="_top">
<polygon fill="#ffffff" stroke="transparent" points="673.5,-44.2 673.5,-262.2 770.5,-262.2 770.5,-44.2 673.5,-44.2"/>
<polygon fill="#f5f5f5" stroke="transparent" points="674,-239.2 674,-262.2 771,-262.2 771,-239.2 674,-239.2"/>
<polygon fill="none" stroke="#000000" points="674,-239.2 674,-262.2 771,-262.2 771,-239.2 674,-239.2"/>
<text text-anchor="start" x="679" y="-248.3" font-family="Helvetica,sans-Serif" font-weight="bold" font-size="11.00" fill="#000000">signages</text>
<text text-anchor="start" x="736.0437" y="-247.3" font-family="Helvetica,sans-Serif" font-size="11.00" fill="#000000">[table]</text>
<polygon fill="none" stroke="#000000" points="674,-217.2 674,-239.2 771,-239.2 771,-217.2 674,-217.2"/>
<image xlink:href="../../images/primaryKeys.png" width="11px" height="12px" preserveAspectRatio="xMinYMin meet" x="679" y="-234.2"/>
<text text-anchor="start" x="694" y="-224.3" font-family="Helvetica,sans-Serif" font-size="11.00" fill="#000000">id</text>
<polygon fill="#ffffff" stroke="transparent" points="674,-195.2 674,-217.2 771,-217.2 771,-195.2 674,-195.2"/>
<polygon fill="none" stroke="#000000" points="674,-195.2 674,-217.2 771,-217.2 771,-195.2 674,-195.2"/>
<image xlink:href="../../images/foreignKeys.png" width="11px" height="12px" preserveAspectRatio="xMinYMin meet" x="679" y="-212.2"/>
<text text-anchor="start" x="694" y="-202.3" font-family="Helvetica,sans-Serif" font-size="11.00" fill="#000000">location_id</text>
<polygon fill="none" stroke="#000000" points="674,-173.2 674,-195.2 771,-195.2 771,-173.2 674,-173.2"/>
<text text-anchor="start" x="694" y="-180.3" font-family="Helvetica,sans-Serif" font-size="11.00" fill="#000000">hashkey</text>
<polygon fill="none" stroke="#000000" points="674,-151.2 674,-173.2 771,-173.2 771,-151.2 674,-151.2"/>
<text text-anchor="start" x="694" y="-158.3" font-family="Helvetica,sans-Serif" font-size="11.00" fill="#000000">external_id</text>
<polygon fill="none" stroke="#000000" points="674,-129.2 674,-151.2 771,-151.2 771,-129.2 674,-129.2"/>
<text text-anchor="start" x="694" y="-136.3" font-family="Helvetica,sans-Serif" font-size="11.00" fill="#000000">is_active</text>
<polygon fill="none" stroke="#000000" points="674,-107.2 674,-129.2 771,-129.2 771,-107.2 674,-107.2"/>
<text text-anchor="start" x="694" y="-114.3" font-family="Helvetica,sans-Serif" font-size="11.00" fill="#000000">created_at</text>
<polygon fill="none" stroke="#000000" points="674,-85.2 674,-107.2 771,-107.2 771,-85.2 674,-85.2"/>
<text text-anchor="start" x="694" y="-92.3" font-family="Helvetica,sans-Serif" font-size="11.00" fill="#000000">updated_at</text>
<polygon fill="none" stroke="#000000" points="674,-63.2 674,-85.2 771,-85.2 771,-63.2 674,-63.2"/>
<text text-anchor="start" x="694" y="-70.3" font-family="Helvetica,sans-Serif" font-size="11.00" fill="#000000">deleted_at</text>
<polygon fill="#ffffff" stroke="transparent" points="674,-44.2 674,-63.2 721,-63.2 721,-44.2 674,-44.2"/>
<polygon fill="none" stroke="#000000" points="674,-44.2 674,-63.2 721,-63.2 721,-44.2 674,-44.2"/>
<text text-anchor="start" x="677" y="-50.3" font-family="Helvetica,sans-Serif" font-size="11.00" fill="#000000">&lt; 1</text>
<polygon fill="#ffffff" stroke="transparent" points="721,-44.2 721,-63.2 746,-63.2 746,-44.2 721,-44.2"/>
<polygon fill="none" stroke="#000000" points="721,-44.2 721,-63.2 746,-63.2 746,-44.2 721,-44.2"/>
<text text-anchor="start" x="736.8862" y="-50.3" font-family="Helvetica,sans-Serif" font-size="11.00" fill="#000000"> &#160;</text>
<polygon fill="#ffffff" stroke="transparent" points="746,-44.2 746,-63.2 771,-63.2 771,-44.2 746,-44.2"/>
<polygon fill="none" stroke="#000000" points="746,-44.2 746,-63.2 771,-63.2 771,-44.2 746,-44.2"/>
<text text-anchor="start" x="761.8862" y="-50.3" font-family="Helvetica,sans-Serif" font-size="11.00" fill="#000000"> &#160;</text>
</a>
</g>
</g>
<!-- signages&#45;&gt;locations -->
<g id="edge8" class="edge">
<title>signages:w&#45;&gt;locations:e</title>
<path fill="none" stroke="#000000" d="M659.663,-207.8328C629.8483,-215.1063 622.9552,-244.2 585.5,-244.2"/>
<polygon fill="#000000" stroke="#000000" points="666.0514,-207.1053 674.4074,-209.7769 670.0257,-206.6527 674,-206.2 674,-206.2 674,-206.2 670.0257,-206.6527 673.5926,-202.6231 666.0514,-207.1053 666.0514,-207.1053"/>
<ellipse fill="none" stroke="#000000" cx="662.8719" cy="-207.4674" rx="3.2" ry="3.2"/>
</g>
</g>
</svg>
