<?xml version="1.0" encoding="UTF-8" standalone="no"?>
<!DOCTYPE svg PUBLIC "-//W3C//DTD SVG 1.1//EN"
 "http://www.w3.org/Graphics/SVG/1.1/DTD/svg11.dtd">
<!-- Generated by graphviz version 2.40.1 (20161225.0304)
 -->
<!-- Title: largeRelationshipsDiagram Pages: 1 -->
<svg width="267pt" height="268pt"
 viewBox="0.00 0.00 267.00 268.20" xmlns="http://www.w3.org/2000/svg" xmlns:xlink="http://www.w3.org/1999/xlink">
<g id="graph0" class="graph" transform="scale(1 1) rotate(0) translate(4 264.2)">
<title>largeRelationshipsDiagram</title>
<polygon fill="#ffffff" stroke="transparent" points="-4,4 -4,-264.2 263,-264.2 263,4 -4,4"/>
<text text-anchor="middle" x="72.4936" y="-7.3" font-family="Helvetica,sans-Serif" font-size="11.00" fill="#000000">Generated by SchemaSpy</text>
<!-- others -->
<g id="node1" class="node">
<title>others</title>
<g id="a_node1"><a xlink:href="../../tables/others.html" xlink:title="others" target="_top">
<polygon fill="#ffffff" stroke="transparent" points="154,-38.2 154,-256.2 251,-256.2 251,-38.2 154,-38.2"/>
<polygon fill="#f5f5f5" stroke="transparent" points="154.5,-233.2 154.5,-256.2 251.5,-256.2 251.5,-233.2 154.5,-233.2"/>
<polygon fill="none" stroke="#000000" points="154.5,-233.2 154.5,-256.2 251.5,-256.2 251.5,-233.2 154.5,-233.2"/>
<text text-anchor="start" x="159.5" y="-242.3" font-family="Helvetica,sans-Serif" font-weight="bold" font-size="11.00" fill="#000000">others</text>
<text text-anchor="start" x="216.5437" y="-241.3" font-family="Helvetica,sans-Serif" font-size="11.00" fill="#000000">[table]</text>
<polygon fill="none" stroke="#000000" points="154.5,-211.2 154.5,-233.2 251.5,-233.2 251.5,-211.2 154.5,-211.2"/>
<image xlink:href="../../images/primaryKeys.png" width="11px" height="12px" preserveAspectRatio="xMinYMin meet" x="159.5" y="-228.2"/>
<text text-anchor="start" x="174.5" y="-218.3" font-family="Helvetica,sans-Serif" font-size="11.00" fill="#000000">id</text>
<polygon fill="#ffffff" stroke="transparent" points="154.5,-189.2 154.5,-211.2 251.5,-211.2 251.5,-189.2 154.5,-189.2"/>
<polygon fill="none" stroke="#000000" points="154.5,-189.2 154.5,-211.2 251.5,-211.2 251.5,-189.2 154.5,-189.2"/>
<image xlink:href="../../images/foreignKeys.png" width="11px" height="12px" preserveAspectRatio="xMinYMin meet" x="159.5" y="-206.2"/>
<text text-anchor="start" x="174.5" y="-196.3" font-family="Helvetica,sans-Serif" font-size="11.00" fill="#000000">todo_id</text>
<polygon fill="none" stroke="#000000" points="154.5,-167.2 154.5,-189.2 251.5,-189.2 251.5,-167.2 154.5,-167.2"/>
<text text-anchor="start" x="174.5" y="-174.3" font-family="Helvetica,sans-Serif" font-size="11.00" fill="#000000">title</text>
<polygon fill="none" stroke="#000000" points="154.5,-145.2 154.5,-167.2 251.5,-167.2 251.5,-145.2 154.5,-145.2"/>
<text text-anchor="start" x="174.5" y="-152.3" font-family="Helvetica,sans-Serif" font-size="11.00" fill="#000000">description</text>
<polygon fill="none" stroke="#000000" points="154.5,-123.2 154.5,-145.2 251.5,-145.2 251.5,-123.2 154.5,-123.2"/>
<text text-anchor="start" x="174.5" y="-130.3" font-family="Helvetica,sans-Serif" font-size="11.00" fill="#000000">fuga</text>
<polygon fill="none" stroke="#000000" points="154.5,-101.2 154.5,-123.2 251.5,-123.2 251.5,-101.2 154.5,-101.2"/>
<text text-anchor="start" x="174.5" y="-108.3" font-family="Helvetica,sans-Serif" font-size="11.00" fill="#000000">created_at</text>
<polygon fill="none" stroke="#000000" points="154.5,-79.2 154.5,-101.2 251.5,-101.2 251.5,-79.2 154.5,-79.2"/>
<text text-anchor="start" x="174.5" y="-86.3" font-family="Helvetica,sans-Serif" font-size="11.00" fill="#000000">updated_at</text>
<polygon fill="none" stroke="#000000" points="154.5,-57.2 154.5,-79.2 251.5,-79.2 251.5,-57.2 154.5,-57.2"/>
<text text-anchor="start" x="174.5" y="-64.3" font-family="Helvetica,sans-Serif" font-size="11.00" fill="#000000">deleted_at</text>
<polygon fill="#ffffff" stroke="transparent" points="154.5,-38.2 154.5,-57.2 188.5,-57.2 188.5,-38.2 154.5,-38.2"/>
<polygon fill="none" stroke="#000000" points="154.5,-38.2 154.5,-57.2 188.5,-57.2 188.5,-38.2 154.5,-38.2"/>
<text text-anchor="start" x="157.5" y="-44.3" font-family="Helvetica,sans-Serif" font-size="11.00" fill="#000000">&lt; 1</text>
<polygon fill="#ffffff" stroke="transparent" points="188.5,-38.2 188.5,-57.2 232.5,-57.2 232.5,-38.2 188.5,-38.2"/>
<polygon fill="none" stroke="#000000" points="188.5,-38.2 188.5,-57.2 232.5,-57.2 232.5,-38.2 188.5,-38.2"/>
<text text-anchor="start" x="197.1105" y="-44.3" font-family="Helvetica,sans-Serif" font-size="11.00" fill="#000000">0 rows</text>
<polygon fill="#ffffff" stroke="transparent" points="232.5,-38.2 232.5,-57.2 251.5,-57.2 251.5,-38.2 232.5,-38.2"/>
<polygon fill="none" stroke="#000000" points="232.5,-38.2 232.5,-57.2 251.5,-57.2 251.5,-38.2 232.5,-38.2"/>
<text text-anchor="start" x="242.3862" y="-44.3" font-family="Helvetica,sans-Serif" font-size="11.00" fill="#000000"> &#160;</text>
</a>
</g>
</g>
<!-- todo -->
<g id="node2" class="node">
<title>todo</title>
<g id="a_node2"><a xlink:href="../../tables/todo.html" xlink:title="todo" target="_top">
<polygon fill="#ffffff" stroke="transparent" points="8,-60.2 8,-234.2 105,-234.2 105,-60.2 8,-60.2"/>
<polygon fill="#f5f5f5" stroke="transparent" points="8.5,-211.2 8.5,-234.2 105.5,-234.2 105.5,-211.2 8.5,-211.2"/>
<polygon fill="none" stroke="#000000" points="8.5,-211.2 8.5,-234.2 105.5,-234.2 105.5,-211.2 8.5,-211.2"/>
<text text-anchor="start" x="13.5" y="-220.3" font-family="Helvetica,sans-Serif" font-weight="bold" font-size="11.00" fill="#000000">todo</text>
<text text-anchor="start" x="70.5437" y="-219.3" font-family="Helvetica,sans-Serif" font-size="11.00" fill="#000000">[table]</text>
<polygon fill="none" stroke="#000000" points="8.5,-189.2 8.5,-211.2 105.5,-211.2 105.5,-189.2 8.5,-189.2"/>
<image xlink:href="../../images/primaryKeys.png" width="11px" height="12px" preserveAspectRatio="xMinYMin meet" x="13.5" y="-206.2"/>
<text text-anchor="start" x="28.5" y="-196.3" font-family="Helvetica,sans-Serif" font-size="11.00" fill="#000000">id</text>
<polygon fill="none" stroke="#000000" points="8.5,-167.2 8.5,-189.2 105.5,-189.2 105.5,-167.2 8.5,-167.2"/>
<text text-anchor="start" x="28.5" y="-174.3" font-family="Helvetica,sans-Serif" font-size="11.00" fill="#000000">title</text>
<polygon fill="none" stroke="#000000" points="8.5,-145.2 8.5,-167.2 105.5,-167.2 105.5,-145.2 8.5,-145.2"/>
<text text-anchor="start" x="28.5" y="-152.3" font-family="Helvetica,sans-Serif" font-size="11.00" fill="#000000">description</text>
<polygon fill="none" stroke="#000000" points="8.5,-123.2 8.5,-145.2 105.5,-145.2 105.5,-123.2 8.5,-123.2"/>
<text text-anchor="start" x="28.5" y="-130.3" font-family="Helvetica,sans-Serif" font-size="11.00" fill="#000000">created_at</text>
<polygon fill="none" stroke="#000000" points="8.5,-101.2 8.5,-123.2 105.5,-123.2 105.5,-101.2 8.5,-101.2"/>
<text text-anchor="start" x="28.5" y="-108.3" font-family="Helvetica,sans-Serif" font-size="11.00" fill="#000000">updated_at</text>
<polygon fill="none" stroke="#000000" points="8.5,-79.2 8.5,-101.2 105.5,-101.2 105.5,-79.2 8.5,-79.2"/>
<text text-anchor="start" x="28.5" y="-86.3" font-family="Helvetica,sans-Serif" font-size="11.00" fill="#000000">deleted_at</text>
<polygon fill="#ffffff" stroke="transparent" points="8.5,-60.2 8.5,-79.2 33.5,-79.2 33.5,-60.2 8.5,-60.2"/>
<polygon fill="none" stroke="#000000" points="8.5,-60.2 8.5,-79.2 33.5,-79.2 33.5,-60.2 8.5,-60.2"/>
<text text-anchor="start" x="11.5" y="-66.3" font-family="Helvetica,sans-Serif" font-size="11.00" fill="#000000"> &#160;</text>
<polygon fill="#ffffff" stroke="transparent" points="33.5,-60.2 33.5,-79.2 77.5,-79.2 77.5,-60.2 33.5,-60.2"/>
<polygon fill="none" stroke="#000000" points="33.5,-60.2 33.5,-79.2 77.5,-79.2 77.5,-60.2 33.5,-60.2"/>
<text text-anchor="start" x="42.1105" y="-66.3" font-family="Helvetica,sans-Serif" font-size="11.00" fill="#000000">0 rows</text>
<polygon fill="#ffffff" stroke="transparent" points="77.5,-60.2 77.5,-79.2 105.5,-79.2 105.5,-60.2 77.5,-60.2"/>
<polygon fill="none" stroke="#000000" points="77.5,-60.2 77.5,-79.2 105.5,-79.2 105.5,-60.2 77.5,-60.2"/>
<text text-anchor="start" x="86.9053" y="-66.3" font-family="Helvetica,sans-Serif" font-size="11.00" fill="#000000">1 &gt;</text>
</a>
</g>
</g>
<!-- others&#45;&gt;todo -->
<g id="edge1" class="edge">
<title>others:w&#45;&gt;todo:e</title>
<path fill="none" stroke="#000000" d="M139.9909,-200.2C128.6774,-200.2 121.4931,-200.2 105.5,-200.2"/>
<polygon fill="#000000" stroke="#000000" points="146.5,-200.2001 154.5,-203.8 150.5,-200.2 154.5,-200.2 154.5,-200.2 154.5,-200.2 150.5,-200.2 154.5,-196.6 146.5,-200.2001 146.5,-200.2001"/>
<ellipse fill="none" stroke="#000000" cx="143.3" cy="-200.2001" rx="3.2" ry="3.2"/>
</g>
</g>
</svg>
